%TF.GenerationSoftware,KiCad,Pcbnew,8.0.8*%
%TF.CreationDate,2025-05-13T11:21:35+02:00*%
%TF.ProjectId,naevies plate proto split,6e616576-6965-4732-9070-6c6174652070,rev?*%
%TF.SameCoordinates,Original*%
%TF.FileFunction,Profile,NP*%
%FSLAX46Y46*%
G04 Gerber Fmt 4.6, Leading zero omitted, Abs format (unit mm)*
G04 Created by KiCad (PCBNEW 8.0.8) date 2025-05-13 11:21:35*
%MOMM*%
%LPD*%
G01*
G04 APERTURE LIST*
%TA.AperFunction,Profile*%
%ADD10C,0.200000*%
%TD*%
G04 APERTURE END LIST*
D10*
X194825000Y-91281250D02*
G75*
G02*
X192525000Y-91281250I-1150000J0D01*
G01*
X192525000Y-91281250D02*
G75*
G02*
X194825000Y-91281250I1150000J0D01*
G01*
X99575000Y-91281250D02*
G75*
G02*
X97275000Y-91281250I-1150000J0D01*
G01*
X97275000Y-91281250D02*
G75*
G02*
X99575000Y-91281250I1150000J0D01*
G01*
X182746575Y-96971630D02*
X176091775Y-96971630D01*
X152215775Y-93568030D02*
X152215775Y-96971630D01*
X180943175Y-83509630D02*
X180943175Y-84678030D01*
X160480675Y-98281330D02*
X174481675Y-98281330D01*
X182746575Y-96971630D02*
X182756675Y-93580830D01*
X158870575Y-84678030D02*
X157067175Y-84678030D01*
X160480675Y-88981030D02*
X158870575Y-88981030D01*
X151352175Y-93568030D02*
X152215775Y-93568030D01*
X182746575Y-84678030D02*
X182756675Y-90781930D01*
X177895175Y-84678030D02*
X177895175Y-83509630D01*
X160480675Y-84282030D02*
X160480675Y-88981030D01*
X174481675Y-88981030D02*
X174481675Y-84282030D01*
X157067175Y-84678030D02*
X157067175Y-83509630D01*
X176091775Y-88981030D02*
X174481675Y-88981030D01*
X176091775Y-96971630D02*
X176091775Y-93580830D01*
X154019175Y-83509630D02*
X154019175Y-84678030D01*
X151352175Y-90774030D02*
X151352175Y-93568030D01*
X158870575Y-88981030D02*
X158870575Y-84678030D01*
X182756675Y-93580830D02*
X183580675Y-93580830D01*
X174481675Y-98281330D02*
X174481675Y-93580830D01*
X157067175Y-83509630D02*
X154019175Y-83509630D01*
X158870575Y-93580830D02*
X160480675Y-93580830D01*
X152215775Y-90774030D02*
X151352175Y-90774030D01*
X152215775Y-96971630D02*
X158870575Y-96971630D01*
X174481675Y-84282030D02*
X160480675Y-84282030D01*
X174481675Y-93580830D02*
X176091775Y-93580830D01*
X177895175Y-83509630D02*
X180943175Y-83509630D01*
X154019175Y-84678030D02*
X152215775Y-84678030D01*
X180943175Y-84678030D02*
X182746575Y-84678030D01*
X176091775Y-88981030D02*
X176091775Y-84678030D01*
X160480675Y-93580830D02*
X160480675Y-98281330D01*
X158870575Y-96971630D02*
X158870575Y-93580830D01*
X176091775Y-84678030D02*
X177895175Y-84678030D01*
X183580675Y-93580830D02*
X183580675Y-90781930D01*
X183580675Y-90781930D02*
X182756675Y-90781930D01*
X152215775Y-84678030D02*
X152215775Y-90774030D01*
X126856675Y-93580830D02*
X128466775Y-93580830D01*
X109442175Y-83509630D02*
X106394175Y-83509630D01*
X133318175Y-83509630D02*
X133318175Y-84678030D01*
X111245575Y-84678030D02*
X109442175Y-84678030D01*
X104590775Y-93568030D02*
X104590775Y-96971630D01*
X135121575Y-96971630D02*
X135131675Y-93580830D01*
X128466775Y-88981030D02*
X128466775Y-84678030D01*
X135121575Y-96971630D02*
X128466775Y-96971630D01*
X112855675Y-88981030D02*
X111245575Y-88981030D01*
X135131675Y-93580830D02*
X135955675Y-93580830D01*
X112855675Y-98281330D02*
X126856675Y-98281330D01*
X103727175Y-90774030D02*
X103727175Y-93568030D01*
X103727175Y-93568030D02*
X104590775Y-93568030D01*
X135955675Y-90781930D02*
X135131675Y-90781930D01*
X126856675Y-88981030D02*
X126856675Y-84282030D01*
X109442175Y-84678030D02*
X109442175Y-83509630D01*
X128466775Y-88981030D02*
X126856675Y-88981030D01*
X135121575Y-84678030D02*
X135131675Y-90781930D01*
X130270175Y-84678030D02*
X130270175Y-83509630D01*
X112855675Y-84282030D02*
X112855675Y-88981030D01*
X128466775Y-96971630D02*
X128466775Y-93580830D01*
X111245575Y-88981030D02*
X111245575Y-84678030D01*
X106394175Y-83509630D02*
X106394175Y-84678030D01*
X126856675Y-98281330D02*
X126856675Y-93580830D01*
X111245575Y-93580830D02*
X112855675Y-93580830D01*
X104590775Y-90774030D02*
X103727175Y-90774030D01*
X104590775Y-96971630D02*
X111245575Y-96971630D01*
X106394175Y-84678030D02*
X104590775Y-84678030D01*
X130270175Y-83509630D02*
X133318175Y-83509630D01*
X135955675Y-93580830D02*
X135955675Y-90781930D01*
X112855675Y-93580830D02*
X112855675Y-98281330D01*
X133318175Y-84678030D02*
X135121575Y-84678030D01*
X111245575Y-96971630D02*
X111245575Y-93580830D01*
X126856675Y-84282030D02*
X112855675Y-84282030D01*
X128466775Y-84678030D02*
X130270175Y-84678030D01*
X104590775Y-84678030D02*
X104590775Y-90774030D01*
X81899925Y-84281330D02*
X81899925Y-98281330D01*
X72087425Y-84281330D02*
X72087425Y-98281330D01*
X81899925Y-98281330D02*
X95899925Y-98281330D01*
X58087425Y-84281330D02*
X72087425Y-84281330D01*
X81899925Y-84281330D02*
X95899925Y-84281330D01*
X58087425Y-84281330D02*
X58087425Y-98281330D01*
X95899925Y-84281330D02*
X95899925Y-98281330D01*
X58087425Y-98281330D02*
X72087425Y-98281330D01*
X220012425Y-84281330D02*
X234012425Y-84281330D01*
X210199925Y-84281330D02*
X210199925Y-98281330D01*
X196199925Y-84281330D02*
X196199925Y-98281330D01*
X220012425Y-98281330D02*
X234012425Y-98281330D01*
X220012425Y-84281330D02*
X220012425Y-98281330D01*
X196199925Y-98281330D02*
X210199925Y-98281330D01*
X234012425Y-84281330D02*
X234012425Y-98281330D01*
X196199925Y-84281330D02*
X210199925Y-84281330D01*
X260206075Y-50882100D02*
X260206075Y-46181600D01*
X246205075Y-60180900D02*
X260206075Y-60180900D01*
X56712500Y-91281250D02*
G75*
G02*
X54412500Y-91281250I-1150000J0D01*
G01*
X54412500Y-91281250D02*
G75*
G02*
X56712500Y-91281250I1150000J0D01*
G01*
X243537075Y-41130900D02*
X229538075Y-41130900D01*
X33987275Y-27131600D02*
X33987275Y-41130900D01*
X181625075Y-79231100D02*
X167625075Y-79231100D01*
X237106075Y-50882100D02*
X237106075Y-53681000D01*
X264968075Y-65231700D02*
X264968075Y-79231100D01*
X239743575Y-59784900D02*
X237940175Y-59784900D01*
X50300000Y-81756250D02*
G75*
G02*
X50800050Y-82256250I0J-500050D01*
G01*
X219725075Y-65231700D02*
X219725075Y-79231100D01*
X229250075Y-60180900D02*
X215250075Y-60180900D01*
X258113075Y-98281060D02*
X258113075Y-84281600D01*
X171012500Y-34131250D02*
G75*
G02*
X168712500Y-34131250I-1150000J0D01*
G01*
X168712500Y-34131250D02*
G75*
G02*
X171012500Y-34131250I1150000J0D01*
G01*
X43800275Y-60180900D02*
X43800275Y-46181600D01*
X181625075Y-65231700D02*
X181625075Y-79231100D01*
X241300000Y-100306250D02*
G75*
G02*
X240800000Y-100806200I-500000J50D01*
G01*
X33987275Y-98281060D02*
X19987725Y-98281060D01*
X241300000Y-82256250D02*
G75*
G02*
X241800000Y-81756300I500000J-50D01*
G01*
X268470975Y-59784900D02*
X268470975Y-53688900D01*
X153050075Y-46181600D02*
X153050075Y-60180900D01*
X17462500Y-100306250D02*
X17462500Y-25106250D01*
X244594975Y-59784900D02*
X242791575Y-59784900D01*
X200675075Y-65231700D02*
X200675075Y-79231100D01*
X210200075Y-46181600D02*
X210200075Y-60180900D01*
X19987725Y-41130900D02*
X19987725Y-27131600D01*
X110187075Y-27131600D02*
X110187075Y-41130900D01*
X250387500Y-34131250D02*
G75*
G02*
X248087500Y-34131250I-1150000J0D01*
G01*
X248087500Y-34131250D02*
G75*
G02*
X250387500Y-34131250I1150000J0D01*
G01*
X41130975Y-79231100D02*
X27130105Y-79231100D01*
X158100075Y-60180900D02*
X158100075Y-46181600D01*
X186387075Y-41130900D02*
X172388075Y-41130900D01*
X191150075Y-46181600D02*
X191150075Y-60180900D01*
X229538075Y-27131600D02*
X243537075Y-27131600D01*
X50300000Y-81756250D02*
X37012500Y-81756250D01*
X242791575Y-60953300D02*
X239743575Y-60953300D01*
X241300000Y-82256250D02*
X241300000Y-100306250D01*
X57799575Y-46181600D02*
X57799575Y-60180900D01*
X200675075Y-79231100D02*
X186675075Y-79231100D01*
X62850275Y-46181600D02*
X76849575Y-46181600D01*
X105424575Y-65231700D02*
X105424575Y-79231100D01*
X139050075Y-46181600D02*
X153050075Y-46181600D01*
X53325275Y-79231100D02*
X53325275Y-65231700D01*
X148575075Y-79231100D02*
X148575075Y-65231700D01*
X167625075Y-65231700D02*
X181625075Y-65231700D01*
X261816175Y-47491300D02*
X261816175Y-50882100D01*
X17962500Y-100806250D02*
G75*
G02*
X17462450Y-100306250I0J500050D01*
G01*
X61475000Y-53181250D02*
G75*
G02*
X59175000Y-53181250I-1150000J0D01*
G01*
X59175000Y-53181250D02*
G75*
G02*
X61475000Y-53181250I1150000J0D01*
G01*
X266667575Y-59784900D02*
X268470975Y-59784900D01*
X91425275Y-79231100D02*
X91425275Y-65231700D01*
X172100075Y-46181600D02*
X172100075Y-60180900D01*
X67324575Y-65231700D02*
X67324575Y-79231100D01*
X224775075Y-79231100D02*
X224775075Y-65231700D01*
X274637500Y-100306250D02*
G75*
G02*
X274137500Y-100806200I-500000J50D01*
G01*
X261816175Y-50882100D02*
X260206075Y-50882100D01*
X81900275Y-46181600D02*
X95899575Y-46181600D01*
X139050075Y-60180900D02*
X139050075Y-46181600D01*
X209112500Y-34131250D02*
G75*
G02*
X206812500Y-34131250I-1150000J0D01*
G01*
X206812500Y-34131250D02*
G75*
G02*
X209112500Y-34131250I1150000J0D01*
G01*
X266667575Y-60953300D02*
X266667575Y-59784900D01*
X167337075Y-41130900D02*
X153338075Y-41130900D01*
X172388075Y-41130900D02*
X172388075Y-27131600D01*
X246205075Y-46181600D02*
X246205075Y-50882100D01*
X205437075Y-27131600D02*
X205437075Y-41130900D01*
X274137500Y-24606250D02*
G75*
G02*
X274637550Y-25106250I0J-500050D01*
G01*
X39037775Y-27131600D02*
X53037075Y-27131600D01*
X186675075Y-65231700D02*
X200675075Y-65231700D01*
X148287075Y-27131600D02*
X148287075Y-41130900D01*
X91137075Y-27131600D02*
X91137075Y-41130900D01*
X53325275Y-65231700D02*
X67324575Y-65231700D01*
X105424575Y-79231100D02*
X91425275Y-79231100D01*
X100950275Y-60180900D02*
X100950275Y-46181600D01*
X268470975Y-53688900D02*
X269334575Y-53688900D01*
X219725075Y-79231100D02*
X205725075Y-79231100D01*
X96187775Y-27131600D02*
X110187075Y-27131600D01*
X36368475Y-60180900D02*
X22368985Y-60180900D01*
X196200075Y-60180900D02*
X196200075Y-46181600D01*
X213875000Y-53181250D02*
G75*
G02*
X211575000Y-53181250I-1150000J0D01*
G01*
X211575000Y-53181250D02*
G75*
G02*
X213875000Y-53181250I1150000J0D01*
G01*
X134000075Y-60180900D02*
X120000075Y-60180900D01*
X128150000Y-72231250D02*
G75*
G02*
X125850000Y-72231250I-1150000J0D01*
G01*
X125850000Y-72231250D02*
G75*
G02*
X128150000Y-72231250I1150000J0D01*
G01*
X255087500Y-81756250D02*
G75*
G02*
X255587550Y-82256250I0J-500050D01*
G01*
X224487075Y-27131600D02*
X224487075Y-41130900D01*
X129237075Y-27131600D02*
X129237075Y-41130900D01*
X153338075Y-27131600D02*
X167337075Y-27131600D01*
X166250000Y-72231250D02*
G75*
G02*
X163950000Y-72231250I-1150000J0D01*
G01*
X163950000Y-72231250D02*
G75*
G02*
X166250000Y-72231250I1150000J0D01*
G01*
X196200075Y-46181600D02*
X210200075Y-46181600D01*
X134000075Y-46181600D02*
X134000075Y-60180900D01*
X115236375Y-27131600D02*
X129237075Y-27131600D01*
X267350075Y-27131600D02*
X267350075Y-41130900D01*
X80525000Y-91281250D02*
G75*
G02*
X78225000Y-91281250I-1150000J0D01*
G01*
X78225000Y-91281250D02*
G75*
G02*
X80525000Y-91281250I1150000J0D01*
G01*
X253350075Y-41130900D02*
X253350075Y-27131600D01*
X240800000Y-100806250D02*
X51300000Y-100806250D01*
X274137500Y-100806250D02*
X256087500Y-100806250D01*
X51300000Y-100806250D02*
G75*
G02*
X50799950Y-100306250I0J500050D01*
G01*
X205725075Y-79231100D02*
X205725075Y-65231700D01*
X255087500Y-81756250D02*
X241800000Y-81756250D01*
X76849575Y-46181600D02*
X76849575Y-60180900D01*
X268470975Y-47491300D02*
X261816175Y-47491300D01*
X120000075Y-46181600D02*
X134000075Y-46181600D01*
X36012500Y-100806250D02*
X17962500Y-100806250D01*
X215250075Y-46181600D02*
X229250075Y-46181600D01*
X223400000Y-72231250D02*
G75*
G02*
X221100000Y-72231250I-1150000J0D01*
G01*
X221100000Y-72231250D02*
G75*
G02*
X223400000Y-72231250I1150000J0D01*
G01*
X33987275Y-84281600D02*
X33987275Y-98281060D01*
X229538075Y-41130900D02*
X229538075Y-27131600D01*
X167337075Y-27131600D02*
X167337075Y-41130900D01*
X50800000Y-100306250D02*
X50800000Y-82256250D01*
X148575075Y-65231700D02*
X162575075Y-65231700D01*
X77137775Y-41130900D02*
X77137775Y-27131600D01*
X244594975Y-47491300D02*
X244594975Y-50882100D01*
X261816175Y-55481900D02*
X261816175Y-59784900D01*
X96187775Y-41130900D02*
X96187775Y-27131600D01*
X162575075Y-79231100D02*
X148575075Y-79231100D01*
X186387075Y-27131600D02*
X186387075Y-41130900D01*
X250969075Y-65231700D02*
X264968075Y-65231700D01*
X124475075Y-79231100D02*
X110475275Y-79231100D01*
X19987725Y-98281060D02*
X19987725Y-84281600D01*
X272112075Y-98281060D02*
X258113075Y-98281060D01*
X224487075Y-41130900D02*
X210488075Y-41130900D01*
X258113075Y-84281600D02*
X272112075Y-84281600D01*
X253350075Y-27131600D02*
X267350075Y-27131600D01*
X242791575Y-59784900D02*
X242791575Y-60953300D01*
X71000000Y-72231250D02*
G75*
G02*
X68700000Y-72231250I-1150000J0D01*
G01*
X68700000Y-72231250D02*
G75*
G02*
X71000000Y-72231250I1150000J0D01*
G01*
X177150075Y-60180900D02*
X177150075Y-46181600D01*
X110475275Y-79231100D02*
X110475275Y-65231700D01*
X162575075Y-65231700D02*
X162575075Y-79231100D01*
X167625075Y-79231100D02*
X167625075Y-65231700D01*
X250969075Y-79231100D02*
X250969075Y-65231700D01*
X129237075Y-41130900D02*
X115236375Y-41130900D01*
X53037075Y-27131600D02*
X53037075Y-41130900D01*
X43800275Y-46181600D02*
X57799575Y-46181600D01*
X27130105Y-79231100D02*
X27130105Y-65231700D01*
X255587500Y-100306250D02*
X255587500Y-82256250D01*
X25756250Y-72231250D02*
G75*
G02*
X23456250Y-72231250I-1150000J0D01*
G01*
X23456250Y-72231250D02*
G75*
G02*
X25756250Y-72231250I1150000J0D01*
G01*
X75762500Y-34131250D02*
G75*
G02*
X73462500Y-34131250I-1150000J0D01*
G01*
X73462500Y-34131250D02*
G75*
G02*
X75762500Y-34131250I1150000J0D01*
G01*
X260206075Y-60180900D02*
X260206075Y-55481900D01*
X72087075Y-27131600D02*
X72087075Y-41130900D01*
X224775075Y-65231700D02*
X238775075Y-65231700D01*
X205437075Y-41130900D02*
X191438075Y-41130900D01*
X238775075Y-65231700D02*
X238775075Y-79231100D01*
X158100075Y-46181600D02*
X172100075Y-46181600D01*
X99575000Y-53181250D02*
G75*
G02*
X97275000Y-53181250I-1150000J0D01*
G01*
X97275000Y-53181250D02*
G75*
G02*
X99575000Y-53181250I1150000J0D01*
G01*
X237940175Y-59784900D02*
X237930075Y-53681000D01*
X256087500Y-100806250D02*
G75*
G02*
X255587450Y-100306250I0J500050D01*
G01*
X36512500Y-82256250D02*
X36512500Y-100306250D01*
X153050075Y-60180900D02*
X139050075Y-60180900D01*
X72375275Y-65231700D02*
X86374575Y-65231700D01*
X172388075Y-27131600D02*
X186387075Y-27131600D01*
X58087775Y-27131600D02*
X72087075Y-27131600D01*
X17962500Y-24606250D02*
X274137500Y-24606250D01*
X272112075Y-84281600D02*
X272112075Y-98281060D01*
X244594975Y-55481900D02*
X246205075Y-55481900D01*
X37662500Y-34131250D02*
G75*
G02*
X35362500Y-34131250I-1150000J0D01*
G01*
X35362500Y-34131250D02*
G75*
G02*
X37662500Y-34131250I1150000J0D01*
G01*
X177150075Y-46181600D02*
X191150075Y-46181600D01*
X129525075Y-65231700D02*
X143525075Y-65231700D01*
X72087075Y-41130900D02*
X58087775Y-41130900D01*
X263619575Y-59784900D02*
X263619575Y-60953300D01*
X113862500Y-34131250D02*
G75*
G02*
X111562500Y-34131250I-1150000J0D01*
G01*
X111562500Y-34131250D02*
G75*
G02*
X113862500Y-34131250I1150000J0D01*
G01*
X91425275Y-65231700D02*
X105424575Y-65231700D01*
X238775075Y-79231100D02*
X224775075Y-79231100D01*
X269334575Y-53688900D02*
X269334575Y-50894900D01*
X260206075Y-46181600D02*
X246205075Y-46181600D01*
X237930075Y-50882100D02*
X237106075Y-50882100D01*
X269334575Y-50894900D02*
X268470975Y-50894900D01*
X22368985Y-60180900D02*
X22368985Y-46181600D01*
X86374575Y-79231100D02*
X72375275Y-79231100D01*
X237106075Y-53681000D02*
X237930075Y-53681000D01*
X237940175Y-47491300D02*
X244594975Y-47491300D01*
X191150075Y-60180900D02*
X177150075Y-60180900D01*
X260206075Y-55481900D02*
X261816175Y-55481900D01*
X134286075Y-41130900D02*
X134286075Y-27131600D01*
X213875000Y-91281250D02*
G75*
G02*
X211575000Y-91281250I-1150000J0D01*
G01*
X211575000Y-91281250D02*
G75*
G02*
X213875000Y-91281250I1150000J0D01*
G01*
X95899575Y-46181600D02*
X95899575Y-60180900D01*
X95899575Y-60180900D02*
X81900275Y-60180900D01*
X175775000Y-53181250D02*
G75*
G02*
X173475000Y-53181250I-1150000J0D01*
G01*
X173475000Y-53181250D02*
G75*
G02*
X175775000Y-53181250I1150000J0D01*
G01*
X264968075Y-79231100D02*
X250969075Y-79231100D01*
X17462500Y-25106250D02*
G75*
G02*
X17962500Y-24606250I500000J0D01*
G01*
X246205075Y-55481900D02*
X246205075Y-60180900D01*
X91137075Y-41130900D02*
X77137775Y-41130900D01*
X143525075Y-79231100D02*
X129525075Y-79231100D01*
X137675000Y-53181250D02*
G75*
G02*
X135375000Y-53181250I-1150000J0D01*
G01*
X135375000Y-53181250D02*
G75*
G02*
X137675000Y-53181250I1150000J0D01*
G01*
X210200075Y-60180900D02*
X196200075Y-60180900D01*
X237687500Y-91281250D02*
G75*
G02*
X235387500Y-91281250I-1150000J0D01*
G01*
X235387500Y-91281250D02*
G75*
G02*
X237687500Y-91281250I1150000J0D01*
G01*
X39037775Y-41130900D02*
X39037775Y-27131600D01*
X81900275Y-60180900D02*
X81900275Y-46181600D01*
X120000075Y-60180900D02*
X120000075Y-46181600D01*
X114949575Y-60180900D02*
X100950275Y-60180900D01*
X153338075Y-41130900D02*
X153338075Y-27131600D01*
X124475075Y-65231700D02*
X124475075Y-79231100D01*
X58087775Y-41130900D02*
X58087775Y-27131600D01*
X33987275Y-41130900D02*
X19987725Y-41130900D01*
X86374575Y-65231700D02*
X86374575Y-79231100D01*
X210488075Y-27131600D02*
X224487075Y-27131600D01*
X267350075Y-41130900D02*
X253350075Y-41130900D01*
X186675075Y-79231100D02*
X186675075Y-65231700D01*
X19987725Y-27131600D02*
X33987275Y-27131600D01*
X19987725Y-84281600D02*
X33987275Y-84281600D01*
X244594975Y-55481900D02*
X244594975Y-59784900D01*
X191438075Y-27131600D02*
X205437075Y-27131600D01*
X191438075Y-41130900D02*
X191438075Y-27131600D01*
X57799575Y-60180900D02*
X43800275Y-60180900D01*
X27130105Y-65231700D02*
X41130975Y-65231700D01*
X172100075Y-60180900D02*
X158100075Y-60180900D01*
X210488075Y-41130900D02*
X210488075Y-27131600D01*
X129525075Y-79231100D02*
X129525075Y-65231700D01*
X134286075Y-27131600D02*
X148287075Y-27131600D01*
X237940175Y-47491300D02*
X237930075Y-50882100D01*
X215250075Y-60180900D02*
X215250075Y-46181600D01*
X110187075Y-41130900D02*
X96187775Y-41130900D01*
X77137775Y-27131600D02*
X91137075Y-27131600D01*
X76849575Y-60180900D02*
X62850275Y-60180900D01*
X53037075Y-41130900D02*
X39037775Y-41130900D01*
X261816175Y-59784900D02*
X263619575Y-59784900D01*
X36512500Y-82256250D02*
G75*
G02*
X37012500Y-81756300I500000J-50D01*
G01*
X67324575Y-79231100D02*
X53325275Y-79231100D01*
X263619575Y-60953300D02*
X266667575Y-60953300D01*
X274637500Y-25106250D02*
X274637500Y-100306250D01*
X243537075Y-27131600D02*
X243537075Y-41130900D01*
X268470975Y-50894900D02*
X268470975Y-47491300D01*
X36368475Y-46181600D02*
X36368475Y-60180900D01*
X62850275Y-60180900D02*
X62850275Y-46181600D01*
X148287075Y-41130900D02*
X134286075Y-41130900D01*
X115236375Y-41130900D02*
X115236375Y-27131600D01*
X110475275Y-65231700D02*
X124475075Y-65231700D01*
X229250075Y-46181600D02*
X229250075Y-60180900D01*
X100950275Y-46181600D02*
X114949575Y-46181600D01*
X41130975Y-65231700D02*
X41130975Y-79231100D01*
X22368985Y-46181600D02*
X36368475Y-46181600D01*
X239743575Y-60953300D02*
X239743575Y-59784900D01*
X246205075Y-50882100D02*
X244594975Y-50882100D01*
X36512500Y-100306250D02*
G75*
G02*
X36012500Y-100806200I-500000J50D01*
G01*
X268643750Y-72231250D02*
G75*
G02*
X266343750Y-72231250I-1150000J0D01*
G01*
X266343750Y-72231250D02*
G75*
G02*
X268643750Y-72231250I1150000J0D01*
G01*
X72375275Y-79231100D02*
X72375275Y-65231700D01*
X143525075Y-65231700D02*
X143525075Y-79231100D01*
X114949575Y-46181600D02*
X114949575Y-60180900D01*
X205725075Y-65231700D02*
X219725075Y-65231700D01*
M02*
