%TF.GenerationSoftware,KiCad,Pcbnew,8.0.8*%
%TF.CreationDate,2025-02-20T19:46:03+01:00*%
%TF.ProjectId,naevies plate,6e616576-6965-4732-9070-6c6174652e6b,rev?*%
%TF.SameCoordinates,Original*%
%TF.FileFunction,Copper,L1,Top*%
%TF.FilePolarity,Positive*%
%FSLAX46Y46*%
G04 Gerber Fmt 4.6, Leading zero omitted, Abs format (unit mm)*
G04 Created by KiCad (PCBNEW 8.0.8) date 2025-02-20 19:46:03*
%MOMM*%
%LPD*%
G01*
G04 APERTURE LIST*
G04 APERTURE END LIST*
%TA.AperFunction,Conductor*%
%TO.N,GND*%
G36*
X274139522Y-24606316D02*
G01*
X274142717Y-24606420D01*
X274188786Y-24607922D01*
X274216828Y-24612080D01*
X274313911Y-24638092D01*
X274343809Y-24650476D01*
X274343815Y-24650479D01*
X274429070Y-24699697D01*
X274454747Y-24719397D01*
X274524369Y-24789012D01*
X274544072Y-24814687D01*
X274593302Y-24899943D01*
X274605691Y-24929846D01*
X274631697Y-25026869D01*
X274635862Y-25055011D01*
X274637437Y-25104277D01*
X274637500Y-25108239D01*
X274637500Y-100304210D01*
X274637434Y-100308268D01*
X274635821Y-100357530D01*
X274631659Y-100385575D01*
X274605644Y-100482634D01*
X274593255Y-100512538D01*
X274544032Y-100597781D01*
X274524326Y-100623460D01*
X274454720Y-100693059D01*
X274429039Y-100712762D01*
X274343793Y-100761975D01*
X274313889Y-100774361D01*
X274216780Y-100800380D01*
X274188827Y-100804536D01*
X274145876Y-100805970D01*
X274139564Y-100806181D01*
X274135430Y-100806250D01*
X256089519Y-100806250D01*
X256085477Y-100806184D01*
X256081785Y-100806063D01*
X256036216Y-100804577D01*
X256008167Y-100800418D01*
X255911091Y-100774408D01*
X255881187Y-100762022D01*
X255795929Y-100712802D01*
X255770251Y-100693101D01*
X255700629Y-100623486D01*
X255680927Y-100597812D01*
X255631697Y-100512556D01*
X255619309Y-100482656D01*
X255593301Y-100385623D01*
X255589137Y-100357491D01*
X255587651Y-100310977D01*
X255587563Y-100308220D01*
X255587500Y-100304260D01*
X255587500Y-98281060D01*
X258113075Y-98281060D01*
X272112075Y-98281060D01*
X272112075Y-84281600D01*
X258113075Y-84281600D01*
X258113075Y-98281060D01*
X255587500Y-98281060D01*
X255587500Y-82256260D01*
X255587500Y-82256250D01*
X255585355Y-82190710D01*
X255551418Y-82064098D01*
X255485870Y-81950583D01*
X255485868Y-81950581D01*
X255485866Y-81950578D01*
X255393179Y-81857900D01*
X255373380Y-81846470D01*
X255279656Y-81792363D01*
X255279653Y-81792362D01*
X255279649Y-81792360D01*
X255153043Y-81758438D01*
X255120270Y-81757344D01*
X255087500Y-81756250D01*
X255087497Y-81756250D01*
X241799998Y-81756250D01*
X241734451Y-81758388D01*
X241607831Y-81792313D01*
X241607827Y-81792315D01*
X241607825Y-81792315D01*
X241607825Y-81792316D01*
X241607744Y-81792363D01*
X241494289Y-81857860D01*
X241401593Y-81950547D01*
X241401588Y-81950554D01*
X241336035Y-82064078D01*
X241302095Y-82190701D01*
X241300000Y-82256258D01*
X241300000Y-100304210D01*
X241299934Y-100308268D01*
X241298321Y-100357530D01*
X241294159Y-100385575D01*
X241268144Y-100482634D01*
X241255755Y-100512538D01*
X241206532Y-100597781D01*
X241186826Y-100623460D01*
X241117220Y-100693059D01*
X241091539Y-100712762D01*
X241006293Y-100761975D01*
X240976389Y-100774361D01*
X240879280Y-100800380D01*
X240851327Y-100804536D01*
X240808376Y-100805970D01*
X240802064Y-100806181D01*
X240797930Y-100806250D01*
X51302019Y-100806250D01*
X51297977Y-100806184D01*
X51294285Y-100806063D01*
X51248716Y-100804577D01*
X51220667Y-100800418D01*
X51123591Y-100774408D01*
X51093687Y-100762022D01*
X51008429Y-100712802D01*
X50982751Y-100693101D01*
X50913129Y-100623486D01*
X50893427Y-100597812D01*
X50844197Y-100512556D01*
X50831809Y-100482656D01*
X50805801Y-100385623D01*
X50801637Y-100357491D01*
X50800151Y-100310977D01*
X50800063Y-100308220D01*
X50800000Y-100304260D01*
X50800000Y-98281060D01*
X58087775Y-98281060D01*
X72087075Y-98281060D01*
X220013075Y-98281060D01*
X234012075Y-98281060D01*
X234012075Y-91174914D01*
X235389953Y-91174914D01*
X235389953Y-91387586D01*
X235429031Y-91596637D01*
X235505856Y-91794944D01*
X235505858Y-91794950D01*
X235617808Y-91975755D01*
X235617814Y-91975764D01*
X235761090Y-92132931D01*
X235930806Y-92261094D01*
X236028389Y-92309684D01*
X236121171Y-92355885D01*
X236121175Y-92355886D01*
X236121182Y-92355890D01*
X236325735Y-92414091D01*
X236537499Y-92433714D01*
X236537500Y-92433714D01*
X236537501Y-92433714D01*
X236608088Y-92427173D01*
X236749265Y-92414091D01*
X236953818Y-92355890D01*
X237144194Y-92261094D01*
X237313910Y-92132931D01*
X237457186Y-91975764D01*
X237569143Y-91794947D01*
X237645969Y-91596637D01*
X237685047Y-91387586D01*
X237687500Y-91281250D01*
X237685047Y-91174914D01*
X237645969Y-90965863D01*
X237569143Y-90767553D01*
X237457186Y-90586736D01*
X237313910Y-90429569D01*
X237144194Y-90301406D01*
X236953828Y-90206614D01*
X236953815Y-90206609D01*
X236884317Y-90186835D01*
X236749265Y-90148409D01*
X236643382Y-90138598D01*
X236537501Y-90128787D01*
X236537499Y-90128787D01*
X236325735Y-90148409D01*
X236121184Y-90206609D01*
X236121171Y-90206614D01*
X235930805Y-90301406D01*
X235761091Y-90429568D01*
X235761090Y-90429569D01*
X235617814Y-90586736D01*
X235617812Y-90586737D01*
X235617810Y-90586741D01*
X235617808Y-90586744D01*
X235505858Y-90767549D01*
X235505856Y-90767555D01*
X235477614Y-90840454D01*
X235429031Y-90965863D01*
X235389953Y-91174914D01*
X234012075Y-91174914D01*
X234012075Y-84281600D01*
X220013075Y-84281600D01*
X220013075Y-98281060D01*
X72087075Y-98281060D01*
X72087075Y-91174914D01*
X78227453Y-91174914D01*
X78227453Y-91387586D01*
X78266531Y-91596637D01*
X78343356Y-91794944D01*
X78343358Y-91794950D01*
X78455308Y-91975755D01*
X78455314Y-91975764D01*
X78598590Y-92132931D01*
X78768306Y-92261094D01*
X78865889Y-92309684D01*
X78958671Y-92355885D01*
X78958675Y-92355886D01*
X78958682Y-92355890D01*
X79163235Y-92414091D01*
X79374999Y-92433714D01*
X79375000Y-92433714D01*
X79375001Y-92433714D01*
X79445588Y-92427173D01*
X79586765Y-92414091D01*
X79791318Y-92355890D01*
X79981694Y-92261094D01*
X80151410Y-92132931D01*
X80294686Y-91975764D01*
X80406643Y-91794947D01*
X80483469Y-91596637D01*
X80522547Y-91387586D01*
X80525000Y-91281250D01*
X80522547Y-91174914D01*
X80483469Y-90965863D01*
X80412100Y-90781640D01*
X84699925Y-90781640D01*
X84699925Y-93580400D01*
X85401925Y-93580400D01*
X85468964Y-93600085D01*
X85514719Y-93652889D01*
X85525925Y-93704400D01*
X85525925Y-96810600D01*
X87125925Y-96810600D01*
X87192964Y-96830285D01*
X87238719Y-96883089D01*
X87249925Y-96934600D01*
X87249925Y-97732500D01*
X90549925Y-97732500D01*
X90549925Y-96934600D01*
X90569610Y-96867561D01*
X90622414Y-96821806D01*
X90673925Y-96810600D01*
X92275925Y-96810600D01*
X92275925Y-93704400D01*
X92295610Y-93637361D01*
X92348414Y-93591606D01*
X92399925Y-93580400D01*
X138925925Y-93580400D01*
X138992964Y-93600085D01*
X139038719Y-93652889D01*
X139049925Y-93704400D01*
X139049925Y-98280900D01*
X153049925Y-98280900D01*
X153049925Y-93704400D01*
X153069610Y-93637361D01*
X153122414Y-93591606D01*
X153173925Y-93580400D01*
X199701925Y-93580400D01*
X199768964Y-93600085D01*
X199814719Y-93652889D01*
X199825925Y-93704400D01*
X199825925Y-96810600D01*
X201425925Y-96810600D01*
X201492964Y-96830285D01*
X201538719Y-96883089D01*
X201549925Y-96934600D01*
X201549925Y-97732500D01*
X204850225Y-97732500D01*
X204850225Y-96934600D01*
X204869910Y-96867561D01*
X204922714Y-96821806D01*
X204974225Y-96810600D01*
X206575625Y-96810600D01*
X206575625Y-93704400D01*
X206595310Y-93637361D01*
X206648114Y-93591606D01*
X206699625Y-93580400D01*
X207401125Y-93580400D01*
X207401125Y-91174914D01*
X211577453Y-91174914D01*
X211577453Y-91387586D01*
X211616531Y-91596637D01*
X211693356Y-91794944D01*
X211693358Y-91794950D01*
X211805308Y-91975755D01*
X211805314Y-91975764D01*
X211948590Y-92132931D01*
X212118306Y-92261094D01*
X212215889Y-92309684D01*
X212308671Y-92355885D01*
X212308675Y-92355886D01*
X212308682Y-92355890D01*
X212513235Y-92414091D01*
X212724999Y-92433714D01*
X212725000Y-92433714D01*
X212725001Y-92433714D01*
X212795588Y-92427173D01*
X212936765Y-92414091D01*
X213141318Y-92355890D01*
X213331694Y-92261094D01*
X213501410Y-92132931D01*
X213644686Y-91975764D01*
X213756643Y-91794947D01*
X213833469Y-91596637D01*
X213872547Y-91387586D01*
X213875000Y-91281250D01*
X213872547Y-91174914D01*
X213833469Y-90965863D01*
X213756643Y-90767553D01*
X213644686Y-90586736D01*
X213501410Y-90429569D01*
X213331694Y-90301406D01*
X213141328Y-90206614D01*
X213141315Y-90206609D01*
X213071817Y-90186835D01*
X212936765Y-90148409D01*
X212830882Y-90138598D01*
X212725001Y-90128787D01*
X212724999Y-90128787D01*
X212513235Y-90148409D01*
X212308684Y-90206609D01*
X212308671Y-90206614D01*
X212118305Y-90301406D01*
X211948591Y-90429568D01*
X211948590Y-90429569D01*
X211805314Y-90586736D01*
X211805312Y-90586737D01*
X211805310Y-90586741D01*
X211805308Y-90586744D01*
X211693358Y-90767549D01*
X211693356Y-90767555D01*
X211665114Y-90840454D01*
X211616531Y-90965863D01*
X211577453Y-91174914D01*
X207401125Y-91174914D01*
X207401125Y-90781640D01*
X206699625Y-90781640D01*
X206632586Y-90761955D01*
X206586831Y-90709151D01*
X206575625Y-90657640D01*
X206575625Y-84511570D01*
X204974225Y-84511570D01*
X204907186Y-84491885D01*
X204861431Y-84439081D01*
X204850225Y-84387570D01*
X204850225Y-83530410D01*
X201549925Y-83530410D01*
X201549925Y-84387570D01*
X201530240Y-84454609D01*
X201477436Y-84500364D01*
X201425925Y-84511570D01*
X199825925Y-84511570D01*
X199825925Y-88856530D01*
X199806240Y-88923569D01*
X199753436Y-88969324D01*
X199701925Y-88980530D01*
X153173925Y-88980530D01*
X153106886Y-88960845D01*
X153061131Y-88908041D01*
X153049925Y-88856530D01*
X153049925Y-84281440D01*
X139049925Y-84281440D01*
X139049925Y-88856530D01*
X139030240Y-88923569D01*
X138977436Y-88969324D01*
X138925925Y-88980530D01*
X92399925Y-88980530D01*
X92332886Y-88960845D01*
X92287131Y-88908041D01*
X92275925Y-88856530D01*
X92275925Y-84511570D01*
X90673925Y-84511570D01*
X90606886Y-84491885D01*
X90561131Y-84439081D01*
X90549925Y-84387570D01*
X90549925Y-83530410D01*
X87249925Y-83530410D01*
X87249925Y-84387570D01*
X87230240Y-84454609D01*
X87177436Y-84500364D01*
X87125925Y-84511570D01*
X85525925Y-84511570D01*
X85525925Y-90657640D01*
X85506240Y-90724679D01*
X85453436Y-90770434D01*
X85401925Y-90781640D01*
X84699925Y-90781640D01*
X80412100Y-90781640D01*
X80406643Y-90767553D01*
X80294686Y-90586736D01*
X80151410Y-90429569D01*
X79981694Y-90301406D01*
X79791328Y-90206614D01*
X79791315Y-90206609D01*
X79721817Y-90186835D01*
X79586765Y-90148409D01*
X79480882Y-90138598D01*
X79375001Y-90128787D01*
X79374999Y-90128787D01*
X79163235Y-90148409D01*
X78958684Y-90206609D01*
X78958671Y-90206614D01*
X78768305Y-90301406D01*
X78598591Y-90429568D01*
X78598590Y-90429569D01*
X78455314Y-90586736D01*
X78455312Y-90586737D01*
X78455310Y-90586741D01*
X78455308Y-90586744D01*
X78343358Y-90767549D01*
X78343356Y-90767555D01*
X78315114Y-90840454D01*
X78266531Y-90965863D01*
X78227453Y-91174914D01*
X72087075Y-91174914D01*
X72087075Y-84281600D01*
X58087775Y-84281600D01*
X58087775Y-98281060D01*
X50800000Y-98281060D01*
X50800000Y-91174914D01*
X54414953Y-91174914D01*
X54414953Y-91387586D01*
X54454031Y-91596637D01*
X54530856Y-91794944D01*
X54530858Y-91794950D01*
X54642808Y-91975755D01*
X54642814Y-91975764D01*
X54786090Y-92132931D01*
X54955806Y-92261094D01*
X55053389Y-92309684D01*
X55146171Y-92355885D01*
X55146175Y-92355886D01*
X55146182Y-92355890D01*
X55350735Y-92414091D01*
X55562499Y-92433714D01*
X55562500Y-92433714D01*
X55562501Y-92433714D01*
X55633088Y-92427173D01*
X55774265Y-92414091D01*
X55978818Y-92355890D01*
X56169194Y-92261094D01*
X56338910Y-92132931D01*
X56482186Y-91975764D01*
X56594143Y-91794947D01*
X56670969Y-91596637D01*
X56710047Y-91387586D01*
X56712500Y-91281250D01*
X56710047Y-91174914D01*
X56670969Y-90965863D01*
X56594143Y-90767553D01*
X56482186Y-90586736D01*
X56338910Y-90429569D01*
X56169194Y-90301406D01*
X55978828Y-90206614D01*
X55978815Y-90206609D01*
X55909317Y-90186835D01*
X55774265Y-90148409D01*
X55668382Y-90138598D01*
X55562501Y-90128787D01*
X55562499Y-90128787D01*
X55350735Y-90148409D01*
X55146184Y-90206609D01*
X55146171Y-90206614D01*
X54955805Y-90301406D01*
X54786091Y-90429568D01*
X54786090Y-90429569D01*
X54642814Y-90586736D01*
X54642812Y-90586737D01*
X54642810Y-90586741D01*
X54642808Y-90586744D01*
X54530858Y-90767549D01*
X54530856Y-90767555D01*
X54502614Y-90840454D01*
X54454031Y-90965863D01*
X54414953Y-91174914D01*
X50800000Y-91174914D01*
X50800000Y-82256260D01*
X50800000Y-82256250D01*
X50797855Y-82190710D01*
X50763918Y-82064098D01*
X50698370Y-81950583D01*
X50698368Y-81950581D01*
X50698366Y-81950578D01*
X50605679Y-81857900D01*
X50585880Y-81846470D01*
X50492156Y-81792363D01*
X50492153Y-81792362D01*
X50492149Y-81792360D01*
X50365543Y-81758438D01*
X50332770Y-81757344D01*
X50300000Y-81756250D01*
X50299997Y-81756250D01*
X37012498Y-81756250D01*
X36946951Y-81758388D01*
X36820331Y-81792313D01*
X36820327Y-81792315D01*
X36820325Y-81792315D01*
X36820325Y-81792316D01*
X36820244Y-81792363D01*
X36706789Y-81857860D01*
X36614093Y-81950547D01*
X36614088Y-81950554D01*
X36548535Y-82064078D01*
X36514595Y-82190701D01*
X36512500Y-82256258D01*
X36512500Y-100304210D01*
X36512434Y-100308268D01*
X36510821Y-100357530D01*
X36506659Y-100385575D01*
X36480644Y-100482634D01*
X36468255Y-100512538D01*
X36419032Y-100597781D01*
X36399326Y-100623460D01*
X36329720Y-100693059D01*
X36304039Y-100712762D01*
X36218793Y-100761975D01*
X36188889Y-100774361D01*
X36091780Y-100800380D01*
X36063827Y-100804536D01*
X36020876Y-100805970D01*
X36014564Y-100806181D01*
X36010430Y-100806250D01*
X17964519Y-100806250D01*
X17960477Y-100806184D01*
X17956785Y-100806063D01*
X17911216Y-100804577D01*
X17883167Y-100800418D01*
X17786091Y-100774408D01*
X17756187Y-100762022D01*
X17670929Y-100712802D01*
X17645251Y-100693101D01*
X17575629Y-100623486D01*
X17555927Y-100597812D01*
X17506697Y-100512556D01*
X17494309Y-100482656D01*
X17468301Y-100385623D01*
X17464137Y-100357491D01*
X17462651Y-100310977D01*
X17462563Y-100308220D01*
X17462500Y-100304260D01*
X17462500Y-98281060D01*
X19987725Y-98281060D01*
X33987275Y-98281060D01*
X33987275Y-84281600D01*
X19987725Y-84281600D01*
X19987725Y-98281060D01*
X17462500Y-98281060D01*
X17462500Y-79231100D01*
X27130105Y-79231100D01*
X41130975Y-79231100D01*
X53325275Y-79231100D01*
X67324575Y-79231100D01*
X72375275Y-79231100D01*
X86374575Y-79231100D01*
X91425275Y-79231100D01*
X105424575Y-79231100D01*
X110475275Y-79231100D01*
X124475075Y-79231100D01*
X129525075Y-79231100D01*
X143525075Y-79231100D01*
X148575075Y-79231100D01*
X162575075Y-79231100D01*
X167625075Y-79231100D01*
X181625075Y-79231100D01*
X186675075Y-79231100D01*
X200675075Y-79231100D01*
X205725075Y-79231100D01*
X219725075Y-79231100D01*
X224775075Y-79231100D01*
X238775075Y-79231100D01*
X250969075Y-79231100D01*
X264968075Y-79231100D01*
X264968075Y-72124914D01*
X266346203Y-72124914D01*
X266346203Y-72337586D01*
X266385281Y-72546637D01*
X266462106Y-72744944D01*
X266462108Y-72744950D01*
X266574058Y-72925755D01*
X266574064Y-72925764D01*
X266717340Y-73082931D01*
X266887056Y-73211094D01*
X266984639Y-73259684D01*
X267077421Y-73305885D01*
X267077425Y-73305886D01*
X267077432Y-73305890D01*
X267281985Y-73364091D01*
X267493749Y-73383714D01*
X267493750Y-73383714D01*
X267493751Y-73383714D01*
X267564338Y-73377173D01*
X267705515Y-73364091D01*
X267910068Y-73305890D01*
X268100444Y-73211094D01*
X268270160Y-73082931D01*
X268413436Y-72925764D01*
X268525393Y-72744947D01*
X268602219Y-72546637D01*
X268641297Y-72337586D01*
X268643750Y-72231250D01*
X268641297Y-72124914D01*
X268602219Y-71915863D01*
X268525393Y-71717553D01*
X268413436Y-71536736D01*
X268270160Y-71379569D01*
X268100444Y-71251406D01*
X267910078Y-71156614D01*
X267910065Y-71156609D01*
X267840567Y-71136835D01*
X267705515Y-71098409D01*
X267599632Y-71088598D01*
X267493751Y-71078787D01*
X267493749Y-71078787D01*
X267281985Y-71098409D01*
X267077434Y-71156609D01*
X267077421Y-71156614D01*
X266887055Y-71251406D01*
X266717341Y-71379568D01*
X266717340Y-71379569D01*
X266574064Y-71536736D01*
X266574062Y-71536737D01*
X266574060Y-71536741D01*
X266574058Y-71536744D01*
X266462108Y-71717549D01*
X266462107Y-71717553D01*
X266385281Y-71915863D01*
X266346203Y-72124914D01*
X264968075Y-72124914D01*
X264968075Y-65231700D01*
X250969075Y-65231700D01*
X250969075Y-79231100D01*
X238775075Y-79231100D01*
X238775075Y-65231700D01*
X224775075Y-65231700D01*
X224775075Y-79231100D01*
X219725075Y-79231100D01*
X219725075Y-72124914D01*
X221102453Y-72124914D01*
X221102453Y-72337586D01*
X221141531Y-72546637D01*
X221218356Y-72744944D01*
X221218358Y-72744950D01*
X221330308Y-72925755D01*
X221330314Y-72925764D01*
X221473590Y-73082931D01*
X221643306Y-73211094D01*
X221740889Y-73259684D01*
X221833671Y-73305885D01*
X221833675Y-73305886D01*
X221833682Y-73305890D01*
X222038235Y-73364091D01*
X222249999Y-73383714D01*
X222250000Y-73383714D01*
X222250001Y-73383714D01*
X222320588Y-73377173D01*
X222461765Y-73364091D01*
X222666318Y-73305890D01*
X222856694Y-73211094D01*
X223026410Y-73082931D01*
X223169686Y-72925764D01*
X223281643Y-72744947D01*
X223358469Y-72546637D01*
X223397547Y-72337586D01*
X223400000Y-72231250D01*
X223397547Y-72124914D01*
X223358469Y-71915863D01*
X223281643Y-71717553D01*
X223169686Y-71536736D01*
X223026410Y-71379569D01*
X222856694Y-71251406D01*
X222666328Y-71156614D01*
X222666315Y-71156609D01*
X222596817Y-71136835D01*
X222461765Y-71098409D01*
X222355882Y-71088598D01*
X222250001Y-71078787D01*
X222249999Y-71078787D01*
X222038235Y-71098409D01*
X221833684Y-71156609D01*
X221833671Y-71156614D01*
X221643305Y-71251406D01*
X221473591Y-71379568D01*
X221473590Y-71379569D01*
X221330314Y-71536736D01*
X221330312Y-71536737D01*
X221330310Y-71536741D01*
X221330308Y-71536744D01*
X221218358Y-71717549D01*
X221218357Y-71717553D01*
X221141531Y-71915863D01*
X221102453Y-72124914D01*
X219725075Y-72124914D01*
X219725075Y-65231700D01*
X205725075Y-65231700D01*
X205725075Y-79231100D01*
X200675075Y-79231100D01*
X200675075Y-65231700D01*
X186675075Y-65231700D01*
X186675075Y-79231100D01*
X181625075Y-79231100D01*
X181625075Y-65231700D01*
X167625075Y-65231700D01*
X167625075Y-79231100D01*
X162575075Y-79231100D01*
X162575075Y-72124914D01*
X163952453Y-72124914D01*
X163952453Y-72337586D01*
X163991531Y-72546637D01*
X164068356Y-72744944D01*
X164068358Y-72744950D01*
X164180308Y-72925755D01*
X164180314Y-72925764D01*
X164323590Y-73082931D01*
X164493306Y-73211094D01*
X164590889Y-73259684D01*
X164683671Y-73305885D01*
X164683675Y-73305886D01*
X164683682Y-73305890D01*
X164888235Y-73364091D01*
X165099999Y-73383714D01*
X165100000Y-73383714D01*
X165100001Y-73383714D01*
X165170588Y-73377173D01*
X165311765Y-73364091D01*
X165516318Y-73305890D01*
X165706694Y-73211094D01*
X165876410Y-73082931D01*
X166019686Y-72925764D01*
X166131643Y-72744947D01*
X166208469Y-72546637D01*
X166247547Y-72337586D01*
X166250000Y-72231250D01*
X166247547Y-72124914D01*
X166208469Y-71915863D01*
X166131643Y-71717553D01*
X166019686Y-71536736D01*
X165876410Y-71379569D01*
X165706694Y-71251406D01*
X165516328Y-71156614D01*
X165516315Y-71156609D01*
X165446817Y-71136835D01*
X165311765Y-71098409D01*
X165205882Y-71088598D01*
X165100001Y-71078787D01*
X165099999Y-71078787D01*
X164888235Y-71098409D01*
X164683684Y-71156609D01*
X164683671Y-71156614D01*
X164493305Y-71251406D01*
X164323591Y-71379568D01*
X164323590Y-71379569D01*
X164180314Y-71536736D01*
X164180312Y-71536737D01*
X164180310Y-71536741D01*
X164180308Y-71536744D01*
X164068358Y-71717549D01*
X164068357Y-71717553D01*
X163991531Y-71915863D01*
X163952453Y-72124914D01*
X162575075Y-72124914D01*
X162575075Y-65231700D01*
X148575075Y-65231700D01*
X148575075Y-79231100D01*
X143525075Y-79231100D01*
X143525075Y-65231700D01*
X129525075Y-65231700D01*
X129525075Y-79231100D01*
X124475075Y-79231100D01*
X124475075Y-72124914D01*
X125852453Y-72124914D01*
X125852453Y-72337586D01*
X125891531Y-72546637D01*
X125968356Y-72744944D01*
X125968358Y-72744950D01*
X126080308Y-72925755D01*
X126080314Y-72925764D01*
X126223590Y-73082931D01*
X126393306Y-73211094D01*
X126490889Y-73259684D01*
X126583671Y-73305885D01*
X126583675Y-73305886D01*
X126583682Y-73305890D01*
X126788235Y-73364091D01*
X126999999Y-73383714D01*
X127000000Y-73383714D01*
X127000001Y-73383714D01*
X127070588Y-73377173D01*
X127211765Y-73364091D01*
X127416318Y-73305890D01*
X127606694Y-73211094D01*
X127776410Y-73082931D01*
X127919686Y-72925764D01*
X128031643Y-72744947D01*
X128108469Y-72546637D01*
X128147547Y-72337586D01*
X128150000Y-72231250D01*
X128147547Y-72124914D01*
X128108469Y-71915863D01*
X128031643Y-71717553D01*
X127919686Y-71536736D01*
X127776410Y-71379569D01*
X127606694Y-71251406D01*
X127416328Y-71156614D01*
X127416315Y-71156609D01*
X127346817Y-71136835D01*
X127211765Y-71098409D01*
X127105882Y-71088598D01*
X127000001Y-71078787D01*
X126999999Y-71078787D01*
X126788235Y-71098409D01*
X126583684Y-71156609D01*
X126583671Y-71156614D01*
X126393305Y-71251406D01*
X126223591Y-71379568D01*
X126223590Y-71379569D01*
X126080314Y-71536736D01*
X126080312Y-71536737D01*
X126080310Y-71536741D01*
X126080308Y-71536744D01*
X125968358Y-71717549D01*
X125968357Y-71717553D01*
X125891531Y-71915863D01*
X125852453Y-72124914D01*
X124475075Y-72124914D01*
X124475075Y-65231700D01*
X110475275Y-65231700D01*
X110475275Y-79231100D01*
X105424575Y-79231100D01*
X105424575Y-65231700D01*
X91425275Y-65231700D01*
X91425275Y-79231100D01*
X86374575Y-79231100D01*
X86374575Y-65231700D01*
X72375275Y-65231700D01*
X72375275Y-79231100D01*
X67324575Y-79231100D01*
X67324575Y-72124914D01*
X68702453Y-72124914D01*
X68702453Y-72337586D01*
X68741531Y-72546637D01*
X68818356Y-72744944D01*
X68818358Y-72744950D01*
X68930308Y-72925755D01*
X68930314Y-72925764D01*
X69073590Y-73082931D01*
X69243306Y-73211094D01*
X69340889Y-73259684D01*
X69433671Y-73305885D01*
X69433675Y-73305886D01*
X69433682Y-73305890D01*
X69638235Y-73364091D01*
X69849999Y-73383714D01*
X69850000Y-73383714D01*
X69850001Y-73383714D01*
X69920588Y-73377173D01*
X70061765Y-73364091D01*
X70266318Y-73305890D01*
X70456694Y-73211094D01*
X70626410Y-73082931D01*
X70769686Y-72925764D01*
X70881643Y-72744947D01*
X70958469Y-72546637D01*
X70997547Y-72337586D01*
X71000000Y-72231250D01*
X70997547Y-72124914D01*
X70958469Y-71915863D01*
X70881643Y-71717553D01*
X70769686Y-71536736D01*
X70626410Y-71379569D01*
X70456694Y-71251406D01*
X70266328Y-71156614D01*
X70266315Y-71156609D01*
X70196817Y-71136835D01*
X70061765Y-71098409D01*
X69955882Y-71088598D01*
X69850001Y-71078787D01*
X69849999Y-71078787D01*
X69638235Y-71098409D01*
X69433684Y-71156609D01*
X69433671Y-71156614D01*
X69243305Y-71251406D01*
X69073591Y-71379568D01*
X69073590Y-71379569D01*
X68930314Y-71536736D01*
X68930312Y-71536737D01*
X68930310Y-71536741D01*
X68930308Y-71536744D01*
X68818358Y-71717549D01*
X68818357Y-71717553D01*
X68741531Y-71915863D01*
X68702453Y-72124914D01*
X67324575Y-72124914D01*
X67324575Y-65231700D01*
X53325275Y-65231700D01*
X53325275Y-79231100D01*
X41130975Y-79231100D01*
X41130975Y-65231700D01*
X27130105Y-65231700D01*
X27130105Y-79231100D01*
X17462500Y-79231100D01*
X17462500Y-72124914D01*
X23458703Y-72124914D01*
X23458703Y-72337586D01*
X23497781Y-72546637D01*
X23574606Y-72744944D01*
X23574608Y-72744950D01*
X23686558Y-72925755D01*
X23686564Y-72925764D01*
X23829840Y-73082931D01*
X23999556Y-73211094D01*
X24097139Y-73259684D01*
X24189921Y-73305885D01*
X24189925Y-73305886D01*
X24189932Y-73305890D01*
X24394485Y-73364091D01*
X24606249Y-73383714D01*
X24606250Y-73383714D01*
X24606251Y-73383714D01*
X24676838Y-73377173D01*
X24818015Y-73364091D01*
X25022568Y-73305890D01*
X25212944Y-73211094D01*
X25382660Y-73082931D01*
X25525936Y-72925764D01*
X25637893Y-72744947D01*
X25714719Y-72546637D01*
X25753797Y-72337586D01*
X25756250Y-72231250D01*
X25753797Y-72124914D01*
X25714719Y-71915863D01*
X25637893Y-71717553D01*
X25525936Y-71536736D01*
X25382660Y-71379569D01*
X25212944Y-71251406D01*
X25022578Y-71156614D01*
X25022565Y-71156609D01*
X24953067Y-71136835D01*
X24818015Y-71098409D01*
X24712132Y-71088598D01*
X24606251Y-71078787D01*
X24606249Y-71078787D01*
X24394485Y-71098409D01*
X24189934Y-71156609D01*
X24189921Y-71156614D01*
X23999555Y-71251406D01*
X23829841Y-71379568D01*
X23829840Y-71379569D01*
X23686564Y-71536736D01*
X23686562Y-71536737D01*
X23686560Y-71536741D01*
X23686558Y-71536744D01*
X23574608Y-71717549D01*
X23574607Y-71717553D01*
X23497781Y-71915863D01*
X23458703Y-72124914D01*
X17462500Y-72124914D01*
X17462500Y-60180900D01*
X22368985Y-60180900D01*
X36368475Y-60180900D01*
X43800275Y-60180900D01*
X57799575Y-60180900D01*
X62850275Y-60180900D01*
X76849575Y-60180900D01*
X81900275Y-60180900D01*
X95899575Y-60180900D01*
X100950275Y-60180900D01*
X114949575Y-60180900D01*
X120000075Y-60180900D01*
X134000075Y-60180900D01*
X139050075Y-60180900D01*
X153050075Y-60180900D01*
X158100075Y-60180900D01*
X172100075Y-60180900D01*
X177150075Y-60180900D01*
X191150075Y-60180900D01*
X196200075Y-60180900D01*
X210200075Y-60180900D01*
X215250075Y-60180900D01*
X229250075Y-60180900D01*
X229250075Y-50882100D01*
X237106075Y-50882100D01*
X237106075Y-53681000D01*
X237806075Y-53681000D01*
X237873114Y-53700685D01*
X237918869Y-53753489D01*
X237930075Y-53805000D01*
X237930075Y-59950900D01*
X239531075Y-59950900D01*
X239598114Y-59970585D01*
X239643869Y-60023389D01*
X239655075Y-60074900D01*
X239655075Y-60932000D01*
X242956075Y-60932000D01*
X242956075Y-60074900D01*
X242975760Y-60007861D01*
X243028564Y-59962106D01*
X243080075Y-59950900D01*
X244681075Y-59950900D01*
X244681075Y-55605900D01*
X244700760Y-55538861D01*
X244753564Y-55493106D01*
X244805075Y-55481900D01*
X246081075Y-55481900D01*
X246148114Y-55501585D01*
X246193869Y-55554389D01*
X246205075Y-55605900D01*
X246205075Y-60180900D01*
X260206075Y-60180900D01*
X260206075Y-55605900D01*
X260225760Y-55538861D01*
X260278564Y-55493106D01*
X260330075Y-55481900D01*
X261606075Y-55481900D01*
X261673114Y-55501585D01*
X261718869Y-55554389D01*
X261730075Y-55605900D01*
X261730075Y-59950900D01*
X263331075Y-59950900D01*
X263398114Y-59970585D01*
X263443869Y-60023389D01*
X263455075Y-60074900D01*
X263455075Y-60932000D01*
X266756075Y-60932000D01*
X266756075Y-60074900D01*
X266775760Y-60007861D01*
X266828564Y-59962106D01*
X266880075Y-59950900D01*
X268480075Y-59950900D01*
X268480075Y-53805000D01*
X268499760Y-53737961D01*
X268552564Y-53692206D01*
X268604075Y-53681000D01*
X269305075Y-53681000D01*
X269305075Y-50882100D01*
X268604075Y-50882100D01*
X268537036Y-50862415D01*
X268491281Y-50809611D01*
X268480075Y-50758100D01*
X268480075Y-47652000D01*
X266880075Y-47652000D01*
X266813036Y-47632315D01*
X266767281Y-47579511D01*
X266756075Y-47528000D01*
X266756075Y-46731300D01*
X263455075Y-46731300D01*
X263455075Y-47528000D01*
X263435390Y-47595039D01*
X263382586Y-47640794D01*
X263331075Y-47652000D01*
X261730075Y-47652000D01*
X261730075Y-50758100D01*
X261710390Y-50825139D01*
X261657586Y-50870894D01*
X261606075Y-50882100D01*
X260330075Y-50882100D01*
X260263036Y-50862415D01*
X260217281Y-50809611D01*
X260206075Y-50758100D01*
X260206075Y-46181600D01*
X246205075Y-46181600D01*
X246205075Y-50758100D01*
X246185390Y-50825139D01*
X246132586Y-50870894D01*
X246081075Y-50882100D01*
X244805075Y-50882100D01*
X244738036Y-50862415D01*
X244692281Y-50809611D01*
X244681075Y-50758100D01*
X244681075Y-47652000D01*
X243080075Y-47652000D01*
X243013036Y-47632315D01*
X242967281Y-47579511D01*
X242956075Y-47528000D01*
X242956075Y-46731300D01*
X239655075Y-46731300D01*
X239655075Y-47528000D01*
X239635390Y-47595039D01*
X239582586Y-47640794D01*
X239531075Y-47652000D01*
X237930075Y-47652000D01*
X237930075Y-50758100D01*
X237910390Y-50825139D01*
X237857586Y-50870894D01*
X237806075Y-50882100D01*
X237106075Y-50882100D01*
X229250075Y-50882100D01*
X229250075Y-46181600D01*
X215250075Y-46181600D01*
X215250075Y-60180900D01*
X210200075Y-60180900D01*
X210200075Y-53074914D01*
X211577453Y-53074914D01*
X211577453Y-53287586D01*
X211616531Y-53496637D01*
X211687954Y-53681000D01*
X211693356Y-53694944D01*
X211693358Y-53694950D01*
X211805308Y-53875755D01*
X211805314Y-53875764D01*
X211948590Y-54032931D01*
X212118306Y-54161094D01*
X212215889Y-54209684D01*
X212308671Y-54255885D01*
X212308675Y-54255886D01*
X212308682Y-54255890D01*
X212513235Y-54314091D01*
X212724999Y-54333714D01*
X212725000Y-54333714D01*
X212725001Y-54333714D01*
X212795588Y-54327173D01*
X212936765Y-54314091D01*
X213141318Y-54255890D01*
X213331694Y-54161094D01*
X213501410Y-54032931D01*
X213644686Y-53875764D01*
X213756643Y-53694947D01*
X213833469Y-53496637D01*
X213872547Y-53287586D01*
X213875000Y-53181250D01*
X213872547Y-53074914D01*
X213833469Y-52865863D01*
X213756643Y-52667553D01*
X213644686Y-52486736D01*
X213501410Y-52329569D01*
X213331694Y-52201406D01*
X213141328Y-52106614D01*
X213141315Y-52106609D01*
X213071817Y-52086835D01*
X212936765Y-52048409D01*
X212830882Y-52038598D01*
X212725001Y-52028787D01*
X212724999Y-52028787D01*
X212513235Y-52048409D01*
X212308684Y-52106609D01*
X212308671Y-52106614D01*
X212118305Y-52201406D01*
X211948591Y-52329568D01*
X211948590Y-52329569D01*
X211805314Y-52486736D01*
X211805312Y-52486737D01*
X211805310Y-52486741D01*
X211805308Y-52486744D01*
X211693358Y-52667549D01*
X211693357Y-52667553D01*
X211616531Y-52865863D01*
X211577453Y-53074914D01*
X210200075Y-53074914D01*
X210200075Y-46181600D01*
X196200075Y-46181600D01*
X196200075Y-60180900D01*
X191150075Y-60180900D01*
X191150075Y-46181600D01*
X177150075Y-46181600D01*
X177150075Y-60180900D01*
X172100075Y-60180900D01*
X172100075Y-53074914D01*
X173477453Y-53074914D01*
X173477453Y-53287586D01*
X173516531Y-53496637D01*
X173587954Y-53681000D01*
X173593356Y-53694944D01*
X173593358Y-53694950D01*
X173705308Y-53875755D01*
X173705314Y-53875764D01*
X173848590Y-54032931D01*
X174018306Y-54161094D01*
X174115889Y-54209684D01*
X174208671Y-54255885D01*
X174208675Y-54255886D01*
X174208682Y-54255890D01*
X174413235Y-54314091D01*
X174624999Y-54333714D01*
X174625000Y-54333714D01*
X174625001Y-54333714D01*
X174695588Y-54327173D01*
X174836765Y-54314091D01*
X175041318Y-54255890D01*
X175231694Y-54161094D01*
X175401410Y-54032931D01*
X175544686Y-53875764D01*
X175656643Y-53694947D01*
X175733469Y-53496637D01*
X175772547Y-53287586D01*
X175775000Y-53181250D01*
X175772547Y-53074914D01*
X175733469Y-52865863D01*
X175656643Y-52667553D01*
X175544686Y-52486736D01*
X175401410Y-52329569D01*
X175231694Y-52201406D01*
X175041328Y-52106614D01*
X175041315Y-52106609D01*
X174971817Y-52086835D01*
X174836765Y-52048409D01*
X174730882Y-52038598D01*
X174625001Y-52028787D01*
X174624999Y-52028787D01*
X174413235Y-52048409D01*
X174208684Y-52106609D01*
X174208671Y-52106614D01*
X174018305Y-52201406D01*
X173848591Y-52329568D01*
X173848590Y-52329569D01*
X173705314Y-52486736D01*
X173705312Y-52486737D01*
X173705310Y-52486741D01*
X173705308Y-52486744D01*
X173593358Y-52667549D01*
X173593357Y-52667553D01*
X173516531Y-52865863D01*
X173477453Y-53074914D01*
X172100075Y-53074914D01*
X172100075Y-46181600D01*
X158100075Y-46181600D01*
X158100075Y-60180900D01*
X153050075Y-60180900D01*
X153050075Y-46181600D01*
X139050075Y-46181600D01*
X139050075Y-60180900D01*
X134000075Y-60180900D01*
X134000075Y-53074914D01*
X135377453Y-53074914D01*
X135377453Y-53287586D01*
X135416531Y-53496637D01*
X135487954Y-53681000D01*
X135493356Y-53694944D01*
X135493358Y-53694950D01*
X135605308Y-53875755D01*
X135605314Y-53875764D01*
X135748590Y-54032931D01*
X135918306Y-54161094D01*
X136015889Y-54209684D01*
X136108671Y-54255885D01*
X136108675Y-54255886D01*
X136108682Y-54255890D01*
X136313235Y-54314091D01*
X136524999Y-54333714D01*
X136525000Y-54333714D01*
X136525001Y-54333714D01*
X136595588Y-54327173D01*
X136736765Y-54314091D01*
X136941318Y-54255890D01*
X137131694Y-54161094D01*
X137301410Y-54032931D01*
X137444686Y-53875764D01*
X137556643Y-53694947D01*
X137633469Y-53496637D01*
X137672547Y-53287586D01*
X137675000Y-53181250D01*
X137672547Y-53074914D01*
X137633469Y-52865863D01*
X137556643Y-52667553D01*
X137444686Y-52486736D01*
X137301410Y-52329569D01*
X137131694Y-52201406D01*
X136941328Y-52106614D01*
X136941315Y-52106609D01*
X136871817Y-52086835D01*
X136736765Y-52048409D01*
X136630882Y-52038598D01*
X136525001Y-52028787D01*
X136524999Y-52028787D01*
X136313235Y-52048409D01*
X136108684Y-52106609D01*
X136108671Y-52106614D01*
X135918305Y-52201406D01*
X135748591Y-52329568D01*
X135748590Y-52329569D01*
X135605314Y-52486736D01*
X135605312Y-52486737D01*
X135605310Y-52486741D01*
X135605308Y-52486744D01*
X135493358Y-52667549D01*
X135493357Y-52667553D01*
X135416531Y-52865863D01*
X135377453Y-53074914D01*
X134000075Y-53074914D01*
X134000075Y-46181600D01*
X120000075Y-46181600D01*
X120000075Y-60180900D01*
X114949575Y-60180900D01*
X114949575Y-46181600D01*
X100950275Y-46181600D01*
X100950275Y-60180900D01*
X95899575Y-60180900D01*
X95899575Y-53074914D01*
X97277453Y-53074914D01*
X97277453Y-53287586D01*
X97316531Y-53496637D01*
X97387954Y-53681000D01*
X97393356Y-53694944D01*
X97393358Y-53694950D01*
X97505308Y-53875755D01*
X97505314Y-53875764D01*
X97648590Y-54032931D01*
X97818306Y-54161094D01*
X97915889Y-54209684D01*
X98008671Y-54255885D01*
X98008675Y-54255886D01*
X98008682Y-54255890D01*
X98213235Y-54314091D01*
X98424999Y-54333714D01*
X98425000Y-54333714D01*
X98425001Y-54333714D01*
X98495588Y-54327173D01*
X98636765Y-54314091D01*
X98841318Y-54255890D01*
X99031694Y-54161094D01*
X99201410Y-54032931D01*
X99344686Y-53875764D01*
X99456643Y-53694947D01*
X99533469Y-53496637D01*
X99572547Y-53287586D01*
X99575000Y-53181250D01*
X99572547Y-53074914D01*
X99533469Y-52865863D01*
X99456643Y-52667553D01*
X99344686Y-52486736D01*
X99201410Y-52329569D01*
X99031694Y-52201406D01*
X98841328Y-52106614D01*
X98841315Y-52106609D01*
X98771817Y-52086835D01*
X98636765Y-52048409D01*
X98530882Y-52038598D01*
X98425001Y-52028787D01*
X98424999Y-52028787D01*
X98213235Y-52048409D01*
X98008684Y-52106609D01*
X98008671Y-52106614D01*
X97818305Y-52201406D01*
X97648591Y-52329568D01*
X97648590Y-52329569D01*
X97505314Y-52486736D01*
X97505312Y-52486737D01*
X97505310Y-52486741D01*
X97505308Y-52486744D01*
X97393358Y-52667549D01*
X97393357Y-52667553D01*
X97316531Y-52865863D01*
X97277453Y-53074914D01*
X95899575Y-53074914D01*
X95899575Y-46181600D01*
X81900275Y-46181600D01*
X81900275Y-60180900D01*
X76849575Y-60180900D01*
X76849575Y-46181600D01*
X62850275Y-46181600D01*
X62850275Y-60180900D01*
X57799575Y-60180900D01*
X57799575Y-53074914D01*
X59177453Y-53074914D01*
X59177453Y-53287586D01*
X59216531Y-53496637D01*
X59287954Y-53681000D01*
X59293356Y-53694944D01*
X59293358Y-53694950D01*
X59405308Y-53875755D01*
X59405314Y-53875764D01*
X59548590Y-54032931D01*
X59718306Y-54161094D01*
X59815889Y-54209684D01*
X59908671Y-54255885D01*
X59908675Y-54255886D01*
X59908682Y-54255890D01*
X60113235Y-54314091D01*
X60324999Y-54333714D01*
X60325000Y-54333714D01*
X60325001Y-54333714D01*
X60395588Y-54327173D01*
X60536765Y-54314091D01*
X60741318Y-54255890D01*
X60931694Y-54161094D01*
X61101410Y-54032931D01*
X61244686Y-53875764D01*
X61356643Y-53694947D01*
X61433469Y-53496637D01*
X61472547Y-53287586D01*
X61475000Y-53181250D01*
X61472547Y-53074914D01*
X61433469Y-52865863D01*
X61356643Y-52667553D01*
X61244686Y-52486736D01*
X61101410Y-52329569D01*
X60931694Y-52201406D01*
X60741328Y-52106614D01*
X60741315Y-52106609D01*
X60671817Y-52086835D01*
X60536765Y-52048409D01*
X60430882Y-52038598D01*
X60325001Y-52028787D01*
X60324999Y-52028787D01*
X60113235Y-52048409D01*
X59908684Y-52106609D01*
X59908671Y-52106614D01*
X59718305Y-52201406D01*
X59548591Y-52329568D01*
X59548590Y-52329569D01*
X59405314Y-52486736D01*
X59405312Y-52486737D01*
X59405310Y-52486741D01*
X59405308Y-52486744D01*
X59293358Y-52667549D01*
X59293357Y-52667553D01*
X59216531Y-52865863D01*
X59177453Y-53074914D01*
X57799575Y-53074914D01*
X57799575Y-46181600D01*
X43800275Y-46181600D01*
X43800275Y-60180900D01*
X36368475Y-60180900D01*
X36368475Y-46181600D01*
X22368985Y-46181600D01*
X22368985Y-60180900D01*
X17462500Y-60180900D01*
X17462500Y-53074914D01*
X18696203Y-53074914D01*
X18696203Y-53287586D01*
X18735281Y-53496637D01*
X18806704Y-53681000D01*
X18812106Y-53694944D01*
X18812108Y-53694950D01*
X18924058Y-53875755D01*
X18924064Y-53875764D01*
X19067340Y-54032931D01*
X19237056Y-54161094D01*
X19334639Y-54209684D01*
X19427421Y-54255885D01*
X19427425Y-54255886D01*
X19427432Y-54255890D01*
X19631985Y-54314091D01*
X19843749Y-54333714D01*
X19843750Y-54333714D01*
X19843751Y-54333714D01*
X19914338Y-54327173D01*
X20055515Y-54314091D01*
X20260068Y-54255890D01*
X20450444Y-54161094D01*
X20620160Y-54032931D01*
X20763436Y-53875764D01*
X20875393Y-53694947D01*
X20952219Y-53496637D01*
X20991297Y-53287586D01*
X20993750Y-53181250D01*
X20991297Y-53074914D01*
X20952219Y-52865863D01*
X20875393Y-52667553D01*
X20763436Y-52486736D01*
X20620160Y-52329569D01*
X20450444Y-52201406D01*
X20260078Y-52106614D01*
X20260065Y-52106609D01*
X20190567Y-52086835D01*
X20055515Y-52048409D01*
X19949632Y-52038598D01*
X19843751Y-52028787D01*
X19843749Y-52028787D01*
X19631985Y-52048409D01*
X19427434Y-52106609D01*
X19427421Y-52106614D01*
X19237055Y-52201406D01*
X19067341Y-52329568D01*
X19067340Y-52329569D01*
X18924064Y-52486736D01*
X18924062Y-52486737D01*
X18924060Y-52486741D01*
X18924058Y-52486744D01*
X18812108Y-52667549D01*
X18812107Y-52667553D01*
X18735281Y-52865863D01*
X18696203Y-53074914D01*
X17462500Y-53074914D01*
X17462500Y-41130900D01*
X19987725Y-41130900D01*
X33987275Y-41130900D01*
X39037775Y-41130900D01*
X53037075Y-41130900D01*
X58087775Y-41130900D01*
X72087075Y-41130900D01*
X77137775Y-41130900D01*
X91137075Y-41130900D01*
X96187775Y-41130900D01*
X110187075Y-41130900D01*
X115236375Y-41130900D01*
X129237075Y-41130900D01*
X134286075Y-41130900D01*
X148287075Y-41130900D01*
X153338075Y-41130900D01*
X167337075Y-41130900D01*
X172388075Y-41130900D01*
X186387075Y-41130900D01*
X191438075Y-41130900D01*
X205437075Y-41130900D01*
X210488075Y-41130900D01*
X224487075Y-41130900D01*
X229538075Y-41130900D01*
X243537075Y-41130900D01*
X253350075Y-41130900D01*
X267350075Y-41130900D01*
X267350075Y-34024914D01*
X271902453Y-34024914D01*
X271902453Y-34237586D01*
X271941531Y-34446637D01*
X272018356Y-34644944D01*
X272018358Y-34644950D01*
X272130308Y-34825755D01*
X272130314Y-34825764D01*
X272273590Y-34982931D01*
X272443306Y-35111094D01*
X272540889Y-35159684D01*
X272633671Y-35205885D01*
X272633675Y-35205886D01*
X272633682Y-35205890D01*
X272838235Y-35264091D01*
X273049999Y-35283714D01*
X273050000Y-35283714D01*
X273050001Y-35283714D01*
X273120588Y-35277173D01*
X273261765Y-35264091D01*
X273466318Y-35205890D01*
X273656694Y-35111094D01*
X273826410Y-34982931D01*
X273969686Y-34825764D01*
X274081643Y-34644947D01*
X274158469Y-34446637D01*
X274197547Y-34237586D01*
X274200000Y-34131250D01*
X274197547Y-34024914D01*
X274158469Y-33815863D01*
X274081643Y-33617553D01*
X273969686Y-33436736D01*
X273826410Y-33279569D01*
X273656694Y-33151406D01*
X273466328Y-33056614D01*
X273466315Y-33056609D01*
X273396817Y-33036835D01*
X273261765Y-32998409D01*
X273155882Y-32988598D01*
X273050001Y-32978787D01*
X273049999Y-32978787D01*
X272838235Y-32998409D01*
X272633684Y-33056609D01*
X272633671Y-33056614D01*
X272443305Y-33151406D01*
X272273591Y-33279568D01*
X272273590Y-33279569D01*
X272130314Y-33436736D01*
X272130312Y-33436737D01*
X272130310Y-33436741D01*
X272130308Y-33436744D01*
X272018358Y-33617549D01*
X272018357Y-33617553D01*
X271941531Y-33815863D01*
X271902453Y-34024914D01*
X267350075Y-34024914D01*
X267350075Y-27131600D01*
X253350075Y-27131600D01*
X253350075Y-41130900D01*
X243537075Y-41130900D01*
X243537075Y-34024914D01*
X248089953Y-34024914D01*
X248089953Y-34237586D01*
X248129031Y-34446637D01*
X248205856Y-34644944D01*
X248205858Y-34644950D01*
X248317808Y-34825755D01*
X248317814Y-34825764D01*
X248461090Y-34982931D01*
X248630806Y-35111094D01*
X248728389Y-35159684D01*
X248821171Y-35205885D01*
X248821175Y-35205886D01*
X248821182Y-35205890D01*
X249025735Y-35264091D01*
X249237499Y-35283714D01*
X249237500Y-35283714D01*
X249237501Y-35283714D01*
X249308088Y-35277173D01*
X249449265Y-35264091D01*
X249653818Y-35205890D01*
X249844194Y-35111094D01*
X250013910Y-34982931D01*
X250157186Y-34825764D01*
X250269143Y-34644947D01*
X250345969Y-34446637D01*
X250385047Y-34237586D01*
X250387500Y-34131250D01*
X250385047Y-34024914D01*
X250345969Y-33815863D01*
X250269143Y-33617553D01*
X250157186Y-33436736D01*
X250013910Y-33279569D01*
X249844194Y-33151406D01*
X249653828Y-33056614D01*
X249653815Y-33056609D01*
X249584317Y-33036835D01*
X249449265Y-32998409D01*
X249343382Y-32988598D01*
X249237501Y-32978787D01*
X249237499Y-32978787D01*
X249025735Y-32998409D01*
X248821184Y-33056609D01*
X248821171Y-33056614D01*
X248630805Y-33151406D01*
X248461091Y-33279568D01*
X248461090Y-33279569D01*
X248317814Y-33436736D01*
X248317812Y-33436737D01*
X248317810Y-33436741D01*
X248317808Y-33436744D01*
X248205858Y-33617549D01*
X248205857Y-33617553D01*
X248129031Y-33815863D01*
X248089953Y-34024914D01*
X243537075Y-34024914D01*
X243537075Y-27131600D01*
X229538075Y-27131600D01*
X229538075Y-41130900D01*
X224487075Y-41130900D01*
X224487075Y-27131600D01*
X210488075Y-27131600D01*
X210488075Y-41130900D01*
X205437075Y-41130900D01*
X205437075Y-34024914D01*
X206814953Y-34024914D01*
X206814953Y-34237586D01*
X206854031Y-34446637D01*
X206930856Y-34644944D01*
X206930858Y-34644950D01*
X207042808Y-34825755D01*
X207042814Y-34825764D01*
X207186090Y-34982931D01*
X207355806Y-35111094D01*
X207453389Y-35159684D01*
X207546171Y-35205885D01*
X207546175Y-35205886D01*
X207546182Y-35205890D01*
X207750735Y-35264091D01*
X207962499Y-35283714D01*
X207962500Y-35283714D01*
X207962501Y-35283714D01*
X208033088Y-35277173D01*
X208174265Y-35264091D01*
X208378818Y-35205890D01*
X208569194Y-35111094D01*
X208738910Y-34982931D01*
X208882186Y-34825764D01*
X208994143Y-34644947D01*
X209070969Y-34446637D01*
X209110047Y-34237586D01*
X209112500Y-34131250D01*
X209110047Y-34024914D01*
X209070969Y-33815863D01*
X208994143Y-33617553D01*
X208882186Y-33436736D01*
X208738910Y-33279569D01*
X208569194Y-33151406D01*
X208378828Y-33056614D01*
X208378815Y-33056609D01*
X208309317Y-33036835D01*
X208174265Y-32998409D01*
X208068382Y-32988598D01*
X207962501Y-32978787D01*
X207962499Y-32978787D01*
X207750735Y-32998409D01*
X207546184Y-33056609D01*
X207546171Y-33056614D01*
X207355805Y-33151406D01*
X207186091Y-33279568D01*
X207186090Y-33279569D01*
X207042814Y-33436736D01*
X207042812Y-33436737D01*
X207042810Y-33436741D01*
X207042808Y-33436744D01*
X206930858Y-33617549D01*
X206930857Y-33617553D01*
X206854031Y-33815863D01*
X206814953Y-34024914D01*
X205437075Y-34024914D01*
X205437075Y-27131600D01*
X191438075Y-27131600D01*
X191438075Y-41130900D01*
X186387075Y-41130900D01*
X186387075Y-27131600D01*
X172388075Y-27131600D01*
X172388075Y-41130900D01*
X167337075Y-41130900D01*
X167337075Y-34024914D01*
X168714953Y-34024914D01*
X168714953Y-34237586D01*
X168754031Y-34446637D01*
X168830856Y-34644944D01*
X168830858Y-34644950D01*
X168942808Y-34825755D01*
X168942814Y-34825764D01*
X169086090Y-34982931D01*
X169255806Y-35111094D01*
X169353389Y-35159684D01*
X169446171Y-35205885D01*
X169446175Y-35205886D01*
X169446182Y-35205890D01*
X169650735Y-35264091D01*
X169862499Y-35283714D01*
X169862500Y-35283714D01*
X169862501Y-35283714D01*
X169933088Y-35277173D01*
X170074265Y-35264091D01*
X170278818Y-35205890D01*
X170469194Y-35111094D01*
X170638910Y-34982931D01*
X170782186Y-34825764D01*
X170894143Y-34644947D01*
X170970969Y-34446637D01*
X171010047Y-34237586D01*
X171012500Y-34131250D01*
X171010047Y-34024914D01*
X170970969Y-33815863D01*
X170894143Y-33617553D01*
X170782186Y-33436736D01*
X170638910Y-33279569D01*
X170469194Y-33151406D01*
X170278828Y-33056614D01*
X170278815Y-33056609D01*
X170209317Y-33036835D01*
X170074265Y-32998409D01*
X169968382Y-32988598D01*
X169862501Y-32978787D01*
X169862499Y-32978787D01*
X169650735Y-32998409D01*
X169446184Y-33056609D01*
X169446171Y-33056614D01*
X169255805Y-33151406D01*
X169086091Y-33279568D01*
X169086090Y-33279569D01*
X168942814Y-33436736D01*
X168942812Y-33436737D01*
X168942810Y-33436741D01*
X168942808Y-33436744D01*
X168830858Y-33617549D01*
X168830857Y-33617553D01*
X168754031Y-33815863D01*
X168714953Y-34024914D01*
X167337075Y-34024914D01*
X167337075Y-27131600D01*
X153338075Y-27131600D01*
X153338075Y-41130900D01*
X148287075Y-41130900D01*
X148287075Y-27131600D01*
X134286075Y-27131600D01*
X134286075Y-41130900D01*
X129237075Y-41130900D01*
X129237075Y-27131600D01*
X115236375Y-27131600D01*
X115236375Y-41130900D01*
X110187075Y-41130900D01*
X110187075Y-34024914D01*
X111564953Y-34024914D01*
X111564953Y-34237586D01*
X111604031Y-34446637D01*
X111680856Y-34644944D01*
X111680858Y-34644950D01*
X111792808Y-34825755D01*
X111792814Y-34825764D01*
X111936090Y-34982931D01*
X112105806Y-35111094D01*
X112203389Y-35159684D01*
X112296171Y-35205885D01*
X112296175Y-35205886D01*
X112296182Y-35205890D01*
X112500735Y-35264091D01*
X112712499Y-35283714D01*
X112712500Y-35283714D01*
X112712501Y-35283714D01*
X112783088Y-35277173D01*
X112924265Y-35264091D01*
X113128818Y-35205890D01*
X113319194Y-35111094D01*
X113488910Y-34982931D01*
X113632186Y-34825764D01*
X113744143Y-34644947D01*
X113820969Y-34446637D01*
X113860047Y-34237586D01*
X113862500Y-34131250D01*
X113860047Y-34024914D01*
X113820969Y-33815863D01*
X113744143Y-33617553D01*
X113632186Y-33436736D01*
X113488910Y-33279569D01*
X113319194Y-33151406D01*
X113128828Y-33056614D01*
X113128815Y-33056609D01*
X113059317Y-33036835D01*
X112924265Y-32998409D01*
X112818382Y-32988598D01*
X112712501Y-32978787D01*
X112712499Y-32978787D01*
X112500735Y-32998409D01*
X112296184Y-33056609D01*
X112296171Y-33056614D01*
X112105805Y-33151406D01*
X111936091Y-33279568D01*
X111936090Y-33279569D01*
X111792814Y-33436736D01*
X111792812Y-33436737D01*
X111792810Y-33436741D01*
X111792808Y-33436744D01*
X111680858Y-33617549D01*
X111680857Y-33617553D01*
X111604031Y-33815863D01*
X111564953Y-34024914D01*
X110187075Y-34024914D01*
X110187075Y-27131600D01*
X96187775Y-27131600D01*
X96187775Y-41130900D01*
X91137075Y-41130900D01*
X91137075Y-27131600D01*
X77137775Y-27131600D01*
X77137775Y-41130900D01*
X72087075Y-41130900D01*
X72087075Y-34024914D01*
X73464953Y-34024914D01*
X73464953Y-34237586D01*
X73504031Y-34446637D01*
X73580856Y-34644944D01*
X73580858Y-34644950D01*
X73692808Y-34825755D01*
X73692814Y-34825764D01*
X73836090Y-34982931D01*
X74005806Y-35111094D01*
X74103389Y-35159684D01*
X74196171Y-35205885D01*
X74196175Y-35205886D01*
X74196182Y-35205890D01*
X74400735Y-35264091D01*
X74612499Y-35283714D01*
X74612500Y-35283714D01*
X74612501Y-35283714D01*
X74683088Y-35277173D01*
X74824265Y-35264091D01*
X75028818Y-35205890D01*
X75219194Y-35111094D01*
X75388910Y-34982931D01*
X75532186Y-34825764D01*
X75644143Y-34644947D01*
X75720969Y-34446637D01*
X75760047Y-34237586D01*
X75762500Y-34131250D01*
X75760047Y-34024914D01*
X75720969Y-33815863D01*
X75644143Y-33617553D01*
X75532186Y-33436736D01*
X75388910Y-33279569D01*
X75219194Y-33151406D01*
X75028828Y-33056614D01*
X75028815Y-33056609D01*
X74959317Y-33036835D01*
X74824265Y-32998409D01*
X74718382Y-32988598D01*
X74612501Y-32978787D01*
X74612499Y-32978787D01*
X74400735Y-32998409D01*
X74196184Y-33056609D01*
X74196171Y-33056614D01*
X74005805Y-33151406D01*
X73836091Y-33279568D01*
X73836090Y-33279569D01*
X73692814Y-33436736D01*
X73692812Y-33436737D01*
X73692810Y-33436741D01*
X73692808Y-33436744D01*
X73580858Y-33617549D01*
X73580857Y-33617553D01*
X73504031Y-33815863D01*
X73464953Y-34024914D01*
X72087075Y-34024914D01*
X72087075Y-27131600D01*
X58087775Y-27131600D01*
X58087775Y-41130900D01*
X53037075Y-41130900D01*
X53037075Y-27131600D01*
X39037775Y-27131600D01*
X39037775Y-41130900D01*
X33987275Y-41130900D01*
X33987275Y-34024914D01*
X35364953Y-34024914D01*
X35364953Y-34237586D01*
X35404031Y-34446637D01*
X35480856Y-34644944D01*
X35480858Y-34644950D01*
X35592808Y-34825755D01*
X35592814Y-34825764D01*
X35736090Y-34982931D01*
X35905806Y-35111094D01*
X36003389Y-35159684D01*
X36096171Y-35205885D01*
X36096175Y-35205886D01*
X36096182Y-35205890D01*
X36300735Y-35264091D01*
X36512499Y-35283714D01*
X36512500Y-35283714D01*
X36512501Y-35283714D01*
X36583088Y-35277173D01*
X36724265Y-35264091D01*
X36928818Y-35205890D01*
X37119194Y-35111094D01*
X37288910Y-34982931D01*
X37432186Y-34825764D01*
X37544143Y-34644947D01*
X37620969Y-34446637D01*
X37660047Y-34237586D01*
X37662500Y-34131250D01*
X37660047Y-34024914D01*
X37620969Y-33815863D01*
X37544143Y-33617553D01*
X37432186Y-33436736D01*
X37288910Y-33279569D01*
X37119194Y-33151406D01*
X36928828Y-33056614D01*
X36928815Y-33056609D01*
X36859317Y-33036835D01*
X36724265Y-32998409D01*
X36618382Y-32988598D01*
X36512501Y-32978787D01*
X36512499Y-32978787D01*
X36300735Y-32998409D01*
X36096184Y-33056609D01*
X36096171Y-33056614D01*
X35905805Y-33151406D01*
X35736091Y-33279568D01*
X35736090Y-33279569D01*
X35592814Y-33436736D01*
X35592812Y-33436737D01*
X35592810Y-33436741D01*
X35592808Y-33436744D01*
X35480858Y-33617549D01*
X35480857Y-33617553D01*
X35404031Y-33815863D01*
X35364953Y-34024914D01*
X33987275Y-34024914D01*
X33987275Y-27131600D01*
X19987725Y-27131600D01*
X19987725Y-41130900D01*
X17462500Y-41130900D01*
X17462500Y-25108271D01*
X17462566Y-25104228D01*
X17464173Y-25054970D01*
X17468331Y-25026925D01*
X17494343Y-24929844D01*
X17506726Y-24899951D01*
X17555952Y-24814687D01*
X17575651Y-24789016D01*
X17645266Y-24719401D01*
X17670937Y-24699702D01*
X17756201Y-24650476D01*
X17786094Y-24638093D01*
X17883175Y-24612081D01*
X17911215Y-24607923D01*
X17956082Y-24606459D01*
X17960479Y-24606316D01*
X17964522Y-24606250D01*
X274135481Y-24606250D01*
X274139522Y-24606316D01*
G37*
%TD.AperFunction*%
%TD*%
M02*
