M48
; DRILL file {KiCad 8.0.8} date 2025-05-02T20:11:20+0200
; FORMAT={-:-/ absolute / inch / decimal}
; #@! TF.CreationDate,2025-05-02T20:11:20+02:00
; #@! TF.GenerationSoftware,Kicad,Pcbnew,8.0.8
; #@! TF.FileFunction,Plated,1,2,PTH
FMAT,2
INCH
; #@! TA.AperFunction,Plated,PTH,ViaDrill
T1C0.0157
; #@! TA.AperFunction,Plated,PTH,ComponentDrill
T2C0.0157
; #@! TA.AperFunction,Plated,PTH,ComponentDrill
T3C0.0394
%
G90
G05
T1
X0.7419Y-1.3438
X0.7419Y-2.8438
X1.3331Y-3.2518
X1.3798Y-3.2042
X1.4356Y-2.4242
X1.4371Y-3.1679
X1.4375Y-1.1875
X1.4375Y-1.5
X1.4422Y-2.3106
X1.4428Y-2.375
X1.4919Y-2.125
X1.5038Y-2.375
X1.5042Y-2.5161
X1.5051Y-2.3137
X1.5066Y-2.4249
X1.5136Y-3.1697
X1.5466Y-2.193
X1.5542Y-1.998
X1.561Y-1.784
X1.5795Y-2.3139
X1.5856Y-1.8438
X1.5856Y-1.8831
X1.5862Y-2.4254
X1.5869Y-2.5166
X1.5884Y-3.1679
X1.6719Y-3.1708
X1.6787Y-2.5171
X1.6792Y-2.3178
X1.6794Y-2.8125
X1.68Y-2.4254
X1.6809Y-2.9966
X1.6809Y-3.0788
X1.6815Y-2.9296
X1.7106Y-2.7812
X1.7559Y-3.1702
X1.7737Y-2.4254
X1.7751Y-2.5151
X1.7764Y-2.3178
X1.84Y-3.1702
X1.8509Y-3.0265
X1.8561Y-2.7958
X1.8669Y-2.8438
X1.8675Y-2.4254
X1.8704Y-2.5156
X1.9292Y-3.1714
X1.9294Y-2.4688
X1.9294Y-2.6562
X1.9327Y-2.8008
X1.9606Y-3.0312
X1.9767Y-2.5211
X2.0092Y-2.4211
X2.0092Y-3.1708
X2.0161Y-1.6222
X2.0161Y-1.6902
X2.0161Y-1.7526
X2.0379Y-2.6562
X2.0379Y-2.5211
X2.062Y-3.206
X2.1081Y-3.2607
X2.1128Y-1.6222
X2.1128Y-1.6902
X2.1147Y-1.7526
X2.1147Y-1.8287
X2.1298Y-3.0741
X2.1311Y-2.4211
X2.1347Y-2.5211
X2.1347Y-2.5966
X2.1542Y-3.3068
X2.1872Y-1.3455
X2.1926Y-3.1352
X2.2328Y-2.5995
X2.233Y-2.4194
X2.2338Y-2.3278
X2.2347Y-2.5213
X2.241Y-3.3264
X2.2419Y-3.1875
X2.3576Y-3.2048
X2.372Y-2.3304
X2.372Y-2.422
X2.3746Y-2.5213
X2.4597Y-3.3264
X2.4617Y-3.2039
X2.4782Y-2.4202
X2.4808Y-2.5195
X2.5552Y-3.2018
X2.5631Y-3.1093
X2.6005Y-2.5212
X2.6005Y-2.5967
X2.601Y-2.4193
X2.6472Y-3.3264
X2.6484Y-3.2027
X2.6504Y-3.111
X2.6972Y-2.5212
X2.6972Y-2.5967
X2.6978Y-2.4193
X2.741Y-3.3264
X2.7427Y-3.111
X2.7428Y-3.2039
X2.7925Y-1.6222
X2.7925Y-1.6902
X2.7928Y-1.7526
X2.7938Y-2.5211
X2.7938Y-2.5966
X2.7943Y-2.4192
X2.8347Y-3.2039
X2.8347Y-3.3264
X2.8892Y-1.6222
X2.8892Y-1.6902
X2.8896Y-1.7526
X2.8896Y-1.8287
X2.8905Y-2.5211
X2.8905Y-2.5966
X2.891Y-2.4192
X2.9285Y-3.3264
X2.9294Y-3.125
X2.9333Y-3.2027
X2.9375Y-1.1875
X2.9375Y-1.5
X2.9744Y-2.5978
X2.9752Y-2.5223
X2.9757Y-2.4197
X2.9758Y-2.3325
X3.0312Y-3.5938
X3.0717Y-2.3291
X3.072Y-2.5223
X3.0724Y-2.4197
X3.0787Y-3.2035
X3.0795Y-3.3277
X3.1239Y-2.0926
X3.147Y-2.5232
X3.1475Y-2.4205
X3.2056Y-3.2052
X3.2097Y-3.3264
X3.2438Y-2.5232
X3.2443Y-2.4205
X3.3035Y-3.3264
X3.3044Y-3.125
X3.3046Y-3.2039
X3.3175Y-2.5219
X3.318Y-2.4192
X3.3972Y-3.3264
X3.3981Y-3.125
X3.4024Y-3.2039
X3.4142Y-2.5219
X3.4147Y-2.4192
X3.4665Y-3.2039
X3.5Y-2.8429
X3.5017Y-3.1249
X3.5063Y-2.5236
X3.5068Y-2.4209
X3.5096Y-1.6222
X3.5096Y-1.6902
X3.5116Y-1.7526
X3.5656Y-3.2039
X3.6031Y-2.5236
X3.6035Y-2.4209
X3.6063Y-1.6222
X3.6063Y-1.6902
X3.6084Y-1.7526
X3.6084Y-1.8287
X3.6633Y-3.2039
X3.685Y-1.3436
X3.7067Y-2.6056
X3.7072Y-2.5219
X3.7077Y-2.4192
X3.7106Y-2.3297
X3.7376Y-3.1804
X3.7376Y-3.2236
X3.7376Y-3.3022
X3.7376Y-3.3449
X3.7376Y-3.3853
X3.7812Y-3.8438
X3.8154Y-2.4166
X3.8166Y-2.5213
X3.8194Y-2.3297
X3.875Y-1.9375
X3.875Y-2.25
X3.875Y-3.1282
X3.875Y-3.4688
X3.875Y-3.7188
X3.9275Y-2.375
X3.9275Y-2.4375
X3.9282Y-2.5011
X3.9688Y-3.7812
X3.9924Y-3.25
X4.0003Y-3.8528
X4.0022Y-2.375
X4.0231Y-2.4375
X4.0405Y-2.3309
X4.0863Y-2.4183
X4.0938Y-3.8728
X4.0958Y-3.7061
X4.1032Y-3.5083
X4.125Y-2.6562
X4.1356Y-2.5625
X4.1528Y-3.707
X4.1657Y-3.4146
X4.189Y-2.4183
X4.2392Y-2.5625
X4.25Y-2.6562
X4.25Y-2.75
X4.25Y-2.8438
X4.25Y-2.9375
X4.2619Y-1.6172
X4.2619Y-1.6968
X4.2658Y-2.9789
X4.2658Y-3.0221
X4.2658Y-3.0653
X4.2658Y-3.1066
X4.2658Y-3.1478
X4.2812Y-3.7812
X4.2812Y-3.8438
X4.2823Y-2.5245
X4.2849Y-2.4175
X4.2907Y-3.2271
X4.322Y-3.5396
X4.3586Y-1.6172
X4.3586Y-1.6968
X4.3742Y-3.6693
X4.3742Y-3.7099
X4.375Y-3.25
X4.375Y-3.7812
X4.375Y-3.8438
X4.3819Y-3.6276
X4.3838Y-3.5851
X4.3859Y-2.5245
X4.3885Y-2.4175
X4.4223Y-3.4288
X4.4606Y-3.25
X4.4627Y-3.1188
X4.4688Y-3.7812
X4.4688Y-3.8438
X4.4748Y-2.3303
X4.4751Y-2.6027
X4.4766Y-2.5245
X4.4783Y-2.4166
X4.5759Y-2.3285
X4.5759Y-2.4149
X4.5787Y-2.5216
X4.5856Y-3.25
X4.6262Y-2.0938
X4.6693Y-2.5216
X4.6694Y-2.418
X4.6794Y-3.25
X4.7608Y-2.5216
X4.7609Y-2.418
X4.7731Y-3.25
X4.8489Y-2.5216
X4.849Y-2.4171
X4.8669Y-3.25
X4.943Y-2.5216
X4.9431Y-2.418
X4.9606Y-3.25
X5.0144Y-1.6209
X5.0144Y-1.7005
X5.0415Y-2.5216
X5.0415Y-2.418
X5.0625Y-3.25
X5.0856Y-3.5938
X5.1111Y-1.6209
X5.1111Y-1.7005
X5.1468Y-2.5216
X5.1469Y-2.4188
X5.1848Y-1.3455
X5.2056Y-2.4706
X5.2305Y-3.281
X5.2321Y-3.3241
X5.2336Y-3.3643
X5.2336Y-3.4056
X5.2393Y-2.3342
X5.2393Y-2.5173
X5.241Y-2.4206
X5.2418Y-2.6045
X5.2731Y-3.5938
X5.3044Y-3.25
X5.3722Y-1.6192
X5.3722Y-1.7002
X5.3757Y-2.3341
X5.3757Y-2.5195
X5.3764Y-2.4242
X5.3981Y-3.25
X5.4868Y-2.334
X5.4891Y-2.422
X5.4891Y-2.5216
X5.4917Y-1.6994
X5.4919Y-3.25
X5.573Y-3.2526
X5.5782Y-3.114
X5.5896Y-2.6129
X5.5898Y-2.4186
X5.5898Y-2.5239
X5.7025Y-3.1127
X5.7054Y-2.4227
X5.7063Y-2.5245
X5.7064Y-3.2565
X5.7084Y-2.6189
X5.75Y-2.8438
X5.7909Y-3.2526
X5.7918Y-3.1118
X5.7936Y-1.6185
X5.7936Y-1.698
X5.8904Y-1.6185
X5.8904Y-1.698
X5.9031Y-3.2552
X5.9057Y-3.1136
X5.9082Y-2.5966
X5.9102Y-2.5146
X5.9119Y-2.423
X5.9128Y-2.334
X5.9375Y-1.3438
X6.0121Y-2.334
X6.0138Y-2.4239
X6.0156Y-2.5163
X6.0444Y-3.2578
X6.1228Y-2.0963
X6.1415Y-3.2565
X6.1562Y-3.4375
X6.1562Y-3.75
X6.2373Y-3.2539
X6.3267Y-3.2565
X6.4303Y-3.2578
X6.5365Y-3.2565
X6.542Y-1.6175
X6.542Y-1.6971
X6.6272Y-3.2552
X6.6387Y-1.6175
X6.6387Y-1.6971
X6.6418Y-2.6032
X6.6431Y-2.5218
X6.6447Y-2.4228
X6.7212Y-3.3351
X6.7213Y-3.2555
X6.7259Y-3.115
X6.7393Y-2.3295
X6.7457Y-2.4254
X6.7467Y-2.5218
X6.8267Y-3.2567
X6.8267Y-3.3345
X6.9Y-3.2578
X6.9961Y-3.2578
X7.0938Y-3.8438
X7.1058Y-3.2572
X7.125Y-3.3125
X7.125Y-3.5037
X7.1562Y-3.4062
X7.1978Y-3.6562
X7.2484Y-3.4803
X7.25Y-2.8438
X7.2538Y-3.4413
X7.2731Y-3.2812
X7.2821Y-3.5005
X7.2959Y-1.6191
X7.2959Y-1.6987
X7.3109Y-3.4232
X7.3125Y-3.2812
X7.3471Y-3.4688
X7.375Y-3.25
X7.3886Y-2.4213
X7.3917Y-2.5985
X7.3921Y-2.5188
X7.3927Y-1.6191
X7.3927Y-1.6987
X7.4375Y-1.3438
X7.4465Y-3.208
X7.4497Y-3.2812
X7.4499Y-3.3439
X7.4512Y-3.3885
X7.4688Y-3.8438
X7.4991Y-2.4221
X7.4991Y-2.5145
X7.5Y-2.3271
X7.625Y-2.0938
X8.0Y-2.8438
X8.0131Y-1.6216
X8.0131Y-1.7011
X8.1098Y-1.6216
X8.1098Y-1.7011
X8.1494Y-2.4309
X8.1494Y-2.5177
X8.1504Y-2.5993
X8.2538Y-3.2025
X8.255Y-3.2985
X8.2686Y-2.3221
X8.2699Y-2.4296
X8.2699Y-2.519
X8.3505Y-3.2025
X8.3511Y-3.2979
X8.4688Y-3.4375
X8.4688Y-3.75
X8.7782Y-1.7005
X8.875Y-1.6209
X8.875Y-1.7005
X8.9294Y-2.421
X8.9294Y-2.519
X8.9296Y-2.6016
X8.9375Y-1.3438
X8.9422Y-1.6224
X8.9422Y-1.7019
X9.005Y-3.1948
X9.0062Y-3.2909
X9.0083Y-2.519
X9.023Y-2.2712
X9.0231Y-2.3333
X9.0243Y-2.421
X9.0357Y-1.6221
X9.0357Y-1.7016
X9.093Y-2.519
X9.1018Y-3.1948
X9.1024Y-3.2903
X9.1324Y-1.6221
X9.1324Y-1.7016
X9.1424Y-2.1307
X9.1424Y-2.272
X9.1425Y-2.1928
X9.1425Y-2.3341
X9.1427Y-2.4214
X9.1433Y-1.9846
X9.1435Y-2.0467
X9.1443Y-1.8481
X9.1444Y-1.9102
X9.191Y-2.519
X9.2532Y-2.2712
X9.2533Y-2.3333
X9.2537Y-2.421
X9.2565Y-2.519
X9.3125Y-1.75
X9.3462Y-2.421
X9.3508Y-2.519
X9.4063Y-3.2533
X9.4128Y-2.6127
X9.4135Y-2.519
X9.4291Y-2.421
X9.4518Y-3.2039
X9.5Y-1.75
X9.5127Y-3.1693
X9.5278Y-2.6149
X9.5536Y-2.4251
X9.558Y-2.5172
X9.5938Y-3.1693
X9.6272Y-2.4273
X9.6295Y-2.5194
X9.6794Y-1.3438
X9.6875Y-3.1693
X9.7024Y-2.4244
X9.7068Y-2.5209
X9.7188Y-1.75
X9.7702Y-2.4266
X9.7761Y-2.5209
X9.7812Y-3.1693
X9.8527Y-2.5209
X9.8564Y-2.4288
X9.875Y-3.1693
X9.9426Y-2.4303
X9.9499Y-2.5245
X9.9688Y-1.75
X9.9688Y-3.1693
X10.0239Y-2.4304
X10.0306Y-2.5221
X10.0676Y-3.1693
X10.0958Y-2.4293
X10.1313Y-3.2168
X10.1699Y-3.2673
X10.1709Y-2.4304
X10.2394Y-2.4293
X10.3057Y-2.4326
X10.3753Y-2.4271
X10.4538Y-2.4326
X10.6794Y-1.9062
X10.6794Y-2.8438
X10.7188Y-1.3438
T2
X1.0231Y-1.3438
X1.0625Y-3.5544
X1.0625Y-3.6331
X1.1019Y-1.3438
X1.1169Y-2.0938
X1.1956Y-2.0938
X1.3044Y-2.8438
X1.3831Y-2.8438
X1.7731Y-1.3438
X1.8519Y-1.3438
X1.9606Y-2.0938
X2.0394Y-2.0938
X2.3356Y-2.8438
X2.4144Y-2.8438
X2.5231Y-1.3437
X2.5625Y-3.5544
X2.5625Y-3.6331
X2.6019Y-1.3437
X2.7106Y-2.0938
X2.7894Y-2.0938
X3.0856Y-2.8438
X3.1644Y-2.8438
X3.2731Y-1.3438
X3.3519Y-1.3438
X3.4606Y-2.0938
X3.5Y-3.5544
X3.5Y-3.6331
X3.5394Y-2.0938
X3.8356Y-2.8438
X3.9144Y-2.8438
X4.0231Y-1.3438
X4.1019Y-1.3438
X4.2106Y-2.0938
X4.2894Y-2.0938
X4.5856Y-2.8438
X4.6644Y-2.8438
X4.7188Y-3.5544
X4.7188Y-3.6331
X4.7731Y-1.3438
X4.8519Y-1.3438
X4.9606Y-2.0938
X5.0394Y-2.0938
X5.3356Y-2.8438
X5.4144Y-2.8438
X5.5231Y-1.3438
X5.6019Y-1.3438
X5.7106Y-2.0938
X5.75Y-3.5544
X5.75Y-3.6331
X5.7894Y-2.0938
X6.0856Y-2.8438
X6.1644Y-2.8438
X6.2731Y-1.3438
X6.3519Y-1.3438
X6.4606Y-2.0938
X6.5394Y-2.0938
X6.5938Y-3.5544
X6.5938Y-3.6331
X6.8356Y-2.8438
X6.9144Y-2.8438
X7.0231Y-1.3438
X7.1019Y-1.3438
X7.2106Y-2.0938
X7.2894Y-2.0938
X7.5856Y-2.8438
X7.6644Y-2.8438
X7.7731Y-1.3438
X7.8519Y-1.3438
X7.9606Y-2.0938
X8.0Y-3.5544
X8.0Y-3.6331
X8.0394Y-2.0938
X8.3356Y-2.8438
X8.4144Y-2.8438
X8.5231Y-1.3438
X8.6019Y-1.3438
X8.7106Y-2.0938
X8.7894Y-2.0938
X8.9375Y-3.5544
X8.9375Y-3.6331
X9.0856Y-2.8438
X9.1644Y-2.8438
X9.2731Y-1.3438
X9.3519Y-1.3438
X9.5Y-2.0544
X9.5Y-2.1331
X9.7419Y-2.8438
X9.8206Y-2.8438
X9.9688Y-2.0544
X9.9688Y-2.1331
X10.1169Y-2.8438
X10.1956Y-2.8438
X10.25Y-1.3044
X10.25Y-1.3831
X10.3438Y-2.0544
X10.3438Y-2.1331
X10.3438Y-1.6794
X10.3438Y-1.7581
X10.4375Y-3.5544
X10.4375Y-3.6331
T3
X7.2314Y-3.8125
X7.3314Y-3.8125
M30
