%TF.GenerationSoftware,KiCad,Pcbnew,8.0.8*%
%TF.CreationDate,2025-05-05T21:28:19+02:00*%
%TF.ProjectId,ampersand,616d7065-7273-4616-9e64-2e6b69636164,rev?*%
%TF.SameCoordinates,Original*%
%TF.FileFunction,Legend,Bot*%
%TF.FilePolarity,Positive*%
%FSLAX46Y46*%
G04 Gerber Fmt 4.6, Leading zero omitted, Abs format (unit mm)*
G04 Created by KiCad (PCBNEW 8.0.8) date 2025-05-05 21:28:19*
%MOMM*%
%LPD*%
G01*
G04 APERTURE LIST*
%ADD10C,0.150000*%
%ADD11C,0.000000*%
%ADD12C,0.120000*%
%ADD13C,0.170180*%
%ADD14C,0.002540*%
G04 APERTURE END LIST*
D10*
X102646317Y-88822174D02*
X103050378Y-89226235D01*
X103050378Y-89226235D02*
X103104253Y-89333984D01*
X103104253Y-89333984D02*
X103104253Y-89441734D01*
X103104253Y-89441734D02*
X103050378Y-89549483D01*
X103050378Y-89549483D02*
X102996504Y-89603358D01*
X103750751Y-88849111D02*
X103481377Y-89118485D01*
X103481377Y-89118485D02*
X102915692Y-88552799D01*
X104208687Y-88283425D02*
X104208687Y-88337300D01*
X104208687Y-88337300D02*
X104154812Y-88445050D01*
X104154812Y-88445050D02*
X104100937Y-88498925D01*
X104100937Y-88498925D02*
X103993188Y-88552799D01*
X103993188Y-88552799D02*
X103885438Y-88552799D01*
X103885438Y-88552799D02*
X103804626Y-88525862D01*
X103804626Y-88525862D02*
X103669939Y-88445050D01*
X103669939Y-88445050D02*
X103589127Y-88364238D01*
X103589127Y-88364238D02*
X103508314Y-88229551D01*
X103508314Y-88229551D02*
X103481377Y-88148738D01*
X103481377Y-88148738D02*
X103481377Y-88040989D01*
X103481377Y-88040989D02*
X103535252Y-87933239D01*
X103535252Y-87933239D02*
X103589127Y-87879364D01*
X103589127Y-87879364D02*
X103696876Y-87825490D01*
X103696876Y-87825490D02*
X103750751Y-87825490D01*
X104100937Y-87367554D02*
X104504998Y-87771615D01*
X104504998Y-87771615D02*
X104558873Y-87879364D01*
X104558873Y-87879364D02*
X104558873Y-87987114D01*
X104558873Y-87987114D02*
X104504998Y-88094864D01*
X104504998Y-88094864D02*
X104451123Y-88148738D01*
X105205371Y-87394491D02*
X104935997Y-87663865D01*
X104935997Y-87663865D02*
X104370311Y-87098180D01*
X105663307Y-86828806D02*
X105663307Y-86882681D01*
X105663307Y-86882681D02*
X105609432Y-86990430D01*
X105609432Y-86990430D02*
X105555557Y-87044305D01*
X105555557Y-87044305D02*
X105447807Y-87098180D01*
X105447807Y-87098180D02*
X105340058Y-87098180D01*
X105340058Y-87098180D02*
X105259245Y-87071242D01*
X105259245Y-87071242D02*
X105124558Y-86990430D01*
X105124558Y-86990430D02*
X105043746Y-86909618D01*
X105043746Y-86909618D02*
X104962934Y-86774931D01*
X104962934Y-86774931D02*
X104935997Y-86694119D01*
X104935997Y-86694119D02*
X104935997Y-86586369D01*
X104935997Y-86586369D02*
X104989871Y-86478620D01*
X104989871Y-86478620D02*
X105043746Y-86424745D01*
X105043746Y-86424745D02*
X105151496Y-86370870D01*
X105151496Y-86370870D02*
X105205371Y-86370870D01*
X105555557Y-85912934D02*
X105959618Y-86316995D01*
X105959618Y-86316995D02*
X106013493Y-86424745D01*
X106013493Y-86424745D02*
X106013493Y-86532494D01*
X106013493Y-86532494D02*
X105959618Y-86640244D01*
X105959618Y-86640244D02*
X105905743Y-86694119D01*
X106659990Y-85939871D02*
X106390616Y-86209245D01*
X106390616Y-86209245D02*
X105824931Y-85643560D01*
X107117926Y-85374186D02*
X107117926Y-85428061D01*
X107117926Y-85428061D02*
X107064051Y-85535810D01*
X107064051Y-85535810D02*
X107010177Y-85589685D01*
X107010177Y-85589685D02*
X106902427Y-85643560D01*
X106902427Y-85643560D02*
X106794677Y-85643560D01*
X106794677Y-85643560D02*
X106713865Y-85616623D01*
X106713865Y-85616623D02*
X106579178Y-85535810D01*
X106579178Y-85535810D02*
X106498366Y-85454998D01*
X106498366Y-85454998D02*
X106417554Y-85320311D01*
X106417554Y-85320311D02*
X106390616Y-85239499D01*
X106390616Y-85239499D02*
X106390616Y-85131749D01*
X106390616Y-85131749D02*
X106444491Y-85024000D01*
X106444491Y-85024000D02*
X106498366Y-84970125D01*
X106498366Y-84970125D02*
X106606116Y-84916250D01*
X106606116Y-84916250D02*
X106659990Y-84916250D01*
X107010177Y-84458314D02*
X107414238Y-84862375D01*
X107414238Y-84862375D02*
X107468112Y-84970125D01*
X107468112Y-84970125D02*
X107468112Y-85077875D01*
X107468112Y-85077875D02*
X107414238Y-85185624D01*
X107414238Y-85185624D02*
X107360363Y-85239499D01*
X108114610Y-84485252D02*
X107845236Y-84754626D01*
X107845236Y-84754626D02*
X107279551Y-84188940D01*
X108572546Y-83919566D02*
X108572546Y-83973441D01*
X108572546Y-83973441D02*
X108518671Y-84081191D01*
X108518671Y-84081191D02*
X108464796Y-84135065D01*
X108464796Y-84135065D02*
X108357047Y-84188940D01*
X108357047Y-84188940D02*
X108249297Y-84188940D01*
X108249297Y-84188940D02*
X108168485Y-84162003D01*
X108168485Y-84162003D02*
X108033798Y-84081191D01*
X108033798Y-84081191D02*
X107952986Y-84000378D01*
X107952986Y-84000378D02*
X107872174Y-83865691D01*
X107872174Y-83865691D02*
X107845236Y-83784879D01*
X107845236Y-83784879D02*
X107845236Y-83677130D01*
X107845236Y-83677130D02*
X107899111Y-83569380D01*
X107899111Y-83569380D02*
X107952986Y-83515505D01*
X107952986Y-83515505D02*
X108060735Y-83461630D01*
X108060735Y-83461630D02*
X108114610Y-83461630D01*
X254196726Y-59169735D02*
X254158630Y-59131640D01*
X254158630Y-59131640D02*
X254082440Y-59093545D01*
X254082440Y-59093545D02*
X253891964Y-59093545D01*
X253891964Y-59093545D02*
X253815773Y-59131640D01*
X253815773Y-59131640D02*
X253777678Y-59169735D01*
X253777678Y-59169735D02*
X253739583Y-59245926D01*
X253739583Y-59245926D02*
X253739583Y-59322116D01*
X253739583Y-59322116D02*
X253777678Y-59436402D01*
X253777678Y-59436402D02*
X254234821Y-59893545D01*
X254234821Y-59893545D02*
X253739583Y-59893545D01*
X253434821Y-59169735D02*
X253396725Y-59131640D01*
X253396725Y-59131640D02*
X253320535Y-59093545D01*
X253320535Y-59093545D02*
X253130059Y-59093545D01*
X253130059Y-59093545D02*
X253053868Y-59131640D01*
X253053868Y-59131640D02*
X253015773Y-59169735D01*
X253015773Y-59169735D02*
X252977678Y-59245926D01*
X252977678Y-59245926D02*
X252977678Y-59322116D01*
X252977678Y-59322116D02*
X253015773Y-59436402D01*
X253015773Y-59436402D02*
X253472916Y-59893545D01*
X253472916Y-59893545D02*
X252977678Y-59893545D01*
X252253868Y-59093545D02*
X252634820Y-59093545D01*
X252634820Y-59093545D02*
X252672916Y-59474497D01*
X252672916Y-59474497D02*
X252634820Y-59436402D01*
X252634820Y-59436402D02*
X252558630Y-59398307D01*
X252558630Y-59398307D02*
X252368154Y-59398307D01*
X252368154Y-59398307D02*
X252291963Y-59436402D01*
X252291963Y-59436402D02*
X252253868Y-59474497D01*
X252253868Y-59474497D02*
X252215773Y-59550688D01*
X252215773Y-59550688D02*
X252215773Y-59741164D01*
X252215773Y-59741164D02*
X252253868Y-59817354D01*
X252253868Y-59817354D02*
X252291963Y-59855450D01*
X252291963Y-59855450D02*
X252368154Y-59893545D01*
X252368154Y-59893545D02*
X252558630Y-59893545D01*
X252558630Y-59893545D02*
X252634820Y-59855450D01*
X252634820Y-59855450D02*
X252672916Y-59817354D01*
X88671428Y-97993545D02*
X89128571Y-97993545D01*
X88899999Y-97993545D02*
X88899999Y-97193545D01*
X88899999Y-97193545D02*
X88976190Y-97307830D01*
X88976190Y-97307830D02*
X89052380Y-97384021D01*
X89052380Y-97384021D02*
X89128571Y-97422116D01*
X120846726Y-97269735D02*
X120808630Y-97231640D01*
X120808630Y-97231640D02*
X120732440Y-97193545D01*
X120732440Y-97193545D02*
X120541964Y-97193545D01*
X120541964Y-97193545D02*
X120465773Y-97231640D01*
X120465773Y-97231640D02*
X120427678Y-97269735D01*
X120427678Y-97269735D02*
X120389583Y-97345926D01*
X120389583Y-97345926D02*
X120389583Y-97422116D01*
X120389583Y-97422116D02*
X120427678Y-97536402D01*
X120427678Y-97536402D02*
X120884821Y-97993545D01*
X120884821Y-97993545D02*
X120389583Y-97993545D01*
X120084821Y-97269735D02*
X120046725Y-97231640D01*
X120046725Y-97231640D02*
X119970535Y-97193545D01*
X119970535Y-97193545D02*
X119780059Y-97193545D01*
X119780059Y-97193545D02*
X119703868Y-97231640D01*
X119703868Y-97231640D02*
X119665773Y-97269735D01*
X119665773Y-97269735D02*
X119627678Y-97345926D01*
X119627678Y-97345926D02*
X119627678Y-97422116D01*
X119627678Y-97422116D02*
X119665773Y-97536402D01*
X119665773Y-97536402D02*
X120122916Y-97993545D01*
X120122916Y-97993545D02*
X119627678Y-97993545D01*
X118903868Y-97193545D02*
X119284820Y-97193545D01*
X119284820Y-97193545D02*
X119322916Y-97574497D01*
X119322916Y-97574497D02*
X119284820Y-97536402D01*
X119284820Y-97536402D02*
X119208630Y-97498307D01*
X119208630Y-97498307D02*
X119018154Y-97498307D01*
X119018154Y-97498307D02*
X118941963Y-97536402D01*
X118941963Y-97536402D02*
X118903868Y-97574497D01*
X118903868Y-97574497D02*
X118865773Y-97650688D01*
X118865773Y-97650688D02*
X118865773Y-97841164D01*
X118865773Y-97841164D02*
X118903868Y-97917354D01*
X118903868Y-97917354D02*
X118941963Y-97955450D01*
X118941963Y-97955450D02*
X119018154Y-97993545D01*
X119018154Y-97993545D02*
X119208630Y-97993545D01*
X119208630Y-97993545D02*
X119284820Y-97955450D01*
X119284820Y-97955450D02*
X119322916Y-97917354D01*
X227545833Y-97993545D02*
X228002976Y-97993545D01*
X227774404Y-97993545D02*
X227774404Y-97193545D01*
X227774404Y-97193545D02*
X227850595Y-97307830D01*
X227850595Y-97307830D02*
X227926785Y-97384021D01*
X227926785Y-97384021D02*
X228002976Y-97422116D01*
X226822023Y-97193545D02*
X227202975Y-97193545D01*
X227202975Y-97193545D02*
X227241071Y-97574497D01*
X227241071Y-97574497D02*
X227202975Y-97536402D01*
X227202975Y-97536402D02*
X227126785Y-97498307D01*
X227126785Y-97498307D02*
X226936309Y-97498307D01*
X226936309Y-97498307D02*
X226860118Y-97536402D01*
X226860118Y-97536402D02*
X226822023Y-97574497D01*
X226822023Y-97574497D02*
X226783928Y-97650688D01*
X226783928Y-97650688D02*
X226783928Y-97841164D01*
X226783928Y-97841164D02*
X226822023Y-97917354D01*
X226822023Y-97917354D02*
X226860118Y-97955450D01*
X226860118Y-97955450D02*
X226936309Y-97993545D01*
X226936309Y-97993545D02*
X227126785Y-97993545D01*
X227126785Y-97993545D02*
X227202975Y-97955450D01*
X227202975Y-97955450D02*
X227241071Y-97917354D01*
X226288689Y-97193545D02*
X226212499Y-97193545D01*
X226212499Y-97193545D02*
X226136308Y-97231640D01*
X226136308Y-97231640D02*
X226098213Y-97269735D01*
X226098213Y-97269735D02*
X226060118Y-97345926D01*
X226060118Y-97345926D02*
X226022023Y-97498307D01*
X226022023Y-97498307D02*
X226022023Y-97688783D01*
X226022023Y-97688783D02*
X226060118Y-97841164D01*
X226060118Y-97841164D02*
X226098213Y-97917354D01*
X226098213Y-97917354D02*
X226136308Y-97955450D01*
X226136308Y-97955450D02*
X226212499Y-97993545D01*
X226212499Y-97993545D02*
X226288689Y-97993545D01*
X226288689Y-97993545D02*
X226364880Y-97955450D01*
X226364880Y-97955450D02*
X226402975Y-97917354D01*
X226402975Y-97917354D02*
X226441070Y-97841164D01*
X226441070Y-97841164D02*
X226479166Y-97688783D01*
X226479166Y-97688783D02*
X226479166Y-97498307D01*
X226479166Y-97498307D02*
X226441070Y-97345926D01*
X226441070Y-97345926D02*
X226402975Y-97269735D01*
X226402975Y-97269735D02*
X226364880Y-97231640D01*
X226364880Y-97231640D02*
X226288689Y-97193545D01*
X186348511Y-94911069D02*
X186348511Y-93911069D01*
X186348511Y-94292021D02*
X186253273Y-94244402D01*
X186253273Y-94244402D02*
X186062797Y-94244402D01*
X186062797Y-94244402D02*
X185967559Y-94292021D01*
X185967559Y-94292021D02*
X185919940Y-94339640D01*
X185919940Y-94339640D02*
X185872321Y-94434878D01*
X185872321Y-94434878D02*
X185872321Y-94720592D01*
X185872321Y-94720592D02*
X185919940Y-94815830D01*
X185919940Y-94815830D02*
X185967559Y-94863450D01*
X185967559Y-94863450D02*
X186062797Y-94911069D01*
X186062797Y-94911069D02*
X186253273Y-94911069D01*
X186253273Y-94911069D02*
X186348511Y-94863450D01*
X185300892Y-94911069D02*
X185396130Y-94863450D01*
X185396130Y-94863450D02*
X185443749Y-94815830D01*
X185443749Y-94815830D02*
X185491368Y-94720592D01*
X185491368Y-94720592D02*
X185491368Y-94434878D01*
X185491368Y-94434878D02*
X185443749Y-94339640D01*
X185443749Y-94339640D02*
X185396130Y-94292021D01*
X185396130Y-94292021D02*
X185300892Y-94244402D01*
X185300892Y-94244402D02*
X185158035Y-94244402D01*
X185158035Y-94244402D02*
X185062797Y-94292021D01*
X185062797Y-94292021D02*
X185015178Y-94339640D01*
X185015178Y-94339640D02*
X184967559Y-94434878D01*
X184967559Y-94434878D02*
X184967559Y-94720592D01*
X184967559Y-94720592D02*
X185015178Y-94815830D01*
X185015178Y-94815830D02*
X185062797Y-94863450D01*
X185062797Y-94863450D02*
X185158035Y-94911069D01*
X185158035Y-94911069D02*
X185300892Y-94911069D01*
X184396130Y-94911069D02*
X184491368Y-94863450D01*
X184491368Y-94863450D02*
X184538987Y-94815830D01*
X184538987Y-94815830D02*
X184586606Y-94720592D01*
X184586606Y-94720592D02*
X184586606Y-94434878D01*
X184586606Y-94434878D02*
X184538987Y-94339640D01*
X184538987Y-94339640D02*
X184491368Y-94292021D01*
X184491368Y-94292021D02*
X184396130Y-94244402D01*
X184396130Y-94244402D02*
X184253273Y-94244402D01*
X184253273Y-94244402D02*
X184158035Y-94292021D01*
X184158035Y-94292021D02*
X184110416Y-94339640D01*
X184110416Y-94339640D02*
X184062797Y-94434878D01*
X184062797Y-94434878D02*
X184062797Y-94720592D01*
X184062797Y-94720592D02*
X184110416Y-94815830D01*
X184110416Y-94815830D02*
X184158035Y-94863450D01*
X184158035Y-94863450D02*
X184253273Y-94911069D01*
X184253273Y-94911069D02*
X184396130Y-94911069D01*
X183777082Y-94244402D02*
X183396130Y-94244402D01*
X183634225Y-93911069D02*
X183634225Y-94768211D01*
X183634225Y-94768211D02*
X183586606Y-94863450D01*
X183586606Y-94863450D02*
X183491368Y-94911069D01*
X183491368Y-94911069D02*
X183396130Y-94911069D01*
X29902083Y-59893545D02*
X30359226Y-59893545D01*
X30130654Y-59893545D02*
X30130654Y-59093545D01*
X30130654Y-59093545D02*
X30206845Y-59207830D01*
X30206845Y-59207830D02*
X30283035Y-59284021D01*
X30283035Y-59284021D02*
X30359226Y-59322116D01*
X29597321Y-59169735D02*
X29559225Y-59131640D01*
X29559225Y-59131640D02*
X29483035Y-59093545D01*
X29483035Y-59093545D02*
X29292559Y-59093545D01*
X29292559Y-59093545D02*
X29216368Y-59131640D01*
X29216368Y-59131640D02*
X29178273Y-59169735D01*
X29178273Y-59169735D02*
X29140178Y-59245926D01*
X29140178Y-59245926D02*
X29140178Y-59322116D01*
X29140178Y-59322116D02*
X29178273Y-59436402D01*
X29178273Y-59436402D02*
X29635416Y-59893545D01*
X29635416Y-59893545D02*
X29140178Y-59893545D01*
X28416368Y-59093545D02*
X28797320Y-59093545D01*
X28797320Y-59093545D02*
X28835416Y-59474497D01*
X28835416Y-59474497D02*
X28797320Y-59436402D01*
X28797320Y-59436402D02*
X28721130Y-59398307D01*
X28721130Y-59398307D02*
X28530654Y-59398307D01*
X28530654Y-59398307D02*
X28454463Y-59436402D01*
X28454463Y-59436402D02*
X28416368Y-59474497D01*
X28416368Y-59474497D02*
X28378273Y-59550688D01*
X28378273Y-59550688D02*
X28378273Y-59741164D01*
X28378273Y-59741164D02*
X28416368Y-59817354D01*
X28416368Y-59817354D02*
X28454463Y-59855450D01*
X28454463Y-59855450D02*
X28530654Y-59893545D01*
X28530654Y-59893545D02*
X28721130Y-59893545D01*
X28721130Y-59893545D02*
X28797320Y-59855450D01*
X28797320Y-59855450D02*
X28835416Y-59817354D01*
X263264583Y-59893545D02*
X263721726Y-59893545D01*
X263493154Y-59893545D02*
X263493154Y-59093545D01*
X263493154Y-59093545D02*
X263569345Y-59207830D01*
X263569345Y-59207830D02*
X263645535Y-59284021D01*
X263645535Y-59284021D02*
X263721726Y-59322116D01*
X262959821Y-59169735D02*
X262921725Y-59131640D01*
X262921725Y-59131640D02*
X262845535Y-59093545D01*
X262845535Y-59093545D02*
X262655059Y-59093545D01*
X262655059Y-59093545D02*
X262578868Y-59131640D01*
X262578868Y-59131640D02*
X262540773Y-59169735D01*
X262540773Y-59169735D02*
X262502678Y-59245926D01*
X262502678Y-59245926D02*
X262502678Y-59322116D01*
X262502678Y-59322116D02*
X262540773Y-59436402D01*
X262540773Y-59436402D02*
X262997916Y-59893545D01*
X262997916Y-59893545D02*
X262502678Y-59893545D01*
X261778868Y-59093545D02*
X262159820Y-59093545D01*
X262159820Y-59093545D02*
X262197916Y-59474497D01*
X262197916Y-59474497D02*
X262159820Y-59436402D01*
X262159820Y-59436402D02*
X262083630Y-59398307D01*
X262083630Y-59398307D02*
X261893154Y-59398307D01*
X261893154Y-59398307D02*
X261816963Y-59436402D01*
X261816963Y-59436402D02*
X261778868Y-59474497D01*
X261778868Y-59474497D02*
X261740773Y-59550688D01*
X261740773Y-59550688D02*
X261740773Y-59741164D01*
X261740773Y-59741164D02*
X261778868Y-59817354D01*
X261778868Y-59817354D02*
X261816963Y-59855450D01*
X261816963Y-59855450D02*
X261893154Y-59893545D01*
X261893154Y-59893545D02*
X262083630Y-59893545D01*
X262083630Y-59893545D02*
X262159820Y-59855450D01*
X262159820Y-59855450D02*
X262197916Y-59817354D01*
X263531249Y-49574795D02*
X263531249Y-48774795D01*
X263188393Y-49536700D02*
X263074107Y-49574795D01*
X263074107Y-49574795D02*
X262883631Y-49574795D01*
X262883631Y-49574795D02*
X262807440Y-49536700D01*
X262807440Y-49536700D02*
X262769345Y-49498604D01*
X262769345Y-49498604D02*
X262731250Y-49422414D01*
X262731250Y-49422414D02*
X262731250Y-49346223D01*
X262731250Y-49346223D02*
X262769345Y-49270033D01*
X262769345Y-49270033D02*
X262807440Y-49231938D01*
X262807440Y-49231938D02*
X262883631Y-49193842D01*
X262883631Y-49193842D02*
X263036012Y-49155747D01*
X263036012Y-49155747D02*
X263112202Y-49117652D01*
X263112202Y-49117652D02*
X263150297Y-49079557D01*
X263150297Y-49079557D02*
X263188393Y-49003366D01*
X263188393Y-49003366D02*
X263188393Y-48927176D01*
X263188393Y-48927176D02*
X263150297Y-48850985D01*
X263150297Y-48850985D02*
X263112202Y-48812890D01*
X263112202Y-48812890D02*
X263036012Y-48774795D01*
X263036012Y-48774795D02*
X262845535Y-48774795D01*
X262845535Y-48774795D02*
X262731250Y-48812890D01*
X262236011Y-48774795D02*
X262083630Y-48774795D01*
X262083630Y-48774795D02*
X262007440Y-48812890D01*
X262007440Y-48812890D02*
X261931249Y-48889080D01*
X261931249Y-48889080D02*
X261893154Y-49041461D01*
X261893154Y-49041461D02*
X261893154Y-49308128D01*
X261893154Y-49308128D02*
X261931249Y-49460509D01*
X261931249Y-49460509D02*
X262007440Y-49536700D01*
X262007440Y-49536700D02*
X262083630Y-49574795D01*
X262083630Y-49574795D02*
X262236011Y-49574795D01*
X262236011Y-49574795D02*
X262312202Y-49536700D01*
X262312202Y-49536700D02*
X262388392Y-49460509D01*
X262388392Y-49460509D02*
X262426488Y-49308128D01*
X262426488Y-49308128D02*
X262426488Y-49041461D01*
X262426488Y-49041461D02*
X262388392Y-48889080D01*
X262388392Y-48889080D02*
X262312202Y-48812890D01*
X262312202Y-48812890D02*
X262236011Y-48774795D01*
X202971428Y-97993545D02*
X203428571Y-97993545D01*
X203199999Y-97993545D02*
X203199999Y-97193545D01*
X203199999Y-97193545D02*
X203276190Y-97307830D01*
X203276190Y-97307830D02*
X203352380Y-97384021D01*
X203352380Y-97384021D02*
X203428571Y-97422116D01*
X241071428Y-59893545D02*
X241528571Y-59893545D01*
X241299999Y-59893545D02*
X241299999Y-59093545D01*
X241299999Y-59093545D02*
X241376190Y-59207830D01*
X241376190Y-59207830D02*
X241452380Y-59284021D01*
X241452380Y-59284021D02*
X241528571Y-59322116D01*
X260883333Y-40843545D02*
X261340476Y-40843545D01*
X261111904Y-40843545D02*
X261111904Y-40043545D01*
X261111904Y-40043545D02*
X261188095Y-40157830D01*
X261188095Y-40157830D02*
X261264285Y-40234021D01*
X261264285Y-40234021D02*
X261340476Y-40272116D01*
X260159523Y-40043545D02*
X260540475Y-40043545D01*
X260540475Y-40043545D02*
X260578571Y-40424497D01*
X260578571Y-40424497D02*
X260540475Y-40386402D01*
X260540475Y-40386402D02*
X260464285Y-40348307D01*
X260464285Y-40348307D02*
X260273809Y-40348307D01*
X260273809Y-40348307D02*
X260197618Y-40386402D01*
X260197618Y-40386402D02*
X260159523Y-40424497D01*
X260159523Y-40424497D02*
X260121428Y-40500688D01*
X260121428Y-40500688D02*
X260121428Y-40691164D01*
X260121428Y-40691164D02*
X260159523Y-40767354D01*
X260159523Y-40767354D02*
X260197618Y-40805450D01*
X260197618Y-40805450D02*
X260273809Y-40843545D01*
X260273809Y-40843545D02*
X260464285Y-40843545D01*
X260464285Y-40843545D02*
X260540475Y-40805450D01*
X260540475Y-40805450D02*
X260578571Y-40767354D01*
X259626189Y-40043545D02*
X259549999Y-40043545D01*
X259549999Y-40043545D02*
X259473808Y-40081640D01*
X259473808Y-40081640D02*
X259435713Y-40119735D01*
X259435713Y-40119735D02*
X259397618Y-40195926D01*
X259397618Y-40195926D02*
X259359523Y-40348307D01*
X259359523Y-40348307D02*
X259359523Y-40538783D01*
X259359523Y-40538783D02*
X259397618Y-40691164D01*
X259397618Y-40691164D02*
X259435713Y-40767354D01*
X259435713Y-40767354D02*
X259473808Y-40805450D01*
X259473808Y-40805450D02*
X259549999Y-40843545D01*
X259549999Y-40843545D02*
X259626189Y-40843545D01*
X259626189Y-40843545D02*
X259702380Y-40805450D01*
X259702380Y-40805450D02*
X259740475Y-40767354D01*
X259740475Y-40767354D02*
X259778570Y-40691164D01*
X259778570Y-40691164D02*
X259816666Y-40538783D01*
X259816666Y-40538783D02*
X259816666Y-40348307D01*
X259816666Y-40348307D02*
X259778570Y-40195926D01*
X259778570Y-40195926D02*
X259740475Y-40119735D01*
X259740475Y-40119735D02*
X259702380Y-40081640D01*
X259702380Y-40081640D02*
X259626189Y-40043545D01*
X113347320Y-48415652D02*
X113109225Y-49082319D01*
X113109225Y-49082319D02*
X112871130Y-48415652D01*
X111966368Y-49082319D02*
X112537796Y-49082319D01*
X112252082Y-49082319D02*
X112252082Y-48082319D01*
X112252082Y-48082319D02*
X112347320Y-48225176D01*
X112347320Y-48225176D02*
X112442558Y-48320414D01*
X112442558Y-48320414D02*
X112537796Y-48368033D01*
X111537796Y-48987080D02*
X111490177Y-49034700D01*
X111490177Y-49034700D02*
X111537796Y-49082319D01*
X111537796Y-49082319D02*
X111585415Y-49034700D01*
X111585415Y-49034700D02*
X111537796Y-48987080D01*
X111537796Y-48987080D02*
X111537796Y-49082319D01*
X110537797Y-49082319D02*
X111109225Y-49082319D01*
X110823511Y-49082319D02*
X110823511Y-48082319D01*
X110823511Y-48082319D02*
X110918749Y-48225176D01*
X110918749Y-48225176D02*
X111013987Y-48320414D01*
X111013987Y-48320414D02*
X111109225Y-48368033D01*
X65620833Y-97993545D02*
X66077976Y-97993545D01*
X65849404Y-97993545D02*
X65849404Y-97193545D01*
X65849404Y-97193545D02*
X65925595Y-97307830D01*
X65925595Y-97307830D02*
X66001785Y-97384021D01*
X66001785Y-97384021D02*
X66077976Y-97422116D01*
X64897023Y-97193545D02*
X65277975Y-97193545D01*
X65277975Y-97193545D02*
X65316071Y-97574497D01*
X65316071Y-97574497D02*
X65277975Y-97536402D01*
X65277975Y-97536402D02*
X65201785Y-97498307D01*
X65201785Y-97498307D02*
X65011309Y-97498307D01*
X65011309Y-97498307D02*
X64935118Y-97536402D01*
X64935118Y-97536402D02*
X64897023Y-97574497D01*
X64897023Y-97574497D02*
X64858928Y-97650688D01*
X64858928Y-97650688D02*
X64858928Y-97841164D01*
X64858928Y-97841164D02*
X64897023Y-97917354D01*
X64897023Y-97917354D02*
X64935118Y-97955450D01*
X64935118Y-97955450D02*
X65011309Y-97993545D01*
X65011309Y-97993545D02*
X65201785Y-97993545D01*
X65201785Y-97993545D02*
X65277975Y-97955450D01*
X65277975Y-97955450D02*
X65316071Y-97917354D01*
X64363689Y-97193545D02*
X64287499Y-97193545D01*
X64287499Y-97193545D02*
X64211308Y-97231640D01*
X64211308Y-97231640D02*
X64173213Y-97269735D01*
X64173213Y-97269735D02*
X64135118Y-97345926D01*
X64135118Y-97345926D02*
X64097023Y-97498307D01*
X64097023Y-97498307D02*
X64097023Y-97688783D01*
X64097023Y-97688783D02*
X64135118Y-97841164D01*
X64135118Y-97841164D02*
X64173213Y-97917354D01*
X64173213Y-97917354D02*
X64211308Y-97955450D01*
X64211308Y-97955450D02*
X64287499Y-97993545D01*
X64287499Y-97993545D02*
X64363689Y-97993545D01*
X64363689Y-97993545D02*
X64439880Y-97955450D01*
X64439880Y-97955450D02*
X64477975Y-97917354D01*
X64477975Y-97917354D02*
X64516070Y-97841164D01*
X64516070Y-97841164D02*
X64554166Y-97688783D01*
X64554166Y-97688783D02*
X64554166Y-97498307D01*
X64554166Y-97498307D02*
X64516070Y-97345926D01*
X64516070Y-97345926D02*
X64477975Y-97269735D01*
X64477975Y-97269735D02*
X64439880Y-97231640D01*
X64439880Y-97231640D02*
X64363689Y-97193545D01*
X231546428Y-78943545D02*
X232003571Y-78943545D01*
X231774999Y-78943545D02*
X231774999Y-78143545D01*
X231774999Y-78143545D02*
X231851190Y-78257830D01*
X231851190Y-78257830D02*
X231927380Y-78334021D01*
X231927380Y-78334021D02*
X232003571Y-78372116D01*
X258502083Y-78943545D02*
X258959226Y-78943545D01*
X258730654Y-78943545D02*
X258730654Y-78143545D01*
X258730654Y-78143545D02*
X258806845Y-78257830D01*
X258806845Y-78257830D02*
X258883035Y-78334021D01*
X258883035Y-78334021D02*
X258959226Y-78372116D01*
X258235416Y-78143545D02*
X257702082Y-78143545D01*
X257702082Y-78143545D02*
X258044940Y-78943545D01*
X257016368Y-78143545D02*
X257397320Y-78143545D01*
X257397320Y-78143545D02*
X257435416Y-78524497D01*
X257435416Y-78524497D02*
X257397320Y-78486402D01*
X257397320Y-78486402D02*
X257321130Y-78448307D01*
X257321130Y-78448307D02*
X257130654Y-78448307D01*
X257130654Y-78448307D02*
X257054463Y-78486402D01*
X257054463Y-78486402D02*
X257016368Y-78524497D01*
X257016368Y-78524497D02*
X256978273Y-78600688D01*
X256978273Y-78600688D02*
X256978273Y-78791164D01*
X256978273Y-78791164D02*
X257016368Y-78867354D01*
X257016368Y-78867354D02*
X257054463Y-78905450D01*
X257054463Y-78905450D02*
X257130654Y-78943545D01*
X257130654Y-78943545D02*
X257321130Y-78943545D01*
X257321130Y-78943545D02*
X257397320Y-78905450D01*
X257397320Y-78905450D02*
X257435416Y-78867354D01*
X249434226Y-78219735D02*
X249396130Y-78181640D01*
X249396130Y-78181640D02*
X249319940Y-78143545D01*
X249319940Y-78143545D02*
X249129464Y-78143545D01*
X249129464Y-78143545D02*
X249053273Y-78181640D01*
X249053273Y-78181640D02*
X249015178Y-78219735D01*
X249015178Y-78219735D02*
X248977083Y-78295926D01*
X248977083Y-78295926D02*
X248977083Y-78372116D01*
X248977083Y-78372116D02*
X249015178Y-78486402D01*
X249015178Y-78486402D02*
X249472321Y-78943545D01*
X249472321Y-78943545D02*
X248977083Y-78943545D01*
X248710416Y-78143545D02*
X248177082Y-78143545D01*
X248177082Y-78143545D02*
X248519940Y-78943545D01*
X247491368Y-78143545D02*
X247872320Y-78143545D01*
X247872320Y-78143545D02*
X247910416Y-78524497D01*
X247910416Y-78524497D02*
X247872320Y-78486402D01*
X247872320Y-78486402D02*
X247796130Y-78448307D01*
X247796130Y-78448307D02*
X247605654Y-78448307D01*
X247605654Y-78448307D02*
X247529463Y-78486402D01*
X247529463Y-78486402D02*
X247491368Y-78524497D01*
X247491368Y-78524497D02*
X247453273Y-78600688D01*
X247453273Y-78600688D02*
X247453273Y-78791164D01*
X247453273Y-78791164D02*
X247491368Y-78867354D01*
X247491368Y-78867354D02*
X247529463Y-78905450D01*
X247529463Y-78905450D02*
X247605654Y-78943545D01*
X247605654Y-78943545D02*
X247796130Y-78943545D01*
X247796130Y-78943545D02*
X247872320Y-78905450D01*
X247872320Y-78905450D02*
X247910416Y-78867354D01*
X146316665Y-95902418D02*
X145783331Y-95902418D01*
X145783331Y-95902418D02*
X146126189Y-96702418D01*
X146202380Y-97990373D02*
X146659523Y-97990373D01*
X146430951Y-97990373D02*
X146430951Y-97190373D01*
X146430951Y-97190373D02*
X146507142Y-97304658D01*
X146507142Y-97304658D02*
X146583332Y-97380849D01*
X146583332Y-97380849D02*
X146659523Y-97418944D01*
X145707141Y-97190373D02*
X145630951Y-97190373D01*
X145630951Y-97190373D02*
X145554760Y-97228468D01*
X145554760Y-97228468D02*
X145516665Y-97266563D01*
X145516665Y-97266563D02*
X145478570Y-97342754D01*
X145478570Y-97342754D02*
X145440475Y-97495135D01*
X145440475Y-97495135D02*
X145440475Y-97685611D01*
X145440475Y-97685611D02*
X145478570Y-97837992D01*
X145478570Y-97837992D02*
X145516665Y-97914182D01*
X145516665Y-97914182D02*
X145554760Y-97952278D01*
X145554760Y-97952278D02*
X145630951Y-97990373D01*
X145630951Y-97990373D02*
X145707141Y-97990373D01*
X145707141Y-97990373D02*
X145783332Y-97952278D01*
X145783332Y-97952278D02*
X145821427Y-97914182D01*
X145821427Y-97914182D02*
X145859522Y-97837992D01*
X145859522Y-97837992D02*
X145897618Y-97685611D01*
X145897618Y-97685611D02*
X145897618Y-97495135D01*
X145897618Y-97495135D02*
X145859522Y-97342754D01*
X145859522Y-97342754D02*
X145821427Y-97266563D01*
X145821427Y-97266563D02*
X145783332Y-97228468D01*
X145783332Y-97228468D02*
X145707141Y-97190373D01*
X34664583Y-78943545D02*
X35121726Y-78943545D01*
X34893154Y-78943545D02*
X34893154Y-78143545D01*
X34893154Y-78143545D02*
X34969345Y-78257830D01*
X34969345Y-78257830D02*
X35045535Y-78334021D01*
X35045535Y-78334021D02*
X35121726Y-78372116D01*
X34397916Y-78143545D02*
X33864582Y-78143545D01*
X33864582Y-78143545D02*
X34207440Y-78943545D01*
X33178868Y-78143545D02*
X33559820Y-78143545D01*
X33559820Y-78143545D02*
X33597916Y-78524497D01*
X33597916Y-78524497D02*
X33559820Y-78486402D01*
X33559820Y-78486402D02*
X33483630Y-78448307D01*
X33483630Y-78448307D02*
X33293154Y-78448307D01*
X33293154Y-78448307D02*
X33216963Y-78486402D01*
X33216963Y-78486402D02*
X33178868Y-78524497D01*
X33178868Y-78524497D02*
X33140773Y-78600688D01*
X33140773Y-78600688D02*
X33140773Y-78791164D01*
X33140773Y-78791164D02*
X33178868Y-78867354D01*
X33178868Y-78867354D02*
X33216963Y-78905450D01*
X33216963Y-78905450D02*
X33293154Y-78943545D01*
X33293154Y-78943545D02*
X33483630Y-78943545D01*
X33483630Y-78943545D02*
X33559820Y-78905450D01*
X33559820Y-78905450D02*
X33597916Y-78867354D01*
X168471726Y-97269735D02*
X168433630Y-97231640D01*
X168433630Y-97231640D02*
X168357440Y-97193545D01*
X168357440Y-97193545D02*
X168166964Y-97193545D01*
X168166964Y-97193545D02*
X168090773Y-97231640D01*
X168090773Y-97231640D02*
X168052678Y-97269735D01*
X168052678Y-97269735D02*
X168014583Y-97345926D01*
X168014583Y-97345926D02*
X168014583Y-97422116D01*
X168014583Y-97422116D02*
X168052678Y-97536402D01*
X168052678Y-97536402D02*
X168509821Y-97993545D01*
X168509821Y-97993545D02*
X168014583Y-97993545D01*
X167747916Y-97193545D02*
X167214582Y-97193545D01*
X167214582Y-97193545D02*
X167557440Y-97993545D01*
X166528868Y-97193545D02*
X166909820Y-97193545D01*
X166909820Y-97193545D02*
X166947916Y-97574497D01*
X166947916Y-97574497D02*
X166909820Y-97536402D01*
X166909820Y-97536402D02*
X166833630Y-97498307D01*
X166833630Y-97498307D02*
X166643154Y-97498307D01*
X166643154Y-97498307D02*
X166566963Y-97536402D01*
X166566963Y-97536402D02*
X166528868Y-97574497D01*
X166528868Y-97574497D02*
X166490773Y-97650688D01*
X166490773Y-97650688D02*
X166490773Y-97841164D01*
X166490773Y-97841164D02*
X166528868Y-97917354D01*
X166528868Y-97917354D02*
X166566963Y-97955450D01*
X166566963Y-97955450D02*
X166643154Y-97993545D01*
X166643154Y-97993545D02*
X166833630Y-97993545D01*
X166833630Y-97993545D02*
X166909820Y-97955450D01*
X166909820Y-97955450D02*
X166947916Y-97917354D01*
D11*
%TO.C,G\u002A\u002A\u002A*%
G36*
X132304280Y-97624370D02*
G01*
X132304280Y-98140351D01*
X132256122Y-98140351D01*
X132207963Y-98140351D01*
X132207963Y-97624370D01*
X132207963Y-97108390D01*
X132256122Y-97108390D01*
X132304280Y-97108390D01*
X132304280Y-97624370D01*
G37*
G36*
X133253684Y-97624370D02*
G01*
X133253684Y-98140351D01*
X133094578Y-98140351D01*
X132935472Y-98140351D01*
X132939784Y-98095633D01*
X132944096Y-98050914D01*
X133050732Y-98046896D01*
X133157368Y-98042877D01*
X133157368Y-97575633D01*
X133157368Y-97108390D01*
X133205526Y-97108390D01*
X133253684Y-97108390D01*
X133253684Y-97624370D01*
G37*
G36*
X135442165Y-97108536D02*
G01*
X135457069Y-97111340D01*
X135462326Y-97120256D01*
X135456958Y-97138734D01*
X135439993Y-97170229D01*
X135410453Y-97218192D01*
X135367364Y-97286077D01*
X135276327Y-97429365D01*
X135276327Y-97784858D01*
X135276327Y-98140351D01*
X135228169Y-98140351D01*
X135180011Y-98140351D01*
X135180011Y-97789010D01*
X135180011Y-97437670D01*
X135077636Y-97273030D01*
X134975261Y-97108390D01*
X135032918Y-97108747D01*
X135041157Y-97108817D01*
X135066118Y-97110579D01*
X135085213Y-97118074D01*
X135103457Y-97135764D01*
X135125862Y-97168111D01*
X135157440Y-97219577D01*
X135224306Y-97330051D01*
X135293759Y-97219220D01*
X135301161Y-97207422D01*
X135331667Y-97160040D01*
X135353647Y-97130844D01*
X135372013Y-97115437D01*
X135391678Y-97109419D01*
X135417558Y-97108390D01*
X135418588Y-97108389D01*
X135442165Y-97108536D01*
G37*
G36*
X131795179Y-97178414D02*
G01*
X131795179Y-97248438D01*
X131926233Y-97178414D01*
X131969689Y-97155588D01*
X132018177Y-97131176D01*
X132053716Y-97114539D01*
X132070707Y-97108390D01*
X132072376Y-97110968D01*
X132075836Y-97136098D01*
X132078738Y-97187012D01*
X132081049Y-97262502D01*
X132082739Y-97361363D01*
X132083776Y-97482388D01*
X132084128Y-97624370D01*
X132084128Y-98140351D01*
X132035970Y-98140351D01*
X131987812Y-98140351D01*
X131987812Y-97700048D01*
X131987722Y-97637850D01*
X131987159Y-97535886D01*
X131986140Y-97445159D01*
X131984729Y-97368924D01*
X131982993Y-97310440D01*
X131981000Y-97272961D01*
X131978814Y-97259744D01*
X131978177Y-97259820D01*
X131960451Y-97267328D01*
X131926308Y-97284722D01*
X131882498Y-97308576D01*
X131795179Y-97357407D01*
X131795179Y-97748879D01*
X131795179Y-98140351D01*
X131747021Y-98140351D01*
X131698863Y-98140351D01*
X131698863Y-97624370D01*
X131698863Y-97108390D01*
X131747021Y-97108390D01*
X131795179Y-97108390D01*
X131795179Y-97178414D01*
G37*
G36*
X134024215Y-97105186D02*
G01*
X134057073Y-97108785D01*
X134137072Y-97130223D01*
X134218144Y-97166320D01*
X134290760Y-97212374D01*
X134345390Y-97263682D01*
X134367449Y-97292499D01*
X134429394Y-97400120D01*
X134465371Y-97513806D01*
X134475080Y-97630946D01*
X134458220Y-97748929D01*
X134414492Y-97865144D01*
X134368328Y-97942831D01*
X134297505Y-98021364D01*
X134210341Y-98079214D01*
X134103605Y-98119018D01*
X134077125Y-98125508D01*
X134025817Y-98135225D01*
X133985504Y-98139445D01*
X133985474Y-98139446D01*
X133954650Y-98137905D01*
X133943491Y-98126081D01*
X133944226Y-98095748D01*
X133947356Y-98073776D01*
X133956702Y-98057189D01*
X133978862Y-98047921D01*
X134021102Y-98040776D01*
X134050166Y-98035656D01*
X134148326Y-98002291D01*
X134231596Y-97948456D01*
X134298037Y-97877359D01*
X134345715Y-97792210D01*
X134372692Y-97696217D01*
X134377031Y-97592589D01*
X134356796Y-97484536D01*
X134334679Y-97426027D01*
X134279939Y-97337631D01*
X134206584Y-97268579D01*
X134116691Y-97220616D01*
X134012339Y-97195485D01*
X133973411Y-97190237D01*
X133950875Y-97182897D01*
X133943353Y-97169186D01*
X133944375Y-97144226D01*
X133944541Y-97142532D01*
X133948206Y-97118925D01*
X133957950Y-97107157D01*
X133980908Y-97103740D01*
X134024215Y-97105186D01*
G37*
G36*
X137271452Y-97105186D02*
G01*
X137304310Y-97108785D01*
X137384309Y-97130223D01*
X137465381Y-97166320D01*
X137537997Y-97212374D01*
X137592628Y-97263682D01*
X137614687Y-97292499D01*
X137676632Y-97400120D01*
X137712608Y-97513806D01*
X137722317Y-97630946D01*
X137705457Y-97748929D01*
X137661729Y-97865144D01*
X137615566Y-97942831D01*
X137544742Y-98021364D01*
X137457578Y-98079214D01*
X137350842Y-98119018D01*
X137324362Y-98125508D01*
X137273055Y-98135225D01*
X137232742Y-98139445D01*
X137232711Y-98139446D01*
X137201887Y-98137905D01*
X137190728Y-98126081D01*
X137191463Y-98095748D01*
X137194593Y-98073776D01*
X137203939Y-98057189D01*
X137226099Y-98047921D01*
X137268339Y-98040776D01*
X137297403Y-98035656D01*
X137395563Y-98002291D01*
X137478833Y-97948456D01*
X137545275Y-97877359D01*
X137592952Y-97792210D01*
X137619929Y-97696217D01*
X137624268Y-97592589D01*
X137604033Y-97484536D01*
X137581917Y-97426027D01*
X137527177Y-97337631D01*
X137453821Y-97268579D01*
X137363928Y-97220616D01*
X137259576Y-97195485D01*
X137220648Y-97190237D01*
X137198112Y-97182897D01*
X137190590Y-97169186D01*
X137191613Y-97144226D01*
X137191778Y-97142532D01*
X137195443Y-97118925D01*
X137205187Y-97107157D01*
X137228145Y-97103740D01*
X137271452Y-97105186D01*
G37*
G36*
X133734550Y-97356061D02*
G01*
X133760759Y-97357673D01*
X133768846Y-97368195D01*
X133761203Y-97395961D01*
X133743994Y-97425671D01*
X133720641Y-97442831D01*
X133718149Y-97443546D01*
X133710491Y-97447684D01*
X133704646Y-97456736D01*
X133700371Y-97473931D01*
X133697421Y-97502498D01*
X133695552Y-97545667D01*
X133694520Y-97606667D01*
X133694080Y-97688726D01*
X133693987Y-97795076D01*
X133693987Y-98140351D01*
X133645829Y-98140351D01*
X133597671Y-98140351D01*
X133597671Y-97789484D01*
X133597671Y-97438617D01*
X133521994Y-97438617D01*
X133446317Y-97438617D01*
X133446317Y-97789484D01*
X133446317Y-98140351D01*
X133398158Y-98140351D01*
X133350000Y-98140351D01*
X133350000Y-97657711D01*
X133350000Y-97356061D01*
X133444943Y-97356061D01*
X133521994Y-97356061D01*
X133599044Y-97356061D01*
X133594918Y-97277876D01*
X133592723Y-97245343D01*
X133587240Y-97214475D01*
X133576223Y-97198799D01*
X133556392Y-97190907D01*
X133529074Y-97187341D01*
X133487595Y-97190539D01*
X133472940Y-97195266D01*
X133459527Y-97207416D01*
X133452656Y-97232379D01*
X133449070Y-97277508D01*
X133444943Y-97356061D01*
X133350000Y-97356061D01*
X133350000Y-97175070D01*
X133389208Y-97135862D01*
X133390310Y-97134771D01*
X133446014Y-97098433D01*
X133513061Y-97084063D01*
X133584501Y-97093181D01*
X133627792Y-97111162D01*
X133666262Y-97145704D01*
X133687480Y-97196786D01*
X133693987Y-97268480D01*
X133693987Y-97356061D01*
X133734550Y-97356061D01*
G37*
G36*
X132421579Y-97108400D02*
G01*
X132458445Y-97114308D01*
X132474554Y-97132469D01*
X132474953Y-97133894D01*
X132480983Y-97157828D01*
X132492038Y-97203394D01*
X132507038Y-97266089D01*
X132524907Y-97341411D01*
X132544565Y-97424858D01*
X132547481Y-97437259D01*
X132567152Y-97519888D01*
X132585139Y-97593780D01*
X132600314Y-97654416D01*
X132611550Y-97697277D01*
X132617718Y-97717844D01*
X132618138Y-97718661D01*
X132625054Y-97711954D01*
X132636879Y-97679028D01*
X132653402Y-97620622D01*
X132674413Y-97537477D01*
X132699699Y-97430331D01*
X132712072Y-97376840D01*
X132731713Y-97293165D01*
X132748996Y-97221055D01*
X132762988Y-97164328D01*
X132772756Y-97126802D01*
X132777370Y-97112295D01*
X132792921Y-97109476D01*
X132823530Y-97110859D01*
X132863845Y-97115270D01*
X132746315Y-97622548D01*
X132728291Y-97699913D01*
X132696950Y-97831820D01*
X132670927Y-97937372D01*
X132650116Y-98016973D01*
X132634407Y-98071030D01*
X132623693Y-98099947D01*
X132617866Y-98104130D01*
X132613958Y-98091485D01*
X132603894Y-98053888D01*
X132588931Y-97995349D01*
X132569887Y-97919154D01*
X132547583Y-97828589D01*
X132522837Y-97726939D01*
X132496471Y-97617491D01*
X132475887Y-97531726D01*
X132450971Y-97428237D01*
X132428477Y-97335167D01*
X132409200Y-97255786D01*
X132393933Y-97193363D01*
X132383471Y-97151168D01*
X132378609Y-97132469D01*
X132376859Y-97120438D01*
X132387477Y-97110813D01*
X132419381Y-97108390D01*
X132421579Y-97108400D01*
G37*
G36*
X138303413Y-98140351D02*
G01*
X138255255Y-98140351D01*
X138207097Y-98140351D01*
X138207097Y-98038686D01*
X138207097Y-97937021D01*
X138156348Y-97927501D01*
X138140508Y-97923955D01*
X138077711Y-97901924D01*
X138011852Y-97869230D01*
X137952925Y-97831322D01*
X137910928Y-97793653D01*
X137906485Y-97788322D01*
X137855515Y-97710025D01*
X137826221Y-97623119D01*
X137819815Y-97556808D01*
X137909639Y-97556808D01*
X137924876Y-97630832D01*
X137960330Y-97704151D01*
X138016831Y-97762359D01*
X138097021Y-97809010D01*
X138098648Y-97809748D01*
X138132641Y-97825327D01*
X138158692Y-97835420D01*
X138177852Y-97837275D01*
X138191176Y-97828136D01*
X138199716Y-97805251D01*
X138204524Y-97765866D01*
X138206656Y-97707228D01*
X138207162Y-97626582D01*
X138207097Y-97521174D01*
X138206991Y-97450613D01*
X138206334Y-97363064D01*
X138204921Y-97298112D01*
X138202573Y-97252779D01*
X138199112Y-97224086D01*
X138194360Y-97209055D01*
X138188138Y-97204706D01*
X138162278Y-97208945D01*
X138113120Y-97229087D01*
X138058752Y-97261815D01*
X138007379Y-97302681D01*
X137988701Y-97320957D01*
X137936758Y-97391586D01*
X137910757Y-97469286D01*
X137909639Y-97556808D01*
X137819815Y-97556808D01*
X137816373Y-97521174D01*
X137816333Y-97512023D01*
X137819017Y-97448642D01*
X137828551Y-97399607D01*
X137847023Y-97353495D01*
X137883149Y-97295740D01*
X137950616Y-97226211D01*
X138034109Y-97169563D01*
X138127409Y-97129795D01*
X138224296Y-97110908D01*
X138303413Y-97105082D01*
X138303413Y-97622717D01*
X138303413Y-97626582D01*
X138303413Y-98140351D01*
G37*
G36*
X130403529Y-97246478D02*
G01*
X130403721Y-97248165D01*
X130412540Y-97325706D01*
X130417633Y-97380234D01*
X130417850Y-97416055D01*
X130412044Y-97437474D01*
X130399065Y-97448799D01*
X130377765Y-97454336D01*
X130346994Y-97458390D01*
X130323830Y-97461957D01*
X130226426Y-97490382D01*
X130148020Y-97537522D01*
X130089683Y-97602554D01*
X130052487Y-97684656D01*
X130039304Y-97759737D01*
X130044554Y-97844637D01*
X130070235Y-97921910D01*
X130114522Y-97986399D01*
X130175594Y-98032949D01*
X130189112Y-98039618D01*
X130228869Y-98053729D01*
X130275485Y-98060449D01*
X130339157Y-98061561D01*
X130380985Y-98061133D01*
X130418220Y-98062488D01*
X130439234Y-98067943D01*
X130450515Y-98079553D01*
X130458552Y-98099372D01*
X130463542Y-98115247D01*
X130464092Y-98135813D01*
X130449190Y-98144818D01*
X130446124Y-98145473D01*
X130417228Y-98148489D01*
X130371044Y-98150951D01*
X130316035Y-98152380D01*
X130238706Y-98148251D01*
X130143696Y-98124443D01*
X130066509Y-98079678D01*
X130007276Y-98014074D01*
X129966130Y-97927747D01*
X129943203Y-97820816D01*
X129940689Y-97744405D01*
X129958862Y-97644125D01*
X130000816Y-97554490D01*
X130064794Y-97478038D01*
X130149038Y-97417310D01*
X130251790Y-97374847D01*
X130325139Y-97353461D01*
X130315574Y-97282524D01*
X130311690Y-97256112D01*
X130305089Y-97219857D01*
X130299890Y-97201266D01*
X130297124Y-97199498D01*
X130273331Y-97195130D01*
X130231235Y-97192088D01*
X130177628Y-97190947D01*
X130061485Y-97190947D01*
X130061485Y-97149668D01*
X130061485Y-97108390D01*
X130224656Y-97108390D01*
X130387827Y-97108390D01*
X130403529Y-97246478D01*
G37*
G36*
X136046858Y-97624434D02*
G01*
X136046858Y-97723587D01*
X136046858Y-98143887D01*
X135939950Y-98137698D01*
X135883355Y-98132187D01*
X135781201Y-98107221D01*
X135698377Y-98063401D01*
X135633790Y-98000043D01*
X135586341Y-97916461D01*
X135575884Y-97882285D01*
X135566742Y-97814310D01*
X135566543Y-97775865D01*
X135662278Y-97775865D01*
X135666792Y-97843051D01*
X135680361Y-97897205D01*
X135690856Y-97917081D01*
X135727127Y-97962568D01*
X135773393Y-98003486D01*
X135819051Y-98029703D01*
X135821915Y-98030721D01*
X135856690Y-98040492D01*
X135898944Y-98049612D01*
X135950542Y-98059041D01*
X135950542Y-97776348D01*
X135950583Y-97723587D01*
X135950478Y-97638512D01*
X135949183Y-97576288D01*
X135945568Y-97533816D01*
X135938503Y-97508001D01*
X135926859Y-97495744D01*
X135909507Y-97493950D01*
X135885316Y-97499521D01*
X135853156Y-97509361D01*
X135821192Y-97521812D01*
X135762584Y-97557955D01*
X135712625Y-97604540D01*
X135680523Y-97653858D01*
X135680385Y-97654190D01*
X135666812Y-97708594D01*
X135662278Y-97775865D01*
X135566543Y-97775865D01*
X135566352Y-97738776D01*
X135574538Y-97666944D01*
X135591123Y-97610078D01*
X135591176Y-97609963D01*
X135626588Y-97555100D01*
X135679100Y-97500513D01*
X135739489Y-97454430D01*
X135798536Y-97425073D01*
X135854729Y-97406528D01*
X135827170Y-97377193D01*
X135799695Y-97334105D01*
X135792400Y-97290808D01*
X135882913Y-97290808D01*
X135896195Y-97322494D01*
X135910674Y-97336928D01*
X135931950Y-97342764D01*
X135945676Y-97323251D01*
X135950542Y-97279426D01*
X135950410Y-97262180D01*
X135947643Y-97232423D01*
X135938552Y-97220917D01*
X135919583Y-97220949D01*
X135901875Y-97229319D01*
X135885630Y-97256173D01*
X135882913Y-97290808D01*
X135792400Y-97290808D01*
X135789915Y-97276058D01*
X135805121Y-97216619D01*
X135805798Y-97215236D01*
X135844919Y-97160727D01*
X135899844Y-97126644D01*
X135973662Y-97111052D01*
X136046858Y-97104982D01*
X136046858Y-97279426D01*
X136046858Y-97624434D01*
G37*
G36*
X137023781Y-97624434D02*
G01*
X137023781Y-97723587D01*
X137023781Y-98143887D01*
X136916873Y-98137698D01*
X136860278Y-98132187D01*
X136758124Y-98107221D01*
X136675300Y-98063401D01*
X136610713Y-98000043D01*
X136563265Y-97916461D01*
X136552807Y-97882285D01*
X136543665Y-97814310D01*
X136543466Y-97775865D01*
X136639201Y-97775865D01*
X136643715Y-97843051D01*
X136657284Y-97897205D01*
X136667779Y-97917081D01*
X136704050Y-97962568D01*
X136750316Y-98003486D01*
X136795974Y-98029703D01*
X136798838Y-98030721D01*
X136833613Y-98040492D01*
X136875867Y-98049612D01*
X136927465Y-98059041D01*
X136927465Y-97776348D01*
X136927506Y-97723587D01*
X136927401Y-97638512D01*
X136926106Y-97576288D01*
X136922491Y-97533816D01*
X136915426Y-97508001D01*
X136903783Y-97495744D01*
X136886430Y-97493950D01*
X136862239Y-97499521D01*
X136830079Y-97509361D01*
X136798115Y-97521812D01*
X136739508Y-97557955D01*
X136689548Y-97604540D01*
X136657446Y-97653858D01*
X136657308Y-97654190D01*
X136643735Y-97708594D01*
X136639201Y-97775865D01*
X136543466Y-97775865D01*
X136543275Y-97738776D01*
X136551461Y-97666944D01*
X136568046Y-97610078D01*
X136568099Y-97609963D01*
X136603511Y-97555100D01*
X136656023Y-97500513D01*
X136716412Y-97454430D01*
X136775459Y-97425073D01*
X136831652Y-97406528D01*
X136804093Y-97377193D01*
X136776618Y-97334105D01*
X136769323Y-97290808D01*
X136859836Y-97290808D01*
X136873118Y-97322494D01*
X136887597Y-97336928D01*
X136908873Y-97342764D01*
X136922599Y-97323251D01*
X136927465Y-97279426D01*
X136927333Y-97262180D01*
X136924566Y-97232423D01*
X136915475Y-97220917D01*
X136896506Y-97220949D01*
X136878798Y-97229319D01*
X136862554Y-97256173D01*
X136859836Y-97290808D01*
X136769323Y-97290808D01*
X136766838Y-97276058D01*
X136782044Y-97216619D01*
X136782721Y-97215236D01*
X136821842Y-97160727D01*
X136876768Y-97126644D01*
X136950585Y-97111052D01*
X137023781Y-97104982D01*
X137023781Y-97279426D01*
X137023781Y-97624434D01*
G37*
G36*
X129813680Y-97760723D02*
G01*
X129804408Y-97838794D01*
X129771077Y-97928490D01*
X129717035Y-98008553D01*
X129645997Y-98073702D01*
X129561682Y-98118658D01*
X129560042Y-98119257D01*
X129472471Y-98137193D01*
X129379357Y-98132506D01*
X129287496Y-98107061D01*
X129203687Y-98062727D01*
X129134726Y-98001370D01*
X129112502Y-97972750D01*
X129069071Y-97889957D01*
X129048747Y-97802430D01*
X129049334Y-97754793D01*
X129139599Y-97754793D01*
X129140093Y-97772682D01*
X129157782Y-97859719D01*
X129199049Y-97935258D01*
X129261446Y-97995879D01*
X129342524Y-98038163D01*
X129364564Y-98045261D01*
X129431256Y-98055150D01*
X129498060Y-98044702D01*
X129573112Y-98013029D01*
X129586909Y-98005309D01*
X129648242Y-97954087D01*
X129691428Y-97888369D01*
X129715971Y-97813509D01*
X129721376Y-97734865D01*
X129707147Y-97657794D01*
X129672790Y-97587652D01*
X129617807Y-97529795D01*
X129569285Y-97497892D01*
X129500414Y-97471972D01*
X129419607Y-97464178D01*
X129390482Y-97465508D01*
X129307819Y-97485609D01*
X129238529Y-97527568D01*
X129185482Y-97588404D01*
X129151548Y-97665139D01*
X129139599Y-97754793D01*
X129049334Y-97754793D01*
X129049837Y-97713984D01*
X129070648Y-97628438D01*
X129109487Y-97549609D01*
X129164661Y-97481314D01*
X129234478Y-97427370D01*
X129317244Y-97391596D01*
X129411266Y-97377808D01*
X129439105Y-97376989D01*
X129471035Y-97374670D01*
X129483504Y-97371662D01*
X129482568Y-97369631D01*
X129469824Y-97351218D01*
X129445276Y-97318449D01*
X129412911Y-97276691D01*
X129402614Y-97263398D01*
X129371549Y-97220702D01*
X129349490Y-97186376D01*
X129340674Y-97166862D01*
X129346741Y-97149152D01*
X129368543Y-97127013D01*
X129371542Y-97125045D01*
X129382347Y-97120289D01*
X129394266Y-97121749D01*
X129410004Y-97131950D01*
X129432264Y-97153419D01*
X129463751Y-97188679D01*
X129507170Y-97240257D01*
X129565224Y-97310678D01*
X129637873Y-97400797D01*
X129699572Y-97482167D01*
X129745780Y-97550399D01*
X129778396Y-97608931D01*
X129799319Y-97661203D01*
X129810447Y-97710654D01*
X129812010Y-97734865D01*
X129813680Y-97760723D01*
G37*
G36*
X128891929Y-97149668D02*
G01*
X128891929Y-97190947D01*
X128795612Y-97190947D01*
X128791785Y-97190954D01*
X128745042Y-97192233D01*
X128711893Y-97195296D01*
X128699296Y-97199524D01*
X128700447Y-97203062D01*
X128712058Y-97225735D01*
X128733500Y-97263517D01*
X128761467Y-97310504D01*
X128773351Y-97330509D01*
X128797712Y-97374901D01*
X128813122Y-97408140D01*
X128816657Y-97424203D01*
X128814768Y-97426221D01*
X128793132Y-97436166D01*
X128757926Y-97445093D01*
X128711068Y-97458271D01*
X128643212Y-97489620D01*
X128581271Y-97530564D01*
X128535968Y-97574835D01*
X128531389Y-97580944D01*
X128514649Y-97607621D01*
X128505096Y-97636253D01*
X128500788Y-97675350D01*
X128499784Y-97733422D01*
X128499784Y-97734431D01*
X128501109Y-97794274D01*
X128506470Y-97836751D01*
X128518025Y-97871813D01*
X128537929Y-97909413D01*
X128551903Y-97930950D01*
X128588918Y-97977056D01*
X128626265Y-98012609D01*
X128645397Y-98026316D01*
X128676491Y-98041937D01*
X128713430Y-98049159D01*
X128766993Y-98050914D01*
X128812213Y-98050144D01*
X128859621Y-98047652D01*
X128890650Y-98044035D01*
X128901702Y-98042340D01*
X128922829Y-98048546D01*
X128936801Y-98075853D01*
X128942343Y-98093864D01*
X128943167Y-98116327D01*
X128927149Y-98129815D01*
X128889187Y-98141350D01*
X128872845Y-98144831D01*
X128806846Y-98150258D01*
X128733390Y-98146589D01*
X128663915Y-98134858D01*
X128609859Y-98116099D01*
X128566791Y-98089846D01*
X128494864Y-98023063D01*
X128440251Y-97938988D01*
X128405475Y-97842039D01*
X128393059Y-97736629D01*
X128394144Y-97697665D01*
X128401337Y-97634730D01*
X128413945Y-97588051D01*
X128419013Y-97576860D01*
X128465724Y-97505810D01*
X128530590Y-97443240D01*
X128605512Y-97397220D01*
X128637666Y-97382499D01*
X128669665Y-97367504D01*
X128684253Y-97360181D01*
X128682272Y-97353489D01*
X128668279Y-97328053D01*
X128643872Y-97288363D01*
X128612016Y-97239377D01*
X128588854Y-97204253D01*
X128560640Y-97160420D01*
X128541336Y-97129084D01*
X128534182Y-97115405D01*
X128534670Y-97114886D01*
X128552213Y-97112345D01*
X128591197Y-97110281D01*
X128646514Y-97108896D01*
X128713056Y-97108390D01*
X128891929Y-97108390D01*
X128891929Y-97149668D01*
G37*
G36*
X131591756Y-97686504D02*
G01*
X131581846Y-97752548D01*
X131562959Y-97812898D01*
X131557761Y-97825548D01*
X131504117Y-97918116D01*
X131428841Y-98001462D01*
X131336881Y-98070951D01*
X131233184Y-98121945D01*
X131206964Y-98129053D01*
X131141099Y-98136291D01*
X131051709Y-98136711D01*
X131040070Y-98136336D01*
X130975154Y-98132692D01*
X130926746Y-98125704D01*
X130885277Y-98113425D01*
X130841178Y-98093912D01*
X130809918Y-98077005D01*
X130722440Y-98012489D01*
X130646176Y-97931362D01*
X130589231Y-97841735D01*
X130576027Y-97813555D01*
X130562379Y-97776949D01*
X130554554Y-97739037D01*
X130550980Y-97691087D01*
X130550294Y-97639927D01*
X130640450Y-97639927D01*
X130655191Y-97736791D01*
X130688289Y-97822818D01*
X130705892Y-97852175D01*
X130765431Y-97925523D01*
X130836439Y-97984501D01*
X130911659Y-98022618D01*
X131021497Y-98047831D01*
X131129299Y-98047862D01*
X131229656Y-98022720D01*
X131320040Y-97973401D01*
X131397921Y-97900904D01*
X131460767Y-97806224D01*
X131468186Y-97790613D01*
X131492317Y-97709415D01*
X131500814Y-97618670D01*
X131493406Y-97528916D01*
X131469827Y-97450693D01*
X131423174Y-97372532D01*
X131349499Y-97294349D01*
X131260768Y-97236075D01*
X131216831Y-97216489D01*
X131176302Y-97204765D01*
X131129534Y-97199299D01*
X131065927Y-97198020D01*
X131003367Y-97199424D01*
X130957563Y-97204753D01*
X130919335Y-97215985D01*
X130878693Y-97235097D01*
X130812939Y-97278917D01*
X130747355Y-97341260D01*
X130693752Y-97411669D01*
X130659296Y-97482081D01*
X130644953Y-97542651D01*
X130640450Y-97639927D01*
X130550294Y-97639927D01*
X130550085Y-97624370D01*
X130550323Y-97581103D01*
X130552652Y-97526087D01*
X130558744Y-97484230D01*
X130570157Y-97446587D01*
X130588452Y-97404219D01*
X130615028Y-97355327D01*
X130681140Y-97268679D01*
X130762366Y-97194506D01*
X130851216Y-97140330D01*
X130878311Y-97128276D01*
X130917289Y-97114203D01*
X130956750Y-97106102D01*
X131005697Y-97102396D01*
X131073131Y-97101510D01*
X131134397Y-97102084D01*
X131182659Y-97105085D01*
X131220669Y-97112272D01*
X131257405Y-97125401D01*
X131301849Y-97146228D01*
X131313528Y-97152148D01*
X131409740Y-97216741D01*
X131488709Y-97301695D01*
X131551974Y-97408627D01*
X131556651Y-97418610D01*
X131577080Y-97466772D01*
X131588663Y-97508426D01*
X131593704Y-97554893D01*
X131594507Y-97617491D01*
X131594460Y-97618670D01*
X131591756Y-97686504D01*
G37*
D12*
%TO.C,C7*%
X109134782Y-93870474D02*
X109350454Y-93870474D01*
X109134782Y-94590474D02*
X109350454Y-94590474D01*
%TO.C,R10*%
X47548859Y-77407500D02*
X47856141Y-77407500D01*
X47548859Y-78167500D02*
X47856141Y-78167500D01*
%TO.C,R9*%
X47775109Y-66295000D02*
X48082391Y-66295000D01*
X47775109Y-67055000D02*
X48082391Y-67055000D01*
%TO.C,U4*%
X102421250Y-95843750D02*
X102421250Y-95043750D01*
X102421250Y-95843750D02*
X102421250Y-96643750D01*
X105541250Y-95843750D02*
X105541250Y-95043750D01*
X105541250Y-95843750D02*
X105541250Y-97643750D01*
%TO.C,R21*%
X51233859Y-76613750D02*
X51541141Y-76613750D01*
X51233859Y-77373750D02*
X51541141Y-77373750D01*
%TO.C,R8*%
X51007500Y-69719891D02*
X51007500Y-69412609D01*
X51767500Y-69719891D02*
X51767500Y-69412609D01*
%TO.C,C12*%
X104892243Y-92800507D02*
X105107915Y-92800507D01*
X104892243Y-93520507D02*
X105107915Y-93520507D01*
%TO.C,U2*%
X36333750Y-53181250D02*
X36333750Y-52531250D01*
X36333750Y-53181250D02*
X36333750Y-53831250D01*
X39453750Y-53181250D02*
X39453750Y-52531250D01*
X39453750Y-53181250D02*
X39453750Y-54856250D01*
%TO.C,R5*%
X110920526Y-87552100D02*
X110920526Y-87859382D01*
X111680526Y-87552100D02*
X111680526Y-87859382D01*
%TO.C,R3*%
X131408945Y-84055371D02*
X131716227Y-84055371D01*
X131408945Y-84815371D02*
X131716227Y-84815371D01*
D13*
%TO.C,U3*%
X44748750Y-70031970D02*
X50088750Y-70031970D01*
X44748750Y-74431250D02*
X44748750Y-70031970D01*
D14*
X44934630Y-70031610D02*
X44919390Y-70031610D01*
D13*
X49689970Y-76261610D02*
X50088750Y-76261610D01*
X50088750Y-70031970D02*
X50088750Y-74431250D01*
X50088750Y-74431250D02*
X44748750Y-74431250D01*
X50088750Y-76261610D02*
X50088750Y-74431250D01*
D12*
%TO.C,C5*%
X99359330Y-81246250D02*
X99078170Y-81246250D01*
X99359330Y-82266250D02*
X99078170Y-82266250D01*
%TO.C,C14*%
X187912836Y-82983750D02*
X187697164Y-82983750D01*
X187912836Y-83703750D02*
X187697164Y-83703750D01*
%TO.C,C1*%
X109115914Y-92848318D02*
X109331586Y-92848318D01*
X109115914Y-93568318D02*
X109331586Y-93568318D01*
%TO.C,C3*%
X110934969Y-89717460D02*
X110934969Y-89501788D01*
X111654969Y-89717460D02*
X111654969Y-89501788D01*
D13*
%TO.C,U5*%
X182273750Y-85906970D02*
X187613750Y-85906970D01*
X182273750Y-90306250D02*
X182273750Y-85906970D01*
D14*
X182459630Y-85906610D02*
X182444390Y-85906610D01*
D13*
X187214970Y-92136610D02*
X187613750Y-92136610D01*
X187613750Y-85906970D02*
X187613750Y-90306250D01*
X187613750Y-90306250D02*
X182273750Y-90306250D01*
X187613750Y-92136610D02*
X187613750Y-90306250D01*
D11*
%TO.C,G\u002A\u002A\u002A*%
G36*
X126273250Y-98097000D02*
G01*
X126159264Y-98211000D01*
X126004264Y-98211000D01*
X125849264Y-98211000D01*
X125963250Y-98097000D01*
X126077237Y-97983000D01*
X126232237Y-97983000D01*
X126387237Y-97983000D01*
X126273250Y-98097000D01*
G37*
G36*
X126665250Y-98211000D02*
G01*
X126437257Y-98439000D01*
X126283754Y-98439000D01*
X126279311Y-98438999D01*
X126255115Y-98438973D01*
X126232169Y-98438912D01*
X126210778Y-98438818D01*
X126191247Y-98438695D01*
X126173883Y-98438545D01*
X126158990Y-98438372D01*
X126146875Y-98438178D01*
X126137843Y-98437967D01*
X126132200Y-98437741D01*
X126130250Y-98437503D01*
X126130933Y-98436704D01*
X126134213Y-98433262D01*
X126140068Y-98427250D01*
X126148350Y-98418818D01*
X126158908Y-98408118D01*
X126171593Y-98395299D01*
X126186255Y-98380514D01*
X126202744Y-98363912D01*
X126220911Y-98345644D01*
X126240605Y-98325862D01*
X126261677Y-98304715D01*
X126283976Y-98282355D01*
X126307355Y-98258933D01*
X126331662Y-98234598D01*
X126356747Y-98209503D01*
X126583244Y-97983000D01*
X126738244Y-97983000D01*
X126893244Y-97983000D01*
X126665250Y-98211000D01*
G37*
G36*
X127588749Y-97426498D02*
G01*
X127980251Y-97817996D01*
X127980251Y-98210996D01*
X127980250Y-98603996D01*
X127588752Y-98995498D01*
X127197254Y-99387000D01*
X126706250Y-99387000D01*
X126215247Y-99387000D01*
X125823250Y-98995000D01*
X125431254Y-98603000D01*
X126215256Y-98603000D01*
X126999258Y-98603000D01*
X127195250Y-98407000D01*
X127391243Y-98211000D01*
X127195250Y-98015000D01*
X126999258Y-97818999D01*
X126415754Y-97819000D01*
X126375045Y-97818996D01*
X126327877Y-97818985D01*
X126281888Y-97818966D01*
X126237234Y-97818940D01*
X126194072Y-97818906D01*
X126152558Y-97818865D01*
X126112849Y-97818818D01*
X126075103Y-97818765D01*
X126039475Y-97818705D01*
X126006123Y-97818640D01*
X125975204Y-97818570D01*
X125946873Y-97818495D01*
X125921289Y-97818416D01*
X125898607Y-97818332D01*
X125878985Y-97818244D01*
X125862578Y-97818153D01*
X125849545Y-97818058D01*
X125840041Y-97817961D01*
X125834224Y-97817861D01*
X125832250Y-97817759D01*
X125833638Y-97814998D01*
X125837580Y-97809818D01*
X125843738Y-97802567D01*
X125851775Y-97793592D01*
X125861354Y-97783238D01*
X125872136Y-97771853D01*
X125883785Y-97759783D01*
X125895963Y-97747375D01*
X125908333Y-97734975D01*
X125920558Y-97722931D01*
X125932299Y-97711588D01*
X125943220Y-97701294D01*
X125952983Y-97692395D01*
X125961250Y-97685237D01*
X125992599Y-97660054D01*
X126042742Y-97623532D01*
X126094361Y-97590476D01*
X126147694Y-97560767D01*
X126202980Y-97534282D01*
X126260460Y-97510903D01*
X126320372Y-97490508D01*
X126382955Y-97472978D01*
X126388880Y-97471455D01*
X126398075Y-97468961D01*
X126405230Y-97466847D01*
X126409729Y-97465300D01*
X126410955Y-97464507D01*
X126409320Y-97463898D01*
X126404594Y-97462575D01*
X126398250Y-97461045D01*
X126392383Y-97459672D01*
X126377458Y-97455892D01*
X126360306Y-97451244D01*
X126341984Y-97446032D01*
X126323554Y-97440562D01*
X126306072Y-97435138D01*
X126290600Y-97430064D01*
X126282524Y-97427283D01*
X126223546Y-97404709D01*
X126166403Y-97378804D01*
X126111351Y-97349703D01*
X126058648Y-97317541D01*
X126008553Y-97282453D01*
X126006756Y-97281105D01*
X125999024Y-97275296D01*
X125992628Y-97270472D01*
X125988192Y-97267104D01*
X125986337Y-97265663D01*
X125986583Y-97265288D01*
X125989092Y-97262517D01*
X125994126Y-97257234D01*
X126001477Y-97249650D01*
X126010938Y-97239977D01*
X126022300Y-97228427D01*
X126035354Y-97215211D01*
X126049893Y-97200541D01*
X126065707Y-97184628D01*
X126082589Y-97167684D01*
X126100331Y-97149919D01*
X126215237Y-97035000D01*
X126706242Y-97035000D01*
X127197247Y-97035000D01*
X127588749Y-97426498D01*
G37*
G36*
X125519356Y-96832021D02*
G01*
X125528526Y-96867558D01*
X125546053Y-96923476D01*
X125566872Y-96977201D01*
X125591038Y-97028858D01*
X125618609Y-97078576D01*
X125649639Y-97126481D01*
X125667593Y-97151232D01*
X125703027Y-97194973D01*
X125741347Y-97236200D01*
X125782333Y-97274759D01*
X125825761Y-97310496D01*
X125871412Y-97343258D01*
X125919064Y-97372890D01*
X125968495Y-97399238D01*
X126019484Y-97422149D01*
X126071810Y-97441470D01*
X126125250Y-97457045D01*
X126127503Y-97457618D01*
X126136960Y-97460104D01*
X126144832Y-97462296D01*
X126150353Y-97463974D01*
X126152756Y-97464918D01*
X126152305Y-97465520D01*
X126148847Y-97466938D01*
X126142748Y-97468794D01*
X126134756Y-97470845D01*
X126116698Y-97475432D01*
X126081078Y-97486012D01*
X126044483Y-97498735D01*
X126008133Y-97513162D01*
X125973250Y-97528854D01*
X125936075Y-97547850D01*
X125887020Y-97576723D01*
X125840206Y-97608770D01*
X125795779Y-97643826D01*
X125753884Y-97681728D01*
X125714665Y-97722313D01*
X125678268Y-97765417D01*
X125644839Y-97810877D01*
X125614521Y-97858529D01*
X125587461Y-97908209D01*
X125563803Y-97959753D01*
X125543692Y-98013000D01*
X125541039Y-98020946D01*
X125537987Y-98030442D01*
X125535024Y-98040170D01*
X125531940Y-98050859D01*
X125528526Y-98063240D01*
X125524570Y-98078044D01*
X125519865Y-98096000D01*
X125519475Y-98097477D01*
X125518689Y-98099925D01*
X125517918Y-98100606D01*
X125516966Y-98099097D01*
X125515633Y-98094976D01*
X125513721Y-98087820D01*
X125511031Y-98077207D01*
X125510002Y-98073222D01*
X125506484Y-98060452D01*
X125502246Y-98045957D01*
X125497731Y-98031235D01*
X125493385Y-98017779D01*
X125478549Y-97976901D01*
X125455892Y-97924499D01*
X125429900Y-97874097D01*
X125400715Y-97825823D01*
X125368478Y-97779811D01*
X125333330Y-97736192D01*
X125295412Y-97695097D01*
X125254864Y-97656657D01*
X125211828Y-97621005D01*
X125166444Y-97588271D01*
X125118854Y-97558587D01*
X125069199Y-97532085D01*
X125017619Y-97508896D01*
X124964256Y-97489152D01*
X124909250Y-97472983D01*
X124902899Y-97471310D01*
X124893925Y-97468779D01*
X124887109Y-97466641D01*
X124883025Y-97465081D01*
X124882250Y-97464284D01*
X124882403Y-97464236D01*
X124885777Y-97463300D01*
X124892094Y-97461639D01*
X124900509Y-97459473D01*
X124910176Y-97457022D01*
X124932099Y-97451134D01*
X124981803Y-97435108D01*
X125031201Y-97415568D01*
X125079668Y-97392819D01*
X125126582Y-97367168D01*
X125171317Y-97338920D01*
X125213250Y-97308382D01*
X125232670Y-97292582D01*
X125256645Y-97271638D01*
X125280626Y-97249253D01*
X125303736Y-97226275D01*
X125325102Y-97203549D01*
X125343848Y-97181924D01*
X125359164Y-97162798D01*
X125393238Y-97115737D01*
X125423911Y-97066611D01*
X125451117Y-97015551D01*
X125474789Y-96962687D01*
X125494861Y-96908148D01*
X125511268Y-96852065D01*
X125512436Y-96847536D01*
X125514835Y-96838606D01*
X125516560Y-96833001D01*
X125517778Y-96830309D01*
X125518655Y-96830119D01*
X125519356Y-96832021D01*
G37*
D12*
%TO.C,R11*%
X107404587Y-93812967D02*
X107097305Y-93812967D01*
X107404587Y-94572967D02*
X107097305Y-94572967D01*
%TO.C,R1*%
X131396921Y-86132696D02*
X131704203Y-86132696D01*
X131396921Y-86892696D02*
X131704203Y-86892696D01*
%TO.C,R6*%
X43012609Y-71851250D02*
X43319891Y-71851250D01*
X43012609Y-72611250D02*
X43319891Y-72611250D01*
%TO.C,R19*%
X187974462Y-88543641D02*
X187974462Y-88236359D01*
X188734462Y-88543641D02*
X188734462Y-88236359D01*
%TO.C,C13*%
X101240000Y-96631586D02*
X101240000Y-96415914D01*
X101960000Y-96631586D02*
X101960000Y-96415914D01*
%TO.C,R2*%
X131397413Y-85068710D02*
X131704695Y-85068710D01*
X131397413Y-85828710D02*
X131704695Y-85828710D01*
%TO.C,C2*%
X109614860Y-82091752D02*
X109614860Y-82307424D01*
X110334860Y-82091752D02*
X110334860Y-82307424D01*
%TO.C,SW1*%
X182348750Y-98167500D02*
X182348750Y-95507500D01*
X184948750Y-95507500D02*
X182348750Y-95507500D01*
X184948750Y-98167500D02*
X182348750Y-98167500D01*
X184948750Y-98167500D02*
X184948750Y-95507500D01*
X186218750Y-98167500D02*
X187548750Y-98167500D01*
X187548750Y-98167500D02*
X187548750Y-96837500D01*
%TO.C,C10*%
X38008724Y-55346250D02*
X37793052Y-55346250D01*
X38008724Y-56066250D02*
X37793052Y-56066250D01*
%TO.C,R17*%
X180595000Y-87668859D02*
X180595000Y-87976141D01*
X181355000Y-87668859D02*
X181355000Y-87976141D01*
%TO.C,J1*%
X38490000Y-42927500D02*
X38490000Y-43977500D01*
X38490000Y-43977500D02*
X37500000Y-43977500D01*
X38490000Y-49147500D02*
X38490000Y-48097500D01*
X40990000Y-42927500D02*
X38490000Y-42927500D01*
X40990000Y-49147500D02*
X38490000Y-49147500D01*
X42960000Y-44097500D02*
X42960000Y-47977500D01*
%TO.C,C9*%
X38045163Y-50390000D02*
X37829491Y-50390000D01*
X38045163Y-51110000D02*
X37829491Y-51110000D01*
D11*
%TO.C,G\u002A\u002A\u002A*%
G36*
X126465643Y-96037194D02*
G01*
X126465643Y-96528933D01*
X126419747Y-96528933D01*
X126373852Y-96528933D01*
X126373852Y-96037194D01*
X126373852Y-95545454D01*
X126419747Y-95545454D01*
X126465643Y-95545454D01*
X126465643Y-96037194D01*
G37*
G36*
X133284435Y-96037194D02*
G01*
X133284435Y-96528933D01*
X133238539Y-96528933D01*
X133192644Y-96528933D01*
X133192644Y-96037194D01*
X133192644Y-95545454D01*
X133238539Y-95545454D01*
X133284435Y-95545454D01*
X133284435Y-96037194D01*
G37*
G36*
X127370444Y-95584793D02*
G01*
X127370362Y-95593240D01*
X127366576Y-95614160D01*
X127351625Y-95622579D01*
X127317992Y-95624132D01*
X127265540Y-95624132D01*
X127265540Y-96076533D01*
X127265540Y-96528933D01*
X127219816Y-96528933D01*
X127174093Y-96528933D01*
X127170642Y-96079811D01*
X127167192Y-95630689D01*
X127111461Y-95626656D01*
X127097544Y-95625547D01*
X127069460Y-95620440D01*
X127057950Y-95608460D01*
X127055731Y-95584039D01*
X127055731Y-95545454D01*
X127213088Y-95545454D01*
X127370444Y-95545454D01*
X127370444Y-95584793D01*
G37*
G36*
X133074626Y-95584793D02*
G01*
X133074543Y-95593240D01*
X133070758Y-95614160D01*
X133055807Y-95622579D01*
X133022174Y-95624132D01*
X132969722Y-95624132D01*
X132969722Y-96076533D01*
X132969722Y-96528933D01*
X132923998Y-96528933D01*
X132878274Y-96528933D01*
X132874824Y-96079811D01*
X132871374Y-95630689D01*
X132815643Y-95626656D01*
X132801726Y-95625547D01*
X132773642Y-95620440D01*
X132762131Y-95608460D01*
X132759913Y-95584039D01*
X132759913Y-95545454D01*
X132917269Y-95545454D01*
X133074626Y-95545454D01*
X133074626Y-95584793D01*
G37*
G36*
X136903640Y-95584793D02*
G01*
X136903557Y-95593240D01*
X136899772Y-95614160D01*
X136884821Y-95622579D01*
X136851188Y-95624132D01*
X136798736Y-95624132D01*
X136798736Y-96076533D01*
X136798736Y-96528933D01*
X136753012Y-96528933D01*
X136707288Y-96528933D01*
X136703838Y-96079811D01*
X136700388Y-95630689D01*
X136644657Y-95626656D01*
X136630739Y-95625547D01*
X136602656Y-95620440D01*
X136591145Y-95608460D01*
X136588927Y-95584039D01*
X136588927Y-95545454D01*
X136746283Y-95545454D01*
X136903640Y-95545454D01*
X136903640Y-95584793D01*
G37*
G36*
X135527458Y-95545593D02*
G01*
X135541662Y-95548266D01*
X135546672Y-95556762D01*
X135541557Y-95574373D01*
X135525388Y-95604388D01*
X135497236Y-95650098D01*
X135456171Y-95714793D01*
X135369412Y-95851349D01*
X135369412Y-96190141D01*
X135369412Y-96528933D01*
X135323516Y-96528933D01*
X135277620Y-96528933D01*
X135277620Y-96194099D01*
X135277620Y-95859264D01*
X135180055Y-95702359D01*
X135082490Y-95545454D01*
X135137438Y-95545794D01*
X135145290Y-95545861D01*
X135169078Y-95547540D01*
X135187276Y-95554683D01*
X135204663Y-95571542D01*
X135226015Y-95602370D01*
X135256110Y-95651417D01*
X135319834Y-95756701D01*
X135386024Y-95651077D01*
X135393079Y-95639833D01*
X135422152Y-95594677D01*
X135443099Y-95566853D01*
X135460602Y-95552170D01*
X135479344Y-95546434D01*
X135504008Y-95545454D01*
X135504989Y-95545453D01*
X135527458Y-95545593D01*
G37*
G36*
X125980460Y-95612188D02*
G01*
X125980460Y-95678922D01*
X126105357Y-95612188D01*
X126146772Y-95590434D01*
X126192982Y-95567169D01*
X126226851Y-95551314D01*
X126243044Y-95545454D01*
X126244634Y-95547911D01*
X126247932Y-95571860D01*
X126250697Y-95620382D01*
X126252900Y-95692326D01*
X126254510Y-95786543D01*
X126255498Y-95901882D01*
X126255834Y-96037194D01*
X126255834Y-96528933D01*
X126209938Y-96528933D01*
X126164043Y-96528933D01*
X126164043Y-96109315D01*
X126163957Y-96050040D01*
X126163421Y-95952866D01*
X126162449Y-95866401D01*
X126161104Y-95793748D01*
X126159450Y-95738011D01*
X126157551Y-95702293D01*
X126155468Y-95689697D01*
X126154861Y-95689770D01*
X126137968Y-95696925D01*
X126105428Y-95713501D01*
X126063677Y-95736235D01*
X125980460Y-95782772D01*
X125980460Y-96155853D01*
X125980460Y-96528933D01*
X125934564Y-96528933D01*
X125888668Y-96528933D01*
X125888668Y-96037194D01*
X125888668Y-95545454D01*
X125934564Y-95545454D01*
X125980460Y-95545454D01*
X125980460Y-95612188D01*
G37*
G36*
X127554027Y-95612188D02*
G01*
X127554027Y-95678922D01*
X127678924Y-95612188D01*
X127720339Y-95590434D01*
X127766549Y-95567169D01*
X127800418Y-95551314D01*
X127816611Y-95545454D01*
X127818202Y-95547911D01*
X127821499Y-95571860D01*
X127824264Y-95620382D01*
X127826467Y-95692326D01*
X127828077Y-95786543D01*
X127829065Y-95901882D01*
X127829401Y-96037194D01*
X127829401Y-96528933D01*
X127783506Y-96528933D01*
X127737610Y-96528933D01*
X127737610Y-96109315D01*
X127737524Y-96050040D01*
X127736988Y-95952866D01*
X127736017Y-95866401D01*
X127734672Y-95793748D01*
X127733018Y-95738011D01*
X127731118Y-95702293D01*
X127729035Y-95689697D01*
X127728428Y-95689770D01*
X127711535Y-95696925D01*
X127678995Y-95713501D01*
X127637244Y-95736235D01*
X127554027Y-95782772D01*
X127554027Y-96155853D01*
X127554027Y-96528933D01*
X127508131Y-96528933D01*
X127462236Y-96528933D01*
X127462236Y-96037194D01*
X127462236Y-95545454D01*
X127508131Y-95545454D01*
X127554027Y-95545454D01*
X127554027Y-95612188D01*
G37*
G36*
X138752582Y-95612188D02*
G01*
X138752582Y-95678922D01*
X138877479Y-95612188D01*
X138918894Y-95590434D01*
X138965104Y-95567169D01*
X138998973Y-95551314D01*
X139015166Y-95545454D01*
X139016756Y-95547911D01*
X139020054Y-95571860D01*
X139022819Y-95620382D01*
X139025021Y-95692326D01*
X139026632Y-95786543D01*
X139027620Y-95901882D01*
X139027956Y-96037194D01*
X139027956Y-96528933D01*
X138982060Y-96528933D01*
X138936165Y-96528933D01*
X138936165Y-96109315D01*
X138936079Y-96050040D01*
X138935543Y-95952866D01*
X138934571Y-95866401D01*
X138933226Y-95793748D01*
X138931572Y-95738011D01*
X138929672Y-95702293D01*
X138927590Y-95689697D01*
X138926983Y-95689770D01*
X138910090Y-95696925D01*
X138877550Y-95713501D01*
X138835798Y-95736235D01*
X138752582Y-95782772D01*
X138752582Y-96155853D01*
X138752582Y-96528933D01*
X138706686Y-96528933D01*
X138660790Y-96528933D01*
X138660790Y-96037194D01*
X138660790Y-95545454D01*
X138706686Y-95545454D01*
X138752582Y-95545454D01*
X138752582Y-95612188D01*
G37*
G36*
X133468018Y-95663471D02*
G01*
X133468018Y-95781489D01*
X133553253Y-95781489D01*
X133638488Y-95781489D01*
X133638488Y-95663471D01*
X133638488Y-95545454D01*
X133684383Y-95545454D01*
X133730279Y-95545454D01*
X133730279Y-95663471D01*
X133730279Y-95781489D01*
X133768936Y-95781489D01*
X133794815Y-95783236D01*
X133801570Y-95793731D01*
X133793880Y-95820828D01*
X133779255Y-95847735D01*
X133755222Y-95860167D01*
X133752270Y-95860271D01*
X133745295Y-95862566D01*
X133739974Y-95870168D01*
X133736083Y-95886063D01*
X133733399Y-95913240D01*
X133731700Y-95954689D01*
X133730762Y-96013398D01*
X133730363Y-96092356D01*
X133730279Y-96194550D01*
X133730279Y-96528933D01*
X133684383Y-96528933D01*
X133638488Y-96528933D01*
X133638488Y-96194550D01*
X133638488Y-95860167D01*
X133553253Y-95860167D01*
X133468018Y-95860167D01*
X133468018Y-96194550D01*
X133468018Y-96528933D01*
X133422122Y-96528933D01*
X133376226Y-96528933D01*
X133376226Y-96037194D01*
X133376226Y-95545454D01*
X133422122Y-95545454D01*
X133468018Y-95545454D01*
X133468018Y-95663471D01*
G37*
G36*
X132143599Y-95663471D02*
G01*
X132143599Y-95781489D01*
X132182256Y-95781489D01*
X132208135Y-95783236D01*
X132214890Y-95793731D01*
X132207199Y-95820828D01*
X132192575Y-95847735D01*
X132168542Y-95860167D01*
X132165590Y-95860271D01*
X132158615Y-95862566D01*
X132153293Y-95870168D01*
X132149402Y-95886063D01*
X132146718Y-95913240D01*
X132145019Y-95954689D01*
X132144081Y-96013398D01*
X132143682Y-96092356D01*
X132143599Y-96194550D01*
X132143599Y-96528933D01*
X132097703Y-96528933D01*
X132051807Y-96528933D01*
X132051807Y-96194550D01*
X132051807Y-95860167D01*
X131953459Y-95860167D01*
X131944275Y-95860142D01*
X131899013Y-95859207D01*
X131867155Y-95857191D01*
X131855111Y-95854464D01*
X131858483Y-95841748D01*
X131867900Y-95815125D01*
X131868691Y-95813069D01*
X131877803Y-95795729D01*
X131892520Y-95786251D01*
X131919712Y-95782288D01*
X131966248Y-95781489D01*
X132051807Y-95781489D01*
X132051807Y-95702811D01*
X132051807Y-95624132D01*
X131966572Y-95624132D01*
X131881337Y-95624132D01*
X131881337Y-95584793D01*
X131881337Y-95545454D01*
X132012468Y-95545454D01*
X132143599Y-95545454D01*
X132143599Y-95663471D01*
G37*
G36*
X130845406Y-95542400D02*
G01*
X130876720Y-95545830D01*
X130952961Y-95566261D01*
X131030224Y-95600662D01*
X131099428Y-95644552D01*
X131151492Y-95693450D01*
X131172515Y-95720913D01*
X131231550Y-95823478D01*
X131265836Y-95931824D01*
X131275089Y-96043461D01*
X131259021Y-96155901D01*
X131217348Y-96266656D01*
X131173353Y-96340693D01*
X131105857Y-96415537D01*
X131022787Y-96470669D01*
X130921066Y-96508603D01*
X130895830Y-96514788D01*
X130846933Y-96524048D01*
X130808514Y-96528070D01*
X130808485Y-96528071D01*
X130779109Y-96526602D01*
X130768474Y-96515334D01*
X130769175Y-96486426D01*
X130772157Y-96465486D01*
X130781065Y-96449678D01*
X130802184Y-96440846D01*
X130842439Y-96434036D01*
X130870137Y-96429157D01*
X130963686Y-96397360D01*
X131043044Y-96346053D01*
X131106364Y-96278297D01*
X131151802Y-96197148D01*
X131177511Y-96105665D01*
X131181646Y-96006906D01*
X131162362Y-95903929D01*
X131141284Y-95848169D01*
X131089116Y-95763925D01*
X131019207Y-95698117D01*
X130933537Y-95652407D01*
X130834088Y-95628457D01*
X130796989Y-95623456D01*
X130775511Y-95616460D01*
X130768342Y-95603394D01*
X130769317Y-95579607D01*
X130769475Y-95577992D01*
X130772968Y-95555494D01*
X130782254Y-95544279D01*
X130804133Y-95541023D01*
X130845406Y-95542400D01*
G37*
G36*
X138136268Y-95542400D02*
G01*
X138167582Y-95545830D01*
X138243823Y-95566261D01*
X138321086Y-95600662D01*
X138390290Y-95644552D01*
X138442355Y-95693450D01*
X138463377Y-95720913D01*
X138522412Y-95823478D01*
X138556699Y-95931824D01*
X138565951Y-96043461D01*
X138549883Y-96155901D01*
X138508210Y-96266656D01*
X138464215Y-96340693D01*
X138396719Y-96415537D01*
X138313649Y-96470669D01*
X138211928Y-96508603D01*
X138186692Y-96514788D01*
X138137795Y-96524048D01*
X138099376Y-96528070D01*
X138099347Y-96528071D01*
X138069971Y-96526602D01*
X138059336Y-96515334D01*
X138060037Y-96486426D01*
X138063019Y-96465486D01*
X138071927Y-96449678D01*
X138093046Y-96440846D01*
X138133301Y-96434036D01*
X138160999Y-96429157D01*
X138254548Y-96397360D01*
X138333906Y-96346053D01*
X138397226Y-96278297D01*
X138442664Y-96197148D01*
X138468373Y-96105665D01*
X138472509Y-96006906D01*
X138453224Y-95903929D01*
X138432147Y-95848169D01*
X138379978Y-95763925D01*
X138310069Y-95698117D01*
X138224399Y-95652407D01*
X138124950Y-95628457D01*
X138087851Y-95623456D01*
X138066373Y-95616460D01*
X138059204Y-95603394D01*
X138060179Y-95579607D01*
X138060337Y-95577992D01*
X138063830Y-95555494D01*
X138073116Y-95544279D01*
X138094995Y-95541023D01*
X138136268Y-95542400D01*
G37*
G36*
X140378601Y-95542400D02*
G01*
X140409916Y-95545830D01*
X140486157Y-95566261D01*
X140563420Y-95600662D01*
X140632624Y-95644552D01*
X140684688Y-95693450D01*
X140705711Y-95720913D01*
X140764746Y-95823478D01*
X140799032Y-95931824D01*
X140808285Y-96043461D01*
X140792217Y-96155901D01*
X140750543Y-96266656D01*
X140706548Y-96340693D01*
X140639053Y-96415537D01*
X140555983Y-96470669D01*
X140454262Y-96508603D01*
X140429026Y-96514788D01*
X140380129Y-96524048D01*
X140341710Y-96528070D01*
X140341680Y-96528071D01*
X140312304Y-96526602D01*
X140301670Y-96515334D01*
X140302370Y-96486426D01*
X140305353Y-96465486D01*
X140314260Y-96449678D01*
X140335379Y-96440846D01*
X140375635Y-96434036D01*
X140403333Y-96429157D01*
X140496882Y-96397360D01*
X140576239Y-96346053D01*
X140639560Y-96278297D01*
X140684997Y-96197148D01*
X140710707Y-96105665D01*
X140714842Y-96006906D01*
X140695558Y-95903929D01*
X140674480Y-95848169D01*
X140622312Y-95763925D01*
X140552403Y-95698117D01*
X140466733Y-95652407D01*
X140367283Y-95628457D01*
X140330184Y-95623456D01*
X140308707Y-95616460D01*
X140301538Y-95603394D01*
X140302513Y-95579607D01*
X140302670Y-95577992D01*
X140306163Y-95555494D01*
X140315449Y-95544279D01*
X140337329Y-95541023D01*
X140378601Y-95542400D01*
G37*
G36*
X130530692Y-95663471D02*
G01*
X130530692Y-95781489D01*
X130569349Y-95781489D01*
X130594327Y-95783026D01*
X130602034Y-95793054D01*
X130594750Y-95819514D01*
X130578350Y-95847829D01*
X130556093Y-95864182D01*
X130553719Y-95864864D01*
X130546420Y-95868808D01*
X130540850Y-95877434D01*
X130536776Y-95893822D01*
X130533965Y-95921047D01*
X130532184Y-95962188D01*
X130531200Y-96020321D01*
X130530780Y-96098526D01*
X130530692Y-96199879D01*
X130530692Y-96528933D01*
X130406118Y-96528933D01*
X130281544Y-96528933D01*
X130281544Y-96483038D01*
X130281544Y-96437142D01*
X130367035Y-96437142D01*
X130452525Y-96437142D01*
X130448991Y-96151933D01*
X130445457Y-95866724D01*
X130350388Y-95862871D01*
X130343951Y-95862589D01*
X130299082Y-95859315D01*
X130267430Y-95854738D01*
X130255497Y-95849758D01*
X130257183Y-95838290D01*
X130263434Y-95811561D01*
X130269550Y-95797116D01*
X130283463Y-95787220D01*
X130310945Y-95781836D01*
X130358325Y-95778778D01*
X130445457Y-95774932D01*
X130445457Y-95702811D01*
X130445457Y-95630689D01*
X130363501Y-95626785D01*
X130348168Y-95626038D01*
X130309949Y-95623110D01*
X130290137Y-95617252D01*
X130282684Y-95605320D01*
X130281544Y-95584167D01*
X130281544Y-95545454D01*
X130406118Y-95545454D01*
X130530692Y-95545454D01*
X130530692Y-95663471D01*
G37*
G36*
X132589443Y-95663471D02*
G01*
X132589443Y-95781489D01*
X132628100Y-95781489D01*
X132653077Y-95783026D01*
X132660785Y-95793054D01*
X132653501Y-95819514D01*
X132637100Y-95847829D01*
X132614844Y-95864182D01*
X132612470Y-95864864D01*
X132605171Y-95868808D01*
X132599601Y-95877434D01*
X132595527Y-95893822D01*
X132592716Y-95921047D01*
X132590934Y-95962188D01*
X132589950Y-96020321D01*
X132589531Y-96098526D01*
X132589443Y-96199879D01*
X132589443Y-96528933D01*
X132464869Y-96528933D01*
X132340295Y-96528933D01*
X132340295Y-96483038D01*
X132340295Y-96437142D01*
X132425785Y-96437142D01*
X132511276Y-96437142D01*
X132507742Y-96151933D01*
X132504208Y-95866724D01*
X132409138Y-95862871D01*
X132402702Y-95862589D01*
X132357832Y-95859315D01*
X132326180Y-95854738D01*
X132314248Y-95849758D01*
X132315934Y-95838290D01*
X132322185Y-95811561D01*
X132328301Y-95797116D01*
X132342213Y-95787220D01*
X132369696Y-95781836D01*
X132417076Y-95778778D01*
X132504208Y-95774932D01*
X132504208Y-95702811D01*
X132504208Y-95630689D01*
X132422251Y-95626785D01*
X132406918Y-95626038D01*
X132368699Y-95623110D01*
X132348887Y-95617252D01*
X132341435Y-95605320D01*
X132340295Y-95584167D01*
X132340295Y-95545454D01*
X132464869Y-95545454D01*
X132589443Y-95545454D01*
X132589443Y-95663471D01*
G37*
G36*
X137821554Y-95663471D02*
G01*
X137821554Y-95781489D01*
X137860211Y-95781489D01*
X137885189Y-95783026D01*
X137892896Y-95793054D01*
X137885613Y-95819514D01*
X137869212Y-95847829D01*
X137846956Y-95864182D01*
X137844581Y-95864864D01*
X137837282Y-95868808D01*
X137831712Y-95877434D01*
X137827638Y-95893822D01*
X137824827Y-95921047D01*
X137823046Y-95962188D01*
X137822062Y-96020321D01*
X137821642Y-96098526D01*
X137821554Y-96199879D01*
X137821554Y-96528933D01*
X137696980Y-96528933D01*
X137572406Y-96528933D01*
X137572406Y-96483038D01*
X137572406Y-96437142D01*
X137657897Y-96437142D01*
X137743387Y-96437142D01*
X137739853Y-96151933D01*
X137736319Y-95866724D01*
X137641250Y-95862871D01*
X137634813Y-95862589D01*
X137589944Y-95859315D01*
X137558292Y-95854738D01*
X137546359Y-95849758D01*
X137548045Y-95838290D01*
X137554297Y-95811561D01*
X137560412Y-95797116D01*
X137574325Y-95787220D01*
X137601807Y-95781836D01*
X137649187Y-95778778D01*
X137736319Y-95774932D01*
X137736319Y-95702811D01*
X137736319Y-95630689D01*
X137654363Y-95626785D01*
X137639030Y-95626038D01*
X137600811Y-95623110D01*
X137580999Y-95617252D01*
X137573546Y-95605320D01*
X137572406Y-95584167D01*
X137572406Y-95545454D01*
X137696980Y-95545454D01*
X137821554Y-95545454D01*
X137821554Y-95663471D01*
G37*
G36*
X126923918Y-95781489D02*
G01*
X126948896Y-95783026D01*
X126956603Y-95793054D01*
X126949319Y-95819514D01*
X126932919Y-95847829D01*
X126910662Y-95864182D01*
X126908288Y-95864864D01*
X126900989Y-95868808D01*
X126895419Y-95877434D01*
X126891345Y-95893822D01*
X126888534Y-95921047D01*
X126886753Y-95962188D01*
X126885769Y-96020321D01*
X126885349Y-96098526D01*
X126885261Y-96199879D01*
X126885261Y-96528933D01*
X126839365Y-96528933D01*
X126793470Y-96528933D01*
X126793470Y-96194550D01*
X126793470Y-95860167D01*
X126721348Y-95860167D01*
X126649226Y-95860167D01*
X126649226Y-96194550D01*
X126649226Y-96528933D01*
X126603330Y-96528933D01*
X126557435Y-96528933D01*
X126557435Y-96068968D01*
X126557435Y-95781489D01*
X126647917Y-95781489D01*
X126721348Y-95781489D01*
X126794778Y-95781489D01*
X126790846Y-95706978D01*
X126788754Y-95675973D01*
X126783529Y-95646555D01*
X126773030Y-95631616D01*
X126754130Y-95624094D01*
X126728095Y-95620695D01*
X126688565Y-95623743D01*
X126674599Y-95628249D01*
X126661816Y-95639827D01*
X126655267Y-95663618D01*
X126651850Y-95706627D01*
X126647917Y-95781489D01*
X126557435Y-95781489D01*
X126557435Y-95609002D01*
X126594801Y-95571636D01*
X126595851Y-95570596D01*
X126648938Y-95535965D01*
X126712835Y-95522270D01*
X126780918Y-95530960D01*
X126822176Y-95548096D01*
X126858839Y-95581015D01*
X126879059Y-95629697D01*
X126885261Y-95698022D01*
X126885261Y-95781489D01*
X126923918Y-95781489D01*
G37*
G36*
X131736412Y-95781489D02*
G01*
X131761389Y-95783026D01*
X131769096Y-95793054D01*
X131761813Y-95819514D01*
X131745412Y-95847829D01*
X131723156Y-95864182D01*
X131720781Y-95864864D01*
X131713483Y-95868808D01*
X131707913Y-95877434D01*
X131703839Y-95893822D01*
X131701027Y-95921047D01*
X131699246Y-95962188D01*
X131698262Y-96020321D01*
X131697843Y-96098526D01*
X131697755Y-96199879D01*
X131697755Y-96528933D01*
X131651859Y-96528933D01*
X131605963Y-96528933D01*
X131605963Y-96194550D01*
X131605963Y-95860167D01*
X131533841Y-95860167D01*
X131461720Y-95860167D01*
X131461720Y-96194550D01*
X131461720Y-96528933D01*
X131415824Y-96528933D01*
X131369928Y-96528933D01*
X131369928Y-96068968D01*
X131369928Y-95781489D01*
X131460411Y-95781489D01*
X131533841Y-95781489D01*
X131607272Y-95781489D01*
X131603339Y-95706978D01*
X131601248Y-95675973D01*
X131596022Y-95646555D01*
X131585523Y-95631616D01*
X131566624Y-95624094D01*
X131540589Y-95620695D01*
X131501059Y-95623743D01*
X131487092Y-95628249D01*
X131474309Y-95639827D01*
X131467761Y-95663618D01*
X131464343Y-95706627D01*
X131460411Y-95781489D01*
X131369928Y-95781489D01*
X131369928Y-95609002D01*
X131407294Y-95571636D01*
X131408344Y-95570596D01*
X131461431Y-95535965D01*
X131525328Y-95522270D01*
X131593412Y-95530960D01*
X131634669Y-95548096D01*
X131671332Y-95581015D01*
X131691553Y-95629697D01*
X131697755Y-95698022D01*
X131697755Y-95781489D01*
X131736412Y-95781489D01*
G37*
G36*
X137454389Y-96528933D02*
G01*
X137408493Y-96528933D01*
X137362597Y-96528933D01*
X137362597Y-96432045D01*
X137362597Y-96335156D01*
X137314233Y-96326083D01*
X137299137Y-96322703D01*
X137239290Y-96301708D01*
X137176525Y-96270550D01*
X137120367Y-96234423D01*
X137080343Y-96198523D01*
X137076109Y-96193443D01*
X137027532Y-96118824D01*
X136999615Y-96036001D01*
X136993510Y-95972806D01*
X137079114Y-95972806D01*
X137093635Y-96043352D01*
X137127424Y-96113226D01*
X137181271Y-96168699D01*
X137257693Y-96213159D01*
X137259243Y-96213862D01*
X137291640Y-96228709D01*
X137316466Y-96238328D01*
X137334727Y-96240096D01*
X137347424Y-96231387D01*
X137355563Y-96209577D01*
X137360146Y-96172042D01*
X137362177Y-96116158D01*
X137362659Y-96039301D01*
X137362597Y-95938846D01*
X137362496Y-95871599D01*
X137361870Y-95788163D01*
X137360523Y-95726263D01*
X137358286Y-95683060D01*
X137354988Y-95655715D01*
X137350459Y-95641390D01*
X137344529Y-95637245D01*
X137319884Y-95641285D01*
X137273036Y-95660481D01*
X137221222Y-95691671D01*
X137172262Y-95730617D01*
X137154462Y-95748035D01*
X137104959Y-95815345D01*
X137080179Y-95889395D01*
X137079114Y-95972806D01*
X136993510Y-95972806D01*
X136990229Y-95938846D01*
X136990192Y-95930124D01*
X136992749Y-95869721D01*
X137001835Y-95822990D01*
X137019439Y-95779044D01*
X137053869Y-95724002D01*
X137118166Y-95657740D01*
X137197737Y-95603753D01*
X137286654Y-95565854D01*
X137378988Y-95547854D01*
X137454389Y-95542302D01*
X137454389Y-96035618D01*
X137454389Y-96039301D01*
X137454389Y-96528933D01*
G37*
G36*
X127973645Y-95984280D02*
G01*
X127973662Y-96056732D01*
X127973832Y-96161612D01*
X127974312Y-96244535D01*
X127975251Y-96308199D01*
X127976801Y-96355297D01*
X127979113Y-96388528D01*
X127982339Y-96410585D01*
X127986630Y-96424166D01*
X127992136Y-96431966D01*
X127999009Y-96436681D01*
X128027354Y-96445927D01*
X128065437Y-96450255D01*
X128100244Y-96446597D01*
X128131864Y-96436681D01*
X128136051Y-96434148D01*
X128142108Y-96427960D01*
X128146886Y-96417113D01*
X128150537Y-96398911D01*
X128153211Y-96370658D01*
X128155060Y-96329659D01*
X128156235Y-96273218D01*
X128156888Y-96198638D01*
X128157168Y-96103224D01*
X128157228Y-95984280D01*
X128157228Y-95545454D01*
X128203614Y-95545454D01*
X128250000Y-95545454D01*
X128246231Y-95996495D01*
X128245530Y-96077664D01*
X128244453Y-96183087D01*
X128243234Y-96266822D01*
X128241698Y-96331620D01*
X128239676Y-96380234D01*
X128236994Y-96415419D01*
X128233481Y-96439926D01*
X128228965Y-96456508D01*
X128223274Y-96467920D01*
X128216237Y-96476913D01*
X128187825Y-96501759D01*
X128150671Y-96524381D01*
X128109999Y-96535559D01*
X128051869Y-96537241D01*
X127994503Y-96527223D01*
X127949720Y-96506553D01*
X127945300Y-96503253D01*
X127928486Y-96489645D01*
X127914962Y-96474900D01*
X127904366Y-96456229D01*
X127896341Y-96430845D01*
X127890527Y-96395960D01*
X127886565Y-96348787D01*
X127884095Y-96286539D01*
X127882758Y-96206427D01*
X127882195Y-96105664D01*
X127882047Y-95981463D01*
X127881854Y-95545454D01*
X127927749Y-95545454D01*
X127973645Y-95545454D01*
X127973645Y-95984280D01*
G37*
G36*
X136103743Y-96037255D02*
G01*
X136103743Y-96131749D01*
X136103743Y-96532303D01*
X136001857Y-96526405D01*
X135947921Y-96521153D01*
X135850566Y-96497360D01*
X135771634Y-96455599D01*
X135710080Y-96395217D01*
X135664861Y-96315562D01*
X135654895Y-96282991D01*
X135646183Y-96218210D01*
X135645994Y-96181571D01*
X135737231Y-96181571D01*
X135741532Y-96245601D01*
X135754464Y-96297210D01*
X135764466Y-96316152D01*
X135799033Y-96359503D01*
X135843125Y-96398498D01*
X135886639Y-96423484D01*
X135889368Y-96424454D01*
X135922509Y-96433766D01*
X135962778Y-96442457D01*
X136011952Y-96451443D01*
X136011952Y-96182031D01*
X136011991Y-96131749D01*
X136011891Y-96050671D01*
X136010657Y-95991370D01*
X136007212Y-95950894D01*
X136000479Y-95926291D01*
X135989382Y-95914610D01*
X135972844Y-95912900D01*
X135949790Y-95918210D01*
X135919141Y-95927587D01*
X135888679Y-95939453D01*
X135832825Y-95973898D01*
X135785212Y-96018294D01*
X135754618Y-96065296D01*
X135754486Y-96065612D01*
X135741552Y-96117461D01*
X135737231Y-96181571D01*
X135645994Y-96181571D01*
X135645811Y-96146224D01*
X135653612Y-96077767D01*
X135669419Y-96023573D01*
X135669468Y-96023463D01*
X135703217Y-95971177D01*
X135753262Y-95919155D01*
X135810814Y-95875237D01*
X135867087Y-95847259D01*
X135920640Y-95829585D01*
X135894376Y-95801628D01*
X135868191Y-95760565D01*
X135861239Y-95719302D01*
X135947500Y-95719302D01*
X135960158Y-95749499D01*
X135973957Y-95763255D01*
X135994233Y-95768817D01*
X136007314Y-95750221D01*
X136011952Y-95708455D01*
X136011826Y-95692019D01*
X136009189Y-95663660D01*
X136000525Y-95652694D01*
X135982447Y-95652725D01*
X135965571Y-95660701D01*
X135950090Y-95686294D01*
X135947500Y-95719302D01*
X135861239Y-95719302D01*
X135858871Y-95705245D01*
X135873363Y-95648598D01*
X135874008Y-95647280D01*
X135911291Y-95595332D01*
X135963636Y-95562850D01*
X136033986Y-95547991D01*
X136103743Y-95542206D01*
X136103743Y-95708455D01*
X136103743Y-96037255D01*
G37*
G36*
X129353347Y-96096408D02*
G01*
X129343902Y-96159349D01*
X129325902Y-96216864D01*
X129320949Y-96228920D01*
X129269824Y-96317139D01*
X129198085Y-96396570D01*
X129110446Y-96462794D01*
X129011620Y-96511393D01*
X128986631Y-96518166D01*
X128923861Y-96525064D01*
X128838670Y-96525465D01*
X128827578Y-96525107D01*
X128765713Y-96521635D01*
X128719578Y-96514974D01*
X128680057Y-96503273D01*
X128638030Y-96484676D01*
X128608239Y-96468563D01*
X128524870Y-96407079D01*
X128452190Y-96329763D01*
X128397920Y-96244347D01*
X128385336Y-96217490D01*
X128372329Y-96182604D01*
X128364872Y-96146473D01*
X128361466Y-96100776D01*
X128360812Y-96052019D01*
X128446732Y-96052019D01*
X128460781Y-96144332D01*
X128492324Y-96226318D01*
X128509100Y-96254296D01*
X128565842Y-96324198D01*
X128633514Y-96380405D01*
X128705200Y-96416732D01*
X128809878Y-96440760D01*
X128912615Y-96440790D01*
X129008258Y-96416829D01*
X129094396Y-96369827D01*
X129168617Y-96300735D01*
X129228511Y-96210503D01*
X129235582Y-96195626D01*
X129258579Y-96118243D01*
X129266676Y-96031761D01*
X129259617Y-95946224D01*
X129237145Y-95871675D01*
X129192684Y-95797187D01*
X129122470Y-95722677D01*
X129037908Y-95667140D01*
X128996035Y-95648475D01*
X128957411Y-95637301D01*
X128912839Y-95632092D01*
X128852220Y-95630873D01*
X128792600Y-95632211D01*
X128748948Y-95637290D01*
X128712516Y-95647994D01*
X128673783Y-95666208D01*
X128611118Y-95707970D01*
X128548615Y-95767383D01*
X128497530Y-95834485D01*
X128464693Y-95901589D01*
X128451024Y-95959313D01*
X128446732Y-96052019D01*
X128360812Y-96052019D01*
X128360613Y-96037194D01*
X128360840Y-95995958D01*
X128363059Y-95943528D01*
X128368865Y-95903637D01*
X128379742Y-95867763D01*
X128397177Y-95827385D01*
X128422505Y-95780790D01*
X128485511Y-95698213D01*
X128562921Y-95627524D01*
X128647597Y-95575893D01*
X128673419Y-95564405D01*
X128710566Y-95550994D01*
X128748173Y-95543273D01*
X128794820Y-95539741D01*
X128859086Y-95538897D01*
X128917474Y-95539444D01*
X128963469Y-95542304D01*
X128999693Y-95549153D01*
X129034703Y-95561666D01*
X129077059Y-95581514D01*
X129088190Y-95587156D01*
X129179882Y-95648714D01*
X129255140Y-95729677D01*
X129315433Y-95831586D01*
X129319890Y-95841100D01*
X129339360Y-95886999D01*
X129350399Y-95926696D01*
X129355202Y-95970980D01*
X129355968Y-96030637D01*
X129355923Y-96031761D01*
X129353347Y-96096408D01*
G37*
G36*
X140132283Y-96096408D02*
G01*
X140122839Y-96159349D01*
X140104839Y-96216864D01*
X140099885Y-96228920D01*
X140048761Y-96317139D01*
X139977022Y-96396570D01*
X139889382Y-96462794D01*
X139790557Y-96511393D01*
X139765568Y-96518166D01*
X139702797Y-96525064D01*
X139617607Y-96525465D01*
X139606514Y-96525107D01*
X139544649Y-96521635D01*
X139498515Y-96514974D01*
X139458994Y-96503273D01*
X139416967Y-96484676D01*
X139387175Y-96468563D01*
X139303807Y-96407079D01*
X139231126Y-96329763D01*
X139176857Y-96244347D01*
X139164273Y-96217490D01*
X139151265Y-96182604D01*
X139143808Y-96146473D01*
X139140402Y-96100776D01*
X139139748Y-96052019D01*
X139225669Y-96052019D01*
X139239717Y-96144332D01*
X139271261Y-96226318D01*
X139288036Y-96254296D01*
X139344778Y-96324198D01*
X139412450Y-96380405D01*
X139484137Y-96416732D01*
X139588815Y-96440760D01*
X139691552Y-96440790D01*
X139787195Y-96416829D01*
X139873332Y-96369827D01*
X139947554Y-96300735D01*
X140007448Y-96210503D01*
X140014518Y-96195626D01*
X140037516Y-96118243D01*
X140045613Y-96031761D01*
X140038553Y-95946224D01*
X140016082Y-95871675D01*
X139971620Y-95797187D01*
X139901407Y-95722677D01*
X139816845Y-95667140D01*
X139774971Y-95648475D01*
X139736347Y-95637301D01*
X139691776Y-95632092D01*
X139631157Y-95630873D01*
X139571536Y-95632211D01*
X139527884Y-95637290D01*
X139491452Y-95647994D01*
X139452720Y-95666208D01*
X139390055Y-95707970D01*
X139327551Y-95767383D01*
X139276467Y-95834485D01*
X139243630Y-95901589D01*
X139229961Y-95959313D01*
X139225669Y-96052019D01*
X139139748Y-96052019D01*
X139139549Y-96037194D01*
X139139776Y-95995958D01*
X139141995Y-95943528D01*
X139147801Y-95903637D01*
X139158679Y-95867763D01*
X139176113Y-95827385D01*
X139201441Y-95780790D01*
X139264447Y-95698213D01*
X139341857Y-95627524D01*
X139426533Y-95575893D01*
X139452355Y-95564405D01*
X139489502Y-95550994D01*
X139527110Y-95543273D01*
X139573757Y-95539741D01*
X139638023Y-95538897D01*
X139696410Y-95539444D01*
X139742406Y-95542304D01*
X139778629Y-95549153D01*
X139813640Y-95561666D01*
X139855996Y-95581514D01*
X139867126Y-95587156D01*
X139958818Y-95648714D01*
X140034077Y-95729677D01*
X140094370Y-95831586D01*
X140098827Y-95841100D01*
X140118297Y-95886999D01*
X140129335Y-95926696D01*
X140134139Y-95970980D01*
X140134905Y-96030637D01*
X140134860Y-96031761D01*
X140132283Y-96096408D01*
G37*
G36*
X130072889Y-95997854D02*
G01*
X130088339Y-96091011D01*
X130105330Y-96193154D01*
X130120747Y-96285525D01*
X130134052Y-96364903D01*
X130144704Y-96428067D01*
X130152163Y-96471797D01*
X130155889Y-96492872D01*
X130158282Y-96517141D01*
X130147962Y-96527057D01*
X130118187Y-96528933D01*
X130082680Y-96523547D01*
X130066818Y-96505986D01*
X130065104Y-96498266D01*
X130059263Y-96466423D01*
X130050432Y-96414849D01*
X130039274Y-96347514D01*
X130026452Y-96268387D01*
X130012629Y-96181437D01*
X130004745Y-96131673D01*
X129991443Y-96049061D01*
X129979530Y-95976723D01*
X129969661Y-95918571D01*
X129962495Y-95878515D01*
X129958688Y-95860465D01*
X129957671Y-95858639D01*
X129946405Y-95863606D01*
X129925743Y-95889922D01*
X129897255Y-95935666D01*
X129888060Y-95951286D01*
X129863127Y-95991638D01*
X129843936Y-96019800D01*
X129834046Y-96030438D01*
X129832268Y-96029413D01*
X129819879Y-96012702D01*
X129800046Y-95979756D01*
X129776141Y-95936068D01*
X129772886Y-95929890D01*
X129748921Y-95886375D01*
X129733199Y-95863380D01*
X129723169Y-95857973D01*
X129716284Y-95867224D01*
X129714193Y-95874246D01*
X129706951Y-95905607D01*
X129696298Y-95956710D01*
X129683045Y-96023506D01*
X129668003Y-96101949D01*
X129651983Y-96187994D01*
X129643823Y-96232322D01*
X129628517Y-96314685D01*
X129614851Y-96387229D01*
X129603587Y-96445958D01*
X129595487Y-96486876D01*
X129591314Y-96505986D01*
X129590880Y-96507388D01*
X129574770Y-96523877D01*
X129538730Y-96528933D01*
X129535925Y-96528930D01*
X129507070Y-96526910D01*
X129497382Y-96516948D01*
X129500279Y-96492872D01*
X129503146Y-96478592D01*
X129510756Y-96439758D01*
X129522186Y-96380942D01*
X129536807Y-96305401D01*
X129553990Y-96216388D01*
X129573106Y-96117159D01*
X129593523Y-96010967D01*
X129610079Y-95924902D01*
X129629098Y-95826368D01*
X129646147Y-95738402D01*
X129660634Y-95664043D01*
X129671967Y-95606329D01*
X129679553Y-95568297D01*
X129682799Y-95552986D01*
X129683532Y-95552576D01*
X129692200Y-95564990D01*
X129708688Y-95596445D01*
X129730986Y-95642947D01*
X129757083Y-95700508D01*
X129763427Y-95714777D01*
X129789384Y-95771748D01*
X129811419Y-95817920D01*
X129827372Y-95848868D01*
X129835080Y-95860167D01*
X129836275Y-95859284D01*
X129846989Y-95842366D01*
X129865972Y-95807224D01*
X129890950Y-95758173D01*
X129919650Y-95699532D01*
X129996871Y-95538897D01*
X130072889Y-95997854D01*
G37*
G36*
X133939467Y-95545507D02*
G01*
X133967878Y-95547464D01*
X133979427Y-95551365D01*
X133980754Y-95559725D01*
X133986700Y-95590200D01*
X133996509Y-95638259D01*
X134009179Y-95699184D01*
X134023709Y-95768257D01*
X134039095Y-95840762D01*
X134054335Y-95911981D01*
X134068428Y-95977196D01*
X134080370Y-96031691D01*
X134089160Y-96070746D01*
X134093795Y-96089646D01*
X134093940Y-96090072D01*
X134099891Y-96086091D01*
X134110953Y-96057969D01*
X134126684Y-96007127D01*
X134146642Y-95934986D01*
X134170387Y-95842966D01*
X134178019Y-95812708D01*
X134197987Y-95734729D01*
X134215760Y-95666998D01*
X134230314Y-95613318D01*
X134240626Y-95577493D01*
X134245672Y-95563325D01*
X134246473Y-95562558D01*
X134249658Y-95561337D01*
X134253330Y-95565774D01*
X134258494Y-95579162D01*
X134266150Y-95604792D01*
X134277302Y-95645955D01*
X134292950Y-95705942D01*
X134314099Y-95788045D01*
X134318171Y-95803852D01*
X134337191Y-95876924D01*
X134355466Y-95946032D01*
X134371094Y-96004025D01*
X134382168Y-96043750D01*
X134403042Y-96115872D01*
X134459872Y-95835215D01*
X134467007Y-95800146D01*
X134483337Y-95721183D01*
X134497843Y-95652813D01*
X134509701Y-95598818D01*
X134518087Y-95562980D01*
X134522178Y-95549081D01*
X134536978Y-95546459D01*
X134566141Y-95547807D01*
X134604628Y-95552010D01*
X134511996Y-96033585D01*
X134509468Y-96046713D01*
X134488539Y-96153868D01*
X134468925Y-96251741D01*
X134451213Y-96337582D01*
X134435992Y-96408643D01*
X134423847Y-96462175D01*
X134415366Y-96495429D01*
X134411138Y-96505655D01*
X134409714Y-96502698D01*
X134402062Y-96478944D01*
X134389544Y-96435042D01*
X134373206Y-96374824D01*
X134354097Y-96302124D01*
X134333265Y-96220776D01*
X134325472Y-96190074D01*
X134305027Y-96110583D01*
X134286648Y-96040601D01*
X134271403Y-95984111D01*
X134260362Y-95945100D01*
X134254595Y-95927551D01*
X134251285Y-95930072D01*
X134242036Y-95953179D01*
X134228305Y-95996281D01*
X134211052Y-96056146D01*
X134191234Y-96129545D01*
X134169809Y-96213248D01*
X134155050Y-96271866D01*
X134134868Y-96350248D01*
X134117199Y-96416794D01*
X134102974Y-96468094D01*
X134093121Y-96500737D01*
X134088569Y-96511316D01*
X134085549Y-96500774D01*
X134077801Y-96467134D01*
X134066080Y-96413301D01*
X134051010Y-96342231D01*
X134033217Y-96256879D01*
X134013329Y-96160200D01*
X133991969Y-96055149D01*
X133974033Y-95966519D01*
X133953647Y-95866005D01*
X133935219Y-95775372D01*
X133919394Y-95697785D01*
X133906817Y-95636410D01*
X133898134Y-95594413D01*
X133893993Y-95574958D01*
X133892112Y-95556446D01*
X133902859Y-95547394D01*
X133933282Y-95545454D01*
X133939467Y-95545507D01*
G37*
D12*
%TO.C,R13*%
X107413208Y-92750358D02*
X107105926Y-92750358D01*
X107413208Y-93510358D02*
X107105926Y-93510358D01*
%TO.C,R20*%
X186968641Y-92488750D02*
X186661359Y-92488750D01*
X186968641Y-93248750D02*
X186661359Y-93248750D01*
%TO.C,R16*%
X187651359Y-81096250D02*
X187958641Y-81096250D01*
X187651359Y-81856250D02*
X187958641Y-81856250D01*
%TO.C,R15*%
X187945000Y-85594891D02*
X187945000Y-85287609D01*
X188705000Y-85594891D02*
X188705000Y-85287609D01*
%TO.C,C8*%
X109743414Y-91758689D02*
X109959086Y-91758689D01*
X109743414Y-92478689D02*
X109959086Y-92478689D01*
%TO.C,R14*%
X180595000Y-85594891D02*
X180595000Y-85287609D01*
X181355000Y-85594891D02*
X181355000Y-85287609D01*
%TO.C,R4*%
X131402609Y-83018811D02*
X131709891Y-83018811D01*
X131402609Y-83778811D02*
X131709891Y-83778811D01*
%TO.C,C4*%
X109742747Y-90670799D02*
X109958419Y-90670799D01*
X109742747Y-91390799D02*
X109958419Y-91390799D01*
D11*
%TO.C,G\u002A\u002A\u002A*%
G36*
X119292876Y-39327666D02*
G01*
X119316500Y-40449500D01*
X119634000Y-40475777D01*
X119651917Y-40477248D01*
X119845476Y-40498502D01*
X119929168Y-40550135D01*
X119924947Y-40676524D01*
X119854768Y-40922050D01*
X119807309Y-41058449D01*
X119700848Y-41213345D01*
X119537268Y-41270540D01*
X119316500Y-41296166D01*
X119294315Y-44492333D01*
X119272131Y-47688500D01*
X118045482Y-47688500D01*
X116818833Y-47688500D01*
X116818833Y-47265166D01*
X116818833Y-46841833D01*
X117666657Y-46841833D01*
X118514481Y-46841833D01*
X118492157Y-44069000D01*
X118469833Y-41296166D01*
X117517333Y-41272227D01*
X117174684Y-41261068D01*
X116858404Y-41245084D01*
X116643858Y-41227478D01*
X116564833Y-41210440D01*
X116569312Y-41189595D01*
X116616934Y-41050411D01*
X116699838Y-40835182D01*
X116834843Y-40497772D01*
X117652338Y-40473636D01*
X118469833Y-40449500D01*
X118494296Y-39708666D01*
X118518759Y-38967833D01*
X117668796Y-38967833D01*
X116818833Y-38967833D01*
X116818833Y-38586833D01*
X116818833Y-38205833D01*
X118044043Y-38205833D01*
X119269252Y-38205833D01*
X119292876Y-39327666D01*
G37*
G36*
X153159543Y-39327666D02*
G01*
X153183167Y-40449500D01*
X153500667Y-40475777D01*
X153518584Y-40477248D01*
X153712143Y-40498502D01*
X153795835Y-40550135D01*
X153791614Y-40676524D01*
X153721435Y-40922050D01*
X153673976Y-41058449D01*
X153567515Y-41213345D01*
X153403935Y-41270540D01*
X153183167Y-41296166D01*
X153160982Y-44492333D01*
X153138797Y-47688500D01*
X151912149Y-47688500D01*
X150685500Y-47688500D01*
X150685500Y-47265166D01*
X150685500Y-46841833D01*
X151533324Y-46841833D01*
X152381147Y-46841833D01*
X152358824Y-44069000D01*
X152336500Y-41296166D01*
X151384000Y-41272227D01*
X151041351Y-41261068D01*
X150725071Y-41245084D01*
X150510524Y-41227478D01*
X150431500Y-41210440D01*
X150435978Y-41189595D01*
X150483601Y-41050411D01*
X150566505Y-40835182D01*
X150701510Y-40497772D01*
X151519005Y-40473636D01*
X152336500Y-40449500D01*
X152360963Y-39708666D01*
X152385426Y-38967833D01*
X151535463Y-38967833D01*
X150685500Y-38967833D01*
X150685500Y-38586833D01*
X150685500Y-38205833D01*
X151910709Y-38205833D01*
X153135919Y-38205833D01*
X153159543Y-39327666D01*
G37*
G36*
X132143500Y-38841072D02*
G01*
X132143500Y-39476312D01*
X133357020Y-38841072D01*
X133631602Y-38698097D01*
X134012404Y-38502577D01*
X134322875Y-38346540D01*
X134536564Y-38243215D01*
X134627020Y-38205833D01*
X134634349Y-38245863D01*
X134644395Y-38436745D01*
X134653687Y-38771288D01*
X134662045Y-39234344D01*
X134669288Y-39810766D01*
X134675235Y-40485406D01*
X134679706Y-41243118D01*
X134682522Y-42068754D01*
X134683500Y-42947166D01*
X134683500Y-47688500D01*
X134302500Y-47688500D01*
X133921500Y-47688500D01*
X133921500Y-43624500D01*
X133921178Y-43116848D01*
X133918254Y-42145086D01*
X133912201Y-41335740D01*
X133902914Y-40684102D01*
X133890289Y-40185466D01*
X133874220Y-39835124D01*
X133854604Y-39628371D01*
X133831336Y-39560500D01*
X133760091Y-39583326D01*
X133562338Y-39672857D01*
X133278111Y-39814435D01*
X132942336Y-39991140D01*
X132143500Y-40421781D01*
X132143500Y-44055140D01*
X132143500Y-47688500D01*
X131720167Y-47688500D01*
X131296833Y-47688500D01*
X131296833Y-42947166D01*
X131296833Y-38205833D01*
X131720167Y-38205833D01*
X132143500Y-38205833D01*
X132143500Y-38841072D01*
G37*
G36*
X111536285Y-38133545D02*
G01*
X112276699Y-38268748D01*
X113009845Y-38537808D01*
X113691190Y-38921870D01*
X114276202Y-39402081D01*
X114428143Y-39563648D01*
X114879772Y-40168391D01*
X115248756Y-40855718D01*
X115499288Y-41562387D01*
X115572742Y-41955747D01*
X115620944Y-42520617D01*
X115625758Y-43124289D01*
X115587047Y-43699306D01*
X115504670Y-44178211D01*
X115234594Y-44958404D01*
X114814409Y-45710485D01*
X114272768Y-46359859D01*
X113623029Y-46893435D01*
X112878554Y-47298121D01*
X112052701Y-47560827D01*
X111809341Y-47607578D01*
X111453116Y-47659036D01*
X111167333Y-47681769D01*
X110807500Y-47688500D01*
X110807500Y-47283334D01*
X110807500Y-46878169D01*
X111483366Y-46787679D01*
X111731804Y-46747042D01*
X112496411Y-46519272D01*
X113170411Y-46157198D01*
X113743237Y-45673551D01*
X114204324Y-45081060D01*
X114543106Y-44392457D01*
X114749017Y-43620471D01*
X114811491Y-42777833D01*
X114759982Y-42179146D01*
X114565780Y-41427275D01*
X114240761Y-40744816D01*
X113798707Y-40149408D01*
X113253402Y-39658692D01*
X112618628Y-39290307D01*
X111908167Y-39061895D01*
X111731213Y-39028037D01*
X111403994Y-38975486D01*
X111146167Y-38945939D01*
X111010524Y-38933196D01*
X110896654Y-38887211D01*
X110846457Y-38766290D01*
X110824028Y-38523333D01*
X110798222Y-38121166D01*
X111250739Y-38121166D01*
X111536285Y-38133545D01*
G37*
G36*
X159152167Y-47688500D02*
G01*
X158771167Y-47688500D01*
X158390167Y-47688500D01*
X158390167Y-46769990D01*
X158390167Y-45851481D01*
X157689976Y-45666510D01*
X157231441Y-45524712D01*
X156480992Y-45179355D01*
X155862725Y-44729187D01*
X155378541Y-44176626D01*
X155030341Y-43524087D01*
X154820027Y-42773988D01*
X154771862Y-42196751D01*
X155569161Y-42196751D01*
X155670625Y-42863513D01*
X155915060Y-43482777D01*
X156178417Y-43847316D01*
X156581063Y-44223980D01*
X157066609Y-44554599D01*
X157591146Y-44804549D01*
X157680663Y-44838991D01*
X157873315Y-44916290D01*
X158027824Y-44970442D01*
X158148360Y-44986833D01*
X158239096Y-44950847D01*
X158304201Y-44847870D01*
X158347847Y-44663287D01*
X158374205Y-44382483D01*
X158387444Y-43990842D01*
X158391737Y-43473751D01*
X158391255Y-42816593D01*
X158390167Y-42004755D01*
X158390167Y-39030344D01*
X158079727Y-39080721D01*
X157729888Y-39170295D01*
X157193458Y-39415812D01*
X156680325Y-39765559D01*
X156237071Y-40185981D01*
X155910276Y-40643521D01*
X155795417Y-40882798D01*
X155610736Y-41523008D01*
X155569161Y-42196751D01*
X154771862Y-42196751D01*
X154749500Y-41928745D01*
X154758558Y-41612873D01*
X154848610Y-40996051D01*
X155048219Y-40450048D01*
X155373431Y-39923279D01*
X155653572Y-39586210D01*
X156251475Y-39058771D01*
X156944848Y-38644684D01*
X157701293Y-38361590D01*
X158488412Y-38227131D01*
X159152167Y-38181636D01*
X159152167Y-42935068D01*
X159152167Y-43473751D01*
X159152167Y-47688500D01*
G37*
G36*
X130280833Y-42947166D02*
G01*
X130280833Y-47688500D01*
X129409622Y-47688500D01*
X128860167Y-47671577D01*
X128202524Y-47587089D01*
X127614049Y-47421350D01*
X127043405Y-47162958D01*
X126433961Y-46752985D01*
X125875533Y-46198168D01*
X125413495Y-45540825D01*
X125068154Y-44810048D01*
X124859820Y-44034931D01*
X124815257Y-43656298D01*
X124795092Y-43039869D01*
X124809177Y-42674074D01*
X125717245Y-42674074D01*
X125721450Y-43213085D01*
X125757974Y-43710028D01*
X125826937Y-44102850D01*
X125833567Y-44127423D01*
X126116944Y-44856945D01*
X126536101Y-45494496D01*
X127076558Y-46025750D01*
X127723837Y-46436376D01*
X128463460Y-46712047D01*
X128688400Y-46765206D01*
X128986182Y-46820421D01*
X129197955Y-46841833D01*
X129434167Y-46841833D01*
X129434167Y-42953374D01*
X129434219Y-42778087D01*
X129435782Y-41876973D01*
X129437237Y-41128965D01*
X129435463Y-40520293D01*
X129427341Y-40037190D01*
X129409751Y-39665884D01*
X129379574Y-39392609D01*
X129333690Y-39203593D01*
X129268979Y-39085069D01*
X129182322Y-39023266D01*
X129070600Y-39004416D01*
X128930691Y-39014750D01*
X128759477Y-39040499D01*
X128553839Y-39067893D01*
X128194932Y-39124731D01*
X127532095Y-39347884D01*
X126959503Y-39711878D01*
X126482019Y-40212181D01*
X126104508Y-40844261D01*
X125831834Y-41603588D01*
X125805302Y-41718057D01*
X125745236Y-42155047D01*
X125717245Y-42674074D01*
X124809177Y-42674074D01*
X124820467Y-42380866D01*
X124888084Y-41748380D01*
X124994644Y-41211500D01*
X125106725Y-40850831D01*
X125449407Y-40107086D01*
X125907094Y-39465812D01*
X126466264Y-38940889D01*
X127113395Y-38546200D01*
X127834964Y-38295625D01*
X128039388Y-38264565D01*
X128382823Y-38235737D01*
X128800851Y-38215816D01*
X129243667Y-38207903D01*
X130280833Y-38205833D01*
X130280833Y-41128965D01*
X130280833Y-42947166D01*
G37*
G36*
X139403476Y-40498502D02*
G01*
X139487168Y-40550135D01*
X139482947Y-40676524D01*
X139412768Y-40922050D01*
X139365309Y-41058449D01*
X139258848Y-41213345D01*
X139095268Y-41270540D01*
X138874500Y-41296166D01*
X138852315Y-44492333D01*
X138830131Y-47688500D01*
X138407815Y-47688500D01*
X137985500Y-47688500D01*
X137985500Y-44471166D01*
X137985500Y-41253833D01*
X137265833Y-41253833D01*
X136546167Y-41253833D01*
X136546167Y-44471166D01*
X136546167Y-47688500D01*
X136122833Y-47688500D01*
X135699500Y-47688500D01*
X135699817Y-43264666D01*
X135700029Y-42480836D01*
X135701000Y-41622166D01*
X135703210Y-40907270D01*
X135707143Y-40321827D01*
X135713289Y-39851515D01*
X135715117Y-39775145D01*
X136546167Y-39775145D01*
X136546167Y-40491833D01*
X137265833Y-40491833D01*
X137985500Y-40491833D01*
X137985500Y-39775145D01*
X137985375Y-39716645D01*
X137970377Y-39333741D01*
X137914089Y-39086694D01*
X137793344Y-38946341D01*
X137584981Y-38883516D01*
X137265833Y-38869055D01*
X137219370Y-38869213D01*
X136915246Y-38888095D01*
X136719028Y-38958965D01*
X136607551Y-39110987D01*
X136557652Y-39373326D01*
X136546167Y-39775145D01*
X135715117Y-39775145D01*
X135722133Y-39482014D01*
X135734164Y-39199003D01*
X135749867Y-38988160D01*
X135769731Y-38835165D01*
X135794242Y-38725697D01*
X135823887Y-38645434D01*
X135859154Y-38580057D01*
X136031365Y-38371404D01*
X136377438Y-38144128D01*
X136802123Y-38008529D01*
X137266255Y-37966861D01*
X137730670Y-38021375D01*
X138156204Y-38174325D01*
X138503691Y-38427962D01*
X138557786Y-38484303D01*
X138669529Y-38615599D01*
X138741057Y-38749903D01*
X138784152Y-38928759D01*
X138810595Y-39193715D01*
X138832167Y-39586317D01*
X138874500Y-40449500D01*
X139192000Y-40475777D01*
X139209917Y-40477248D01*
X139342742Y-40491833D01*
X139403476Y-40498502D01*
G37*
G36*
X142615938Y-38222447D02*
G01*
X143007189Y-38282164D01*
X143298146Y-38398441D01*
X143522260Y-38584733D01*
X143712981Y-38854492D01*
X143851418Y-39106846D01*
X143965740Y-39373686D01*
X144032502Y-39640540D01*
X144047855Y-39926171D01*
X144007947Y-40249341D01*
X143908929Y-40628811D01*
X143746950Y-41083344D01*
X143518158Y-41631700D01*
X143218704Y-42292643D01*
X142844736Y-43084933D01*
X142713676Y-43360276D01*
X142395662Y-44038483D01*
X142146509Y-44590942D01*
X141959930Y-45035990D01*
X141829643Y-45391968D01*
X141749362Y-45677212D01*
X141712803Y-45910063D01*
X141713681Y-46108859D01*
X141745711Y-46291938D01*
X141760101Y-46338569D01*
X141927175Y-46558077D01*
X142244569Y-46714221D01*
X142714871Y-46807890D01*
X143340667Y-46839973D01*
X144166167Y-46841833D01*
X144166167Y-47275602D01*
X144166167Y-47709370D01*
X143171333Y-47668022D01*
X143123005Y-47665954D01*
X142581843Y-47630097D01*
X142167036Y-47569365D01*
X141839130Y-47472376D01*
X141558672Y-47327744D01*
X141286209Y-47124087D01*
X141260517Y-47101927D01*
X140966763Y-46734313D01*
X140807264Y-46282713D01*
X140786727Y-45770899D01*
X140909856Y-45222644D01*
X140913029Y-45213833D01*
X140989646Y-45029842D01*
X141129126Y-44719551D01*
X141320414Y-44306608D01*
X141552453Y-43814664D01*
X141814189Y-43267367D01*
X142094565Y-42688367D01*
X142389448Y-42078870D01*
X142679785Y-41462750D01*
X142901626Y-40964904D01*
X143060441Y-40567918D01*
X143161702Y-40254379D01*
X143210880Y-40006875D01*
X143213446Y-39807992D01*
X143174872Y-39640317D01*
X143100629Y-39486437D01*
X143017698Y-39366454D01*
X142744299Y-39139745D01*
X142360154Y-39009497D01*
X141846205Y-38967833D01*
X141287500Y-38967833D01*
X141287500Y-38586833D01*
X141287500Y-38205833D01*
X142100205Y-38205833D01*
X142615938Y-38222447D01*
G37*
G36*
X171109862Y-40491833D02*
G01*
X171433542Y-40491833D01*
X171757222Y-40491833D01*
X171627402Y-40872833D01*
X171534996Y-41101658D01*
X171433071Y-41222442D01*
X171293875Y-41253833D01*
X171090167Y-41253833D01*
X171090167Y-44471166D01*
X171090167Y-47688500D01*
X170667852Y-47688500D01*
X170245536Y-47688500D01*
X170223352Y-44492333D01*
X170201167Y-41296166D01*
X169481500Y-41296166D01*
X168761833Y-41296166D01*
X168739649Y-44492333D01*
X168717464Y-47688500D01*
X168292273Y-47688500D01*
X167867082Y-47688500D01*
X167891125Y-43249624D01*
X167892897Y-42924082D01*
X167898234Y-41994129D01*
X167903586Y-41214790D01*
X167909568Y-40571822D01*
X167916795Y-40050984D01*
X167922000Y-39814500D01*
X168736494Y-39814500D01*
X168761833Y-40449500D01*
X169443077Y-40473811D01*
X169533723Y-40476505D01*
X169845103Y-40476896D01*
X170076716Y-40463530D01*
X170183910Y-40438534D01*
X170186430Y-40435474D01*
X170215278Y-40315530D01*
X170235730Y-40078098D01*
X170243500Y-39771177D01*
X170234287Y-39468506D01*
X170179483Y-39171010D01*
X170055028Y-38992692D01*
X169837976Y-38905947D01*
X169505380Y-38883166D01*
X169212822Y-38897788D01*
X168957504Y-38971673D01*
X168807369Y-39131694D01*
X168740878Y-39403940D01*
X168736494Y-39814500D01*
X167922000Y-39814500D01*
X167925884Y-39638031D01*
X167937451Y-39318722D01*
X167952110Y-39078813D01*
X167970478Y-38904063D01*
X167993170Y-38780228D01*
X168020803Y-38693066D01*
X168053991Y-38628334D01*
X168093350Y-38571790D01*
X168266579Y-38372132D01*
X168577948Y-38151972D01*
X168970691Y-38031073D01*
X169481500Y-37994166D01*
X169816493Y-38008246D01*
X170250388Y-38096210D01*
X170588435Y-38277805D01*
X170866751Y-38567992D01*
X170881939Y-38588978D01*
X170963480Y-38739598D01*
X171017830Y-38939571D01*
X171052737Y-39228877D01*
X171075948Y-39647492D01*
X171080916Y-39771177D01*
X171109862Y-40491833D01*
G37*
G36*
X149500167Y-42937800D02*
G01*
X149500167Y-47688500D01*
X149119167Y-47688500D01*
X148738167Y-47688500D01*
X148738167Y-46714833D01*
X148737669Y-46431636D01*
X148732513Y-46106402D01*
X148717363Y-45903488D01*
X148686932Y-45794143D01*
X148635930Y-45749619D01*
X148559071Y-45741166D01*
X148441155Y-45790705D01*
X148209577Y-45970385D01*
X147878393Y-46279180D01*
X147450176Y-46714833D01*
X146520376Y-47688500D01*
X145970075Y-47688500D01*
X145419773Y-47688500D01*
X146456694Y-46586446D01*
X146760513Y-46260984D01*
X147048337Y-45947050D01*
X147272642Y-45696145D01*
X147415685Y-45528145D01*
X147459724Y-45462923D01*
X147418667Y-45441673D01*
X147258688Y-45364465D01*
X147026830Y-45255281D01*
X146707135Y-45078859D01*
X146176900Y-44649337D01*
X145732357Y-44107047D01*
X145391967Y-43482135D01*
X145174194Y-42804749D01*
X145097500Y-42105033D01*
X145098323Y-42096108D01*
X145902240Y-42096108D01*
X145903393Y-42301449D01*
X145916346Y-42642736D01*
X145951558Y-42892774D01*
X146018714Y-43104679D01*
X146127496Y-43331565D01*
X146301202Y-43609232D01*
X146660620Y-44029980D01*
X147081686Y-44394005D01*
X147509121Y-44648612D01*
X147681576Y-44716303D01*
X147995342Y-44808084D01*
X148298316Y-44865887D01*
X148541192Y-44881357D01*
X148674667Y-44846138D01*
X148686581Y-44782362D01*
X148700570Y-44565465D01*
X148712969Y-44214922D01*
X148723355Y-43750654D01*
X148731300Y-43192584D01*
X148736379Y-42560633D01*
X148738167Y-41874722D01*
X148738167Y-38967833D01*
X148430490Y-38967833D01*
X148053200Y-39006427D01*
X147522783Y-39198088D01*
X147031699Y-39541446D01*
X146593092Y-40026537D01*
X146220111Y-40643394D01*
X146078421Y-40939320D01*
X145981183Y-41187695D01*
X145928289Y-41422696D01*
X145906415Y-41705206D01*
X145902240Y-42096108D01*
X145098323Y-42096108D01*
X145167868Y-41342191D01*
X145369927Y-40606294D01*
X145688634Y-39925956D01*
X146108945Y-39327195D01*
X146615816Y-38836033D01*
X147194203Y-38478490D01*
X147292311Y-38434477D01*
X147544437Y-38340783D01*
X147810167Y-38280263D01*
X148141391Y-38243320D01*
X148590000Y-38220359D01*
X149500167Y-38187101D01*
X149500167Y-38967833D01*
X149500167Y-42937800D01*
G37*
G36*
X165416360Y-38320315D02*
G01*
X165442332Y-38495899D01*
X165491368Y-38810887D01*
X165560398Y-39246442D01*
X165646350Y-39783728D01*
X165746156Y-40403909D01*
X165856745Y-41088150D01*
X165975046Y-41817614D01*
X166097989Y-42573466D01*
X166222504Y-43336870D01*
X166345521Y-44088990D01*
X166463969Y-44810990D01*
X166574779Y-45484035D01*
X166674879Y-46089288D01*
X166761201Y-46607913D01*
X166830672Y-47021075D01*
X166880224Y-47309938D01*
X166906786Y-47455666D01*
X166926612Y-47576735D01*
X166898455Y-47654529D01*
X166777910Y-47683933D01*
X166526507Y-47688500D01*
X166418823Y-47687581D01*
X166207781Y-47669097D01*
X166101999Y-47612236D01*
X166054392Y-47498000D01*
X166035754Y-47397735D01*
X165992462Y-47143323D01*
X165929014Y-46759830D01*
X165848744Y-46267711D01*
X165754986Y-45687424D01*
X165651075Y-45039423D01*
X165540345Y-44344166D01*
X165444194Y-43742634D01*
X165337440Y-43084778D01*
X165239384Y-42490984D01*
X165153515Y-41981900D01*
X165083322Y-41578175D01*
X165032294Y-41300456D01*
X165003919Y-41169392D01*
X164937873Y-40957950D01*
X164826970Y-41169392D01*
X164771307Y-41271145D01*
X164636001Y-41510145D01*
X164455100Y-41824505D01*
X164252166Y-42173082D01*
X163788265Y-42965331D01*
X163286807Y-42046573D01*
X163277211Y-42029001D01*
X163080395Y-41672938D01*
X162910047Y-41372473D01*
X162784109Y-41158768D01*
X162720521Y-41062987D01*
X162712857Y-41069322D01*
X162673077Y-41193967D01*
X162607788Y-41461527D01*
X162520619Y-41854861D01*
X162415202Y-42356828D01*
X162295166Y-42950288D01*
X162164143Y-43618098D01*
X162025763Y-44343118D01*
X161395833Y-47688078D01*
X160942275Y-47688289D01*
X160721349Y-47681508D01*
X160557203Y-47648213D01*
X160526793Y-47582666D01*
X160537101Y-47539652D01*
X160577738Y-47344554D01*
X160645269Y-47008035D01*
X160736673Y-46545540D01*
X160848927Y-45972516D01*
X160979011Y-45304408D01*
X161123902Y-44556663D01*
X161280578Y-43744726D01*
X161446018Y-42884044D01*
X161551476Y-42335944D01*
X161711511Y-41510370D01*
X161861064Y-40746253D01*
X161997121Y-40058579D01*
X162116669Y-39462335D01*
X162216695Y-38972508D01*
X162294184Y-38604085D01*
X162346124Y-38372051D01*
X162369500Y-38291394D01*
X162375563Y-38296038D01*
X162438057Y-38402815D01*
X162550980Y-38629392D01*
X162700523Y-38947329D01*
X162872878Y-39328183D01*
X162875861Y-39334888D01*
X163072212Y-39775848D01*
X163266848Y-40212067D01*
X163437435Y-40593537D01*
X163561636Y-40870253D01*
X163789349Y-41375673D01*
X164598919Y-39769586D01*
X164694726Y-39580476D01*
X164923123Y-39137890D01*
X165120052Y-38767882D01*
X165274609Y-38490253D01*
X165375891Y-38324801D01*
X165412994Y-38291327D01*
X165416360Y-38320315D01*
G37*
D12*
%TO.C,R12*%
X102879833Y-92783842D02*
X103187115Y-92783842D01*
X102879833Y-93543842D02*
X103187115Y-93543842D01*
%TO.C,U1*%
X101958750Y-82722867D02*
X102408750Y-82722867D01*
X101958750Y-83172867D02*
X101958750Y-82722867D01*
X101958750Y-89492867D02*
X101958750Y-89942867D01*
X101958750Y-89942867D02*
X102408750Y-89942867D01*
X108728750Y-89942867D02*
X108728750Y-91232867D01*
X109178750Y-82722867D02*
X108728750Y-82722867D01*
X109178750Y-83172867D02*
X109178750Y-82722867D01*
X109178750Y-89492867D02*
X109178750Y-89942867D01*
X109178750Y-89942867D02*
X108728750Y-89942867D01*
%TO.C,R7*%
X50213750Y-71874891D02*
X50213750Y-71567609D01*
X50973750Y-71874891D02*
X50973750Y-71567609D01*
%TO.C,R18*%
X184282525Y-92488750D02*
X183975243Y-92488750D01*
X184282525Y-93248750D02*
X183975243Y-93248750D01*
%TO.C,C6*%
X98480456Y-82695658D02*
X98264784Y-82695658D01*
X98480456Y-83415658D02*
X98264784Y-83415658D01*
%TO.C,C11*%
X50387836Y-67108750D02*
X50172164Y-67108750D01*
X50387836Y-67828750D02*
X50172164Y-67828750D01*
%TD*%
M02*
