%TF.GenerationSoftware,KiCad,Pcbnew,(7.0.0)*%
%TF.CreationDate,2023-12-27T13:26:55+01:00*%
%TF.ProjectId,ampersand,616d7065-7273-4616-9e64-2e6b69636164,rev?*%
%TF.SameCoordinates,Original*%
%TF.FileFunction,Legend,Bot*%
%TF.FilePolarity,Positive*%
%FSLAX46Y46*%
G04 Gerber Fmt 4.6, Leading zero omitted, Abs format (unit mm)*
G04 Created by KiCad (PCBNEW (7.0.0)) date 2023-12-27 13:26:55*
%MOMM*%
%LPD*%
G01*
G04 APERTURE LIST*
%ADD10C,0.400000*%
%ADD11C,0.150000*%
%ADD12C,0.200000*%
%ADD13C,0.120000*%
%ADD14C,0.170180*%
%ADD15C,0.002540*%
G04 APERTURE END LIST*
D10*
X204687798Y-97794583D02*
X203735417Y-97794583D01*
X204878274Y-98366011D02*
X204211608Y-96366011D01*
X204211608Y-96366011D02*
X203544941Y-98366011D01*
X202878274Y-98366011D02*
X202878274Y-97032678D01*
X202878274Y-97223154D02*
X202783036Y-97127916D01*
X202783036Y-97127916D02*
X202592560Y-97032678D01*
X202592560Y-97032678D02*
X202306845Y-97032678D01*
X202306845Y-97032678D02*
X202116369Y-97127916D01*
X202116369Y-97127916D02*
X202021131Y-97318392D01*
X202021131Y-97318392D02*
X202021131Y-98366011D01*
X202021131Y-97318392D02*
X201925893Y-97127916D01*
X201925893Y-97127916D02*
X201735417Y-97032678D01*
X201735417Y-97032678D02*
X201449703Y-97032678D01*
X201449703Y-97032678D02*
X201259226Y-97127916D01*
X201259226Y-97127916D02*
X201163988Y-97318392D01*
X201163988Y-97318392D02*
X201163988Y-98366011D01*
X200211607Y-97032678D02*
X200211607Y-99032678D01*
X200211607Y-97127916D02*
X200021131Y-97032678D01*
X200021131Y-97032678D02*
X199640178Y-97032678D01*
X199640178Y-97032678D02*
X199449702Y-97127916D01*
X199449702Y-97127916D02*
X199354464Y-97223154D01*
X199354464Y-97223154D02*
X199259226Y-97413630D01*
X199259226Y-97413630D02*
X199259226Y-97985059D01*
X199259226Y-97985059D02*
X199354464Y-98175535D01*
X199354464Y-98175535D02*
X199449702Y-98270773D01*
X199449702Y-98270773D02*
X199640178Y-98366011D01*
X199640178Y-98366011D02*
X200021131Y-98366011D01*
X200021131Y-98366011D02*
X200211607Y-98270773D01*
X197640178Y-98270773D02*
X197830654Y-98366011D01*
X197830654Y-98366011D02*
X198211607Y-98366011D01*
X198211607Y-98366011D02*
X198402083Y-98270773D01*
X198402083Y-98270773D02*
X198497321Y-98080297D01*
X198497321Y-98080297D02*
X198497321Y-97318392D01*
X198497321Y-97318392D02*
X198402083Y-97127916D01*
X198402083Y-97127916D02*
X198211607Y-97032678D01*
X198211607Y-97032678D02*
X197830654Y-97032678D01*
X197830654Y-97032678D02*
X197640178Y-97127916D01*
X197640178Y-97127916D02*
X197544940Y-97318392D01*
X197544940Y-97318392D02*
X197544940Y-97508869D01*
X197544940Y-97508869D02*
X198497321Y-97699345D01*
X196687797Y-98366011D02*
X196687797Y-97032678D01*
X196687797Y-97413630D02*
X196592559Y-97223154D01*
X196592559Y-97223154D02*
X196497321Y-97127916D01*
X196497321Y-97127916D02*
X196306845Y-97032678D01*
X196306845Y-97032678D02*
X196116368Y-97032678D01*
X195544940Y-98270773D02*
X195354464Y-98366011D01*
X195354464Y-98366011D02*
X194973512Y-98366011D01*
X194973512Y-98366011D02*
X194783035Y-98270773D01*
X194783035Y-98270773D02*
X194687797Y-98080297D01*
X194687797Y-98080297D02*
X194687797Y-97985059D01*
X194687797Y-97985059D02*
X194783035Y-97794583D01*
X194783035Y-97794583D02*
X194973512Y-97699345D01*
X194973512Y-97699345D02*
X195259226Y-97699345D01*
X195259226Y-97699345D02*
X195449702Y-97604107D01*
X195449702Y-97604107D02*
X195544940Y-97413630D01*
X195544940Y-97413630D02*
X195544940Y-97318392D01*
X195544940Y-97318392D02*
X195449702Y-97127916D01*
X195449702Y-97127916D02*
X195259226Y-97032678D01*
X195259226Y-97032678D02*
X194973512Y-97032678D01*
X194973512Y-97032678D02*
X194783035Y-97127916D01*
X192973511Y-98366011D02*
X192973511Y-97318392D01*
X192973511Y-97318392D02*
X193068749Y-97127916D01*
X193068749Y-97127916D02*
X193259225Y-97032678D01*
X193259225Y-97032678D02*
X193640178Y-97032678D01*
X193640178Y-97032678D02*
X193830654Y-97127916D01*
X192973511Y-98270773D02*
X193163987Y-98366011D01*
X193163987Y-98366011D02*
X193640178Y-98366011D01*
X193640178Y-98366011D02*
X193830654Y-98270773D01*
X193830654Y-98270773D02*
X193925892Y-98080297D01*
X193925892Y-98080297D02*
X193925892Y-97889821D01*
X193925892Y-97889821D02*
X193830654Y-97699345D01*
X193830654Y-97699345D02*
X193640178Y-97604107D01*
X193640178Y-97604107D02*
X193163987Y-97604107D01*
X193163987Y-97604107D02*
X192973511Y-97508869D01*
X192021130Y-97032678D02*
X192021130Y-98366011D01*
X192021130Y-97223154D02*
X191925892Y-97127916D01*
X191925892Y-97127916D02*
X191735416Y-97032678D01*
X191735416Y-97032678D02*
X191449701Y-97032678D01*
X191449701Y-97032678D02*
X191259225Y-97127916D01*
X191259225Y-97127916D02*
X191163987Y-97318392D01*
X191163987Y-97318392D02*
X191163987Y-98366011D01*
X189354463Y-98366011D02*
X189354463Y-96366011D01*
X189354463Y-98270773D02*
X189544939Y-98366011D01*
X189544939Y-98366011D02*
X189925892Y-98366011D01*
X189925892Y-98366011D02*
X190116368Y-98270773D01*
X190116368Y-98270773D02*
X190211606Y-98175535D01*
X190211606Y-98175535D02*
X190306844Y-97985059D01*
X190306844Y-97985059D02*
X190306844Y-97413630D01*
X190306844Y-97413630D02*
X190211606Y-97223154D01*
X190211606Y-97223154D02*
X190116368Y-97127916D01*
X190116368Y-97127916D02*
X189925892Y-97032678D01*
X189925892Y-97032678D02*
X189544939Y-97032678D01*
X189544939Y-97032678D02*
X189354463Y-97127916D01*
X187202082Y-97318392D02*
X186535415Y-97318392D01*
X186249701Y-98366011D02*
X187202082Y-98366011D01*
X187202082Y-98366011D02*
X187202082Y-96366011D01*
X187202082Y-96366011D02*
X186249701Y-96366011D01*
X184249701Y-98175535D02*
X184344939Y-98270773D01*
X184344939Y-98270773D02*
X184630653Y-98366011D01*
X184630653Y-98366011D02*
X184821129Y-98366011D01*
X184821129Y-98366011D02*
X185106844Y-98270773D01*
X185106844Y-98270773D02*
X185297320Y-98080297D01*
X185297320Y-98080297D02*
X185392558Y-97889821D01*
X185392558Y-97889821D02*
X185487796Y-97508869D01*
X185487796Y-97508869D02*
X185487796Y-97223154D01*
X185487796Y-97223154D02*
X185392558Y-96842202D01*
X185392558Y-96842202D02*
X185297320Y-96651726D01*
X185297320Y-96651726D02*
X185106844Y-96461250D01*
X185106844Y-96461250D02*
X184821129Y-96366011D01*
X184821129Y-96366011D02*
X184630653Y-96366011D01*
X184630653Y-96366011D02*
X184344939Y-96461250D01*
X184344939Y-96461250D02*
X184249701Y-96556488D01*
D11*
X162536011Y-86092380D02*
X162536011Y-85092380D01*
X162536011Y-85473333D02*
X162440773Y-85425714D01*
X162440773Y-85425714D02*
X162250297Y-85425714D01*
X162250297Y-85425714D02*
X162155059Y-85473333D01*
X162155059Y-85473333D02*
X162107440Y-85520952D01*
X162107440Y-85520952D02*
X162059821Y-85616190D01*
X162059821Y-85616190D02*
X162059821Y-85901904D01*
X162059821Y-85901904D02*
X162107440Y-85997142D01*
X162107440Y-85997142D02*
X162155059Y-86044761D01*
X162155059Y-86044761D02*
X162250297Y-86092380D01*
X162250297Y-86092380D02*
X162440773Y-86092380D01*
X162440773Y-86092380D02*
X162536011Y-86044761D01*
X161488392Y-86092380D02*
X161583630Y-86044761D01*
X161583630Y-86044761D02*
X161631249Y-85997142D01*
X161631249Y-85997142D02*
X161678868Y-85901904D01*
X161678868Y-85901904D02*
X161678868Y-85616190D01*
X161678868Y-85616190D02*
X161631249Y-85520952D01*
X161631249Y-85520952D02*
X161583630Y-85473333D01*
X161583630Y-85473333D02*
X161488392Y-85425714D01*
X161488392Y-85425714D02*
X161345535Y-85425714D01*
X161345535Y-85425714D02*
X161250297Y-85473333D01*
X161250297Y-85473333D02*
X161202678Y-85520952D01*
X161202678Y-85520952D02*
X161155059Y-85616190D01*
X161155059Y-85616190D02*
X161155059Y-85901904D01*
X161155059Y-85901904D02*
X161202678Y-85997142D01*
X161202678Y-85997142D02*
X161250297Y-86044761D01*
X161250297Y-86044761D02*
X161345535Y-86092380D01*
X161345535Y-86092380D02*
X161488392Y-86092380D01*
X160583630Y-86092380D02*
X160678868Y-86044761D01*
X160678868Y-86044761D02*
X160726487Y-85997142D01*
X160726487Y-85997142D02*
X160774106Y-85901904D01*
X160774106Y-85901904D02*
X160774106Y-85616190D01*
X160774106Y-85616190D02*
X160726487Y-85520952D01*
X160726487Y-85520952D02*
X160678868Y-85473333D01*
X160678868Y-85473333D02*
X160583630Y-85425714D01*
X160583630Y-85425714D02*
X160440773Y-85425714D01*
X160440773Y-85425714D02*
X160345535Y-85473333D01*
X160345535Y-85473333D02*
X160297916Y-85520952D01*
X160297916Y-85520952D02*
X160250297Y-85616190D01*
X160250297Y-85616190D02*
X160250297Y-85901904D01*
X160250297Y-85901904D02*
X160297916Y-85997142D01*
X160297916Y-85997142D02*
X160345535Y-86044761D01*
X160345535Y-86044761D02*
X160440773Y-86092380D01*
X160440773Y-86092380D02*
X160583630Y-86092380D01*
X159964582Y-85425714D02*
X159583630Y-85425714D01*
X159821725Y-85092380D02*
X159821725Y-85949523D01*
X159821725Y-85949523D02*
X159774106Y-86044761D01*
X159774106Y-86044761D02*
X159678868Y-86092380D01*
X159678868Y-86092380D02*
X159583630Y-86092380D01*
D12*
X143227679Y-97141011D02*
X143322917Y-97188630D01*
X143322917Y-97188630D02*
X143513393Y-97188630D01*
X143513393Y-97188630D02*
X143608631Y-97141011D01*
X143608631Y-97141011D02*
X143656250Y-97093392D01*
X143656250Y-97093392D02*
X143703869Y-96998154D01*
X143703869Y-96998154D02*
X143703869Y-96712440D01*
X143703869Y-96712440D02*
X143656250Y-96617202D01*
X143656250Y-96617202D02*
X143608631Y-96569583D01*
X143608631Y-96569583D02*
X143513393Y-96521964D01*
X143513393Y-96521964D02*
X143322917Y-96521964D01*
X143322917Y-96521964D02*
X143227679Y-96569583D01*
X142656250Y-97188630D02*
X142751488Y-97141011D01*
X142751488Y-97141011D02*
X142799107Y-97093392D01*
X142799107Y-97093392D02*
X142846726Y-96998154D01*
X142846726Y-96998154D02*
X142846726Y-96712440D01*
X142846726Y-96712440D02*
X142799107Y-96617202D01*
X142799107Y-96617202D02*
X142751488Y-96569583D01*
X142751488Y-96569583D02*
X142656250Y-96521964D01*
X142656250Y-96521964D02*
X142513393Y-96521964D01*
X142513393Y-96521964D02*
X142418155Y-96569583D01*
X142418155Y-96569583D02*
X142370536Y-96617202D01*
X142370536Y-96617202D02*
X142322917Y-96712440D01*
X142322917Y-96712440D02*
X142322917Y-96998154D01*
X142322917Y-96998154D02*
X142370536Y-97093392D01*
X142370536Y-97093392D02*
X142418155Y-97141011D01*
X142418155Y-97141011D02*
X142513393Y-97188630D01*
X142513393Y-97188630D02*
X142656250Y-97188630D01*
X141894345Y-96521964D02*
X141894345Y-97188630D01*
X141894345Y-96617202D02*
X141846726Y-96569583D01*
X141846726Y-96569583D02*
X141751488Y-96521964D01*
X141751488Y-96521964D02*
X141608631Y-96521964D01*
X141608631Y-96521964D02*
X141513393Y-96569583D01*
X141513393Y-96569583D02*
X141465774Y-96664821D01*
X141465774Y-96664821D02*
X141465774Y-97188630D01*
X140561012Y-97141011D02*
X140656250Y-97188630D01*
X140656250Y-97188630D02*
X140846726Y-97188630D01*
X140846726Y-97188630D02*
X140941964Y-97141011D01*
X140941964Y-97141011D02*
X140989583Y-97093392D01*
X140989583Y-97093392D02*
X141037202Y-96998154D01*
X141037202Y-96998154D02*
X141037202Y-96712440D01*
X141037202Y-96712440D02*
X140989583Y-96617202D01*
X140989583Y-96617202D02*
X140941964Y-96569583D01*
X140941964Y-96569583D02*
X140846726Y-96521964D01*
X140846726Y-96521964D02*
X140656250Y-96521964D01*
X140656250Y-96521964D02*
X140561012Y-96569583D01*
X139751488Y-97141011D02*
X139846726Y-97188630D01*
X139846726Y-97188630D02*
X140037202Y-97188630D01*
X140037202Y-97188630D02*
X140132440Y-97141011D01*
X140132440Y-97141011D02*
X140180059Y-97045773D01*
X140180059Y-97045773D02*
X140180059Y-96664821D01*
X140180059Y-96664821D02*
X140132440Y-96569583D01*
X140132440Y-96569583D02*
X140037202Y-96521964D01*
X140037202Y-96521964D02*
X139846726Y-96521964D01*
X139846726Y-96521964D02*
X139751488Y-96569583D01*
X139751488Y-96569583D02*
X139703869Y-96664821D01*
X139703869Y-96664821D02*
X139703869Y-96760059D01*
X139703869Y-96760059D02*
X140180059Y-96855297D01*
X139275297Y-96521964D02*
X139275297Y-97521964D01*
X139275297Y-96569583D02*
X139180059Y-96521964D01*
X139180059Y-96521964D02*
X138989583Y-96521964D01*
X138989583Y-96521964D02*
X138894345Y-96569583D01*
X138894345Y-96569583D02*
X138846726Y-96617202D01*
X138846726Y-96617202D02*
X138799107Y-96712440D01*
X138799107Y-96712440D02*
X138799107Y-96998154D01*
X138799107Y-96998154D02*
X138846726Y-97093392D01*
X138846726Y-97093392D02*
X138894345Y-97141011D01*
X138894345Y-97141011D02*
X138989583Y-97188630D01*
X138989583Y-97188630D02*
X139180059Y-97188630D01*
X139180059Y-97188630D02*
X139275297Y-97141011D01*
X138513392Y-96521964D02*
X138132440Y-96521964D01*
X138370535Y-96188630D02*
X138370535Y-97045773D01*
X138370535Y-97045773D02*
X138322916Y-97141011D01*
X138322916Y-97141011D02*
X138227678Y-97188630D01*
X138227678Y-97188630D02*
X138132440Y-97188630D01*
X137199106Y-97188630D02*
X137199106Y-96188630D01*
X137199106Y-96569583D02*
X137103868Y-96521964D01*
X137103868Y-96521964D02*
X136913392Y-96521964D01*
X136913392Y-96521964D02*
X136818154Y-96569583D01*
X136818154Y-96569583D02*
X136770535Y-96617202D01*
X136770535Y-96617202D02*
X136722916Y-96712440D01*
X136722916Y-96712440D02*
X136722916Y-96998154D01*
X136722916Y-96998154D02*
X136770535Y-97093392D01*
X136770535Y-97093392D02*
X136818154Y-97141011D01*
X136818154Y-97141011D02*
X136913392Y-97188630D01*
X136913392Y-97188630D02*
X137103868Y-97188630D01*
X137103868Y-97188630D02*
X137199106Y-97141011D01*
X136389582Y-96521964D02*
X136151487Y-97188630D01*
X135913392Y-96521964D02*
X136151487Y-97188630D01*
X136151487Y-97188630D02*
X136246725Y-97426726D01*
X136246725Y-97426726D02*
X136294344Y-97474345D01*
X136294344Y-97474345D02*
X136389582Y-97521964D01*
X135027677Y-96521964D02*
X134837201Y-97188630D01*
X134837201Y-97188630D02*
X134646725Y-96712440D01*
X134646725Y-96712440D02*
X134456249Y-97188630D01*
X134456249Y-97188630D02*
X134265773Y-96521964D01*
X133884820Y-97188630D02*
X133884820Y-96188630D01*
X133456249Y-97188630D02*
X133456249Y-96664821D01*
X133456249Y-96664821D02*
X133503868Y-96569583D01*
X133503868Y-96569583D02*
X133599106Y-96521964D01*
X133599106Y-96521964D02*
X133741963Y-96521964D01*
X133741963Y-96521964D02*
X133837201Y-96569583D01*
X133837201Y-96569583D02*
X133884820Y-96617202D01*
X132980058Y-97188630D02*
X132980058Y-96521964D01*
X132980058Y-96188630D02*
X133027677Y-96236250D01*
X133027677Y-96236250D02*
X132980058Y-96283869D01*
X132980058Y-96283869D02*
X132932439Y-96236250D01*
X132932439Y-96236250D02*
X132980058Y-96188630D01*
X132980058Y-96188630D02*
X132980058Y-96283869D01*
X132646725Y-96521964D02*
X132265773Y-96521964D01*
X132503868Y-96188630D02*
X132503868Y-97045773D01*
X132503868Y-97045773D02*
X132456249Y-97141011D01*
X132456249Y-97141011D02*
X132361011Y-97188630D01*
X132361011Y-97188630D02*
X132265773Y-97188630D01*
X131551487Y-97141011D02*
X131646725Y-97188630D01*
X131646725Y-97188630D02*
X131837201Y-97188630D01*
X131837201Y-97188630D02*
X131932439Y-97141011D01*
X131932439Y-97141011D02*
X131980058Y-97045773D01*
X131980058Y-97045773D02*
X131980058Y-96664821D01*
X131980058Y-96664821D02*
X131932439Y-96569583D01*
X131932439Y-96569583D02*
X131837201Y-96521964D01*
X131837201Y-96521964D02*
X131646725Y-96521964D01*
X131646725Y-96521964D02*
X131551487Y-96569583D01*
X131551487Y-96569583D02*
X131503868Y-96664821D01*
X131503868Y-96664821D02*
X131503868Y-96760059D01*
X131503868Y-96760059D02*
X131980058Y-96855297D01*
X131218153Y-96521964D02*
X130837201Y-96521964D01*
X131075296Y-97188630D02*
X131075296Y-96331488D01*
X131075296Y-96331488D02*
X131027677Y-96236250D01*
X131027677Y-96236250D02*
X130932439Y-96188630D01*
X130932439Y-96188630D02*
X130837201Y-96188630D01*
X130075296Y-97188630D02*
X130075296Y-96664821D01*
X130075296Y-96664821D02*
X130122915Y-96569583D01*
X130122915Y-96569583D02*
X130218153Y-96521964D01*
X130218153Y-96521964D02*
X130408629Y-96521964D01*
X130408629Y-96521964D02*
X130503867Y-96569583D01*
X130075296Y-97141011D02*
X130170534Y-97188630D01*
X130170534Y-97188630D02*
X130408629Y-97188630D01*
X130408629Y-97188630D02*
X130503867Y-97141011D01*
X130503867Y-97141011D02*
X130551486Y-97045773D01*
X130551486Y-97045773D02*
X130551486Y-96950535D01*
X130551486Y-96950535D02*
X130503867Y-96855297D01*
X130503867Y-96855297D02*
X130408629Y-96807678D01*
X130408629Y-96807678D02*
X130170534Y-96807678D01*
X130170534Y-96807678D02*
X130075296Y-96760059D01*
X129170534Y-97141011D02*
X129265772Y-97188630D01*
X129265772Y-97188630D02*
X129456248Y-97188630D01*
X129456248Y-97188630D02*
X129551486Y-97141011D01*
X129551486Y-97141011D02*
X129599105Y-97093392D01*
X129599105Y-97093392D02*
X129646724Y-96998154D01*
X129646724Y-96998154D02*
X129646724Y-96712440D01*
X129646724Y-96712440D02*
X129599105Y-96617202D01*
X129599105Y-96617202D02*
X129551486Y-96569583D01*
X129551486Y-96569583D02*
X129456248Y-96521964D01*
X129456248Y-96521964D02*
X129265772Y-96521964D01*
X129265772Y-96521964D02*
X129170534Y-96569583D01*
X128361010Y-97141011D02*
X128456248Y-97188630D01*
X128456248Y-97188630D02*
X128646724Y-97188630D01*
X128646724Y-97188630D02*
X128741962Y-97141011D01*
X128741962Y-97141011D02*
X128789581Y-97045773D01*
X128789581Y-97045773D02*
X128789581Y-96664821D01*
X128789581Y-96664821D02*
X128741962Y-96569583D01*
X128741962Y-96569583D02*
X128646724Y-96521964D01*
X128646724Y-96521964D02*
X128456248Y-96521964D01*
X128456248Y-96521964D02*
X128361010Y-96569583D01*
X128361010Y-96569583D02*
X128313391Y-96664821D01*
X128313391Y-96664821D02*
X128313391Y-96760059D01*
X128313391Y-96760059D02*
X128789581Y-96855297D01*
X127884819Y-97188630D02*
X127884819Y-96521964D01*
X127884819Y-96617202D02*
X127837200Y-96569583D01*
X127837200Y-96569583D02*
X127741962Y-96521964D01*
X127741962Y-96521964D02*
X127599105Y-96521964D01*
X127599105Y-96521964D02*
X127503867Y-96569583D01*
X127503867Y-96569583D02*
X127456248Y-96664821D01*
X127456248Y-96664821D02*
X127456248Y-97188630D01*
X127456248Y-96664821D02*
X127408629Y-96569583D01*
X127408629Y-96569583D02*
X127313391Y-96521964D01*
X127313391Y-96521964D02*
X127170534Y-96521964D01*
X127170534Y-96521964D02*
X127075295Y-96569583D01*
X127075295Y-96569583D02*
X127027676Y-96664821D01*
X127027676Y-96664821D02*
X127027676Y-97188630D01*
X126408629Y-97188630D02*
X126503867Y-97141011D01*
X126503867Y-97141011D02*
X126551486Y-97093392D01*
X126551486Y-97093392D02*
X126599105Y-96998154D01*
X126599105Y-96998154D02*
X126599105Y-96712440D01*
X126599105Y-96712440D02*
X126551486Y-96617202D01*
X126551486Y-96617202D02*
X126503867Y-96569583D01*
X126503867Y-96569583D02*
X126408629Y-96521964D01*
X126408629Y-96521964D02*
X126265772Y-96521964D01*
X126265772Y-96521964D02*
X126170534Y-96569583D01*
X126170534Y-96569583D02*
X126122915Y-96617202D01*
X126122915Y-96617202D02*
X126075296Y-96712440D01*
X126075296Y-96712440D02*
X126075296Y-96998154D01*
X126075296Y-96998154D02*
X126122915Y-97093392D01*
X126122915Y-97093392D02*
X126170534Y-97141011D01*
X126170534Y-97141011D02*
X126265772Y-97188630D01*
X126265772Y-97188630D02*
X126408629Y-97188630D01*
X125218153Y-96521964D02*
X125218153Y-97188630D01*
X125646724Y-96521964D02*
X125646724Y-97045773D01*
X125646724Y-97045773D02*
X125599105Y-97141011D01*
X125599105Y-97141011D02*
X125503867Y-97188630D01*
X125503867Y-97188630D02*
X125361010Y-97188630D01*
X125361010Y-97188630D02*
X125265772Y-97141011D01*
X125265772Y-97141011D02*
X125218153Y-97093392D01*
X124741962Y-96521964D02*
X124741962Y-97188630D01*
X124741962Y-96617202D02*
X124694343Y-96569583D01*
X124694343Y-96569583D02*
X124599105Y-96521964D01*
X124599105Y-96521964D02*
X124456248Y-96521964D01*
X124456248Y-96521964D02*
X124361010Y-96569583D01*
X124361010Y-96569583D02*
X124313391Y-96664821D01*
X124313391Y-96664821D02*
X124313391Y-97188630D01*
X123980057Y-96521964D02*
X123599105Y-96521964D01*
X123837200Y-96188630D02*
X123837200Y-97045773D01*
X123837200Y-97045773D02*
X123789581Y-97141011D01*
X123789581Y-97141011D02*
X123694343Y-97188630D01*
X123694343Y-97188630D02*
X123599105Y-97188630D01*
X122837200Y-97188630D02*
X122837200Y-96664821D01*
X122837200Y-96664821D02*
X122884819Y-96569583D01*
X122884819Y-96569583D02*
X122980057Y-96521964D01*
X122980057Y-96521964D02*
X123170533Y-96521964D01*
X123170533Y-96521964D02*
X123265771Y-96569583D01*
X122837200Y-97141011D02*
X122932438Y-97188630D01*
X122932438Y-97188630D02*
X123170533Y-97188630D01*
X123170533Y-97188630D02*
X123265771Y-97141011D01*
X123265771Y-97141011D02*
X123313390Y-97045773D01*
X123313390Y-97045773D02*
X123313390Y-96950535D01*
X123313390Y-96950535D02*
X123265771Y-96855297D01*
X123265771Y-96855297D02*
X123170533Y-96807678D01*
X123170533Y-96807678D02*
X122932438Y-96807678D01*
X122932438Y-96807678D02*
X122837200Y-96760059D01*
X122361009Y-97188630D02*
X122361009Y-96521964D01*
X122361009Y-96188630D02*
X122408628Y-96236250D01*
X122408628Y-96236250D02*
X122361009Y-96283869D01*
X122361009Y-96283869D02*
X122313390Y-96236250D01*
X122313390Y-96236250D02*
X122361009Y-96188630D01*
X122361009Y-96188630D02*
X122361009Y-96283869D01*
X121884819Y-96521964D02*
X121884819Y-97188630D01*
X121884819Y-96617202D02*
X121837200Y-96569583D01*
X121837200Y-96569583D02*
X121741962Y-96521964D01*
X121741962Y-96521964D02*
X121599105Y-96521964D01*
X121599105Y-96521964D02*
X121503867Y-96569583D01*
X121503867Y-96569583D02*
X121456248Y-96664821D01*
X121456248Y-96664821D02*
X121456248Y-97188630D01*
X139275297Y-98141964D02*
X139275297Y-99141964D01*
X139275297Y-98189583D02*
X139180059Y-98141964D01*
X139180059Y-98141964D02*
X138989583Y-98141964D01*
X138989583Y-98141964D02*
X138894345Y-98189583D01*
X138894345Y-98189583D02*
X138846726Y-98237202D01*
X138846726Y-98237202D02*
X138799107Y-98332440D01*
X138799107Y-98332440D02*
X138799107Y-98618154D01*
X138799107Y-98618154D02*
X138846726Y-98713392D01*
X138846726Y-98713392D02*
X138894345Y-98761011D01*
X138894345Y-98761011D02*
X138989583Y-98808630D01*
X138989583Y-98808630D02*
X139180059Y-98808630D01*
X139180059Y-98808630D02*
X139275297Y-98761011D01*
X137941964Y-98761011D02*
X138037202Y-98808630D01*
X138037202Y-98808630D02*
X138227678Y-98808630D01*
X138227678Y-98808630D02*
X138322916Y-98761011D01*
X138322916Y-98761011D02*
X138370535Y-98713392D01*
X138370535Y-98713392D02*
X138418154Y-98618154D01*
X138418154Y-98618154D02*
X138418154Y-98332440D01*
X138418154Y-98332440D02*
X138370535Y-98237202D01*
X138370535Y-98237202D02*
X138322916Y-98189583D01*
X138322916Y-98189583D02*
X138227678Y-98141964D01*
X138227678Y-98141964D02*
X138037202Y-98141964D01*
X138037202Y-98141964D02*
X137941964Y-98189583D01*
X137513392Y-98808630D02*
X137513392Y-97808630D01*
X137513392Y-98189583D02*
X137418154Y-98141964D01*
X137418154Y-98141964D02*
X137227678Y-98141964D01*
X137227678Y-98141964D02*
X137132440Y-98189583D01*
X137132440Y-98189583D02*
X137084821Y-98237202D01*
X137084821Y-98237202D02*
X137037202Y-98332440D01*
X137037202Y-98332440D02*
X137037202Y-98618154D01*
X137037202Y-98618154D02*
X137084821Y-98713392D01*
X137084821Y-98713392D02*
X137132440Y-98761011D01*
X137132440Y-98761011D02*
X137227678Y-98808630D01*
X137227678Y-98808630D02*
X137418154Y-98808630D01*
X137418154Y-98808630D02*
X137513392Y-98761011D01*
X136008630Y-98808630D02*
X136008630Y-97808630D01*
X136008630Y-98189583D02*
X135913392Y-98141964D01*
X135913392Y-98141964D02*
X135722916Y-98141964D01*
X135722916Y-98141964D02*
X135627678Y-98189583D01*
X135627678Y-98189583D02*
X135580059Y-98237202D01*
X135580059Y-98237202D02*
X135532440Y-98332440D01*
X135532440Y-98332440D02*
X135532440Y-98618154D01*
X135532440Y-98618154D02*
X135580059Y-98713392D01*
X135580059Y-98713392D02*
X135627678Y-98761011D01*
X135627678Y-98761011D02*
X135722916Y-98808630D01*
X135722916Y-98808630D02*
X135913392Y-98808630D01*
X135913392Y-98808630D02*
X136008630Y-98761011D01*
X135199106Y-98141964D02*
X134961011Y-98808630D01*
X134722916Y-98141964D02*
X134961011Y-98808630D01*
X134961011Y-98808630D02*
X135056249Y-99046726D01*
X135056249Y-99046726D02*
X135103868Y-99094345D01*
X135103868Y-99094345D02*
X135199106Y-99141964D01*
X133170535Y-98713392D02*
X133218154Y-98761011D01*
X133218154Y-98761011D02*
X133361011Y-98808630D01*
X133361011Y-98808630D02*
X133456249Y-98808630D01*
X133456249Y-98808630D02*
X133599106Y-98761011D01*
X133599106Y-98761011D02*
X133694344Y-98665773D01*
X133694344Y-98665773D02*
X133741963Y-98570535D01*
X133741963Y-98570535D02*
X133789582Y-98380059D01*
X133789582Y-98380059D02*
X133789582Y-98237202D01*
X133789582Y-98237202D02*
X133741963Y-98046726D01*
X133741963Y-98046726D02*
X133694344Y-97951488D01*
X133694344Y-97951488D02*
X133599106Y-97856250D01*
X133599106Y-97856250D02*
X133456249Y-97808630D01*
X133456249Y-97808630D02*
X133361011Y-97808630D01*
X133361011Y-97808630D02*
X133218154Y-97856250D01*
X133218154Y-97856250D02*
X133170535Y-97903869D01*
X132313392Y-98808630D02*
X132313392Y-98284821D01*
X132313392Y-98284821D02*
X132361011Y-98189583D01*
X132361011Y-98189583D02*
X132456249Y-98141964D01*
X132456249Y-98141964D02*
X132646725Y-98141964D01*
X132646725Y-98141964D02*
X132741963Y-98189583D01*
X132313392Y-98761011D02*
X132408630Y-98808630D01*
X132408630Y-98808630D02*
X132646725Y-98808630D01*
X132646725Y-98808630D02*
X132741963Y-98761011D01*
X132741963Y-98761011D02*
X132789582Y-98665773D01*
X132789582Y-98665773D02*
X132789582Y-98570535D01*
X132789582Y-98570535D02*
X132741963Y-98475297D01*
X132741963Y-98475297D02*
X132646725Y-98427678D01*
X132646725Y-98427678D02*
X132408630Y-98427678D01*
X132408630Y-98427678D02*
X132313392Y-98380059D01*
X131694344Y-98808630D02*
X131789582Y-98761011D01*
X131789582Y-98761011D02*
X131837201Y-98665773D01*
X131837201Y-98665773D02*
X131837201Y-97808630D01*
X131408629Y-98141964D02*
X131170534Y-98808630D01*
X131170534Y-98808630D02*
X130932439Y-98141964D01*
X130551486Y-98808630D02*
X130551486Y-98141964D01*
X130551486Y-97808630D02*
X130599105Y-97856250D01*
X130599105Y-97856250D02*
X130551486Y-97903869D01*
X130551486Y-97903869D02*
X130503867Y-97856250D01*
X130503867Y-97856250D02*
X130551486Y-97808630D01*
X130551486Y-97808630D02*
X130551486Y-97903869D01*
X130075296Y-98141964D02*
X130075296Y-98808630D01*
X130075296Y-98237202D02*
X130027677Y-98189583D01*
X130027677Y-98189583D02*
X129932439Y-98141964D01*
X129932439Y-98141964D02*
X129789582Y-98141964D01*
X129789582Y-98141964D02*
X129694344Y-98189583D01*
X129694344Y-98189583D02*
X129646725Y-98284821D01*
X129646725Y-98284821D02*
X129646725Y-98808630D01*
X128980058Y-97808630D02*
X128884820Y-97808630D01*
X128884820Y-97808630D02*
X128789582Y-97856250D01*
X128789582Y-97856250D02*
X128741963Y-97903869D01*
X128741963Y-97903869D02*
X128694344Y-97999107D01*
X128694344Y-97999107D02*
X128646725Y-98189583D01*
X128646725Y-98189583D02*
X128646725Y-98427678D01*
X128646725Y-98427678D02*
X128694344Y-98618154D01*
X128694344Y-98618154D02*
X128741963Y-98713392D01*
X128741963Y-98713392D02*
X128789582Y-98761011D01*
X128789582Y-98761011D02*
X128884820Y-98808630D01*
X128884820Y-98808630D02*
X128980058Y-98808630D01*
X128980058Y-98808630D02*
X129075296Y-98761011D01*
X129075296Y-98761011D02*
X129122915Y-98713392D01*
X129122915Y-98713392D02*
X129170534Y-98618154D01*
X129170534Y-98618154D02*
X129218153Y-98427678D01*
X129218153Y-98427678D02*
X129218153Y-98189583D01*
X129218153Y-98189583D02*
X129170534Y-97999107D01*
X129170534Y-97999107D02*
X129122915Y-97903869D01*
X129122915Y-97903869D02*
X129075296Y-97856250D01*
X129075296Y-97856250D02*
X128980058Y-97808630D01*
X127741963Y-97808630D02*
X128218153Y-97808630D01*
X128218153Y-97808630D02*
X128265772Y-98284821D01*
X128265772Y-98284821D02*
X128218153Y-98237202D01*
X128218153Y-98237202D02*
X128122915Y-98189583D01*
X128122915Y-98189583D02*
X127884820Y-98189583D01*
X127884820Y-98189583D02*
X127789582Y-98237202D01*
X127789582Y-98237202D02*
X127741963Y-98284821D01*
X127741963Y-98284821D02*
X127694344Y-98380059D01*
X127694344Y-98380059D02*
X127694344Y-98618154D01*
X127694344Y-98618154D02*
X127741963Y-98713392D01*
X127741963Y-98713392D02*
X127789582Y-98761011D01*
X127789582Y-98761011D02*
X127884820Y-98808630D01*
X127884820Y-98808630D02*
X128122915Y-98808630D01*
X128122915Y-98808630D02*
X128218153Y-98761011D01*
X128218153Y-98761011D02*
X128265772Y-98713392D01*
X126837201Y-97808630D02*
X127027677Y-97808630D01*
X127027677Y-97808630D02*
X127122915Y-97856250D01*
X127122915Y-97856250D02*
X127170534Y-97903869D01*
X127170534Y-97903869D02*
X127265772Y-98046726D01*
X127265772Y-98046726D02*
X127313391Y-98237202D01*
X127313391Y-98237202D02*
X127313391Y-98618154D01*
X127313391Y-98618154D02*
X127265772Y-98713392D01*
X127265772Y-98713392D02*
X127218153Y-98761011D01*
X127218153Y-98761011D02*
X127122915Y-98808630D01*
X127122915Y-98808630D02*
X126932439Y-98808630D01*
X126932439Y-98808630D02*
X126837201Y-98761011D01*
X126837201Y-98761011D02*
X126789582Y-98713392D01*
X126789582Y-98713392D02*
X126741963Y-98618154D01*
X126741963Y-98618154D02*
X126741963Y-98380059D01*
X126741963Y-98380059D02*
X126789582Y-98284821D01*
X126789582Y-98284821D02*
X126837201Y-98237202D01*
X126837201Y-98237202D02*
X126932439Y-98189583D01*
X126932439Y-98189583D02*
X127122915Y-98189583D01*
X127122915Y-98189583D02*
X127218153Y-98237202D01*
X127218153Y-98237202D02*
X127265772Y-98284821D01*
X127265772Y-98284821D02*
X127313391Y-98380059D01*
X126408629Y-97808630D02*
X125789582Y-97808630D01*
X125789582Y-97808630D02*
X126122915Y-98189583D01*
X126122915Y-98189583D02*
X125980058Y-98189583D01*
X125980058Y-98189583D02*
X125884820Y-98237202D01*
X125884820Y-98237202D02*
X125837201Y-98284821D01*
X125837201Y-98284821D02*
X125789582Y-98380059D01*
X125789582Y-98380059D02*
X125789582Y-98618154D01*
X125789582Y-98618154D02*
X125837201Y-98713392D01*
X125837201Y-98713392D02*
X125884820Y-98761011D01*
X125884820Y-98761011D02*
X125980058Y-98808630D01*
X125980058Y-98808630D02*
X126265772Y-98808630D01*
X126265772Y-98808630D02*
X126361010Y-98761011D01*
X126361010Y-98761011D02*
X126408629Y-98713392D01*
D11*
%TO.C,C7*%
X91392409Y-89857585D02*
X91420981Y-89886157D01*
X91420981Y-89886157D02*
X91506695Y-89914728D01*
X91506695Y-89914728D02*
X91563838Y-89914728D01*
X91563838Y-89914728D02*
X91649552Y-89886157D01*
X91649552Y-89886157D02*
X91706695Y-89829014D01*
X91706695Y-89829014D02*
X91735266Y-89771871D01*
X91735266Y-89771871D02*
X91763838Y-89657585D01*
X91763838Y-89657585D02*
X91763838Y-89571871D01*
X91763838Y-89571871D02*
X91735266Y-89457585D01*
X91735266Y-89457585D02*
X91706695Y-89400442D01*
X91706695Y-89400442D02*
X91649552Y-89343300D01*
X91649552Y-89343300D02*
X91563838Y-89314728D01*
X91563838Y-89314728D02*
X91506695Y-89314728D01*
X91506695Y-89314728D02*
X91420981Y-89343300D01*
X91420981Y-89343300D02*
X91392409Y-89371871D01*
X91192409Y-89314728D02*
X90792409Y-89314728D01*
X90792409Y-89314728D02*
X91049552Y-89914728D01*
%TO.C,R10*%
X51045340Y-78820894D02*
X51245340Y-78535180D01*
X51388197Y-78820894D02*
X51388197Y-78220894D01*
X51388197Y-78220894D02*
X51159626Y-78220894D01*
X51159626Y-78220894D02*
X51102483Y-78249466D01*
X51102483Y-78249466D02*
X51073912Y-78278037D01*
X51073912Y-78278037D02*
X51045340Y-78335180D01*
X51045340Y-78335180D02*
X51045340Y-78420894D01*
X51045340Y-78420894D02*
X51073912Y-78478037D01*
X51073912Y-78478037D02*
X51102483Y-78506608D01*
X51102483Y-78506608D02*
X51159626Y-78535180D01*
X51159626Y-78535180D02*
X51388197Y-78535180D01*
X50473912Y-78820894D02*
X50816769Y-78820894D01*
X50645340Y-78820894D02*
X50645340Y-78220894D01*
X50645340Y-78220894D02*
X50702483Y-78306608D01*
X50702483Y-78306608D02*
X50759626Y-78363751D01*
X50759626Y-78363751D02*
X50816769Y-78392323D01*
X50102483Y-78220894D02*
X50045340Y-78220894D01*
X50045340Y-78220894D02*
X49988197Y-78249466D01*
X49988197Y-78249466D02*
X49959626Y-78278037D01*
X49959626Y-78278037D02*
X49931054Y-78335180D01*
X49931054Y-78335180D02*
X49902483Y-78449466D01*
X49902483Y-78449466D02*
X49902483Y-78592323D01*
X49902483Y-78592323D02*
X49931054Y-78706608D01*
X49931054Y-78706608D02*
X49959626Y-78763751D01*
X49959626Y-78763751D02*
X49988197Y-78792323D01*
X49988197Y-78792323D02*
X50045340Y-78820894D01*
X50045340Y-78820894D02*
X50102483Y-78820894D01*
X50102483Y-78820894D02*
X50159626Y-78792323D01*
X50159626Y-78792323D02*
X50188197Y-78763751D01*
X50188197Y-78763751D02*
X50216768Y-78706608D01*
X50216768Y-78706608D02*
X50245340Y-78592323D01*
X50245340Y-78592323D02*
X50245340Y-78449466D01*
X50245340Y-78449466D02*
X50216768Y-78335180D01*
X50216768Y-78335180D02*
X50188197Y-78278037D01*
X50188197Y-78278037D02*
X50159626Y-78249466D01*
X50159626Y-78249466D02*
X50102483Y-78220894D01*
%TO.C,R9*%
X47466021Y-67701989D02*
X47666021Y-67416275D01*
X47808878Y-67701989D02*
X47808878Y-67101989D01*
X47808878Y-67101989D02*
X47580307Y-67101989D01*
X47580307Y-67101989D02*
X47523164Y-67130561D01*
X47523164Y-67130561D02*
X47494593Y-67159132D01*
X47494593Y-67159132D02*
X47466021Y-67216275D01*
X47466021Y-67216275D02*
X47466021Y-67301989D01*
X47466021Y-67301989D02*
X47494593Y-67359132D01*
X47494593Y-67359132D02*
X47523164Y-67387703D01*
X47523164Y-67387703D02*
X47580307Y-67416275D01*
X47580307Y-67416275D02*
X47808878Y-67416275D01*
X47180307Y-67701989D02*
X47066021Y-67701989D01*
X47066021Y-67701989D02*
X47008878Y-67673418D01*
X47008878Y-67673418D02*
X46980307Y-67644846D01*
X46980307Y-67644846D02*
X46923164Y-67559132D01*
X46923164Y-67559132D02*
X46894593Y-67444846D01*
X46894593Y-67444846D02*
X46894593Y-67216275D01*
X46894593Y-67216275D02*
X46923164Y-67159132D01*
X46923164Y-67159132D02*
X46951736Y-67130561D01*
X46951736Y-67130561D02*
X47008878Y-67101989D01*
X47008878Y-67101989D02*
X47123164Y-67101989D01*
X47123164Y-67101989D02*
X47180307Y-67130561D01*
X47180307Y-67130561D02*
X47208878Y-67159132D01*
X47208878Y-67159132D02*
X47237450Y-67216275D01*
X47237450Y-67216275D02*
X47237450Y-67359132D01*
X47237450Y-67359132D02*
X47208878Y-67416275D01*
X47208878Y-67416275D02*
X47180307Y-67444846D01*
X47180307Y-67444846D02*
X47123164Y-67473418D01*
X47123164Y-67473418D02*
X47008878Y-67473418D01*
X47008878Y-67473418D02*
X46951736Y-67444846D01*
X46951736Y-67444846D02*
X46923164Y-67416275D01*
X46923164Y-67416275D02*
X46894593Y-67359132D01*
%TO.C,U4*%
X95595858Y-84551678D02*
X95595858Y-85037392D01*
X95595858Y-85037392D02*
X95567287Y-85094535D01*
X95567287Y-85094535D02*
X95538716Y-85123107D01*
X95538716Y-85123107D02*
X95481573Y-85151678D01*
X95481573Y-85151678D02*
X95367287Y-85151678D01*
X95367287Y-85151678D02*
X95310144Y-85123107D01*
X95310144Y-85123107D02*
X95281573Y-85094535D01*
X95281573Y-85094535D02*
X95253001Y-85037392D01*
X95253001Y-85037392D02*
X95253001Y-84551678D01*
X94710145Y-84751678D02*
X94710145Y-85151678D01*
X94853002Y-84523107D02*
X94995859Y-84951678D01*
X94995859Y-84951678D02*
X94624430Y-84951678D01*
%TO.C,R21*%
X54619691Y-78013783D02*
X54819691Y-77728069D01*
X54962548Y-78013783D02*
X54962548Y-77413783D01*
X54962548Y-77413783D02*
X54733977Y-77413783D01*
X54733977Y-77413783D02*
X54676834Y-77442355D01*
X54676834Y-77442355D02*
X54648263Y-77470926D01*
X54648263Y-77470926D02*
X54619691Y-77528069D01*
X54619691Y-77528069D02*
X54619691Y-77613783D01*
X54619691Y-77613783D02*
X54648263Y-77670926D01*
X54648263Y-77670926D02*
X54676834Y-77699497D01*
X54676834Y-77699497D02*
X54733977Y-77728069D01*
X54733977Y-77728069D02*
X54962548Y-77728069D01*
X54391120Y-77470926D02*
X54362548Y-77442355D01*
X54362548Y-77442355D02*
X54305406Y-77413783D01*
X54305406Y-77413783D02*
X54162548Y-77413783D01*
X54162548Y-77413783D02*
X54105406Y-77442355D01*
X54105406Y-77442355D02*
X54076834Y-77470926D01*
X54076834Y-77470926D02*
X54048263Y-77528069D01*
X54048263Y-77528069D02*
X54048263Y-77585212D01*
X54048263Y-77585212D02*
X54076834Y-77670926D01*
X54076834Y-77670926D02*
X54419691Y-78013783D01*
X54419691Y-78013783D02*
X54048263Y-78013783D01*
X53476834Y-78013783D02*
X53819691Y-78013783D01*
X53648262Y-78013783D02*
X53648262Y-77413783D01*
X53648262Y-77413783D02*
X53705405Y-77499497D01*
X53705405Y-77499497D02*
X53762548Y-77556640D01*
X53762548Y-77556640D02*
X53819691Y-77585212D01*
%TO.C,R8*%
X53657499Y-70580428D02*
X53857499Y-70294714D01*
X54000356Y-70580428D02*
X54000356Y-69980428D01*
X54000356Y-69980428D02*
X53771785Y-69980428D01*
X53771785Y-69980428D02*
X53714642Y-70009000D01*
X53714642Y-70009000D02*
X53686071Y-70037571D01*
X53686071Y-70037571D02*
X53657499Y-70094714D01*
X53657499Y-70094714D02*
X53657499Y-70180428D01*
X53657499Y-70180428D02*
X53686071Y-70237571D01*
X53686071Y-70237571D02*
X53714642Y-70266142D01*
X53714642Y-70266142D02*
X53771785Y-70294714D01*
X53771785Y-70294714D02*
X54000356Y-70294714D01*
X53314642Y-70237571D02*
X53371785Y-70209000D01*
X53371785Y-70209000D02*
X53400356Y-70180428D01*
X53400356Y-70180428D02*
X53428928Y-70123285D01*
X53428928Y-70123285D02*
X53428928Y-70094714D01*
X53428928Y-70094714D02*
X53400356Y-70037571D01*
X53400356Y-70037571D02*
X53371785Y-70009000D01*
X53371785Y-70009000D02*
X53314642Y-69980428D01*
X53314642Y-69980428D02*
X53200356Y-69980428D01*
X53200356Y-69980428D02*
X53143214Y-70009000D01*
X53143214Y-70009000D02*
X53114642Y-70037571D01*
X53114642Y-70037571D02*
X53086071Y-70094714D01*
X53086071Y-70094714D02*
X53086071Y-70123285D01*
X53086071Y-70123285D02*
X53114642Y-70180428D01*
X53114642Y-70180428D02*
X53143214Y-70209000D01*
X53143214Y-70209000D02*
X53200356Y-70237571D01*
X53200356Y-70237571D02*
X53314642Y-70237571D01*
X53314642Y-70237571D02*
X53371785Y-70266142D01*
X53371785Y-70266142D02*
X53400356Y-70294714D01*
X53400356Y-70294714D02*
X53428928Y-70351857D01*
X53428928Y-70351857D02*
X53428928Y-70466142D01*
X53428928Y-70466142D02*
X53400356Y-70523285D01*
X53400356Y-70523285D02*
X53371785Y-70551857D01*
X53371785Y-70551857D02*
X53314642Y-70580428D01*
X53314642Y-70580428D02*
X53200356Y-70580428D01*
X53200356Y-70580428D02*
X53143214Y-70551857D01*
X53143214Y-70551857D02*
X53114642Y-70523285D01*
X53114642Y-70523285D02*
X53086071Y-70466142D01*
X53086071Y-70466142D02*
X53086071Y-70351857D01*
X53086071Y-70351857D02*
X53114642Y-70294714D01*
X53114642Y-70294714D02*
X53143214Y-70266142D01*
X53143214Y-70266142D02*
X53200356Y-70237571D01*
%TO.C,C12*%
X99604464Y-86113364D02*
X99633036Y-86141936D01*
X99633036Y-86141936D02*
X99718750Y-86170507D01*
X99718750Y-86170507D02*
X99775893Y-86170507D01*
X99775893Y-86170507D02*
X99861607Y-86141936D01*
X99861607Y-86141936D02*
X99918750Y-86084793D01*
X99918750Y-86084793D02*
X99947321Y-86027650D01*
X99947321Y-86027650D02*
X99975893Y-85913364D01*
X99975893Y-85913364D02*
X99975893Y-85827650D01*
X99975893Y-85827650D02*
X99947321Y-85713364D01*
X99947321Y-85713364D02*
X99918750Y-85656221D01*
X99918750Y-85656221D02*
X99861607Y-85599079D01*
X99861607Y-85599079D02*
X99775893Y-85570507D01*
X99775893Y-85570507D02*
X99718750Y-85570507D01*
X99718750Y-85570507D02*
X99633036Y-85599079D01*
X99633036Y-85599079D02*
X99604464Y-85627650D01*
X99033036Y-86170507D02*
X99375893Y-86170507D01*
X99204464Y-86170507D02*
X99204464Y-85570507D01*
X99204464Y-85570507D02*
X99261607Y-85656221D01*
X99261607Y-85656221D02*
X99318750Y-85713364D01*
X99318750Y-85713364D02*
X99375893Y-85741936D01*
X98804464Y-85627650D02*
X98775892Y-85599079D01*
X98775892Y-85599079D02*
X98718750Y-85570507D01*
X98718750Y-85570507D02*
X98575892Y-85570507D01*
X98575892Y-85570507D02*
X98518750Y-85599079D01*
X98518750Y-85599079D02*
X98490178Y-85627650D01*
X98490178Y-85627650D02*
X98461607Y-85684793D01*
X98461607Y-85684793D02*
X98461607Y-85741936D01*
X98461607Y-85741936D02*
X98490178Y-85827650D01*
X98490178Y-85827650D02*
X98833035Y-86170507D01*
X98833035Y-86170507D02*
X98461607Y-86170507D01*
%TO.C,U2*%
X39350892Y-53595428D02*
X39350892Y-54081142D01*
X39350892Y-54081142D02*
X39322321Y-54138285D01*
X39322321Y-54138285D02*
X39293750Y-54166857D01*
X39293750Y-54166857D02*
X39236607Y-54195428D01*
X39236607Y-54195428D02*
X39122321Y-54195428D01*
X39122321Y-54195428D02*
X39065178Y-54166857D01*
X39065178Y-54166857D02*
X39036607Y-54138285D01*
X39036607Y-54138285D02*
X39008035Y-54081142D01*
X39008035Y-54081142D02*
X39008035Y-53595428D01*
X38750893Y-53652571D02*
X38722321Y-53624000D01*
X38722321Y-53624000D02*
X38665179Y-53595428D01*
X38665179Y-53595428D02*
X38522321Y-53595428D01*
X38522321Y-53595428D02*
X38465179Y-53624000D01*
X38465179Y-53624000D02*
X38436607Y-53652571D01*
X38436607Y-53652571D02*
X38408036Y-53709714D01*
X38408036Y-53709714D02*
X38408036Y-53766857D01*
X38408036Y-53766857D02*
X38436607Y-53852571D01*
X38436607Y-53852571D02*
X38779464Y-54195428D01*
X38779464Y-54195428D02*
X38408036Y-54195428D01*
%TO.C,R5*%
X98359552Y-99926007D02*
X98559552Y-99640293D01*
X98702409Y-99926007D02*
X98702409Y-99326007D01*
X98702409Y-99326007D02*
X98473838Y-99326007D01*
X98473838Y-99326007D02*
X98416695Y-99354579D01*
X98416695Y-99354579D02*
X98388124Y-99383150D01*
X98388124Y-99383150D02*
X98359552Y-99440293D01*
X98359552Y-99440293D02*
X98359552Y-99526007D01*
X98359552Y-99526007D02*
X98388124Y-99583150D01*
X98388124Y-99583150D02*
X98416695Y-99611721D01*
X98416695Y-99611721D02*
X98473838Y-99640293D01*
X98473838Y-99640293D02*
X98702409Y-99640293D01*
X97816695Y-99326007D02*
X98102409Y-99326007D01*
X98102409Y-99326007D02*
X98130981Y-99611721D01*
X98130981Y-99611721D02*
X98102409Y-99583150D01*
X98102409Y-99583150D02*
X98045267Y-99554579D01*
X98045267Y-99554579D02*
X97902409Y-99554579D01*
X97902409Y-99554579D02*
X97845267Y-99583150D01*
X97845267Y-99583150D02*
X97816695Y-99611721D01*
X97816695Y-99611721D02*
X97788124Y-99668864D01*
X97788124Y-99668864D02*
X97788124Y-99811721D01*
X97788124Y-99811721D02*
X97816695Y-99868864D01*
X97816695Y-99868864D02*
X97845267Y-99897436D01*
X97845267Y-99897436D02*
X97902409Y-99926007D01*
X97902409Y-99926007D02*
X98045267Y-99926007D01*
X98045267Y-99926007D02*
X98102409Y-99897436D01*
X98102409Y-99897436D02*
X98130981Y-99868864D01*
%TO.C,R3*%
X127098898Y-86481300D02*
X127298898Y-86195586D01*
X127441755Y-86481300D02*
X127441755Y-85881300D01*
X127441755Y-85881300D02*
X127213184Y-85881300D01*
X127213184Y-85881300D02*
X127156041Y-85909872D01*
X127156041Y-85909872D02*
X127127470Y-85938443D01*
X127127470Y-85938443D02*
X127098898Y-85995586D01*
X127098898Y-85995586D02*
X127098898Y-86081300D01*
X127098898Y-86081300D02*
X127127470Y-86138443D01*
X127127470Y-86138443D02*
X127156041Y-86167014D01*
X127156041Y-86167014D02*
X127213184Y-86195586D01*
X127213184Y-86195586D02*
X127441755Y-86195586D01*
X126898898Y-85881300D02*
X126527470Y-85881300D01*
X126527470Y-85881300D02*
X126727470Y-86109872D01*
X126727470Y-86109872D02*
X126641755Y-86109872D01*
X126641755Y-86109872D02*
X126584613Y-86138443D01*
X126584613Y-86138443D02*
X126556041Y-86167014D01*
X126556041Y-86167014D02*
X126527470Y-86224157D01*
X126527470Y-86224157D02*
X126527470Y-86367014D01*
X126527470Y-86367014D02*
X126556041Y-86424157D01*
X126556041Y-86424157D02*
X126584613Y-86452729D01*
X126584613Y-86452729D02*
X126641755Y-86481300D01*
X126641755Y-86481300D02*
X126813184Y-86481300D01*
X126813184Y-86481300D02*
X126870327Y-86452729D01*
X126870327Y-86452729D02*
X126898898Y-86424157D01*
%TO.C,C5*%
X104717499Y-86128714D02*
X104746071Y-86157286D01*
X104746071Y-86157286D02*
X104831785Y-86185857D01*
X104831785Y-86185857D02*
X104888928Y-86185857D01*
X104888928Y-86185857D02*
X104974642Y-86157286D01*
X104974642Y-86157286D02*
X105031785Y-86100143D01*
X105031785Y-86100143D02*
X105060356Y-86043000D01*
X105060356Y-86043000D02*
X105088928Y-85928714D01*
X105088928Y-85928714D02*
X105088928Y-85843000D01*
X105088928Y-85843000D02*
X105060356Y-85728714D01*
X105060356Y-85728714D02*
X105031785Y-85671571D01*
X105031785Y-85671571D02*
X104974642Y-85614429D01*
X104974642Y-85614429D02*
X104888928Y-85585857D01*
X104888928Y-85585857D02*
X104831785Y-85585857D01*
X104831785Y-85585857D02*
X104746071Y-85614429D01*
X104746071Y-85614429D02*
X104717499Y-85643000D01*
X104174642Y-85585857D02*
X104460356Y-85585857D01*
X104460356Y-85585857D02*
X104488928Y-85871571D01*
X104488928Y-85871571D02*
X104460356Y-85843000D01*
X104460356Y-85843000D02*
X104403214Y-85814429D01*
X104403214Y-85814429D02*
X104260356Y-85814429D01*
X104260356Y-85814429D02*
X104203214Y-85843000D01*
X104203214Y-85843000D02*
X104174642Y-85871571D01*
X104174642Y-85871571D02*
X104146071Y-85928714D01*
X104146071Y-85928714D02*
X104146071Y-86071571D01*
X104146071Y-86071571D02*
X104174642Y-86128714D01*
X104174642Y-86128714D02*
X104203214Y-86157286D01*
X104203214Y-86157286D02*
X104260356Y-86185857D01*
X104260356Y-86185857D02*
X104403214Y-86185857D01*
X104403214Y-86185857D02*
X104460356Y-86157286D01*
X104460356Y-86157286D02*
X104488928Y-86128714D01*
%TO.C,C14*%
X201998214Y-84300785D02*
X202026786Y-84329357D01*
X202026786Y-84329357D02*
X202112500Y-84357928D01*
X202112500Y-84357928D02*
X202169643Y-84357928D01*
X202169643Y-84357928D02*
X202255357Y-84329357D01*
X202255357Y-84329357D02*
X202312500Y-84272214D01*
X202312500Y-84272214D02*
X202341071Y-84215071D01*
X202341071Y-84215071D02*
X202369643Y-84100785D01*
X202369643Y-84100785D02*
X202369643Y-84015071D01*
X202369643Y-84015071D02*
X202341071Y-83900785D01*
X202341071Y-83900785D02*
X202312500Y-83843642D01*
X202312500Y-83843642D02*
X202255357Y-83786500D01*
X202255357Y-83786500D02*
X202169643Y-83757928D01*
X202169643Y-83757928D02*
X202112500Y-83757928D01*
X202112500Y-83757928D02*
X202026786Y-83786500D01*
X202026786Y-83786500D02*
X201998214Y-83815071D01*
X201426786Y-84357928D02*
X201769643Y-84357928D01*
X201598214Y-84357928D02*
X201598214Y-83757928D01*
X201598214Y-83757928D02*
X201655357Y-83843642D01*
X201655357Y-83843642D02*
X201712500Y-83900785D01*
X201712500Y-83900785D02*
X201769643Y-83929357D01*
X200912500Y-83957928D02*
X200912500Y-84357928D01*
X201055357Y-83729357D02*
X201198214Y-84157928D01*
X201198214Y-84157928D02*
X200826785Y-84157928D01*
%TO.C,C1*%
X93595952Y-91894581D02*
X93624524Y-91923153D01*
X93624524Y-91923153D02*
X93710238Y-91951724D01*
X93710238Y-91951724D02*
X93767381Y-91951724D01*
X93767381Y-91951724D02*
X93853095Y-91923153D01*
X93853095Y-91923153D02*
X93910238Y-91866010D01*
X93910238Y-91866010D02*
X93938809Y-91808867D01*
X93938809Y-91808867D02*
X93967381Y-91694581D01*
X93967381Y-91694581D02*
X93967381Y-91608867D01*
X93967381Y-91608867D02*
X93938809Y-91494581D01*
X93938809Y-91494581D02*
X93910238Y-91437438D01*
X93910238Y-91437438D02*
X93853095Y-91380296D01*
X93853095Y-91380296D02*
X93767381Y-91351724D01*
X93767381Y-91351724D02*
X93710238Y-91351724D01*
X93710238Y-91351724D02*
X93624524Y-91380296D01*
X93624524Y-91380296D02*
X93595952Y-91408867D01*
X93024524Y-91951724D02*
X93367381Y-91951724D01*
X93195952Y-91951724D02*
X93195952Y-91351724D01*
X93195952Y-91351724D02*
X93253095Y-91437438D01*
X93253095Y-91437438D02*
X93310238Y-91494581D01*
X93310238Y-91494581D02*
X93367381Y-91523153D01*
%TO.C,C3*%
X96438910Y-99918254D02*
X96467482Y-99946826D01*
X96467482Y-99946826D02*
X96553196Y-99975397D01*
X96553196Y-99975397D02*
X96610339Y-99975397D01*
X96610339Y-99975397D02*
X96696053Y-99946826D01*
X96696053Y-99946826D02*
X96753196Y-99889683D01*
X96753196Y-99889683D02*
X96781767Y-99832540D01*
X96781767Y-99832540D02*
X96810339Y-99718254D01*
X96810339Y-99718254D02*
X96810339Y-99632540D01*
X96810339Y-99632540D02*
X96781767Y-99518254D01*
X96781767Y-99518254D02*
X96753196Y-99461111D01*
X96753196Y-99461111D02*
X96696053Y-99403969D01*
X96696053Y-99403969D02*
X96610339Y-99375397D01*
X96610339Y-99375397D02*
X96553196Y-99375397D01*
X96553196Y-99375397D02*
X96467482Y-99403969D01*
X96467482Y-99403969D02*
X96438910Y-99432540D01*
X96238910Y-99375397D02*
X95867482Y-99375397D01*
X95867482Y-99375397D02*
X96067482Y-99603969D01*
X96067482Y-99603969D02*
X95981767Y-99603969D01*
X95981767Y-99603969D02*
X95924625Y-99632540D01*
X95924625Y-99632540D02*
X95896053Y-99661111D01*
X95896053Y-99661111D02*
X95867482Y-99718254D01*
X95867482Y-99718254D02*
X95867482Y-99861111D01*
X95867482Y-99861111D02*
X95896053Y-99918254D01*
X95896053Y-99918254D02*
X95924625Y-99946826D01*
X95924625Y-99946826D02*
X95981767Y-99975397D01*
X95981767Y-99975397D02*
X96153196Y-99975397D01*
X96153196Y-99975397D02*
X96210339Y-99946826D01*
X96210339Y-99946826D02*
X96238910Y-99918254D01*
%TO.C,R11*%
X92635317Y-87490290D02*
X92835317Y-87204576D01*
X92978174Y-87490290D02*
X92978174Y-86890290D01*
X92978174Y-86890290D02*
X92749603Y-86890290D01*
X92749603Y-86890290D02*
X92692460Y-86918862D01*
X92692460Y-86918862D02*
X92663889Y-86947433D01*
X92663889Y-86947433D02*
X92635317Y-87004576D01*
X92635317Y-87004576D02*
X92635317Y-87090290D01*
X92635317Y-87090290D02*
X92663889Y-87147433D01*
X92663889Y-87147433D02*
X92692460Y-87176004D01*
X92692460Y-87176004D02*
X92749603Y-87204576D01*
X92749603Y-87204576D02*
X92978174Y-87204576D01*
X92063889Y-87490290D02*
X92406746Y-87490290D01*
X92235317Y-87490290D02*
X92235317Y-86890290D01*
X92235317Y-86890290D02*
X92292460Y-86976004D01*
X92292460Y-86976004D02*
X92349603Y-87033147D01*
X92349603Y-87033147D02*
X92406746Y-87061719D01*
X91492460Y-87490290D02*
X91835317Y-87490290D01*
X91663888Y-87490290D02*
X91663888Y-86890290D01*
X91663888Y-86890290D02*
X91721031Y-86976004D01*
X91721031Y-86976004D02*
X91778174Y-87033147D01*
X91778174Y-87033147D02*
X91835317Y-87061719D01*
%TO.C,R1*%
X127099999Y-87532928D02*
X127299999Y-87247214D01*
X127442856Y-87532928D02*
X127442856Y-86932928D01*
X127442856Y-86932928D02*
X127214285Y-86932928D01*
X127214285Y-86932928D02*
X127157142Y-86961500D01*
X127157142Y-86961500D02*
X127128571Y-86990071D01*
X127128571Y-86990071D02*
X127099999Y-87047214D01*
X127099999Y-87047214D02*
X127099999Y-87132928D01*
X127099999Y-87132928D02*
X127128571Y-87190071D01*
X127128571Y-87190071D02*
X127157142Y-87218642D01*
X127157142Y-87218642D02*
X127214285Y-87247214D01*
X127214285Y-87247214D02*
X127442856Y-87247214D01*
X126528571Y-87532928D02*
X126871428Y-87532928D01*
X126699999Y-87532928D02*
X126699999Y-86932928D01*
X126699999Y-86932928D02*
X126757142Y-87018642D01*
X126757142Y-87018642D02*
X126814285Y-87075785D01*
X126814285Y-87075785D02*
X126871428Y-87104357D01*
%TO.C,R6*%
X44266249Y-72451678D02*
X44466249Y-72165964D01*
X44609106Y-72451678D02*
X44609106Y-71851678D01*
X44609106Y-71851678D02*
X44380535Y-71851678D01*
X44380535Y-71851678D02*
X44323392Y-71880250D01*
X44323392Y-71880250D02*
X44294821Y-71908821D01*
X44294821Y-71908821D02*
X44266249Y-71965964D01*
X44266249Y-71965964D02*
X44266249Y-72051678D01*
X44266249Y-72051678D02*
X44294821Y-72108821D01*
X44294821Y-72108821D02*
X44323392Y-72137392D01*
X44323392Y-72137392D02*
X44380535Y-72165964D01*
X44380535Y-72165964D02*
X44609106Y-72165964D01*
X43751964Y-71851678D02*
X43866249Y-71851678D01*
X43866249Y-71851678D02*
X43923392Y-71880250D01*
X43923392Y-71880250D02*
X43951964Y-71908821D01*
X43951964Y-71908821D02*
X44009106Y-71994535D01*
X44009106Y-71994535D02*
X44037678Y-72108821D01*
X44037678Y-72108821D02*
X44037678Y-72337392D01*
X44037678Y-72337392D02*
X44009106Y-72394535D01*
X44009106Y-72394535D02*
X43980535Y-72423107D01*
X43980535Y-72423107D02*
X43923392Y-72451678D01*
X43923392Y-72451678D02*
X43809106Y-72451678D01*
X43809106Y-72451678D02*
X43751964Y-72423107D01*
X43751964Y-72423107D02*
X43723392Y-72394535D01*
X43723392Y-72394535D02*
X43694821Y-72337392D01*
X43694821Y-72337392D02*
X43694821Y-72194535D01*
X43694821Y-72194535D02*
X43723392Y-72137392D01*
X43723392Y-72137392D02*
X43751964Y-72108821D01*
X43751964Y-72108821D02*
X43809106Y-72080250D01*
X43809106Y-72080250D02*
X43923392Y-72080250D01*
X43923392Y-72080250D02*
X43980535Y-72108821D01*
X43980535Y-72108821D02*
X44009106Y-72137392D01*
X44009106Y-72137392D02*
X44037678Y-72194535D01*
%TO.C,R19*%
X202791964Y-87532928D02*
X202991964Y-87247214D01*
X203134821Y-87532928D02*
X203134821Y-86932928D01*
X203134821Y-86932928D02*
X202906250Y-86932928D01*
X202906250Y-86932928D02*
X202849107Y-86961500D01*
X202849107Y-86961500D02*
X202820536Y-86990071D01*
X202820536Y-86990071D02*
X202791964Y-87047214D01*
X202791964Y-87047214D02*
X202791964Y-87132928D01*
X202791964Y-87132928D02*
X202820536Y-87190071D01*
X202820536Y-87190071D02*
X202849107Y-87218642D01*
X202849107Y-87218642D02*
X202906250Y-87247214D01*
X202906250Y-87247214D02*
X203134821Y-87247214D01*
X202220536Y-87532928D02*
X202563393Y-87532928D01*
X202391964Y-87532928D02*
X202391964Y-86932928D01*
X202391964Y-86932928D02*
X202449107Y-87018642D01*
X202449107Y-87018642D02*
X202506250Y-87075785D01*
X202506250Y-87075785D02*
X202563393Y-87104357D01*
X201934821Y-87532928D02*
X201820535Y-87532928D01*
X201820535Y-87532928D02*
X201763392Y-87504357D01*
X201763392Y-87504357D02*
X201734821Y-87475785D01*
X201734821Y-87475785D02*
X201677678Y-87390071D01*
X201677678Y-87390071D02*
X201649107Y-87275785D01*
X201649107Y-87275785D02*
X201649107Y-87047214D01*
X201649107Y-87047214D02*
X201677678Y-86990071D01*
X201677678Y-86990071D02*
X201706250Y-86961500D01*
X201706250Y-86961500D02*
X201763392Y-86932928D01*
X201763392Y-86932928D02*
X201877678Y-86932928D01*
X201877678Y-86932928D02*
X201934821Y-86961500D01*
X201934821Y-86961500D02*
X201963392Y-86990071D01*
X201963392Y-86990071D02*
X201991964Y-87047214D01*
X201991964Y-87047214D02*
X201991964Y-87190071D01*
X201991964Y-87190071D02*
X201963392Y-87247214D01*
X201963392Y-87247214D02*
X201934821Y-87275785D01*
X201934821Y-87275785D02*
X201877678Y-87304357D01*
X201877678Y-87304357D02*
X201763392Y-87304357D01*
X201763392Y-87304357D02*
X201706250Y-87275785D01*
X201706250Y-87275785D02*
X201677678Y-87247214D01*
X201677678Y-87247214D02*
X201649107Y-87190071D01*
%TO.C,C13*%
X91520734Y-84627473D02*
X91549306Y-84656045D01*
X91549306Y-84656045D02*
X91635020Y-84684616D01*
X91635020Y-84684616D02*
X91692163Y-84684616D01*
X91692163Y-84684616D02*
X91777877Y-84656045D01*
X91777877Y-84656045D02*
X91835020Y-84598902D01*
X91835020Y-84598902D02*
X91863591Y-84541759D01*
X91863591Y-84541759D02*
X91892163Y-84427473D01*
X91892163Y-84427473D02*
X91892163Y-84341759D01*
X91892163Y-84341759D02*
X91863591Y-84227473D01*
X91863591Y-84227473D02*
X91835020Y-84170330D01*
X91835020Y-84170330D02*
X91777877Y-84113188D01*
X91777877Y-84113188D02*
X91692163Y-84084616D01*
X91692163Y-84084616D02*
X91635020Y-84084616D01*
X91635020Y-84084616D02*
X91549306Y-84113188D01*
X91549306Y-84113188D02*
X91520734Y-84141759D01*
X90949306Y-84684616D02*
X91292163Y-84684616D01*
X91120734Y-84684616D02*
X91120734Y-84084616D01*
X91120734Y-84084616D02*
X91177877Y-84170330D01*
X91177877Y-84170330D02*
X91235020Y-84227473D01*
X91235020Y-84227473D02*
X91292163Y-84256045D01*
X90749305Y-84084616D02*
X90377877Y-84084616D01*
X90377877Y-84084616D02*
X90577877Y-84313188D01*
X90577877Y-84313188D02*
X90492162Y-84313188D01*
X90492162Y-84313188D02*
X90435020Y-84341759D01*
X90435020Y-84341759D02*
X90406448Y-84370330D01*
X90406448Y-84370330D02*
X90377877Y-84427473D01*
X90377877Y-84427473D02*
X90377877Y-84570330D01*
X90377877Y-84570330D02*
X90406448Y-84627473D01*
X90406448Y-84627473D02*
X90435020Y-84656045D01*
X90435020Y-84656045D02*
X90492162Y-84684616D01*
X90492162Y-84684616D02*
X90663591Y-84684616D01*
X90663591Y-84684616D02*
X90720734Y-84656045D01*
X90720734Y-84656045D02*
X90749305Y-84627473D01*
%TO.C,R2*%
X127060464Y-85443585D02*
X127260464Y-85157871D01*
X127403321Y-85443585D02*
X127403321Y-84843585D01*
X127403321Y-84843585D02*
X127174750Y-84843585D01*
X127174750Y-84843585D02*
X127117607Y-84872157D01*
X127117607Y-84872157D02*
X127089036Y-84900728D01*
X127089036Y-84900728D02*
X127060464Y-84957871D01*
X127060464Y-84957871D02*
X127060464Y-85043585D01*
X127060464Y-85043585D02*
X127089036Y-85100728D01*
X127089036Y-85100728D02*
X127117607Y-85129299D01*
X127117607Y-85129299D02*
X127174750Y-85157871D01*
X127174750Y-85157871D02*
X127403321Y-85157871D01*
X126831893Y-84900728D02*
X126803321Y-84872157D01*
X126803321Y-84872157D02*
X126746179Y-84843585D01*
X126746179Y-84843585D02*
X126603321Y-84843585D01*
X126603321Y-84843585D02*
X126546179Y-84872157D01*
X126546179Y-84872157D02*
X126517607Y-84900728D01*
X126517607Y-84900728D02*
X126489036Y-84957871D01*
X126489036Y-84957871D02*
X126489036Y-85015014D01*
X126489036Y-85015014D02*
X126517607Y-85100728D01*
X126517607Y-85100728D02*
X126860464Y-85443585D01*
X126860464Y-85443585D02*
X126489036Y-85443585D01*
%TO.C,C2*%
X105945292Y-97475353D02*
X105973864Y-97503925D01*
X105973864Y-97503925D02*
X106059578Y-97532496D01*
X106059578Y-97532496D02*
X106116721Y-97532496D01*
X106116721Y-97532496D02*
X106202435Y-97503925D01*
X106202435Y-97503925D02*
X106259578Y-97446782D01*
X106259578Y-97446782D02*
X106288149Y-97389639D01*
X106288149Y-97389639D02*
X106316721Y-97275353D01*
X106316721Y-97275353D02*
X106316721Y-97189639D01*
X106316721Y-97189639D02*
X106288149Y-97075353D01*
X106288149Y-97075353D02*
X106259578Y-97018210D01*
X106259578Y-97018210D02*
X106202435Y-96961068D01*
X106202435Y-96961068D02*
X106116721Y-96932496D01*
X106116721Y-96932496D02*
X106059578Y-96932496D01*
X106059578Y-96932496D02*
X105973864Y-96961068D01*
X105973864Y-96961068D02*
X105945292Y-96989639D01*
X105716721Y-96989639D02*
X105688149Y-96961068D01*
X105688149Y-96961068D02*
X105631007Y-96932496D01*
X105631007Y-96932496D02*
X105488149Y-96932496D01*
X105488149Y-96932496D02*
X105431007Y-96961068D01*
X105431007Y-96961068D02*
X105402435Y-96989639D01*
X105402435Y-96989639D02*
X105373864Y-97046782D01*
X105373864Y-97046782D02*
X105373864Y-97103925D01*
X105373864Y-97103925D02*
X105402435Y-97189639D01*
X105402435Y-97189639D02*
X105745292Y-97532496D01*
X105745292Y-97532496D02*
X105373864Y-97532496D01*
%TO.C,SW1*%
X158326250Y-88298107D02*
X158240536Y-88326678D01*
X158240536Y-88326678D02*
X158097678Y-88326678D01*
X158097678Y-88326678D02*
X158040536Y-88298107D01*
X158040536Y-88298107D02*
X158011964Y-88269535D01*
X158011964Y-88269535D02*
X157983393Y-88212392D01*
X157983393Y-88212392D02*
X157983393Y-88155250D01*
X157983393Y-88155250D02*
X158011964Y-88098107D01*
X158011964Y-88098107D02*
X158040536Y-88069535D01*
X158040536Y-88069535D02*
X158097678Y-88040964D01*
X158097678Y-88040964D02*
X158211964Y-88012392D01*
X158211964Y-88012392D02*
X158269107Y-87983821D01*
X158269107Y-87983821D02*
X158297678Y-87955250D01*
X158297678Y-87955250D02*
X158326250Y-87898107D01*
X158326250Y-87898107D02*
X158326250Y-87840964D01*
X158326250Y-87840964D02*
X158297678Y-87783821D01*
X158297678Y-87783821D02*
X158269107Y-87755250D01*
X158269107Y-87755250D02*
X158211964Y-87726678D01*
X158211964Y-87726678D02*
X158069107Y-87726678D01*
X158069107Y-87726678D02*
X157983393Y-87755250D01*
X157783392Y-87726678D02*
X157640535Y-88326678D01*
X157640535Y-88326678D02*
X157526249Y-87898107D01*
X157526249Y-87898107D02*
X157411964Y-88326678D01*
X157411964Y-88326678D02*
X157269107Y-87726678D01*
X156726250Y-88326678D02*
X157069107Y-88326678D01*
X156897678Y-88326678D02*
X156897678Y-87726678D01*
X156897678Y-87726678D02*
X156954821Y-87812392D01*
X156954821Y-87812392D02*
X157011964Y-87869535D01*
X157011964Y-87869535D02*
X157069107Y-87898107D01*
%TO.C,C10*%
X39279464Y-58107035D02*
X39308036Y-58135607D01*
X39308036Y-58135607D02*
X39393750Y-58164178D01*
X39393750Y-58164178D02*
X39450893Y-58164178D01*
X39450893Y-58164178D02*
X39536607Y-58135607D01*
X39536607Y-58135607D02*
X39593750Y-58078464D01*
X39593750Y-58078464D02*
X39622321Y-58021321D01*
X39622321Y-58021321D02*
X39650893Y-57907035D01*
X39650893Y-57907035D02*
X39650893Y-57821321D01*
X39650893Y-57821321D02*
X39622321Y-57707035D01*
X39622321Y-57707035D02*
X39593750Y-57649892D01*
X39593750Y-57649892D02*
X39536607Y-57592750D01*
X39536607Y-57592750D02*
X39450893Y-57564178D01*
X39450893Y-57564178D02*
X39393750Y-57564178D01*
X39393750Y-57564178D02*
X39308036Y-57592750D01*
X39308036Y-57592750D02*
X39279464Y-57621321D01*
X38708036Y-58164178D02*
X39050893Y-58164178D01*
X38879464Y-58164178D02*
X38879464Y-57564178D01*
X38879464Y-57564178D02*
X38936607Y-57649892D01*
X38936607Y-57649892D02*
X38993750Y-57707035D01*
X38993750Y-57707035D02*
X39050893Y-57735607D01*
X38336607Y-57564178D02*
X38279464Y-57564178D01*
X38279464Y-57564178D02*
X38222321Y-57592750D01*
X38222321Y-57592750D02*
X38193750Y-57621321D01*
X38193750Y-57621321D02*
X38165178Y-57678464D01*
X38165178Y-57678464D02*
X38136607Y-57792750D01*
X38136607Y-57792750D02*
X38136607Y-57935607D01*
X38136607Y-57935607D02*
X38165178Y-58049892D01*
X38165178Y-58049892D02*
X38193750Y-58107035D01*
X38193750Y-58107035D02*
X38222321Y-58135607D01*
X38222321Y-58135607D02*
X38279464Y-58164178D01*
X38279464Y-58164178D02*
X38336607Y-58164178D01*
X38336607Y-58164178D02*
X38393750Y-58135607D01*
X38393750Y-58135607D02*
X38422321Y-58107035D01*
X38422321Y-58107035D02*
X38450892Y-58049892D01*
X38450892Y-58049892D02*
X38479464Y-57935607D01*
X38479464Y-57935607D02*
X38479464Y-57792750D01*
X38479464Y-57792750D02*
X38450892Y-57678464D01*
X38450892Y-57678464D02*
X38422321Y-57621321D01*
X38422321Y-57621321D02*
X38393750Y-57592750D01*
X38393750Y-57592750D02*
X38336607Y-57564178D01*
%TO.C,R17*%
X191039449Y-88851390D02*
X191239449Y-88565676D01*
X191382306Y-88851390D02*
X191382306Y-88251390D01*
X191382306Y-88251390D02*
X191153735Y-88251390D01*
X191153735Y-88251390D02*
X191096592Y-88279962D01*
X191096592Y-88279962D02*
X191068021Y-88308533D01*
X191068021Y-88308533D02*
X191039449Y-88365676D01*
X191039449Y-88365676D02*
X191039449Y-88451390D01*
X191039449Y-88451390D02*
X191068021Y-88508533D01*
X191068021Y-88508533D02*
X191096592Y-88537104D01*
X191096592Y-88537104D02*
X191153735Y-88565676D01*
X191153735Y-88565676D02*
X191382306Y-88565676D01*
X190468021Y-88851390D02*
X190810878Y-88851390D01*
X190639449Y-88851390D02*
X190639449Y-88251390D01*
X190639449Y-88251390D02*
X190696592Y-88337104D01*
X190696592Y-88337104D02*
X190753735Y-88394247D01*
X190753735Y-88394247D02*
X190810878Y-88422819D01*
X190268020Y-88251390D02*
X189868020Y-88251390D01*
X189868020Y-88251390D02*
X190125163Y-88851390D01*
%TO.C,J1*%
X41475000Y-46451678D02*
X41475000Y-46880250D01*
X41475000Y-46880250D02*
X41503571Y-46965964D01*
X41503571Y-46965964D02*
X41560714Y-47023107D01*
X41560714Y-47023107D02*
X41646428Y-47051678D01*
X41646428Y-47051678D02*
X41703571Y-47051678D01*
X40875000Y-47051678D02*
X41217857Y-47051678D01*
X41046428Y-47051678D02*
X41046428Y-46451678D01*
X41046428Y-46451678D02*
X41103571Y-46537392D01*
X41103571Y-46537392D02*
X41160714Y-46594535D01*
X41160714Y-46594535D02*
X41217857Y-46623107D01*
%TO.C,C9*%
X37406249Y-51757035D02*
X37434821Y-51785607D01*
X37434821Y-51785607D02*
X37520535Y-51814178D01*
X37520535Y-51814178D02*
X37577678Y-51814178D01*
X37577678Y-51814178D02*
X37663392Y-51785607D01*
X37663392Y-51785607D02*
X37720535Y-51728464D01*
X37720535Y-51728464D02*
X37749106Y-51671321D01*
X37749106Y-51671321D02*
X37777678Y-51557035D01*
X37777678Y-51557035D02*
X37777678Y-51471321D01*
X37777678Y-51471321D02*
X37749106Y-51357035D01*
X37749106Y-51357035D02*
X37720535Y-51299892D01*
X37720535Y-51299892D02*
X37663392Y-51242750D01*
X37663392Y-51242750D02*
X37577678Y-51214178D01*
X37577678Y-51214178D02*
X37520535Y-51214178D01*
X37520535Y-51214178D02*
X37434821Y-51242750D01*
X37434821Y-51242750D02*
X37406249Y-51271321D01*
X37120535Y-51814178D02*
X37006249Y-51814178D01*
X37006249Y-51814178D02*
X36949106Y-51785607D01*
X36949106Y-51785607D02*
X36920535Y-51757035D01*
X36920535Y-51757035D02*
X36863392Y-51671321D01*
X36863392Y-51671321D02*
X36834821Y-51557035D01*
X36834821Y-51557035D02*
X36834821Y-51328464D01*
X36834821Y-51328464D02*
X36863392Y-51271321D01*
X36863392Y-51271321D02*
X36891964Y-51242750D01*
X36891964Y-51242750D02*
X36949106Y-51214178D01*
X36949106Y-51214178D02*
X37063392Y-51214178D01*
X37063392Y-51214178D02*
X37120535Y-51242750D01*
X37120535Y-51242750D02*
X37149106Y-51271321D01*
X37149106Y-51271321D02*
X37177678Y-51328464D01*
X37177678Y-51328464D02*
X37177678Y-51471321D01*
X37177678Y-51471321D02*
X37149106Y-51528464D01*
X37149106Y-51528464D02*
X37120535Y-51557035D01*
X37120535Y-51557035D02*
X37063392Y-51585607D01*
X37063392Y-51585607D02*
X36949106Y-51585607D01*
X36949106Y-51585607D02*
X36891964Y-51557035D01*
X36891964Y-51557035D02*
X36863392Y-51528464D01*
X36863392Y-51528464D02*
X36834821Y-51471321D01*
%TO.C,R13*%
X92587726Y-88519397D02*
X92787726Y-88233683D01*
X92930583Y-88519397D02*
X92930583Y-87919397D01*
X92930583Y-87919397D02*
X92702012Y-87919397D01*
X92702012Y-87919397D02*
X92644869Y-87947969D01*
X92644869Y-87947969D02*
X92616298Y-87976540D01*
X92616298Y-87976540D02*
X92587726Y-88033683D01*
X92587726Y-88033683D02*
X92587726Y-88119397D01*
X92587726Y-88119397D02*
X92616298Y-88176540D01*
X92616298Y-88176540D02*
X92644869Y-88205111D01*
X92644869Y-88205111D02*
X92702012Y-88233683D01*
X92702012Y-88233683D02*
X92930583Y-88233683D01*
X92016298Y-88519397D02*
X92359155Y-88519397D01*
X92187726Y-88519397D02*
X92187726Y-87919397D01*
X92187726Y-87919397D02*
X92244869Y-88005111D01*
X92244869Y-88005111D02*
X92302012Y-88062254D01*
X92302012Y-88062254D02*
X92359155Y-88090826D01*
X91816297Y-87919397D02*
X91444869Y-87919397D01*
X91444869Y-87919397D02*
X91644869Y-88147969D01*
X91644869Y-88147969D02*
X91559154Y-88147969D01*
X91559154Y-88147969D02*
X91502012Y-88176540D01*
X91502012Y-88176540D02*
X91473440Y-88205111D01*
X91473440Y-88205111D02*
X91444869Y-88262254D01*
X91444869Y-88262254D02*
X91444869Y-88405111D01*
X91444869Y-88405111D02*
X91473440Y-88462254D01*
X91473440Y-88462254D02*
X91502012Y-88490826D01*
X91502012Y-88490826D02*
X91559154Y-88519397D01*
X91559154Y-88519397D02*
X91730583Y-88519397D01*
X91730583Y-88519397D02*
X91787726Y-88490826D01*
X91787726Y-88490826D02*
X91816297Y-88462254D01*
%TO.C,R20*%
X200694464Y-95052928D02*
X200894464Y-94767214D01*
X201037321Y-95052928D02*
X201037321Y-94452928D01*
X201037321Y-94452928D02*
X200808750Y-94452928D01*
X200808750Y-94452928D02*
X200751607Y-94481500D01*
X200751607Y-94481500D02*
X200723036Y-94510071D01*
X200723036Y-94510071D02*
X200694464Y-94567214D01*
X200694464Y-94567214D02*
X200694464Y-94652928D01*
X200694464Y-94652928D02*
X200723036Y-94710071D01*
X200723036Y-94710071D02*
X200751607Y-94738642D01*
X200751607Y-94738642D02*
X200808750Y-94767214D01*
X200808750Y-94767214D02*
X201037321Y-94767214D01*
X200465893Y-94510071D02*
X200437321Y-94481500D01*
X200437321Y-94481500D02*
X200380179Y-94452928D01*
X200380179Y-94452928D02*
X200237321Y-94452928D01*
X200237321Y-94452928D02*
X200180179Y-94481500D01*
X200180179Y-94481500D02*
X200151607Y-94510071D01*
X200151607Y-94510071D02*
X200123036Y-94567214D01*
X200123036Y-94567214D02*
X200123036Y-94624357D01*
X200123036Y-94624357D02*
X200151607Y-94710071D01*
X200151607Y-94710071D02*
X200494464Y-95052928D01*
X200494464Y-95052928D02*
X200123036Y-95052928D01*
X199751607Y-94452928D02*
X199694464Y-94452928D01*
X199694464Y-94452928D02*
X199637321Y-94481500D01*
X199637321Y-94481500D02*
X199608750Y-94510071D01*
X199608750Y-94510071D02*
X199580178Y-94567214D01*
X199580178Y-94567214D02*
X199551607Y-94681500D01*
X199551607Y-94681500D02*
X199551607Y-94824357D01*
X199551607Y-94824357D02*
X199580178Y-94938642D01*
X199580178Y-94938642D02*
X199608750Y-94995785D01*
X199608750Y-94995785D02*
X199637321Y-95024357D01*
X199637321Y-95024357D02*
X199694464Y-95052928D01*
X199694464Y-95052928D02*
X199751607Y-95052928D01*
X199751607Y-95052928D02*
X199808750Y-95024357D01*
X199808750Y-95024357D02*
X199837321Y-94995785D01*
X199837321Y-94995785D02*
X199865892Y-94938642D01*
X199865892Y-94938642D02*
X199894464Y-94824357D01*
X199894464Y-94824357D02*
X199894464Y-94681500D01*
X199894464Y-94681500D02*
X199865892Y-94567214D01*
X199865892Y-94567214D02*
X199837321Y-94510071D01*
X199837321Y-94510071D02*
X199808750Y-94481500D01*
X199808750Y-94481500D02*
X199751607Y-94452928D01*
%TO.C,R16*%
X199488851Y-81463675D02*
X199688851Y-81177961D01*
X199831708Y-81463675D02*
X199831708Y-80863675D01*
X199831708Y-80863675D02*
X199603137Y-80863675D01*
X199603137Y-80863675D02*
X199545994Y-80892247D01*
X199545994Y-80892247D02*
X199517423Y-80920818D01*
X199517423Y-80920818D02*
X199488851Y-80977961D01*
X199488851Y-80977961D02*
X199488851Y-81063675D01*
X199488851Y-81063675D02*
X199517423Y-81120818D01*
X199517423Y-81120818D02*
X199545994Y-81149389D01*
X199545994Y-81149389D02*
X199603137Y-81177961D01*
X199603137Y-81177961D02*
X199831708Y-81177961D01*
X198917423Y-81463675D02*
X199260280Y-81463675D01*
X199088851Y-81463675D02*
X199088851Y-80863675D01*
X199088851Y-80863675D02*
X199145994Y-80949389D01*
X199145994Y-80949389D02*
X199203137Y-81006532D01*
X199203137Y-81006532D02*
X199260280Y-81035104D01*
X198403137Y-80863675D02*
X198517422Y-80863675D01*
X198517422Y-80863675D02*
X198574565Y-80892247D01*
X198574565Y-80892247D02*
X198603137Y-80920818D01*
X198603137Y-80920818D02*
X198660279Y-81006532D01*
X198660279Y-81006532D02*
X198688851Y-81120818D01*
X198688851Y-81120818D02*
X198688851Y-81349389D01*
X198688851Y-81349389D02*
X198660279Y-81406532D01*
X198660279Y-81406532D02*
X198631708Y-81435104D01*
X198631708Y-81435104D02*
X198574565Y-81463675D01*
X198574565Y-81463675D02*
X198460279Y-81463675D01*
X198460279Y-81463675D02*
X198403137Y-81435104D01*
X198403137Y-81435104D02*
X198374565Y-81406532D01*
X198374565Y-81406532D02*
X198345994Y-81349389D01*
X198345994Y-81349389D02*
X198345994Y-81206532D01*
X198345994Y-81206532D02*
X198374565Y-81149389D01*
X198374565Y-81149389D02*
X198403137Y-81120818D01*
X198403137Y-81120818D02*
X198460279Y-81092247D01*
X198460279Y-81092247D02*
X198574565Y-81092247D01*
X198574565Y-81092247D02*
X198631708Y-81120818D01*
X198631708Y-81120818D02*
X198660279Y-81149389D01*
X198660279Y-81149389D02*
X198688851Y-81206532D01*
%TO.C,R15*%
X200410714Y-87532928D02*
X200610714Y-87247214D01*
X200753571Y-87532928D02*
X200753571Y-86932928D01*
X200753571Y-86932928D02*
X200525000Y-86932928D01*
X200525000Y-86932928D02*
X200467857Y-86961500D01*
X200467857Y-86961500D02*
X200439286Y-86990071D01*
X200439286Y-86990071D02*
X200410714Y-87047214D01*
X200410714Y-87047214D02*
X200410714Y-87132928D01*
X200410714Y-87132928D02*
X200439286Y-87190071D01*
X200439286Y-87190071D02*
X200467857Y-87218642D01*
X200467857Y-87218642D02*
X200525000Y-87247214D01*
X200525000Y-87247214D02*
X200753571Y-87247214D01*
X199839286Y-87532928D02*
X200182143Y-87532928D01*
X200010714Y-87532928D02*
X200010714Y-86932928D01*
X200010714Y-86932928D02*
X200067857Y-87018642D01*
X200067857Y-87018642D02*
X200125000Y-87075785D01*
X200125000Y-87075785D02*
X200182143Y-87104357D01*
X199296428Y-86932928D02*
X199582142Y-86932928D01*
X199582142Y-86932928D02*
X199610714Y-87218642D01*
X199610714Y-87218642D02*
X199582142Y-87190071D01*
X199582142Y-87190071D02*
X199525000Y-87161500D01*
X199525000Y-87161500D02*
X199382142Y-87161500D01*
X199382142Y-87161500D02*
X199325000Y-87190071D01*
X199325000Y-87190071D02*
X199296428Y-87218642D01*
X199296428Y-87218642D02*
X199267857Y-87275785D01*
X199267857Y-87275785D02*
X199267857Y-87418642D01*
X199267857Y-87418642D02*
X199296428Y-87475785D01*
X199296428Y-87475785D02*
X199325000Y-87504357D01*
X199325000Y-87504357D02*
X199382142Y-87532928D01*
X199382142Y-87532928D02*
X199525000Y-87532928D01*
X199525000Y-87532928D02*
X199582142Y-87504357D01*
X199582142Y-87504357D02*
X199610714Y-87475785D01*
%TO.C,C8*%
X92892431Y-93992331D02*
X92921003Y-94020903D01*
X92921003Y-94020903D02*
X93006717Y-94049474D01*
X93006717Y-94049474D02*
X93063860Y-94049474D01*
X93063860Y-94049474D02*
X93149574Y-94020903D01*
X93149574Y-94020903D02*
X93206717Y-93963760D01*
X93206717Y-93963760D02*
X93235288Y-93906617D01*
X93235288Y-93906617D02*
X93263860Y-93792331D01*
X93263860Y-93792331D02*
X93263860Y-93706617D01*
X93263860Y-93706617D02*
X93235288Y-93592331D01*
X93235288Y-93592331D02*
X93206717Y-93535188D01*
X93206717Y-93535188D02*
X93149574Y-93478046D01*
X93149574Y-93478046D02*
X93063860Y-93449474D01*
X93063860Y-93449474D02*
X93006717Y-93449474D01*
X93006717Y-93449474D02*
X92921003Y-93478046D01*
X92921003Y-93478046D02*
X92892431Y-93506617D01*
X92549574Y-93706617D02*
X92606717Y-93678046D01*
X92606717Y-93678046D02*
X92635288Y-93649474D01*
X92635288Y-93649474D02*
X92663860Y-93592331D01*
X92663860Y-93592331D02*
X92663860Y-93563760D01*
X92663860Y-93563760D02*
X92635288Y-93506617D01*
X92635288Y-93506617D02*
X92606717Y-93478046D01*
X92606717Y-93478046D02*
X92549574Y-93449474D01*
X92549574Y-93449474D02*
X92435288Y-93449474D01*
X92435288Y-93449474D02*
X92378146Y-93478046D01*
X92378146Y-93478046D02*
X92349574Y-93506617D01*
X92349574Y-93506617D02*
X92321003Y-93563760D01*
X92321003Y-93563760D02*
X92321003Y-93592331D01*
X92321003Y-93592331D02*
X92349574Y-93649474D01*
X92349574Y-93649474D02*
X92378146Y-93678046D01*
X92378146Y-93678046D02*
X92435288Y-93706617D01*
X92435288Y-93706617D02*
X92549574Y-93706617D01*
X92549574Y-93706617D02*
X92606717Y-93735188D01*
X92606717Y-93735188D02*
X92635288Y-93763760D01*
X92635288Y-93763760D02*
X92663860Y-93820903D01*
X92663860Y-93820903D02*
X92663860Y-93935188D01*
X92663860Y-93935188D02*
X92635288Y-93992331D01*
X92635288Y-93992331D02*
X92606717Y-94020903D01*
X92606717Y-94020903D02*
X92549574Y-94049474D01*
X92549574Y-94049474D02*
X92435288Y-94049474D01*
X92435288Y-94049474D02*
X92378146Y-94020903D01*
X92378146Y-94020903D02*
X92349574Y-93992331D01*
X92349574Y-93992331D02*
X92321003Y-93935188D01*
X92321003Y-93935188D02*
X92321003Y-93820903D01*
X92321003Y-93820903D02*
X92349574Y-93763760D01*
X92349574Y-93763760D02*
X92378146Y-93735188D01*
X92378146Y-93735188D02*
X92435288Y-93706617D01*
%TO.C,R14*%
X190885714Y-86455428D02*
X191085714Y-86169714D01*
X191228571Y-86455428D02*
X191228571Y-85855428D01*
X191228571Y-85855428D02*
X191000000Y-85855428D01*
X191000000Y-85855428D02*
X190942857Y-85884000D01*
X190942857Y-85884000D02*
X190914286Y-85912571D01*
X190914286Y-85912571D02*
X190885714Y-85969714D01*
X190885714Y-85969714D02*
X190885714Y-86055428D01*
X190885714Y-86055428D02*
X190914286Y-86112571D01*
X190914286Y-86112571D02*
X190942857Y-86141142D01*
X190942857Y-86141142D02*
X191000000Y-86169714D01*
X191000000Y-86169714D02*
X191228571Y-86169714D01*
X190314286Y-86455428D02*
X190657143Y-86455428D01*
X190485714Y-86455428D02*
X190485714Y-85855428D01*
X190485714Y-85855428D02*
X190542857Y-85941142D01*
X190542857Y-85941142D02*
X190600000Y-85998285D01*
X190600000Y-85998285D02*
X190657143Y-86026857D01*
X189800000Y-86055428D02*
X189800000Y-86455428D01*
X189942857Y-85826857D02*
X190085714Y-86255428D01*
X190085714Y-86255428D02*
X189714285Y-86255428D01*
%TO.C,R4*%
X127099999Y-84357928D02*
X127299999Y-84072214D01*
X127442856Y-84357928D02*
X127442856Y-83757928D01*
X127442856Y-83757928D02*
X127214285Y-83757928D01*
X127214285Y-83757928D02*
X127157142Y-83786500D01*
X127157142Y-83786500D02*
X127128571Y-83815071D01*
X127128571Y-83815071D02*
X127099999Y-83872214D01*
X127099999Y-83872214D02*
X127099999Y-83957928D01*
X127099999Y-83957928D02*
X127128571Y-84015071D01*
X127128571Y-84015071D02*
X127157142Y-84043642D01*
X127157142Y-84043642D02*
X127214285Y-84072214D01*
X127214285Y-84072214D02*
X127442856Y-84072214D01*
X126585714Y-83957928D02*
X126585714Y-84357928D01*
X126728571Y-83729357D02*
X126871428Y-84157928D01*
X126871428Y-84157928D02*
X126499999Y-84157928D01*
%TO.C,C4*%
X93857735Y-97313868D02*
X93886307Y-97342440D01*
X93886307Y-97342440D02*
X93972021Y-97371011D01*
X93972021Y-97371011D02*
X94029164Y-97371011D01*
X94029164Y-97371011D02*
X94114878Y-97342440D01*
X94114878Y-97342440D02*
X94172021Y-97285297D01*
X94172021Y-97285297D02*
X94200592Y-97228154D01*
X94200592Y-97228154D02*
X94229164Y-97113868D01*
X94229164Y-97113868D02*
X94229164Y-97028154D01*
X94229164Y-97028154D02*
X94200592Y-96913868D01*
X94200592Y-96913868D02*
X94172021Y-96856725D01*
X94172021Y-96856725D02*
X94114878Y-96799583D01*
X94114878Y-96799583D02*
X94029164Y-96771011D01*
X94029164Y-96771011D02*
X93972021Y-96771011D01*
X93972021Y-96771011D02*
X93886307Y-96799583D01*
X93886307Y-96799583D02*
X93857735Y-96828154D01*
X93343450Y-96971011D02*
X93343450Y-97371011D01*
X93486307Y-96742440D02*
X93629164Y-97171011D01*
X93629164Y-97171011D02*
X93257735Y-97171011D01*
%TO.C,R12*%
X99604464Y-84203902D02*
X99804464Y-83918188D01*
X99947321Y-84203902D02*
X99947321Y-83603902D01*
X99947321Y-83603902D02*
X99718750Y-83603902D01*
X99718750Y-83603902D02*
X99661607Y-83632474D01*
X99661607Y-83632474D02*
X99633036Y-83661045D01*
X99633036Y-83661045D02*
X99604464Y-83718188D01*
X99604464Y-83718188D02*
X99604464Y-83803902D01*
X99604464Y-83803902D02*
X99633036Y-83861045D01*
X99633036Y-83861045D02*
X99661607Y-83889616D01*
X99661607Y-83889616D02*
X99718750Y-83918188D01*
X99718750Y-83918188D02*
X99947321Y-83918188D01*
X99033036Y-84203902D02*
X99375893Y-84203902D01*
X99204464Y-84203902D02*
X99204464Y-83603902D01*
X99204464Y-83603902D02*
X99261607Y-83689616D01*
X99261607Y-83689616D02*
X99318750Y-83746759D01*
X99318750Y-83746759D02*
X99375893Y-83775331D01*
X98804464Y-83661045D02*
X98775892Y-83632474D01*
X98775892Y-83632474D02*
X98718750Y-83603902D01*
X98718750Y-83603902D02*
X98575892Y-83603902D01*
X98575892Y-83603902D02*
X98518750Y-83632474D01*
X98518750Y-83632474D02*
X98490178Y-83661045D01*
X98490178Y-83661045D02*
X98461607Y-83718188D01*
X98461607Y-83718188D02*
X98461607Y-83775331D01*
X98461607Y-83775331D02*
X98490178Y-83861045D01*
X98490178Y-83861045D02*
X98833035Y-84203902D01*
X98833035Y-84203902D02*
X98461607Y-84203902D01*
%TO.C,U1*%
X99675892Y-92489178D02*
X99675892Y-92974892D01*
X99675892Y-92974892D02*
X99647321Y-93032035D01*
X99647321Y-93032035D02*
X99618750Y-93060607D01*
X99618750Y-93060607D02*
X99561607Y-93089178D01*
X99561607Y-93089178D02*
X99447321Y-93089178D01*
X99447321Y-93089178D02*
X99390178Y-93060607D01*
X99390178Y-93060607D02*
X99361607Y-93032035D01*
X99361607Y-93032035D02*
X99333035Y-92974892D01*
X99333035Y-92974892D02*
X99333035Y-92489178D01*
X98733036Y-93089178D02*
X99075893Y-93089178D01*
X98904464Y-93089178D02*
X98904464Y-92489178D01*
X98904464Y-92489178D02*
X98961607Y-92574892D01*
X98961607Y-92574892D02*
X99018750Y-92632035D01*
X99018750Y-92632035D02*
X99075893Y-92660607D01*
%TO.C,R7*%
X52863749Y-72735428D02*
X53063749Y-72449714D01*
X53206606Y-72735428D02*
X53206606Y-72135428D01*
X53206606Y-72135428D02*
X52978035Y-72135428D01*
X52978035Y-72135428D02*
X52920892Y-72164000D01*
X52920892Y-72164000D02*
X52892321Y-72192571D01*
X52892321Y-72192571D02*
X52863749Y-72249714D01*
X52863749Y-72249714D02*
X52863749Y-72335428D01*
X52863749Y-72335428D02*
X52892321Y-72392571D01*
X52892321Y-72392571D02*
X52920892Y-72421142D01*
X52920892Y-72421142D02*
X52978035Y-72449714D01*
X52978035Y-72449714D02*
X53206606Y-72449714D01*
X52663749Y-72135428D02*
X52263749Y-72135428D01*
X52263749Y-72135428D02*
X52520892Y-72735428D01*
%TO.C,R18*%
X195049186Y-94949017D02*
X195249186Y-94663303D01*
X195392043Y-94949017D02*
X195392043Y-94349017D01*
X195392043Y-94349017D02*
X195163472Y-94349017D01*
X195163472Y-94349017D02*
X195106329Y-94377589D01*
X195106329Y-94377589D02*
X195077758Y-94406160D01*
X195077758Y-94406160D02*
X195049186Y-94463303D01*
X195049186Y-94463303D02*
X195049186Y-94549017D01*
X195049186Y-94549017D02*
X195077758Y-94606160D01*
X195077758Y-94606160D02*
X195106329Y-94634731D01*
X195106329Y-94634731D02*
X195163472Y-94663303D01*
X195163472Y-94663303D02*
X195392043Y-94663303D01*
X194477758Y-94949017D02*
X194820615Y-94949017D01*
X194649186Y-94949017D02*
X194649186Y-94349017D01*
X194649186Y-94349017D02*
X194706329Y-94434731D01*
X194706329Y-94434731D02*
X194763472Y-94491874D01*
X194763472Y-94491874D02*
X194820615Y-94520446D01*
X194134900Y-94606160D02*
X194192043Y-94577589D01*
X194192043Y-94577589D02*
X194220614Y-94549017D01*
X194220614Y-94549017D02*
X194249186Y-94491874D01*
X194249186Y-94491874D02*
X194249186Y-94463303D01*
X194249186Y-94463303D02*
X194220614Y-94406160D01*
X194220614Y-94406160D02*
X194192043Y-94377589D01*
X194192043Y-94377589D02*
X194134900Y-94349017D01*
X194134900Y-94349017D02*
X194020614Y-94349017D01*
X194020614Y-94349017D02*
X193963472Y-94377589D01*
X193963472Y-94377589D02*
X193934900Y-94406160D01*
X193934900Y-94406160D02*
X193906329Y-94463303D01*
X193906329Y-94463303D02*
X193906329Y-94491874D01*
X193906329Y-94491874D02*
X193934900Y-94549017D01*
X193934900Y-94549017D02*
X193963472Y-94577589D01*
X193963472Y-94577589D02*
X194020614Y-94606160D01*
X194020614Y-94606160D02*
X194134900Y-94606160D01*
X194134900Y-94606160D02*
X194192043Y-94634731D01*
X194192043Y-94634731D02*
X194220614Y-94663303D01*
X194220614Y-94663303D02*
X194249186Y-94720446D01*
X194249186Y-94720446D02*
X194249186Y-94834731D01*
X194249186Y-94834731D02*
X194220614Y-94891874D01*
X194220614Y-94891874D02*
X194192043Y-94920446D01*
X194192043Y-94920446D02*
X194134900Y-94949017D01*
X194134900Y-94949017D02*
X194020614Y-94949017D01*
X194020614Y-94949017D02*
X193963472Y-94920446D01*
X193963472Y-94920446D02*
X193934900Y-94891874D01*
X193934900Y-94891874D02*
X193906329Y-94834731D01*
X193906329Y-94834731D02*
X193906329Y-94720446D01*
X193906329Y-94720446D02*
X193934900Y-94663303D01*
X193934900Y-94663303D02*
X193963472Y-94634731D01*
X193963472Y-94634731D02*
X194020614Y-94606160D01*
%TO.C,C6*%
X105916765Y-88739899D02*
X105945337Y-88768471D01*
X105945337Y-88768471D02*
X106031051Y-88797042D01*
X106031051Y-88797042D02*
X106088194Y-88797042D01*
X106088194Y-88797042D02*
X106173908Y-88768471D01*
X106173908Y-88768471D02*
X106231051Y-88711328D01*
X106231051Y-88711328D02*
X106259622Y-88654185D01*
X106259622Y-88654185D02*
X106288194Y-88539899D01*
X106288194Y-88539899D02*
X106288194Y-88454185D01*
X106288194Y-88454185D02*
X106259622Y-88339899D01*
X106259622Y-88339899D02*
X106231051Y-88282756D01*
X106231051Y-88282756D02*
X106173908Y-88225614D01*
X106173908Y-88225614D02*
X106088194Y-88197042D01*
X106088194Y-88197042D02*
X106031051Y-88197042D01*
X106031051Y-88197042D02*
X105945337Y-88225614D01*
X105945337Y-88225614D02*
X105916765Y-88254185D01*
X105402480Y-88197042D02*
X105516765Y-88197042D01*
X105516765Y-88197042D02*
X105573908Y-88225614D01*
X105573908Y-88225614D02*
X105602480Y-88254185D01*
X105602480Y-88254185D02*
X105659622Y-88339899D01*
X105659622Y-88339899D02*
X105688194Y-88454185D01*
X105688194Y-88454185D02*
X105688194Y-88682756D01*
X105688194Y-88682756D02*
X105659622Y-88739899D01*
X105659622Y-88739899D02*
X105631051Y-88768471D01*
X105631051Y-88768471D02*
X105573908Y-88797042D01*
X105573908Y-88797042D02*
X105459622Y-88797042D01*
X105459622Y-88797042D02*
X105402480Y-88768471D01*
X105402480Y-88768471D02*
X105373908Y-88739899D01*
X105373908Y-88739899D02*
X105345337Y-88682756D01*
X105345337Y-88682756D02*
X105345337Y-88539899D01*
X105345337Y-88539899D02*
X105373908Y-88482756D01*
X105373908Y-88482756D02*
X105402480Y-88454185D01*
X105402480Y-88454185D02*
X105459622Y-88425614D01*
X105459622Y-88425614D02*
X105573908Y-88425614D01*
X105573908Y-88425614D02*
X105631051Y-88454185D01*
X105631051Y-88454185D02*
X105659622Y-88482756D01*
X105659622Y-88482756D02*
X105688194Y-88539899D01*
%TO.C,C11*%
X53566964Y-68425785D02*
X53595536Y-68454357D01*
X53595536Y-68454357D02*
X53681250Y-68482928D01*
X53681250Y-68482928D02*
X53738393Y-68482928D01*
X53738393Y-68482928D02*
X53824107Y-68454357D01*
X53824107Y-68454357D02*
X53881250Y-68397214D01*
X53881250Y-68397214D02*
X53909821Y-68340071D01*
X53909821Y-68340071D02*
X53938393Y-68225785D01*
X53938393Y-68225785D02*
X53938393Y-68140071D01*
X53938393Y-68140071D02*
X53909821Y-68025785D01*
X53909821Y-68025785D02*
X53881250Y-67968642D01*
X53881250Y-67968642D02*
X53824107Y-67911500D01*
X53824107Y-67911500D02*
X53738393Y-67882928D01*
X53738393Y-67882928D02*
X53681250Y-67882928D01*
X53681250Y-67882928D02*
X53595536Y-67911500D01*
X53595536Y-67911500D02*
X53566964Y-67940071D01*
X52995536Y-68482928D02*
X53338393Y-68482928D01*
X53166964Y-68482928D02*
X53166964Y-67882928D01*
X53166964Y-67882928D02*
X53224107Y-67968642D01*
X53224107Y-67968642D02*
X53281250Y-68025785D01*
X53281250Y-68025785D02*
X53338393Y-68054357D01*
X52424107Y-68482928D02*
X52766964Y-68482928D01*
X52595535Y-68482928D02*
X52595535Y-67882928D01*
X52595535Y-67882928D02*
X52652678Y-67968642D01*
X52652678Y-67968642D02*
X52709821Y-68025785D01*
X52709821Y-68025785D02*
X52766964Y-68054357D01*
D13*
%TO.C,C7*%
X93595510Y-90053749D02*
X93379838Y-90053749D01*
X93595510Y-89333749D02*
X93379838Y-89333749D01*
%TO.C,R10*%
X48548859Y-78201250D02*
X48856141Y-78201250D01*
X48548859Y-78961250D02*
X48856141Y-78961250D01*
%TO.C,R9*%
X48775109Y-67088750D02*
X49082391Y-67088750D01*
X48775109Y-67848750D02*
X49082391Y-67848750D01*
%TO.C,U4*%
X95138716Y-83371250D02*
X94338716Y-83371250D01*
X95138716Y-83371250D02*
X95938716Y-83371250D01*
X95138716Y-86491250D02*
X93338716Y-86491250D01*
X95138716Y-86491250D02*
X95938716Y-86491250D01*
%TO.C,R21*%
X52233859Y-77407500D02*
X52541141Y-77407500D01*
X52233859Y-78167500D02*
X52541141Y-78167500D01*
%TO.C,R8*%
X52007500Y-70513641D02*
X52007500Y-70206359D01*
X52767500Y-70513641D02*
X52767500Y-70206359D01*
%TO.C,C12*%
X98181959Y-85842243D02*
X98181959Y-86057915D01*
X97461959Y-85842243D02*
X97461959Y-86057915D01*
%TO.C,U2*%
X37333750Y-53975000D02*
X37333750Y-54625000D01*
X37333750Y-53975000D02*
X37333750Y-53325000D01*
X40453750Y-53975000D02*
X40453750Y-55650000D01*
X40453750Y-53975000D02*
X40453750Y-53325000D01*
%TO.C,R5*%
X98396435Y-98980526D02*
X98089153Y-98980526D01*
X98396435Y-98220526D02*
X98089153Y-98220526D01*
%TO.C,R3*%
X128718101Y-85868514D02*
X129025383Y-85868514D01*
X128718101Y-86628514D02*
X129025383Y-86628514D01*
D14*
%TO.C,U3*%
X51088750Y-77055360D02*
X51088750Y-75225000D01*
X51088750Y-75225000D02*
X45748750Y-75225000D01*
X51088750Y-70825720D02*
X51088750Y-75225000D01*
X50689970Y-77055360D02*
X51088750Y-77055360D01*
D15*
X45934630Y-70825360D02*
X45919390Y-70825360D01*
D14*
X45748750Y-75225000D02*
X45748750Y-70825720D01*
X45748750Y-70825720D02*
X51088750Y-70825720D01*
D13*
%TO.C,C5*%
X102677500Y-86106009D02*
X102677500Y-85824849D01*
X103697500Y-86106009D02*
X103697500Y-85824849D01*
%TO.C,C14*%
X199025336Y-84497500D02*
X198809664Y-84497500D01*
X199025336Y-83777500D02*
X198809664Y-83777500D01*
%TO.C,C1*%
X93614378Y-91075905D02*
X93398706Y-91075905D01*
X93614378Y-90355905D02*
X93398706Y-90355905D01*
%TO.C,C3*%
X96231075Y-98234969D02*
X96446747Y-98234969D01*
X96231075Y-98954969D02*
X96446747Y-98954969D01*
D14*
%TO.C,U5*%
X198726250Y-92930360D02*
X198726250Y-91100000D01*
X198726250Y-91100000D02*
X193386250Y-91100000D01*
X198726250Y-86700720D02*
X198726250Y-91100000D01*
X198327470Y-92930360D02*
X198726250Y-92930360D01*
D15*
X193572130Y-86700360D02*
X193556890Y-86700360D01*
D14*
X193386250Y-91100000D02*
X193386250Y-86700720D01*
X193386250Y-86700720D02*
X198726250Y-86700720D01*
D13*
%TO.C,R11*%
X94124944Y-86840141D02*
X94432226Y-86840141D01*
X94124944Y-87600141D02*
X94432226Y-87600141D01*
%TO.C,R1*%
X128717609Y-86932500D02*
X129024891Y-86932500D01*
X128717609Y-87692500D02*
X129024891Y-87692500D01*
%TO.C,R6*%
X44319891Y-73405000D02*
X44012609Y-73405000D01*
X44319891Y-72645000D02*
X44012609Y-72645000D01*
%TO.C,R19*%
X200992275Y-89053641D02*
X200992275Y-88746359D01*
X201752275Y-89053641D02*
X201752275Y-88746359D01*
%TO.C,C13*%
X92876766Y-84354138D02*
X92876766Y-84569810D01*
X92156766Y-84354138D02*
X92156766Y-84569810D01*
%TO.C,R2*%
X128722049Y-84853184D02*
X129029331Y-84853184D01*
X128722049Y-85613184D02*
X129029331Y-85613184D01*
%TO.C,C2*%
X103856783Y-97634860D02*
X103641111Y-97634860D01*
X103856783Y-96914860D02*
X103641111Y-96914860D01*
%TO.C,G\u002A\u002A\u002A*%
G36*
X123408750Y-99183750D02*
G01*
X123266267Y-99326250D01*
X123072517Y-99326250D01*
X122878767Y-99326250D01*
X123021250Y-99183750D01*
X123163734Y-99041250D01*
X123357484Y-99041250D01*
X123551234Y-99041250D01*
X123408750Y-99183750D01*
G37*
G36*
X123898750Y-99326250D02*
G01*
X123613759Y-99611250D01*
X123421880Y-99611250D01*
X123416326Y-99611249D01*
X123386082Y-99611217D01*
X123357399Y-99611140D01*
X123330660Y-99611023D01*
X123306247Y-99610869D01*
X123284541Y-99610682D01*
X123265925Y-99610465D01*
X123250781Y-99610223D01*
X123239491Y-99609959D01*
X123232437Y-99609676D01*
X123230000Y-99609379D01*
X123230854Y-99608380D01*
X123234953Y-99604077D01*
X123242273Y-99596562D01*
X123252625Y-99586023D01*
X123265823Y-99572647D01*
X123281679Y-99556624D01*
X123300006Y-99538143D01*
X123320617Y-99517390D01*
X123343326Y-99494556D01*
X123367943Y-99469828D01*
X123394283Y-99443394D01*
X123422158Y-99415444D01*
X123451381Y-99386166D01*
X123481764Y-99355748D01*
X123513121Y-99324379D01*
X123796242Y-99041250D01*
X123989992Y-99041250D01*
X124183742Y-99041250D01*
X123898750Y-99326250D01*
G37*
G36*
X125053123Y-98345622D02*
G01*
X125542501Y-98834995D01*
X125542501Y-99326245D01*
X125542500Y-99817495D01*
X125053128Y-100306872D01*
X124563755Y-100796250D01*
X123950000Y-100796250D01*
X123336246Y-100796250D01*
X122846250Y-100306250D01*
X122356255Y-99816250D01*
X123336258Y-99816250D01*
X124316260Y-99816250D01*
X124561250Y-99571250D01*
X124806241Y-99326250D01*
X124561250Y-99081250D01*
X124316260Y-98836249D01*
X123586880Y-98836250D01*
X123535994Y-98836246D01*
X123477034Y-98836232D01*
X123419548Y-98836208D01*
X123363730Y-98836175D01*
X123309777Y-98836133D01*
X123257885Y-98836082D01*
X123208249Y-98836023D01*
X123161066Y-98835956D01*
X123116532Y-98835882D01*
X123074842Y-98835801D01*
X123036192Y-98835713D01*
X123000779Y-98835619D01*
X122968799Y-98835520D01*
X122940446Y-98835415D01*
X122915918Y-98835305D01*
X122895410Y-98835191D01*
X122879119Y-98835073D01*
X122867239Y-98834951D01*
X122859968Y-98834826D01*
X122857500Y-98834699D01*
X122859235Y-98831247D01*
X122864163Y-98824773D01*
X122871860Y-98815709D01*
X122881906Y-98804490D01*
X122893879Y-98791547D01*
X122907357Y-98777316D01*
X122921919Y-98762229D01*
X122937142Y-98746718D01*
X122952604Y-98731219D01*
X122967885Y-98716163D01*
X122982561Y-98701985D01*
X122996212Y-98689117D01*
X123008416Y-98677993D01*
X123018750Y-98669046D01*
X123057936Y-98637568D01*
X123120615Y-98591915D01*
X123185138Y-98550596D01*
X123251805Y-98513458D01*
X123320913Y-98480353D01*
X123392762Y-98451129D01*
X123467652Y-98425636D01*
X123545881Y-98403723D01*
X123553287Y-98401819D01*
X123564782Y-98398701D01*
X123573725Y-98396059D01*
X123579348Y-98394126D01*
X123580881Y-98393134D01*
X123578838Y-98392372D01*
X123572930Y-98390719D01*
X123565000Y-98388806D01*
X123557666Y-98387090D01*
X123539010Y-98382366D01*
X123517570Y-98376555D01*
X123494668Y-98370041D01*
X123471629Y-98363203D01*
X123449778Y-98356422D01*
X123430437Y-98350080D01*
X123420342Y-98346604D01*
X123346620Y-98318387D01*
X123275191Y-98286005D01*
X123206376Y-98249629D01*
X123140498Y-98209427D01*
X123077879Y-98165566D01*
X123075633Y-98163882D01*
X123065967Y-98156620D01*
X123057973Y-98150590D01*
X123052428Y-98146381D01*
X123050109Y-98144578D01*
X123050417Y-98144110D01*
X123053552Y-98140646D01*
X123059844Y-98134042D01*
X123069034Y-98124563D01*
X123080860Y-98112472D01*
X123095062Y-98098034D01*
X123111380Y-98081514D01*
X123129553Y-98063177D01*
X123149321Y-98043285D01*
X123170424Y-98022105D01*
X123192601Y-97999899D01*
X123336234Y-97856250D01*
X123949990Y-97856250D01*
X124563746Y-97856250D01*
X125053123Y-98345622D01*
G37*
G36*
X122466383Y-97602526D02*
G01*
X122477845Y-97646947D01*
X122499754Y-97716845D01*
X122525777Y-97784001D01*
X122555985Y-97848573D01*
X122590448Y-97910720D01*
X122629236Y-97970601D01*
X122651678Y-98001540D01*
X122695971Y-98056217D01*
X122743872Y-98107750D01*
X122795103Y-98155949D01*
X122849389Y-98200620D01*
X122906453Y-98241572D01*
X122966017Y-98278612D01*
X123027806Y-98311548D01*
X123091542Y-98340187D01*
X123156949Y-98364337D01*
X123223750Y-98383806D01*
X123226566Y-98384523D01*
X123238387Y-98387631D01*
X123248228Y-98390370D01*
X123255129Y-98392467D01*
X123258132Y-98393648D01*
X123257569Y-98394400D01*
X123253246Y-98396172D01*
X123245623Y-98398493D01*
X123235632Y-98401056D01*
X123213060Y-98406790D01*
X123168535Y-98420016D01*
X123122791Y-98435919D01*
X123077354Y-98453953D01*
X123033750Y-98473568D01*
X122987281Y-98497312D01*
X122925962Y-98533404D01*
X122867445Y-98573462D01*
X122811911Y-98617282D01*
X122759542Y-98664661D01*
X122710519Y-98715392D01*
X122665023Y-98769272D01*
X122623236Y-98826096D01*
X122585339Y-98885661D01*
X122551513Y-98947761D01*
X122521941Y-99012192D01*
X122496803Y-99078750D01*
X122493486Y-99088682D01*
X122489671Y-99100553D01*
X122485968Y-99112713D01*
X122482113Y-99126074D01*
X122477844Y-99141551D01*
X122472900Y-99160055D01*
X122467018Y-99182500D01*
X122466532Y-99184346D01*
X122465548Y-99187407D01*
X122464585Y-99188258D01*
X122463395Y-99186372D01*
X122461728Y-99181220D01*
X122459338Y-99172275D01*
X122455976Y-99159008D01*
X122454690Y-99154028D01*
X122450292Y-99138065D01*
X122444995Y-99119947D01*
X122439351Y-99101544D01*
X122433918Y-99084724D01*
X122415373Y-99033626D01*
X122387052Y-98968124D01*
X122354562Y-98905121D01*
X122318081Y-98844779D01*
X122277785Y-98787264D01*
X122233850Y-98732740D01*
X122186452Y-98681371D01*
X122135767Y-98633322D01*
X122081972Y-98588756D01*
X122025243Y-98547839D01*
X121965755Y-98510734D01*
X121903686Y-98477607D01*
X121839212Y-98448620D01*
X121772508Y-98423940D01*
X121703750Y-98403729D01*
X121695811Y-98401637D01*
X121684594Y-98398474D01*
X121676073Y-98395802D01*
X121670969Y-98393852D01*
X121670000Y-98392856D01*
X121670192Y-98392795D01*
X121674408Y-98391625D01*
X121682305Y-98389549D01*
X121692823Y-98386842D01*
X121704907Y-98383778D01*
X121732312Y-98376417D01*
X121794442Y-98356385D01*
X121856188Y-98331960D01*
X121916773Y-98303524D01*
X121975414Y-98271460D01*
X122031333Y-98236150D01*
X122083750Y-98197978D01*
X122108025Y-98178228D01*
X122137994Y-98152048D01*
X122167969Y-98124067D01*
X122196857Y-98095344D01*
X122223565Y-98066937D01*
X122246998Y-98039905D01*
X122266143Y-98015997D01*
X122308735Y-97957171D01*
X122347077Y-97895764D01*
X122381083Y-97831939D01*
X122410673Y-97765859D01*
X122435764Y-97697685D01*
X122456273Y-97627581D01*
X122457733Y-97621920D01*
X122460731Y-97610758D01*
X122462887Y-97603752D01*
X122464410Y-97600386D01*
X122465506Y-97600149D01*
X122466383Y-97602526D01*
G37*
%TO.C,SW1*%
X163726250Y-86776250D02*
X163726250Y-89436250D01*
X161126250Y-86776250D02*
X163726250Y-86776250D01*
X161126250Y-86776250D02*
X161126250Y-89436250D01*
X159856250Y-86776250D02*
X158526250Y-86776250D01*
X158526250Y-86776250D02*
X158526250Y-88106250D01*
X161126250Y-89436250D02*
X163726250Y-89436250D01*
%TO.C,C10*%
X39008724Y-56860000D02*
X38793052Y-56860000D01*
X39008724Y-56140000D02*
X38793052Y-56140000D01*
%TO.C,R17*%
X192467500Y-88462609D02*
X192467500Y-88769891D01*
X191707500Y-88462609D02*
X191707500Y-88769891D01*
%TO.C,J1*%
X41990000Y-43721250D02*
X39490000Y-43721250D01*
X39490000Y-43721250D02*
X39490000Y-44771250D01*
X39490000Y-44771250D02*
X38500000Y-44771250D01*
X43960000Y-44891250D02*
X43960000Y-48771250D01*
X41990000Y-49941250D02*
X39490000Y-49941250D01*
X39490000Y-49941250D02*
X39490000Y-48891250D01*
%TO.C,C9*%
X39045163Y-51903750D02*
X38829491Y-51903750D01*
X39045163Y-51183750D02*
X38829491Y-51183750D01*
%TO.C,R13*%
X94116323Y-87902750D02*
X94423605Y-87902750D01*
X94116323Y-88662750D02*
X94423605Y-88662750D01*
%TO.C,R20*%
X200155109Y-93282500D02*
X200462391Y-93282500D01*
X200155109Y-94042500D02*
X200462391Y-94042500D01*
%TO.C,R16*%
X197263750Y-81399891D02*
X197263750Y-81092609D01*
X198023750Y-81399891D02*
X198023750Y-81092609D01*
%TO.C,R15*%
X200405000Y-88462609D02*
X200405000Y-88769891D01*
X199645000Y-88462609D02*
X199645000Y-88769891D01*
%TO.C,C8*%
X94189846Y-93240914D02*
X94189846Y-93456586D01*
X93469846Y-93240914D02*
X93469846Y-93456586D01*
%TO.C,R14*%
X191707500Y-86388641D02*
X191707500Y-86081359D01*
X192467500Y-86388641D02*
X192467500Y-86081359D01*
%TO.C,R4*%
X128723297Y-83818615D02*
X129030579Y-83818615D01*
X128723297Y-84578615D02*
X129030579Y-84578615D01*
%TO.C,C4*%
X95277736Y-97042747D02*
X95277736Y-97258419D01*
X94557736Y-97042747D02*
X94557736Y-97258419D01*
%TO.C,R12*%
X98198624Y-83829833D02*
X98198624Y-84137115D01*
X97438624Y-83829833D02*
X97438624Y-84137115D01*
%TO.C,U1*%
X96005668Y-89258750D02*
X96005668Y-89708750D01*
X96005668Y-96028750D02*
X94715668Y-96028750D01*
X96005668Y-96478750D02*
X96005668Y-96028750D01*
X96455668Y-89258750D02*
X96005668Y-89258750D01*
X96455668Y-96478750D02*
X96005668Y-96478750D01*
X102775668Y-89258750D02*
X103225668Y-89258750D01*
X102775668Y-96478750D02*
X103225668Y-96478750D01*
X103225668Y-89258750D02*
X103225668Y-89708750D01*
X103225668Y-96478750D02*
X103225668Y-96028750D01*
%TO.C,R7*%
X51213750Y-72668641D02*
X51213750Y-72361359D01*
X51973750Y-72668641D02*
X51973750Y-72361359D01*
%TO.C,R18*%
X196436250Y-94586359D02*
X196436250Y-94893641D01*
X195676250Y-94586359D02*
X195676250Y-94893641D01*
%TO.C,C6*%
X103716333Y-88178362D02*
X103932005Y-88178362D01*
X103716333Y-88898362D02*
X103932005Y-88898362D01*
%TO.C,C11*%
X51387836Y-68622500D02*
X51172164Y-68622500D01*
X51387836Y-67902500D02*
X51172164Y-67902500D01*
%TD*%
M02*
