M48
; DRILL file {KiCad 8.0.8} date 2025-05-02T20:11:20+0200
; FORMAT={-:-/ absolute / inch / decimal}
; #@! TF.CreationDate,2025-05-02T20:11:20+02:00
; #@! TF.GenerationSoftware,Kicad,Pcbnew,8.0.8
; #@! TF.FileFunction,NonPlated,1,2,NPTH
FMAT,2
INCH
; #@! TA.AperFunction,NonPlated,NPTH,ComponentDrill
T1C0.0866
%
G90
G05
T1
X0.875Y-2.8438
X1.0625Y-3.2188
X1.4375Y-1.3442
X1.625Y-2.0938
X2.1875Y-3.5938
X2.375Y-2.0942
X2.75Y-2.8438
X2.9375Y-1.3438
X3.125Y-3.5938
X3.875Y-2.0938
X3.875Y-3.5938
X4.4375Y-1.3442
X5.0Y-2.8438
X5.375Y-2.0937
X5.375Y-3.5938
X6.125Y-3.5938
X6.5Y-2.8438
X6.6875Y-1.3438
X6.875Y-2.0938
X7.625Y-3.5938
X8.1875Y-1.3438
X8.375Y-2.0938
X8.375Y-3.5938
X8.75Y-2.8438
X9.3125Y-3.5938
X9.8125Y-1.3438
X10.4375Y-3.2188
X10.5312Y-2.8438
X10.625Y-1.3438
M30
