M48
; DRILL file {KiCad (7.0.0)} date Wed Dec 27 13:26:58 2023
; FORMAT={-:-/ absolute / inch / decimal}
; #@! TF.CreationDate,2023-12-27T13:26:58+01:00
; #@! TF.GenerationSoftware,Kicad,Pcbnew,(7.0.0)
; #@! TF.FileFunction,NonPlated,1,2,NPTH
FMAT,2
INCH
; #@! TA.AperFunction,NonPlated,NPTH,ComponentDrill
T1C0.0866
%
G90
G05
T1
X-0.0635Y-2.2812
X-0.0635Y-2.4072
X0.0625Y-1.7773
X0.0625Y-1.9033
X0.0625Y-2.0293
X0.0625Y-2.1553
X0.0625Y-2.2812
X0.8125Y-2.125
X1.0Y-2.875
X1.4768Y-1.3755
X1.6643Y-2.1255
X3.5393Y-2.8755
X3.5938Y-3.625
X3.9143Y-2.1255
X4.4768Y-1.3755
X5.2188Y-3.625
X5.4062Y-2.125
X5.7893Y-2.8755
X6.3438Y-3.625
X6.7221Y-1.3757
X7.6643Y-2.1255
X7.9869Y-3.6258
X8.0393Y-2.8755
X9.8438Y-1.3755
X10.5706Y-2.875
X10.7812Y-1.375
T0
M30
