M48
; DRILL file {KiCad (7.0.0)} date Wed Dec 27 13:26:58 2023
; FORMAT={-:-/ absolute / inch / decimal}
; #@! TF.CreationDate,2023-12-27T13:26:58+01:00
; #@! TF.GenerationSoftware,Kicad,Pcbnew,(7.0.0)
; #@! TF.FileFunction,Plated,1,2,PTH
FMAT,2
INCH
; #@! TA.AperFunction,Plated,PTH,ViaDrill
T1C0.0157
; #@! TA.AperFunction,Plated,PTH,ComponentDrill
T2C0.0394
%
G90
G05
T1
X0.7812Y-1.375
X0.7812Y-2.875
X1.0625Y-1.375
X1.1011Y-3.5865
X1.1019Y-3.6644
X1.1404Y-1.3742
X1.1562Y-2.125
X1.2341Y-2.1242
X1.3438Y-2.875
X1.4216Y-2.8742
X1.475Y-2.4554
X1.4764Y-3.1992
X1.4815Y-2.3418
X1.4821Y-2.4062
X1.5312Y-2.1562
X1.5431Y-2.4062
X1.5436Y-2.5474
X1.5445Y-2.3449
X1.546Y-2.4562
X1.553Y-3.2009
X1.586Y-2.2243
X1.5935Y-2.0293
X1.6004Y-1.8152
X1.6189Y-2.3452
X1.625Y-1.875
X1.625Y-1.9144
X1.6256Y-2.4567
X1.6263Y-2.5479
X1.6278Y-3.1992
X1.6875Y-2.875
X1.7113Y-3.2021
X1.7181Y-2.5484
X1.7186Y-2.3491
X1.7193Y-2.4567
X1.75Y-2.8125
X1.7953Y-3.2015
X1.8125Y-1.375
X1.8131Y-2.4567
X1.8145Y-2.5464
X1.8158Y-2.3491
X1.8794Y-3.2015
X1.8903Y-3.0577
X1.8904Y-1.3742
X1.8955Y-2.827
X1.9062Y-2.875
X1.9068Y-2.4567
X1.9098Y-2.5469
X1.9686Y-3.2026
X1.9688Y-2.5
X1.9688Y-2.6875
X1.9721Y-2.832
X2.0Y-2.125
X2.0Y-2.4695
X2.0Y-3.0625
X2.016Y-2.5489
X2.0486Y-3.2021
X2.0772Y-2.6875
X2.0773Y-2.5524
X2.0773Y-2.6279
X2.0779Y-2.1242
X2.1705Y-2.4523
X2.174Y-2.5524
X2.174Y-2.6279
X2.1998Y-1.6499
X2.1998Y-1.7294
X2.1999Y-1.7818
X2.2001Y-1.8638
X2.2265Y-1.3768
X2.2721Y-2.6308
X2.2723Y-2.4506
X2.2732Y-2.3591
X2.2741Y-2.5525
X2.2812Y-3.3125
X2.2965Y-1.6499
X2.2965Y-1.7294
X2.2967Y-1.7818
X2.2968Y-1.8638
X2.375Y-2.875
X2.4062Y-3.3125
X2.4114Y-2.3617
X2.4114Y-2.4532
X2.4139Y-2.1253
X2.414Y-2.5525
X2.414Y-3.584
X2.4146Y-3.6652
X2.4529Y-2.8742
X2.5Y-3.3125
X2.5176Y-2.4515
X2.5202Y-2.5508
X2.5625Y-1.375
X2.5938Y-3.3125
X2.6011Y-3.5865
X2.6019Y-3.6644
X2.6025Y-3.1405
X2.6399Y-2.5525
X2.6399Y-2.628
X2.6404Y-1.3742
X2.6404Y-2.4506
X2.6875Y-3.3125
X2.6897Y-3.1423
X2.7366Y-2.5525
X2.7366Y-2.628
X2.7372Y-2.4506
X2.75Y-2.125
X2.7812Y-3.3125
X2.7821Y-3.1423
X2.7926Y-2.8748
X2.8279Y-2.1242
X2.8331Y-2.5524
X2.8331Y-2.6279
X2.8337Y-2.4505
X2.875Y-3.3125
X2.9299Y-2.5524
X2.9299Y-2.6279
X2.9304Y-2.4505
X2.9505Y-1.7818
X2.9505Y-1.8638
X2.9509Y-1.644
X2.9509Y-1.7236
X2.9688Y-3.1562
X2.9688Y-3.3125
X2.9764Y-1.3768
X3.0138Y-2.629
X3.0146Y-2.5536
X3.0151Y-2.4509
X3.0152Y-2.3638
X3.0473Y-1.7818
X3.0473Y-1.8638
X3.0477Y-1.644
X3.0477Y-1.7236
X3.1111Y-2.3603
X3.1113Y-2.5536
X3.1118Y-2.4509
X3.125Y-2.875
X3.1562Y-3.3125
X3.1632Y-2.1239
X3.1636Y-3.5865
X3.1644Y-3.6644
X3.1864Y-2.5544
X3.1869Y-2.4518
X3.2029Y-2.8742
X3.25Y-3.3125
X3.2831Y-2.5544
X3.2836Y-2.4518
X3.3125Y-1.375
X3.3438Y-3.1562
X3.3438Y-3.3125
X3.3569Y-2.5531
X3.3573Y-2.4505
X3.3904Y-1.3742
X3.4375Y-3.1562
X3.4375Y-3.3125
X3.4536Y-2.5531
X3.4541Y-2.4505
X3.5Y-2.125
X3.5312Y-3.1562
X3.5312Y-3.3125
X3.5457Y-2.5549
X3.5462Y-2.4522
X3.5779Y-2.1242
X3.625Y-3.5312
X3.6421Y-3.2726
X3.6424Y-3.3784
X3.6424Y-2.5549
X3.6429Y-2.4522
X3.6933Y-3.7322
X3.7171Y-1.6462
X3.7171Y-1.7258
X3.718Y-1.7818
X3.718Y-1.8638
X3.7244Y-1.3748
X3.7371Y-3.8782
X3.7461Y-2.6368
X3.7466Y-2.5531
X3.747Y-2.4505
X3.75Y-2.361
X3.7812Y-3.822
X3.812Y-3.4028
X3.8125Y-3.6032
X3.8129Y-3.3458
X3.8139Y-1.6462
X3.8139Y-1.7258
X3.8148Y-1.7818
X3.8148Y-1.8638
X3.8548Y-2.4478
X3.856Y-2.5525
X3.8588Y-2.361
X3.875Y-2.875
X3.8885Y-3.9041
X3.9062Y-3.6657
X3.9354Y-2.3606
X3.941Y-3.3117
X3.9529Y-2.8742
X3.9567Y-3.2726
X3.9669Y-2.4062
X3.9669Y-2.4688
X3.9676Y-2.5324
X3.9725Y-3.2345
X4.0416Y-2.4062
X4.0625Y-1.375
X4.0625Y-2.4688
X4.0625Y-3.447
X4.0799Y-2.3621
X4.0938Y-3.7907
X4.125Y-3.375
X4.1257Y-2.4496
X4.1377Y-3.4859
X4.1404Y-1.3742
X4.1562Y-3.0938
X4.1642Y-3.3514
X4.1812Y-2.6578
X4.1821Y-2.5938
X4.1821Y-3.1562
X4.1821Y-3.1956
X4.2284Y-2.4496
X4.25Y-2.125
X4.2785Y-2.5938
X4.2812Y-3.1562
X4.2812Y-3.1956
X4.2812Y-3.235
X4.2812Y-3.2743
X4.2812Y-3.3137
X4.2812Y-3.375
X4.2812Y-3.4375
X4.2812Y-3.5312
X4.2812Y-3.625
X4.2812Y-3.7188
X4.2831Y-2.6575
X4.298Y-3.0906
X4.3125Y-2.875
X4.3217Y-2.5558
X4.3243Y-2.4487
X4.3279Y-2.1242
X4.375Y-3.1501
X4.375Y-3.2812
X4.4253Y-2.5558
X4.4279Y-2.4487
X4.4693Y-1.6485
X4.4693Y-1.728
X4.5Y-3.2812
X4.5021Y-3.15
X4.5142Y-2.3615
X4.5145Y-2.634
X4.5159Y-2.5558
X4.5177Y-2.4479
X4.566Y-1.6485
X4.566Y-1.728
X4.6152Y-2.3598
X4.6152Y-2.4461
X4.6181Y-2.5528
X4.625Y-2.875
X4.625Y-3.2812
X4.6636Y-3.5865
X4.6644Y-3.6644
X4.6656Y-2.125
X4.7029Y-2.8742
X4.7088Y-2.4492
X4.7188Y-3.2812
X4.8003Y-2.4492
X4.8125Y-1.375
X4.8125Y-3.2812
X4.8884Y-2.4484
X4.8904Y-1.3742
X4.9062Y-3.2812
X4.9825Y-2.4492
X5.0Y-2.125
X5.0Y-3.2812
X5.0392Y-2.8741
X5.0779Y-2.1242
X5.0809Y-2.4492
X5.125Y-3.3125
X5.125Y-3.625
X5.1266Y-3.3556
X5.1281Y-3.3958
X5.1281Y-3.4371
X5.1562Y-3.2812
X5.1862Y-2.4501
X5.217Y-1.6521
X5.217Y-1.7317
X5.2242Y-1.3768
X5.25Y-3.2812
X5.2786Y-2.3655
X5.2786Y-2.5485
X5.2804Y-2.4518
X5.2812Y-2.6357
X5.3125Y-3.625
X5.3138Y-1.6521
X5.3138Y-1.7317
X5.3331Y-2.4675
X5.3438Y-3.2812
X5.375Y-2.875
X5.4116Y-1.6505
X5.4116Y-1.7314
X5.415Y-2.3654
X5.415Y-2.5508
X5.4158Y-2.4554
X5.4375Y-3.2812
X5.4529Y-2.8742
X5.5261Y-2.3652
X5.5284Y-2.4533
X5.5284Y-2.5529
X5.5311Y-1.7307
X5.5312Y-3.2812
X5.5581Y-1.375
X5.6124Y-3.2838
X5.6176Y-3.1453
X5.6289Y-2.6441
X5.6292Y-2.4498
X5.6292Y-2.5552
X5.636Y-1.3742
X5.7419Y-3.144
X5.7448Y-2.4539
X5.7457Y-2.5558
X5.7458Y-3.2877
X5.7477Y-2.6502
X5.75Y-2.125
X5.7886Y-3.5865
X5.7894Y-3.6644
X5.8279Y-2.1242
X5.8303Y-3.2838
X5.8311Y-3.1431
X5.9425Y-3.2864
X5.9451Y-3.1448
X5.9721Y-1.3787
X5.9795Y-1.6492
X5.9795Y-1.7288
X6.037Y-2.6285
X6.039Y-2.5465
X6.0407Y-2.4549
X6.0416Y-2.3608
X6.0763Y-1.6492
X6.0763Y-1.7288
X6.0837Y-3.289
X6.125Y-2.875
X6.1409Y-2.36
X6.1426Y-2.4558
X6.1444Y-2.5482
X6.1621Y-2.1276
X6.1809Y-3.2877
X6.2029Y-2.8742
X6.2188Y-3.625
X6.2767Y-3.2851
X6.3081Y-1.375
X6.3661Y-3.2877
X6.386Y-1.3742
X6.4697Y-3.289
X6.5Y-2.125
X6.5435Y-2.8752
X6.5759Y-3.2877
X6.5779Y-2.1242
X6.6665Y-3.2864
X6.7007Y-1.6485
X6.7007Y-1.728
X6.7607Y-3.2868
X6.7646Y-2.3621
X6.7646Y-2.454
X6.7647Y-2.6352
X6.7653Y-3.1463
X6.7659Y-2.5538
X6.7975Y-1.6485
X6.7975Y-1.728
X6.8592Y-2.3608
X6.8657Y-2.4566
X6.866Y-3.2879
X6.8696Y-2.5538
X6.8831Y-2.875
X6.9125Y-2.125
X6.9136Y-3.5865
X6.9144Y-3.6644
X6.9529Y-3.2896
X6.961Y-2.8742
X7.0468Y-3.2902
X7.0581Y-1.375
X7.136Y-1.3742
X7.1452Y-3.2885
X7.2367Y-3.2896
X7.25Y-2.125
X7.25Y-3.625
X7.2921Y-2.8726
X7.3279Y-2.1242
X7.3375Y-3.2891
X7.4336Y-3.2891
X7.4719Y-1.3787
X7.4802Y-1.6514
X7.4802Y-1.731
X7.5226Y-2.4525
X7.5257Y-2.6298
X7.5261Y-2.5501
X7.5278Y-2.3584
X7.5312Y-3.4375
X7.5355Y-3.2919
X7.5625Y-3.3438
X7.5625Y-3.535
X7.5769Y-1.6514
X7.5769Y-1.731
X7.5938Y-3.4375
X7.625Y-2.875
X7.6331Y-2.4534
X7.6331Y-2.5458
X7.634Y-2.3584
X7.6859Y-3.5116
X7.6913Y-3.4726
X7.7029Y-2.8742
X7.7106Y-3.3125
X7.7188Y-3.7812
X7.7196Y-3.5318
X7.7484Y-3.4545
X7.75Y-3.3125
X7.7816Y-3.1461
X7.8081Y-1.375
X7.8125Y-3.2812
X7.8125Y-3.4688
X7.886Y-1.3742
X7.8872Y-3.3125
X7.9062Y-3.7188
X7.9281Y-3.4412
X8.0Y-2.125
X8.0779Y-2.1242
X8.2176Y-1.6521
X8.2176Y-1.7317
X8.2238Y-1.3768
X8.2802Y-2.3593
X8.2815Y-2.4629
X8.2815Y-2.5497
X8.2931Y-3.2337
X8.2943Y-3.3298
X8.3144Y-1.6521
X8.3144Y-1.7317
X8.375Y-2.875
X8.3899Y-3.2337
X8.3905Y-3.3292
X8.4006Y-2.3541
X8.4019Y-2.4616
X8.4019Y-2.551
X8.4136Y-3.5865
X8.4144Y-3.6644
X8.4156Y-2.1248
X8.4529Y-2.8742
X8.5581Y-1.375
X8.636Y-1.3742
X8.75Y-2.125
X8.7895Y-2.8731
X8.8279Y-2.1242
X8.9688Y-2.4522
X8.9688Y-2.5502
X8.969Y-2.6329
X8.9737Y-1.3787
X8.9769Y-3.5814
X8.9769Y-3.6664
X8.9816Y-1.6536
X8.9816Y-1.7332
X9.0444Y-3.2261
X9.0456Y-3.3221
X9.0463Y-2.3025
X9.0465Y-2.3646
X9.0476Y-2.4522
X9.0476Y-2.5502
X9.078Y-1.7889
X9.0783Y-1.6536
X9.0783Y-1.7332
X9.0796Y-1.8483
X9.125Y-2.875
X9.128Y-1.7888
X9.1283Y-1.6536
X9.1283Y-1.7331
X9.1295Y-1.8483
X9.1324Y-2.3025
X9.1324Y-2.4522
X9.1324Y-2.5502
X9.1325Y-2.3646
X9.1331Y-2.2229
X9.1338Y-1.9253
X9.1338Y-1.9938
X9.1346Y-2.0645
X9.1361Y-2.1419
X9.1412Y-3.2261
X9.1417Y-3.3216
X9.1532Y-2.5033
X9.1636Y-3.5865
X9.1644Y-3.6644
X9.2029Y-2.8742
X9.2075Y-2.3025
X9.2077Y-2.3646
X9.2087Y-1.79
X9.209Y-1.6536
X9.209Y-1.7331
X9.209Y-1.9245
X9.209Y-1.9938
X9.209Y-2.066
X9.209Y-2.1426
X9.2103Y-1.8521
X9.2105Y-2.2229
X9.2289Y-2.4522
X9.2303Y-2.5502
X9.2925Y-2.3025
X9.2927Y-2.3646
X9.293Y-2.4522
X9.2959Y-2.5502
X9.3081Y-1.375
X9.3856Y-2.4522
X9.386Y-1.3742
X9.3902Y-2.5502
X9.4522Y-2.644
X9.4528Y-2.5502
X9.4684Y-2.4522
X9.5375Y-2.0858
X9.5383Y-2.1637
X9.5521Y-3.2005
X9.5671Y-2.6462
X9.5929Y-2.4563
X9.5974Y-2.5484
X9.6283Y-3.2005
X9.6666Y-2.4586
X9.6688Y-2.5506
X9.7188Y-1.375
X9.7221Y-3.2005
X9.7418Y-2.4556
X9.7462Y-2.5521
X9.7825Y-2.875
X9.8095Y-2.4578
X9.8154Y-2.5521
X9.8158Y-3.2005
X9.8604Y-2.8742
X9.892Y-2.5521
X9.8957Y-2.46
X9.9096Y-3.2005
X9.9819Y-2.4615
X9.9893Y-2.5558
X10.0033Y-3.2005
X10.0081Y-2.0855
X10.0089Y-2.1634
X10.0633Y-2.4616
X10.0699Y-2.5534
X10.0971Y-3.2005
X10.1351Y-2.4605
X10.1562Y-2.875
X10.2103Y-2.4616
X10.2341Y-2.8742
X10.2788Y-2.4605
X10.2847Y-1.3347
X10.2855Y-1.4126
X10.3451Y-2.4638
X10.3817Y-2.0845
X10.3824Y-1.709
X10.3825Y-2.1624
X10.3832Y-1.7869
X10.4147Y-2.4583
X10.4761Y-3.5865
X10.4769Y-3.6644
X10.4932Y-2.4638
X10.6875Y-1.375
X10.7188Y-1.9375
X10.7188Y-2.875
T2
X6.2936Y-3.4688
X6.3936Y-3.4688
T0
M30
