%TF.GenerationSoftware,KiCad,Pcbnew,8.0.8*%
%TF.CreationDate,2025-05-05T21:28:19+02:00*%
%TF.ProjectId,ampersand,616d7065-7273-4616-9e64-2e6b69636164,rev?*%
%TF.SameCoordinates,Original*%
%TF.FileFunction,Paste,Bot*%
%TF.FilePolarity,Positive*%
%FSLAX46Y46*%
G04 Gerber Fmt 4.6, Leading zero omitted, Abs format (unit mm)*
G04 Created by KiCad (PCBNEW 8.0.8) date 2025-05-05 21:28:19*
%MOMM*%
%LPD*%
G01*
G04 APERTURE LIST*
G04 Aperture macros list*
%AMRoundRect*
0 Rectangle with rounded corners*
0 $1 Rounding radius*
0 $2 $3 $4 $5 $6 $7 $8 $9 X,Y pos of 4 corners*
0 Add a 4 corners polygon primitive as box body*
4,1,4,$2,$3,$4,$5,$6,$7,$8,$9,$2,$3,0*
0 Add four circle primitives for the rounded corners*
1,1,$1+$1,$2,$3*
1,1,$1+$1,$4,$5*
1,1,$1+$1,$6,$7*
1,1,$1+$1,$8,$9*
0 Add four rect primitives between the rounded corners*
20,1,$1+$1,$2,$3,$4,$5,0*
20,1,$1+$1,$4,$5,$6,$7,0*
20,1,$1+$1,$6,$7,$8,$9,0*
20,1,$1+$1,$8,$9,$2,$3,0*%
G04 Aperture macros list end*
%ADD10RoundRect,0.140000X-0.140000X-0.170000X0.140000X-0.170000X0.140000X0.170000X-0.140000X0.170000X0*%
%ADD11RoundRect,0.135000X-0.135000X-0.185000X0.135000X-0.185000X0.135000X0.185000X-0.135000X0.185000X0*%
%ADD12RoundRect,0.150000X0.150000X-0.512500X0.150000X0.512500X-0.150000X0.512500X-0.150000X-0.512500X0*%
%ADD13RoundRect,0.135000X0.185000X-0.135000X0.185000X0.135000X-0.185000X0.135000X-0.185000X-0.135000X0*%
%ADD14RoundRect,0.150000X0.150000X-0.587500X0.150000X0.587500X-0.150000X0.587500X-0.150000X-0.587500X0*%
%ADD15RoundRect,0.135000X-0.185000X0.135000X-0.185000X-0.135000X0.185000X-0.135000X0.185000X0.135000X0*%
%ADD16R,0.419100X1.778000*%
%ADD17RoundRect,0.225000X0.225000X0.250000X-0.225000X0.250000X-0.225000X-0.250000X0.225000X-0.250000X0*%
%ADD18RoundRect,0.140000X0.140000X0.170000X-0.140000X0.170000X-0.140000X-0.170000X0.140000X-0.170000X0*%
%ADD19RoundRect,0.140000X0.170000X-0.140000X0.170000X0.140000X-0.170000X0.140000X-0.170000X-0.140000X0*%
%ADD20RoundRect,0.135000X0.135000X0.185000X-0.135000X0.185000X-0.135000X-0.185000X0.135000X-0.185000X0*%
%ADD21RoundRect,0.140000X-0.170000X0.140000X-0.170000X-0.140000X0.170000X-0.140000X0.170000X0.140000X0*%
%ADD22RoundRect,0.150000X-0.625000X0.150000X-0.625000X-0.150000X0.625000X-0.150000X0.625000X0.150000X0*%
%ADD23RoundRect,0.250000X-0.650000X0.350000X-0.650000X-0.350000X0.650000X-0.350000X0.650000X0.350000X0*%
%ADD24RoundRect,0.075000X0.075000X-0.662500X0.075000X0.662500X-0.075000X0.662500X-0.075000X-0.662500X0*%
%ADD25RoundRect,0.075000X0.662500X-0.075000X0.662500X0.075000X-0.662500X0.075000X-0.662500X-0.075000X0*%
G04 APERTURE END LIST*
D10*
%TO.C,C7*%
X108762618Y-94230474D03*
X109722618Y-94230474D03*
%TD*%
D11*
%TO.C,R10*%
X47192500Y-77787500D03*
X48212500Y-77787500D03*
%TD*%
%TO.C,R9*%
X47418750Y-66675000D03*
X48438750Y-66675000D03*
%TD*%
D12*
%TO.C,U4*%
X104931250Y-96981250D03*
X103981250Y-96981250D03*
X103031250Y-96981250D03*
X103031250Y-94706250D03*
X104931250Y-94706250D03*
%TD*%
D11*
%TO.C,R21*%
X50877500Y-76993750D03*
X51897500Y-76993750D03*
%TD*%
D13*
%TO.C,R8*%
X51387500Y-70076250D03*
X51387500Y-69056250D03*
%TD*%
D10*
%TO.C,C12*%
X104520079Y-93160507D03*
X105480079Y-93160507D03*
%TD*%
D14*
%TO.C,U2*%
X38843750Y-54118750D03*
X36943750Y-54118750D03*
X37893750Y-52243750D03*
%TD*%
D15*
%TO.C,R5*%
X111300526Y-87195741D03*
X111300526Y-88215741D03*
%TD*%
D11*
%TO.C,R3*%
X131052586Y-84435371D03*
X132072586Y-84435371D03*
%TD*%
D16*
%TO.C,U3*%
X49692050Y-75205590D03*
X49041810Y-75205590D03*
X48391570Y-75205590D03*
X47741330Y-75205590D03*
X47096170Y-75205590D03*
X46445930Y-75205590D03*
X45795690Y-75205590D03*
X45145450Y-75205590D03*
X45145450Y-69256910D03*
X45795690Y-69256910D03*
X46445930Y-69256910D03*
X47096170Y-69256910D03*
X47741330Y-69256910D03*
X48391570Y-69256910D03*
X49041810Y-69256910D03*
X49692050Y-69256910D03*
%TD*%
D17*
%TO.C,C5*%
X99993750Y-81756250D03*
X98443750Y-81756250D03*
%TD*%
D18*
%TO.C,C14*%
X188285000Y-83343750D03*
X187325000Y-83343750D03*
%TD*%
D10*
%TO.C,C1*%
X108743750Y-93208318D03*
X109703750Y-93208318D03*
%TD*%
D19*
%TO.C,C3*%
X111294969Y-90089624D03*
X111294969Y-89129624D03*
%TD*%
D16*
%TO.C,U5*%
X187217050Y-91080590D03*
X186566810Y-91080590D03*
X185916570Y-91080590D03*
X185266330Y-91080590D03*
X184621170Y-91080590D03*
X183970930Y-91080590D03*
X183320690Y-91080590D03*
X182670450Y-91080590D03*
X182670450Y-85131910D03*
X183320690Y-85131910D03*
X183970930Y-85131910D03*
X184621170Y-85131910D03*
X185266330Y-85131910D03*
X185916570Y-85131910D03*
X186566810Y-85131910D03*
X187217050Y-85131910D03*
%TD*%
D20*
%TO.C,R11*%
X107760946Y-94192967D03*
X106740946Y-94192967D03*
%TD*%
D11*
%TO.C,R1*%
X131040562Y-86512696D03*
X132060562Y-86512696D03*
%TD*%
%TO.C,R6*%
X42656250Y-72231250D03*
X43676250Y-72231250D03*
%TD*%
D13*
%TO.C,R19*%
X188354462Y-88900000D03*
X188354462Y-87880000D03*
%TD*%
D19*
%TO.C,C13*%
X101600000Y-97003750D03*
X101600000Y-96043750D03*
%TD*%
D11*
%TO.C,R2*%
X131041054Y-85448710D03*
X132061054Y-85448710D03*
%TD*%
D21*
%TO.C,C2*%
X109974860Y-81719588D03*
X109974860Y-82679588D03*
%TD*%
D18*
%TO.C,C10*%
X38380888Y-55706250D03*
X37420888Y-55706250D03*
%TD*%
D15*
%TO.C,R17*%
X180975000Y-87312500D03*
X180975000Y-88332500D03*
%TD*%
D22*
%TO.C,J1*%
X38275000Y-44537500D03*
X38275000Y-45537500D03*
X38275000Y-46537500D03*
X38275000Y-47537500D03*
D23*
X42150000Y-43237500D03*
X42150000Y-48837500D03*
%TD*%
D18*
%TO.C,C9*%
X38417327Y-50750000D03*
X37457327Y-50750000D03*
%TD*%
D20*
%TO.C,R13*%
X107769567Y-93130358D03*
X106749567Y-93130358D03*
%TD*%
%TO.C,R20*%
X187325000Y-92868750D03*
X186305000Y-92868750D03*
%TD*%
D11*
%TO.C,R16*%
X187295000Y-81476250D03*
X188315000Y-81476250D03*
%TD*%
D13*
%TO.C,R15*%
X188325000Y-85951250D03*
X188325000Y-84931250D03*
%TD*%
D10*
%TO.C,C8*%
X109371250Y-92118689D03*
X110331250Y-92118689D03*
%TD*%
D13*
%TO.C,R14*%
X180975000Y-85951250D03*
X180975000Y-84931250D03*
%TD*%
D11*
%TO.C,R4*%
X131046250Y-83398811D03*
X132066250Y-83398811D03*
%TD*%
D10*
%TO.C,C4*%
X109370583Y-91030799D03*
X110330583Y-91030799D03*
%TD*%
D11*
%TO.C,R12*%
X102523474Y-93163842D03*
X103543474Y-93163842D03*
%TD*%
D24*
%TO.C,U1*%
X108318750Y-90495367D03*
X107818750Y-90495367D03*
X107318750Y-90495367D03*
X106818750Y-90495367D03*
X106318750Y-90495367D03*
X105818750Y-90495367D03*
X105318750Y-90495367D03*
X104818750Y-90495367D03*
X104318750Y-90495367D03*
X103818750Y-90495367D03*
X103318750Y-90495367D03*
X102818750Y-90495367D03*
D25*
X101406250Y-89082867D03*
X101406250Y-88582867D03*
X101406250Y-88082867D03*
X101406250Y-87582867D03*
X101406250Y-87082867D03*
X101406250Y-86582867D03*
X101406250Y-86082867D03*
X101406250Y-85582867D03*
X101406250Y-85082867D03*
X101406250Y-84582867D03*
X101406250Y-84082867D03*
X101406250Y-83582867D03*
D24*
X102818750Y-82170367D03*
X103318750Y-82170367D03*
X103818750Y-82170367D03*
X104318750Y-82170367D03*
X104818750Y-82170367D03*
X105318750Y-82170367D03*
X105818750Y-82170367D03*
X106318750Y-82170367D03*
X106818750Y-82170367D03*
X107318750Y-82170367D03*
X107818750Y-82170367D03*
X108318750Y-82170367D03*
D25*
X109731250Y-83582867D03*
X109731250Y-84082867D03*
X109731250Y-84582867D03*
X109731250Y-85082867D03*
X109731250Y-85582867D03*
X109731250Y-86082867D03*
X109731250Y-86582867D03*
X109731250Y-87082867D03*
X109731250Y-87582867D03*
X109731250Y-88082867D03*
X109731250Y-88582867D03*
X109731250Y-89082867D03*
%TD*%
D13*
%TO.C,R7*%
X50593750Y-72231250D03*
X50593750Y-71211250D03*
%TD*%
D20*
%TO.C,R18*%
X184638884Y-92868750D03*
X183618884Y-92868750D03*
%TD*%
D18*
%TO.C,C6*%
X98852620Y-83055658D03*
X97892620Y-83055658D03*
%TD*%
%TO.C,C11*%
X50760000Y-67468750D03*
X49800000Y-67468750D03*
%TD*%
M02*
