%TF.GenerationSoftware,KiCad,Pcbnew,(7.0.0)*%
%TF.CreationDate,2023-12-27T13:26:55+01:00*%
%TF.ProjectId,ampersand,616d7065-7273-4616-9e64-2e6b69636164,rev?*%
%TF.SameCoordinates,Original*%
%TF.FileFunction,Profile,NP*%
%FSLAX46Y46*%
G04 Gerber Fmt 4.6, Leading zero omitted, Abs format (unit mm)*
G04 Created by KiCad (PCBNEW (7.0.0)) date 2023-12-27 13:26:55*
%MOMM*%
%LPD*%
G01*
G04 APERTURE LIST*
%TA.AperFunction,Profile*%
%ADD10C,0.070555*%
%TD*%
G04 APERTURE END LIST*
D10*
X257134509Y-27718372D02*
X257635723Y-27539229D01*
X273257331Y-101600353D02*
X273803104Y-101537213D01*
X220932477Y-101054353D02*
X220869586Y-101600354D01*
X241777793Y-100708446D02*
X242058897Y-100266307D01*
X264255418Y-100110997D02*
X263974313Y-100553136D01*
X242824072Y-83442166D02*
X242542967Y-83884306D01*
X27987466Y-99219090D02*
X27441464Y-99281981D01*
X263795170Y-101054353D02*
X263732279Y-101600353D01*
X258969752Y-101600353D02*
X263732279Y-101600353D01*
X275637324Y-27779992D02*
X275574477Y-27235455D01*
X18525313Y-27235264D02*
X18461151Y-27779992D01*
X258182177Y-101466781D02*
X258437658Y-101540438D01*
X263974313Y-100553136D02*
X263795170Y-101054353D01*
X221761493Y-99742229D02*
X221392725Y-100110997D01*
X51558043Y-83884306D02*
X51276940Y-83442165D01*
X18461151Y-99217820D02*
X18461151Y-27779992D01*
X20843682Y-25400000D02*
X20297682Y-25462891D01*
X223796849Y-99281980D02*
X223250850Y-99219090D01*
X221392725Y-100110997D02*
X221111621Y-100553136D01*
X73231427Y-101600353D02*
X73168536Y-101054353D01*
X257485997Y-101082591D02*
X257704015Y-101236892D01*
X20297682Y-25462891D02*
X19796465Y-25642035D01*
X274745979Y-25923588D02*
X274304079Y-25642428D01*
X242363824Y-84385522D02*
X242299662Y-84930252D01*
X141741991Y-27718372D02*
X142287992Y-27781263D01*
X51800075Y-84931522D02*
X51737185Y-84385522D01*
X29034683Y-99461125D02*
X28533467Y-99281981D01*
X70850164Y-99219090D02*
X70304163Y-99281981D01*
X257105782Y-100702574D02*
X257285134Y-100903342D01*
X258727721Y-26447221D02*
X258906862Y-25946003D01*
X50466035Y-82792295D02*
X49964820Y-82613150D01*
X242542967Y-83884306D02*
X242363824Y-84385522D01*
X69802946Y-99461125D02*
X69360805Y-99742229D01*
X36178470Y-101358318D02*
X36620609Y-101077214D01*
X142287992Y-27781263D02*
X142833991Y-27718372D01*
X254270137Y-25946004D02*
X254449279Y-26447221D01*
X140148763Y-26447221D02*
X140429866Y-26889360D01*
X68531791Y-101054353D02*
X68468900Y-101600353D01*
X275114528Y-26292335D02*
X274745979Y-25923588D01*
X51798806Y-99217820D02*
X51798805Y-84930252D01*
X36989377Y-100708446D02*
X37270478Y-100266307D01*
X140798635Y-27258127D02*
X141240775Y-27539229D01*
X255541284Y-27539229D02*
X256042504Y-27718372D01*
X19796466Y-101358318D02*
X20297682Y-101537461D01*
X258437658Y-101540438D02*
X258700960Y-101585285D01*
X73168536Y-101054353D02*
X72989392Y-100553136D01*
X20843682Y-25400000D02*
X35131250Y-25400000D01*
X39001869Y-27258126D02*
X39370636Y-26889360D01*
X18704456Y-26734046D02*
X18525313Y-27235264D01*
X25848237Y-100553136D02*
X25669094Y-101054353D01*
X26940247Y-99461125D02*
X26498108Y-99742229D01*
X18985559Y-26291907D02*
X18704456Y-26734046D01*
X35654388Y-26889360D02*
X36023156Y-27258127D01*
X53134119Y-101358318D02*
X53635337Y-101537461D01*
X144146115Y-26889360D02*
X144427219Y-26447221D01*
X275395454Y-100265966D02*
X275574477Y-99764897D01*
X225569222Y-101054353D02*
X225390077Y-100553136D01*
X256822863Y-100251868D02*
X256951369Y-100484637D01*
X26498108Y-99742229D02*
X26129340Y-100110997D01*
X29845590Y-100110997D02*
X29476822Y-99742229D01*
X39370636Y-26889360D02*
X39651737Y-26447221D01*
X256524394Y-84385716D02*
X256345370Y-83884647D01*
X35677251Y-101537462D02*
X36178470Y-101358318D01*
X268431913Y-101054353D02*
X268252769Y-100553136D01*
X30368727Y-101600353D02*
X30305836Y-101054353D01*
X256042504Y-27718372D02*
X256588510Y-27781263D01*
X18461151Y-99217820D02*
X18525313Y-99765090D01*
X19796465Y-25642035D02*
X19354327Y-25923138D01*
X25606203Y-101600353D02*
X20843682Y-101600353D01*
X258700960Y-101585285D02*
X258969752Y-101600353D01*
X36966511Y-27718372D02*
X37512514Y-27781263D01*
X51276940Y-83442165D02*
X50908174Y-83073398D01*
X225108973Y-100110997D02*
X224740205Y-99742229D01*
X18985559Y-100708447D02*
X19354327Y-101077214D01*
X258906862Y-25946003D02*
X258969753Y-25400000D01*
X38404415Y-83073398D02*
X38035648Y-83442166D01*
X256587240Y-84931522D02*
X256524394Y-84385716D01*
X256587240Y-84930252D02*
X256587240Y-99217820D01*
X19354327Y-25923138D02*
X18985559Y-26291907D01*
X242238041Y-99765090D02*
X242299662Y-99217820D01*
X140429866Y-26889360D02*
X140798635Y-27258127D01*
X71396165Y-99281981D02*
X70850164Y-99219090D01*
X275574477Y-99764897D02*
X275637323Y-99217820D01*
X27441464Y-99281981D02*
X26940247Y-99461125D01*
X225390077Y-100553136D02*
X225108973Y-100110997D01*
X274304079Y-25642428D02*
X273803104Y-25463137D01*
X39830880Y-25946003D02*
X39893771Y-25400000D01*
X273803104Y-101537213D02*
X274304079Y-101357920D01*
X37449622Y-99765090D02*
X37511244Y-99217820D01*
X243634978Y-82792295D02*
X243192840Y-83073398D01*
X35373284Y-26447221D02*
X35654388Y-26889360D01*
X39893771Y-25400000D02*
X139111703Y-25400000D01*
X243192840Y-83073398D02*
X242824072Y-83442166D01*
X35194141Y-25946003D02*
X35373284Y-26447221D01*
X25669094Y-101054353D02*
X25606203Y-101600353D01*
X258077858Y-27258127D02*
X258446622Y-26889360D01*
X264624185Y-99742229D02*
X264255418Y-100110997D01*
X26129340Y-100110997D02*
X25848237Y-100553136D01*
X242299662Y-84930252D02*
X242299662Y-99217820D01*
X240465669Y-101537462D02*
X240966886Y-101358318D01*
X242058897Y-100266307D02*
X242238041Y-99765090D01*
X240966886Y-101358318D02*
X241409025Y-101077214D01*
X72339522Y-99742229D02*
X71897382Y-99461125D01*
X275637323Y-99217820D02*
X275637324Y-27779992D01*
X38035648Y-83442166D02*
X37754546Y-83884306D01*
X72989392Y-100553136D02*
X72708290Y-100110997D01*
X70304163Y-99281981D02*
X69802946Y-99461125D01*
X266113541Y-99219090D02*
X265567541Y-99281981D01*
X50908174Y-83073398D02*
X50466035Y-82792295D01*
X18525313Y-99765090D02*
X18704456Y-100266307D01*
X52323212Y-100708446D02*
X52691980Y-101077214D01*
X39347770Y-82613150D02*
X38846553Y-82792295D01*
X139969619Y-25946003D02*
X140148763Y-26447221D01*
X221111621Y-100553136D02*
X220932477Y-101054353D01*
X244682195Y-82550259D02*
X244136195Y-82613151D01*
X256345370Y-83884647D02*
X256064445Y-83442598D01*
X35131250Y-25400000D02*
X35194141Y-25946003D01*
X38846553Y-82792295D02*
X38404415Y-83073398D01*
X225632112Y-101600353D02*
X239919669Y-101600353D01*
X256602450Y-99487874D02*
X256647435Y-99751153D01*
X144606363Y-25946003D02*
X144669254Y-25400000D01*
X139906728Y-25400000D02*
X139111703Y-25400000D01*
X72708290Y-100110997D02*
X72339522Y-99742229D01*
X38559732Y-27539229D02*
X39001869Y-27258126D01*
X273803104Y-25463137D02*
X273257330Y-25400000D01*
X19354327Y-101077214D02*
X19796466Y-101358318D01*
X29476822Y-99742229D02*
X29034683Y-99461125D01*
X51800076Y-99219090D02*
X51862966Y-99765091D01*
X37511243Y-84930252D02*
X37511244Y-99217820D01*
X36465294Y-27539229D02*
X36966511Y-27718372D01*
X37512514Y-27781263D02*
X38058515Y-27718372D01*
X256064445Y-83442598D02*
X255695896Y-83073852D01*
X68468900Y-101600353D02*
X54181338Y-101600353D01*
X265066325Y-99461125D02*
X264624185Y-99742229D01*
X254753021Y-82613400D02*
X254207247Y-82550259D01*
X256647435Y-99751153D02*
X256721229Y-100006595D01*
X222203632Y-99461125D02*
X221761493Y-99742229D01*
X145461739Y-25400000D02*
X254207247Y-25400000D01*
X52042110Y-100266307D02*
X52323212Y-100708446D01*
X143777347Y-27258126D02*
X144146115Y-26889360D01*
X139906728Y-25400000D02*
X139969619Y-25946003D01*
X258969753Y-25400000D02*
X273257330Y-25400000D01*
X256721229Y-100006595D02*
X256822863Y-100251868D01*
X37754546Y-83884306D02*
X37575403Y-84385522D01*
X275574477Y-27235455D02*
X275395453Y-26734385D01*
X20297682Y-101537461D02*
X20843682Y-101600353D01*
X254207247Y-25400000D02*
X254270137Y-25946004D01*
X258446622Y-26889360D02*
X258727721Y-26447221D01*
X51862966Y-99765091D02*
X52042110Y-100266307D01*
X255253996Y-82792691D02*
X254753021Y-82613400D01*
X257635723Y-27539229D02*
X258077858Y-27258127D01*
X275114528Y-100708014D02*
X275395454Y-100265966D01*
X39651737Y-26447221D02*
X39830880Y-25946003D01*
X274304079Y-101357920D02*
X274745979Y-101076760D01*
X256951369Y-100484637D02*
X257105782Y-100702574D01*
X53635337Y-101537461D02*
X54181338Y-101600353D01*
X244682195Y-82550259D02*
X254207247Y-82550259D01*
X254730379Y-26889360D02*
X255099146Y-27258127D01*
X255099146Y-27258127D02*
X255541284Y-27539229D01*
X223250850Y-99219090D02*
X222704849Y-99281981D01*
X254449279Y-26447221D02*
X254730379Y-26889360D01*
X36620609Y-101077214D02*
X36989377Y-100708446D01*
X268252769Y-100553136D02*
X267971666Y-100110997D01*
X222704849Y-99281981D02*
X222203632Y-99461125D01*
X38058515Y-27718372D02*
X38559732Y-27539229D01*
X18704456Y-100266307D02*
X18985559Y-100708447D01*
X71897382Y-99461125D02*
X71396165Y-99281981D01*
X257936852Y-101365277D02*
X258182177Y-101466781D01*
X39893771Y-82550259D02*
X39347770Y-82613150D01*
X51737185Y-84385522D02*
X51558043Y-83884306D01*
X35131251Y-101600353D02*
X35677251Y-101537462D01*
X256587240Y-99219090D02*
X256602450Y-99487874D01*
X68710935Y-100553136D02*
X68531791Y-101054353D01*
X268494804Y-101600353D02*
X268431913Y-101054353D01*
X143335208Y-27539229D02*
X143777347Y-27258126D01*
X224740205Y-99742229D02*
X224298066Y-99461124D01*
X30305836Y-101054353D02*
X30126692Y-100553136D01*
X37575403Y-84385522D02*
X37512513Y-84931522D01*
X265567541Y-99281981D02*
X265066325Y-99461125D01*
X52691980Y-101077214D02*
X53134119Y-101358318D01*
X30126692Y-100553136D02*
X29845590Y-100110997D01*
X142833991Y-27718372D02*
X143335208Y-27539229D01*
X255695896Y-83073852D02*
X255253996Y-82792691D01*
X37270478Y-100266307D02*
X37449622Y-99765090D01*
X241409025Y-101077214D02*
X241777793Y-100708446D01*
X28533467Y-99281981D02*
X27987466Y-99219090D01*
X266659542Y-99281981D02*
X266113541Y-99219090D01*
X257704015Y-101236892D02*
X257936852Y-101365277D01*
X49964820Y-82613150D02*
X49418817Y-82550258D01*
X244136195Y-82613151D02*
X243634978Y-82792295D01*
X267602898Y-99742229D02*
X267160759Y-99461125D01*
X268494804Y-101600353D02*
X273257331Y-101600353D01*
X225632112Y-101600353D02*
X225569222Y-101054353D01*
X144669254Y-25400000D02*
X145461739Y-25400000D01*
X220869586Y-101600354D02*
X73231427Y-101600353D01*
X69360805Y-99742229D02*
X68992037Y-100110997D01*
X36023156Y-27258127D02*
X36465294Y-27539229D01*
X49418817Y-82550258D02*
X39893771Y-82550259D01*
X141240775Y-27539229D02*
X141741991Y-27718372D01*
X274745979Y-101076760D02*
X275114528Y-100708014D01*
X267160759Y-99461125D02*
X266659542Y-99281981D01*
X144427219Y-26447221D02*
X144606363Y-25946003D01*
X224298066Y-99461124D02*
X223796849Y-99281980D01*
X239919669Y-101600353D02*
X240465669Y-101537462D01*
X68992037Y-100110997D02*
X68710935Y-100553136D01*
X267971666Y-100110997D02*
X267602898Y-99742229D01*
X275395453Y-26734385D02*
X275114528Y-26292335D01*
X257285134Y-100903342D02*
X257485997Y-101082591D01*
X30368727Y-101600353D02*
X35131251Y-101600353D01*
X256588510Y-27781263D02*
X257134509Y-27718372D01*
M02*
