%TF.GenerationSoftware,KiCad,Pcbnew,(7.0.0)*%
%TF.CreationDate,2023-12-27T13:26:55+01:00*%
%TF.ProjectId,ampersand,616d7065-7273-4616-9e64-2e6b69636164,rev?*%
%TF.SameCoordinates,Original*%
%TF.FileFunction,Paste,Bot*%
%TF.FilePolarity,Positive*%
%FSLAX46Y46*%
G04 Gerber Fmt 4.6, Leading zero omitted, Abs format (unit mm)*
G04 Created by KiCad (PCBNEW (7.0.0)) date 2023-12-27 13:26:55*
%MOMM*%
%LPD*%
G01*
G04 APERTURE LIST*
G04 Aperture macros list*
%AMRoundRect*
0 Rectangle with rounded corners*
0 $1 Rounding radius*
0 $2 $3 $4 $5 $6 $7 $8 $9 X,Y pos of 4 corners*
0 Add a 4 corners polygon primitive as box body*
4,1,4,$2,$3,$4,$5,$6,$7,$8,$9,$2,$3,0*
0 Add four circle primitives for the rounded corners*
1,1,$1+$1,$2,$3*
1,1,$1+$1,$4,$5*
1,1,$1+$1,$6,$7*
1,1,$1+$1,$8,$9*
0 Add four rect primitives between the rounded corners*
20,1,$1+$1,$2,$3,$4,$5,0*
20,1,$1+$1,$4,$5,$6,$7,0*
20,1,$1+$1,$6,$7,$8,$9,0*
20,1,$1+$1,$8,$9,$2,$3,0*%
G04 Aperture macros list end*
%ADD10RoundRect,0.140000X0.140000X0.170000X-0.140000X0.170000X-0.140000X-0.170000X0.140000X-0.170000X0*%
%ADD11RoundRect,0.135000X-0.135000X-0.185000X0.135000X-0.185000X0.135000X0.185000X-0.135000X0.185000X0*%
%ADD12RoundRect,0.150000X-0.512500X-0.150000X0.512500X-0.150000X0.512500X0.150000X-0.512500X0.150000X0*%
%ADD13RoundRect,0.135000X0.185000X-0.135000X0.185000X0.135000X-0.185000X0.135000X-0.185000X-0.135000X0*%
%ADD14RoundRect,0.140000X-0.170000X0.140000X-0.170000X-0.140000X0.170000X-0.140000X0.170000X0.140000X0*%
%ADD15RoundRect,0.150000X0.150000X-0.587500X0.150000X0.587500X-0.150000X0.587500X-0.150000X-0.587500X0*%
%ADD16RoundRect,0.135000X0.135000X0.185000X-0.135000X0.185000X-0.135000X-0.185000X0.135000X-0.185000X0*%
%ADD17R,0.419100X1.778000*%
%ADD18RoundRect,0.225000X0.250000X-0.225000X0.250000X0.225000X-0.250000X0.225000X-0.250000X-0.225000X0*%
%ADD19RoundRect,0.140000X-0.140000X-0.170000X0.140000X-0.170000X0.140000X0.170000X-0.140000X0.170000X0*%
%ADD20RoundRect,0.135000X-0.185000X0.135000X-0.185000X-0.135000X0.185000X-0.135000X0.185000X0.135000X0*%
%ADD21RoundRect,0.150000X-0.625000X0.150000X-0.625000X-0.150000X0.625000X-0.150000X0.625000X0.150000X0*%
%ADD22RoundRect,0.250000X-0.650000X0.350000X-0.650000X-0.350000X0.650000X-0.350000X0.650000X0.350000X0*%
%ADD23RoundRect,0.075000X-0.662500X-0.075000X0.662500X-0.075000X0.662500X0.075000X-0.662500X0.075000X0*%
%ADD24RoundRect,0.075000X-0.075000X-0.662500X0.075000X-0.662500X0.075000X0.662500X-0.075000X0.662500X0*%
G04 APERTURE END LIST*
D10*
%TO.C,C7*%
X93967674Y-89693749D03*
X93007674Y-89693749D03*
%TD*%
D11*
%TO.C,R10*%
X48192500Y-78581250D03*
X49212500Y-78581250D03*
%TD*%
%TO.C,R9*%
X48418750Y-67468750D03*
X49438750Y-67468750D03*
%TD*%
D12*
%TO.C,U4*%
X94001216Y-85881250D03*
X94001216Y-84931250D03*
X94001216Y-83981250D03*
X96276216Y-83981250D03*
X96276216Y-85881250D03*
%TD*%
D11*
%TO.C,R21*%
X51877500Y-77787500D03*
X52897500Y-77787500D03*
%TD*%
D13*
%TO.C,R8*%
X52387500Y-70870000D03*
X52387500Y-69850000D03*
%TD*%
D14*
%TO.C,C12*%
X97821959Y-85470079D03*
X97821959Y-86430079D03*
%TD*%
D15*
%TO.C,U2*%
X39843750Y-54912500D03*
X37943750Y-54912500D03*
X38893750Y-53037500D03*
%TD*%
D16*
%TO.C,R5*%
X98752794Y-98600526D03*
X97732794Y-98600526D03*
%TD*%
D11*
%TO.C,R3*%
X128361742Y-86248514D03*
X129381742Y-86248514D03*
%TD*%
D17*
%TO.C,U3*%
X50692049Y-75999339D03*
X50041809Y-75999339D03*
X49391569Y-75999339D03*
X48741329Y-75999339D03*
X48096169Y-75999339D03*
X47445929Y-75999339D03*
X46795689Y-75999339D03*
X46145449Y-75999339D03*
X46145449Y-70050659D03*
X46795689Y-70050659D03*
X47445929Y-70050659D03*
X48096169Y-70050659D03*
X48741329Y-70050659D03*
X49391569Y-70050659D03*
X50041809Y-70050659D03*
X50692049Y-70050659D03*
%TD*%
D18*
%TO.C,C5*%
X103187500Y-86740429D03*
X103187500Y-85190429D03*
%TD*%
D10*
%TO.C,C14*%
X199397500Y-84137500D03*
X198437500Y-84137500D03*
%TD*%
%TO.C,C1*%
X93986542Y-90715905D03*
X93026542Y-90715905D03*
%TD*%
D19*
%TO.C,C3*%
X95858911Y-98594969D03*
X96818911Y-98594969D03*
%TD*%
D17*
%TO.C,U5*%
X198329549Y-91874339D03*
X197679309Y-91874339D03*
X197029069Y-91874339D03*
X196378829Y-91874339D03*
X195733669Y-91874339D03*
X195083429Y-91874339D03*
X194433189Y-91874339D03*
X193782949Y-91874339D03*
X193782949Y-85925659D03*
X194433189Y-85925659D03*
X195083429Y-85925659D03*
X195733669Y-85925659D03*
X196378829Y-85925659D03*
X197029069Y-85925659D03*
X197679309Y-85925659D03*
X198329549Y-85925659D03*
%TD*%
D11*
%TO.C,R11*%
X93768585Y-87220141D03*
X94788585Y-87220141D03*
%TD*%
%TO.C,R1*%
X128361250Y-87312500D03*
X129381250Y-87312500D03*
%TD*%
D16*
%TO.C,R6*%
X44676250Y-73025000D03*
X43656250Y-73025000D03*
%TD*%
D13*
%TO.C,R19*%
X201372275Y-89410000D03*
X201372275Y-88390000D03*
%TD*%
D14*
%TO.C,C13*%
X92516766Y-83981974D03*
X92516766Y-84941974D03*
%TD*%
D11*
%TO.C,R2*%
X128365690Y-85233184D03*
X129385690Y-85233184D03*
%TD*%
D10*
%TO.C,C2*%
X104228947Y-97274860D03*
X103268947Y-97274860D03*
%TD*%
%TO.C,C10*%
X39380888Y-56500000D03*
X38420888Y-56500000D03*
%TD*%
D20*
%TO.C,R17*%
X192087500Y-88106250D03*
X192087500Y-89126250D03*
%TD*%
D21*
%TO.C,J1*%
X39275000Y-45331250D03*
X39275000Y-46331250D03*
X39275000Y-47331250D03*
X39275000Y-48331250D03*
D22*
X43150000Y-44031250D03*
X43150000Y-49631250D03*
%TD*%
D10*
%TO.C,C9*%
X39417327Y-51543750D03*
X38457327Y-51543750D03*
%TD*%
D11*
%TO.C,R13*%
X93759964Y-88282750D03*
X94779964Y-88282750D03*
%TD*%
%TO.C,R20*%
X199798750Y-93662500D03*
X200818750Y-93662500D03*
%TD*%
D13*
%TO.C,R16*%
X197643750Y-81756250D03*
X197643750Y-80736250D03*
%TD*%
D20*
%TO.C,R15*%
X200025000Y-88106250D03*
X200025000Y-89126250D03*
%TD*%
D14*
%TO.C,C8*%
X93829846Y-92868750D03*
X93829846Y-93828750D03*
%TD*%
D13*
%TO.C,R14*%
X192087500Y-86745000D03*
X192087500Y-85725000D03*
%TD*%
D11*
%TO.C,R4*%
X128366938Y-84198615D03*
X129386938Y-84198615D03*
%TD*%
D14*
%TO.C,C4*%
X94917736Y-96670583D03*
X94917736Y-97630583D03*
%TD*%
D20*
%TO.C,R12*%
X97818624Y-83473474D03*
X97818624Y-84493474D03*
%TD*%
D23*
%TO.C,U1*%
X95453168Y-95618750D03*
X95453168Y-95118750D03*
X95453168Y-94618750D03*
X95453168Y-94118750D03*
X95453168Y-93618750D03*
X95453168Y-93118750D03*
X95453168Y-92618750D03*
X95453168Y-92118750D03*
X95453168Y-91618750D03*
X95453168Y-91118750D03*
X95453168Y-90618750D03*
X95453168Y-90118750D03*
D24*
X96865668Y-88706250D03*
X97365668Y-88706250D03*
X97865668Y-88706250D03*
X98365668Y-88706250D03*
X98865668Y-88706250D03*
X99365668Y-88706250D03*
X99865668Y-88706250D03*
X100365668Y-88706250D03*
X100865668Y-88706250D03*
X101365668Y-88706250D03*
X101865668Y-88706250D03*
X102365668Y-88706250D03*
D23*
X103778168Y-90118750D03*
X103778168Y-90618750D03*
X103778168Y-91118750D03*
X103778168Y-91618750D03*
X103778168Y-92118750D03*
X103778168Y-92618750D03*
X103778168Y-93118750D03*
X103778168Y-93618750D03*
X103778168Y-94118750D03*
X103778168Y-94618750D03*
X103778168Y-95118750D03*
X103778168Y-95618750D03*
D24*
X102365668Y-97031250D03*
X101865668Y-97031250D03*
X101365668Y-97031250D03*
X100865668Y-97031250D03*
X100365668Y-97031250D03*
X99865668Y-97031250D03*
X99365668Y-97031250D03*
X98865668Y-97031250D03*
X98365668Y-97031250D03*
X97865668Y-97031250D03*
X97365668Y-97031250D03*
X96865668Y-97031250D03*
%TD*%
D13*
%TO.C,R7*%
X51593750Y-73025000D03*
X51593750Y-72005000D03*
%TD*%
D20*
%TO.C,R18*%
X196056250Y-94230000D03*
X196056250Y-95250000D03*
%TD*%
D19*
%TO.C,C6*%
X103344169Y-88538362D03*
X104304169Y-88538362D03*
%TD*%
D10*
%TO.C,C11*%
X51760000Y-68262500D03*
X50800000Y-68262500D03*
%TD*%
M02*
