%TF.GenerationSoftware,KiCad,Pcbnew,(7.0.0)*%
%TF.CreationDate,2024-01-19T21:42:38+01:00*%
%TF.ProjectId,ampersand,616d7065-7273-4616-9e64-2e6b69636164,rev?*%
%TF.SameCoordinates,Original*%
%TF.FileFunction,Legend,Bot*%
%TF.FilePolarity,Positive*%
%FSLAX46Y46*%
G04 Gerber Fmt 4.6, Leading zero omitted, Abs format (unit mm)*
G04 Created by KiCad (PCBNEW (7.0.0)) date 2024-01-19 21:42:38*
%MOMM*%
%LPD*%
G01*
G04 APERTURE LIST*
%ADD10C,0.150000*%
%ADD11C,0.120000*%
%ADD12C,0.170180*%
%ADD13C,0.002540*%
G04 APERTURE END LIST*
D10*
X254196726Y-59101345D02*
X254158630Y-59063250D01*
X254158630Y-59063250D02*
X254082440Y-59025154D01*
X254082440Y-59025154D02*
X253891964Y-59025154D01*
X253891964Y-59025154D02*
X253815773Y-59063250D01*
X253815773Y-59063250D02*
X253777678Y-59101345D01*
X253777678Y-59101345D02*
X253739583Y-59177535D01*
X253739583Y-59177535D02*
X253739583Y-59253726D01*
X253739583Y-59253726D02*
X253777678Y-59368011D01*
X253777678Y-59368011D02*
X254234821Y-59825154D01*
X254234821Y-59825154D02*
X253739583Y-59825154D01*
X253434821Y-59101345D02*
X253396725Y-59063250D01*
X253396725Y-59063250D02*
X253320535Y-59025154D01*
X253320535Y-59025154D02*
X253130059Y-59025154D01*
X253130059Y-59025154D02*
X253053868Y-59063250D01*
X253053868Y-59063250D02*
X253015773Y-59101345D01*
X253015773Y-59101345D02*
X252977678Y-59177535D01*
X252977678Y-59177535D02*
X252977678Y-59253726D01*
X252977678Y-59253726D02*
X253015773Y-59368011D01*
X253015773Y-59368011D02*
X253472916Y-59825154D01*
X253472916Y-59825154D02*
X252977678Y-59825154D01*
X252253868Y-59025154D02*
X252634820Y-59025154D01*
X252634820Y-59025154D02*
X252672916Y-59406107D01*
X252672916Y-59406107D02*
X252634820Y-59368011D01*
X252634820Y-59368011D02*
X252558630Y-59329916D01*
X252558630Y-59329916D02*
X252368154Y-59329916D01*
X252368154Y-59329916D02*
X252291963Y-59368011D01*
X252291963Y-59368011D02*
X252253868Y-59406107D01*
X252253868Y-59406107D02*
X252215773Y-59482297D01*
X252215773Y-59482297D02*
X252215773Y-59672773D01*
X252215773Y-59672773D02*
X252253868Y-59748964D01*
X252253868Y-59748964D02*
X252291963Y-59787059D01*
X252291963Y-59787059D02*
X252368154Y-59825154D01*
X252368154Y-59825154D02*
X252558630Y-59825154D01*
X252558630Y-59825154D02*
X252634820Y-59787059D01*
X252634820Y-59787059D02*
X252672916Y-59748964D01*
X227545833Y-97925154D02*
X228002976Y-97925154D01*
X227774404Y-97925154D02*
X227774404Y-97125154D01*
X227774404Y-97125154D02*
X227850595Y-97239440D01*
X227850595Y-97239440D02*
X227926785Y-97315630D01*
X227926785Y-97315630D02*
X228002976Y-97353726D01*
X226822023Y-97125154D02*
X227202975Y-97125154D01*
X227202975Y-97125154D02*
X227241071Y-97506107D01*
X227241071Y-97506107D02*
X227202975Y-97468011D01*
X227202975Y-97468011D02*
X227126785Y-97429916D01*
X227126785Y-97429916D02*
X226936309Y-97429916D01*
X226936309Y-97429916D02*
X226860118Y-97468011D01*
X226860118Y-97468011D02*
X226822023Y-97506107D01*
X226822023Y-97506107D02*
X226783928Y-97582297D01*
X226783928Y-97582297D02*
X226783928Y-97772773D01*
X226783928Y-97772773D02*
X226822023Y-97848964D01*
X226822023Y-97848964D02*
X226860118Y-97887059D01*
X226860118Y-97887059D02*
X226936309Y-97925154D01*
X226936309Y-97925154D02*
X227126785Y-97925154D01*
X227126785Y-97925154D02*
X227202975Y-97887059D01*
X227202975Y-97887059D02*
X227241071Y-97848964D01*
X226288689Y-97125154D02*
X226212499Y-97125154D01*
X226212499Y-97125154D02*
X226136308Y-97163250D01*
X226136308Y-97163250D02*
X226098213Y-97201345D01*
X226098213Y-97201345D02*
X226060118Y-97277535D01*
X226060118Y-97277535D02*
X226022023Y-97429916D01*
X226022023Y-97429916D02*
X226022023Y-97620392D01*
X226022023Y-97620392D02*
X226060118Y-97772773D01*
X226060118Y-97772773D02*
X226098213Y-97848964D01*
X226098213Y-97848964D02*
X226136308Y-97887059D01*
X226136308Y-97887059D02*
X226212499Y-97925154D01*
X226212499Y-97925154D02*
X226288689Y-97925154D01*
X226288689Y-97925154D02*
X226364880Y-97887059D01*
X226364880Y-97887059D02*
X226402975Y-97848964D01*
X226402975Y-97848964D02*
X226441070Y-97772773D01*
X226441070Y-97772773D02*
X226479166Y-97620392D01*
X226479166Y-97620392D02*
X226479166Y-97429916D01*
X226479166Y-97429916D02*
X226441070Y-97277535D01*
X226441070Y-97277535D02*
X226402975Y-97201345D01*
X226402975Y-97201345D02*
X226364880Y-97163250D01*
X226364880Y-97163250D02*
X226288689Y-97125154D01*
X117741666Y-97125154D02*
X117246428Y-97125154D01*
X117246428Y-97125154D02*
X117513094Y-97429916D01*
X117513094Y-97429916D02*
X117398809Y-97429916D01*
X117398809Y-97429916D02*
X117322618Y-97468011D01*
X117322618Y-97468011D02*
X117284523Y-97506107D01*
X117284523Y-97506107D02*
X117246428Y-97582297D01*
X117246428Y-97582297D02*
X117246428Y-97772773D01*
X117246428Y-97772773D02*
X117284523Y-97848964D01*
X117284523Y-97848964D02*
X117322618Y-97887059D01*
X117322618Y-97887059D02*
X117398809Y-97925154D01*
X117398809Y-97925154D02*
X117627380Y-97925154D01*
X117627380Y-97925154D02*
X117703571Y-97887059D01*
X117703571Y-97887059D02*
X117741666Y-97848964D01*
X161536011Y-85298630D02*
X161536011Y-84298630D01*
X161536011Y-84679583D02*
X161440773Y-84631964D01*
X161440773Y-84631964D02*
X161250297Y-84631964D01*
X161250297Y-84631964D02*
X161155059Y-84679583D01*
X161155059Y-84679583D02*
X161107440Y-84727202D01*
X161107440Y-84727202D02*
X161059821Y-84822440D01*
X161059821Y-84822440D02*
X161059821Y-85108154D01*
X161059821Y-85108154D02*
X161107440Y-85203392D01*
X161107440Y-85203392D02*
X161155059Y-85251011D01*
X161155059Y-85251011D02*
X161250297Y-85298630D01*
X161250297Y-85298630D02*
X161440773Y-85298630D01*
X161440773Y-85298630D02*
X161536011Y-85251011D01*
X160488392Y-85298630D02*
X160583630Y-85251011D01*
X160583630Y-85251011D02*
X160631249Y-85203392D01*
X160631249Y-85203392D02*
X160678868Y-85108154D01*
X160678868Y-85108154D02*
X160678868Y-84822440D01*
X160678868Y-84822440D02*
X160631249Y-84727202D01*
X160631249Y-84727202D02*
X160583630Y-84679583D01*
X160583630Y-84679583D02*
X160488392Y-84631964D01*
X160488392Y-84631964D02*
X160345535Y-84631964D01*
X160345535Y-84631964D02*
X160250297Y-84679583D01*
X160250297Y-84679583D02*
X160202678Y-84727202D01*
X160202678Y-84727202D02*
X160155059Y-84822440D01*
X160155059Y-84822440D02*
X160155059Y-85108154D01*
X160155059Y-85108154D02*
X160202678Y-85203392D01*
X160202678Y-85203392D02*
X160250297Y-85251011D01*
X160250297Y-85251011D02*
X160345535Y-85298630D01*
X160345535Y-85298630D02*
X160488392Y-85298630D01*
X159583630Y-85298630D02*
X159678868Y-85251011D01*
X159678868Y-85251011D02*
X159726487Y-85203392D01*
X159726487Y-85203392D02*
X159774106Y-85108154D01*
X159774106Y-85108154D02*
X159774106Y-84822440D01*
X159774106Y-84822440D02*
X159726487Y-84727202D01*
X159726487Y-84727202D02*
X159678868Y-84679583D01*
X159678868Y-84679583D02*
X159583630Y-84631964D01*
X159583630Y-84631964D02*
X159440773Y-84631964D01*
X159440773Y-84631964D02*
X159345535Y-84679583D01*
X159345535Y-84679583D02*
X159297916Y-84727202D01*
X159297916Y-84727202D02*
X159250297Y-84822440D01*
X159250297Y-84822440D02*
X159250297Y-85108154D01*
X159250297Y-85108154D02*
X159297916Y-85203392D01*
X159297916Y-85203392D02*
X159345535Y-85251011D01*
X159345535Y-85251011D02*
X159440773Y-85298630D01*
X159440773Y-85298630D02*
X159583630Y-85298630D01*
X158964582Y-84631964D02*
X158583630Y-84631964D01*
X158821725Y-84298630D02*
X158821725Y-85155773D01*
X158821725Y-85155773D02*
X158774106Y-85251011D01*
X158774106Y-85251011D02*
X158678868Y-85298630D01*
X158678868Y-85298630D02*
X158583630Y-85298630D01*
X29902083Y-59825154D02*
X30359226Y-59825154D01*
X30130654Y-59825154D02*
X30130654Y-59025154D01*
X30130654Y-59025154D02*
X30206845Y-59139440D01*
X30206845Y-59139440D02*
X30283035Y-59215630D01*
X30283035Y-59215630D02*
X30359226Y-59253726D01*
X29597321Y-59101345D02*
X29559225Y-59063250D01*
X29559225Y-59063250D02*
X29483035Y-59025154D01*
X29483035Y-59025154D02*
X29292559Y-59025154D01*
X29292559Y-59025154D02*
X29216368Y-59063250D01*
X29216368Y-59063250D02*
X29178273Y-59101345D01*
X29178273Y-59101345D02*
X29140178Y-59177535D01*
X29140178Y-59177535D02*
X29140178Y-59253726D01*
X29140178Y-59253726D02*
X29178273Y-59368011D01*
X29178273Y-59368011D02*
X29635416Y-59825154D01*
X29635416Y-59825154D02*
X29140178Y-59825154D01*
X28416368Y-59025154D02*
X28797320Y-59025154D01*
X28797320Y-59025154D02*
X28835416Y-59406107D01*
X28835416Y-59406107D02*
X28797320Y-59368011D01*
X28797320Y-59368011D02*
X28721130Y-59329916D01*
X28721130Y-59329916D02*
X28530654Y-59329916D01*
X28530654Y-59329916D02*
X28454463Y-59368011D01*
X28454463Y-59368011D02*
X28416368Y-59406107D01*
X28416368Y-59406107D02*
X28378273Y-59482297D01*
X28378273Y-59482297D02*
X28378273Y-59672773D01*
X28378273Y-59672773D02*
X28416368Y-59748964D01*
X28416368Y-59748964D02*
X28454463Y-59787059D01*
X28454463Y-59787059D02*
X28530654Y-59825154D01*
X28530654Y-59825154D02*
X28721130Y-59825154D01*
X28721130Y-59825154D02*
X28797320Y-59787059D01*
X28797320Y-59787059D02*
X28835416Y-59748964D01*
X263264583Y-59825154D02*
X263721726Y-59825154D01*
X263493154Y-59825154D02*
X263493154Y-59025154D01*
X263493154Y-59025154D02*
X263569345Y-59139440D01*
X263569345Y-59139440D02*
X263645535Y-59215630D01*
X263645535Y-59215630D02*
X263721726Y-59253726D01*
X262959821Y-59101345D02*
X262921725Y-59063250D01*
X262921725Y-59063250D02*
X262845535Y-59025154D01*
X262845535Y-59025154D02*
X262655059Y-59025154D01*
X262655059Y-59025154D02*
X262578868Y-59063250D01*
X262578868Y-59063250D02*
X262540773Y-59101345D01*
X262540773Y-59101345D02*
X262502678Y-59177535D01*
X262502678Y-59177535D02*
X262502678Y-59253726D01*
X262502678Y-59253726D02*
X262540773Y-59368011D01*
X262540773Y-59368011D02*
X262997916Y-59825154D01*
X262997916Y-59825154D02*
X262502678Y-59825154D01*
X261778868Y-59025154D02*
X262159820Y-59025154D01*
X262159820Y-59025154D02*
X262197916Y-59406107D01*
X262197916Y-59406107D02*
X262159820Y-59368011D01*
X262159820Y-59368011D02*
X262083630Y-59329916D01*
X262083630Y-59329916D02*
X261893154Y-59329916D01*
X261893154Y-59329916D02*
X261816963Y-59368011D01*
X261816963Y-59368011D02*
X261778868Y-59406107D01*
X261778868Y-59406107D02*
X261740773Y-59482297D01*
X261740773Y-59482297D02*
X261740773Y-59672773D01*
X261740773Y-59672773D02*
X261778868Y-59748964D01*
X261778868Y-59748964D02*
X261816963Y-59787059D01*
X261816963Y-59787059D02*
X261893154Y-59825154D01*
X261893154Y-59825154D02*
X262083630Y-59825154D01*
X262083630Y-59825154D02*
X262159820Y-59787059D01*
X262159820Y-59787059D02*
X262197916Y-59748964D01*
X263531249Y-49506404D02*
X263531249Y-48706404D01*
X263188393Y-49468309D02*
X263074107Y-49506404D01*
X263074107Y-49506404D02*
X262883631Y-49506404D01*
X262883631Y-49506404D02*
X262807440Y-49468309D01*
X262807440Y-49468309D02*
X262769345Y-49430214D01*
X262769345Y-49430214D02*
X262731250Y-49354023D01*
X262731250Y-49354023D02*
X262731250Y-49277833D01*
X262731250Y-49277833D02*
X262769345Y-49201642D01*
X262769345Y-49201642D02*
X262807440Y-49163547D01*
X262807440Y-49163547D02*
X262883631Y-49125452D01*
X262883631Y-49125452D02*
X263036012Y-49087357D01*
X263036012Y-49087357D02*
X263112202Y-49049261D01*
X263112202Y-49049261D02*
X263150297Y-49011166D01*
X263150297Y-49011166D02*
X263188393Y-48934976D01*
X263188393Y-48934976D02*
X263188393Y-48858785D01*
X263188393Y-48858785D02*
X263150297Y-48782595D01*
X263150297Y-48782595D02*
X263112202Y-48744500D01*
X263112202Y-48744500D02*
X263036012Y-48706404D01*
X263036012Y-48706404D02*
X262845535Y-48706404D01*
X262845535Y-48706404D02*
X262731250Y-48744500D01*
X262236011Y-48706404D02*
X262083630Y-48706404D01*
X262083630Y-48706404D02*
X262007440Y-48744500D01*
X262007440Y-48744500D02*
X261931249Y-48820690D01*
X261931249Y-48820690D02*
X261893154Y-48973071D01*
X261893154Y-48973071D02*
X261893154Y-49239738D01*
X261893154Y-49239738D02*
X261931249Y-49392119D01*
X261931249Y-49392119D02*
X262007440Y-49468309D01*
X262007440Y-49468309D02*
X262083630Y-49506404D01*
X262083630Y-49506404D02*
X262236011Y-49506404D01*
X262236011Y-49506404D02*
X262312202Y-49468309D01*
X262312202Y-49468309D02*
X262388392Y-49392119D01*
X262388392Y-49392119D02*
X262426488Y-49239738D01*
X262426488Y-49239738D02*
X262426488Y-48973071D01*
X262426488Y-48973071D02*
X262388392Y-48820690D01*
X262388392Y-48820690D02*
X262312202Y-48744500D01*
X262312202Y-48744500D02*
X262236011Y-48706404D01*
X241071428Y-59825154D02*
X241528571Y-59825154D01*
X241299999Y-59825154D02*
X241299999Y-59025154D01*
X241299999Y-59025154D02*
X241376190Y-59139440D01*
X241376190Y-59139440D02*
X241452380Y-59215630D01*
X241452380Y-59215630D02*
X241528571Y-59253726D01*
X260883333Y-40775154D02*
X261340476Y-40775154D01*
X261111904Y-40775154D02*
X261111904Y-39975154D01*
X261111904Y-39975154D02*
X261188095Y-40089440D01*
X261188095Y-40089440D02*
X261264285Y-40165630D01*
X261264285Y-40165630D02*
X261340476Y-40203726D01*
X260159523Y-39975154D02*
X260540475Y-39975154D01*
X260540475Y-39975154D02*
X260578571Y-40356107D01*
X260578571Y-40356107D02*
X260540475Y-40318011D01*
X260540475Y-40318011D02*
X260464285Y-40279916D01*
X260464285Y-40279916D02*
X260273809Y-40279916D01*
X260273809Y-40279916D02*
X260197618Y-40318011D01*
X260197618Y-40318011D02*
X260159523Y-40356107D01*
X260159523Y-40356107D02*
X260121428Y-40432297D01*
X260121428Y-40432297D02*
X260121428Y-40622773D01*
X260121428Y-40622773D02*
X260159523Y-40698964D01*
X260159523Y-40698964D02*
X260197618Y-40737059D01*
X260197618Y-40737059D02*
X260273809Y-40775154D01*
X260273809Y-40775154D02*
X260464285Y-40775154D01*
X260464285Y-40775154D02*
X260540475Y-40737059D01*
X260540475Y-40737059D02*
X260578571Y-40698964D01*
X259626189Y-39975154D02*
X259549999Y-39975154D01*
X259549999Y-39975154D02*
X259473808Y-40013250D01*
X259473808Y-40013250D02*
X259435713Y-40051345D01*
X259435713Y-40051345D02*
X259397618Y-40127535D01*
X259397618Y-40127535D02*
X259359523Y-40279916D01*
X259359523Y-40279916D02*
X259359523Y-40470392D01*
X259359523Y-40470392D02*
X259397618Y-40622773D01*
X259397618Y-40622773D02*
X259435713Y-40698964D01*
X259435713Y-40698964D02*
X259473808Y-40737059D01*
X259473808Y-40737059D02*
X259549999Y-40775154D01*
X259549999Y-40775154D02*
X259626189Y-40775154D01*
X259626189Y-40775154D02*
X259702380Y-40737059D01*
X259702380Y-40737059D02*
X259740475Y-40698964D01*
X259740475Y-40698964D02*
X259778570Y-40622773D01*
X259778570Y-40622773D02*
X259816666Y-40470392D01*
X259816666Y-40470392D02*
X259816666Y-40279916D01*
X259816666Y-40279916D02*
X259778570Y-40127535D01*
X259778570Y-40127535D02*
X259740475Y-40051345D01*
X259740475Y-40051345D02*
X259702380Y-40013250D01*
X259702380Y-40013250D02*
X259626189Y-39975154D01*
X231546428Y-97925154D02*
X232003571Y-97925154D01*
X231774999Y-97925154D02*
X231774999Y-97125154D01*
X231774999Y-97125154D02*
X231851190Y-97239440D01*
X231851190Y-97239440D02*
X231927380Y-97315630D01*
X231927380Y-97315630D02*
X232003571Y-97353726D01*
X212496428Y-97925154D02*
X212953571Y-97925154D01*
X212724999Y-97925154D02*
X212724999Y-97125154D01*
X212724999Y-97125154D02*
X212801190Y-97239440D01*
X212801190Y-97239440D02*
X212877380Y-97315630D01*
X212877380Y-97315630D02*
X212953571Y-97353726D01*
X231546428Y-78875154D02*
X232003571Y-78875154D01*
X231774999Y-78875154D02*
X231774999Y-78075154D01*
X231774999Y-78075154D02*
X231851190Y-78189440D01*
X231851190Y-78189440D02*
X231927380Y-78265630D01*
X231927380Y-78265630D02*
X232003571Y-78303726D01*
X258502083Y-78875154D02*
X258959226Y-78875154D01*
X258730654Y-78875154D02*
X258730654Y-78075154D01*
X258730654Y-78075154D02*
X258806845Y-78189440D01*
X258806845Y-78189440D02*
X258883035Y-78265630D01*
X258883035Y-78265630D02*
X258959226Y-78303726D01*
X258235416Y-78075154D02*
X257702082Y-78075154D01*
X257702082Y-78075154D02*
X258044940Y-78875154D01*
X257016368Y-78075154D02*
X257397320Y-78075154D01*
X257397320Y-78075154D02*
X257435416Y-78456107D01*
X257435416Y-78456107D02*
X257397320Y-78418011D01*
X257397320Y-78418011D02*
X257321130Y-78379916D01*
X257321130Y-78379916D02*
X257130654Y-78379916D01*
X257130654Y-78379916D02*
X257054463Y-78418011D01*
X257054463Y-78418011D02*
X257016368Y-78456107D01*
X257016368Y-78456107D02*
X256978273Y-78532297D01*
X256978273Y-78532297D02*
X256978273Y-78722773D01*
X256978273Y-78722773D02*
X257016368Y-78798964D01*
X257016368Y-78798964D02*
X257054463Y-78837059D01*
X257054463Y-78837059D02*
X257130654Y-78875154D01*
X257130654Y-78875154D02*
X257321130Y-78875154D01*
X257321130Y-78875154D02*
X257397320Y-78837059D01*
X257397320Y-78837059D02*
X257435416Y-78798964D01*
X249434226Y-78151345D02*
X249396130Y-78113250D01*
X249396130Y-78113250D02*
X249319940Y-78075154D01*
X249319940Y-78075154D02*
X249129464Y-78075154D01*
X249129464Y-78075154D02*
X249053273Y-78113250D01*
X249053273Y-78113250D02*
X249015178Y-78151345D01*
X249015178Y-78151345D02*
X248977083Y-78227535D01*
X248977083Y-78227535D02*
X248977083Y-78303726D01*
X248977083Y-78303726D02*
X249015178Y-78418011D01*
X249015178Y-78418011D02*
X249472321Y-78875154D01*
X249472321Y-78875154D02*
X248977083Y-78875154D01*
X248710416Y-78075154D02*
X248177082Y-78075154D01*
X248177082Y-78075154D02*
X248519940Y-78875154D01*
X247491368Y-78075154D02*
X247872320Y-78075154D01*
X247872320Y-78075154D02*
X247910416Y-78456107D01*
X247910416Y-78456107D02*
X247872320Y-78418011D01*
X247872320Y-78418011D02*
X247796130Y-78379916D01*
X247796130Y-78379916D02*
X247605654Y-78379916D01*
X247605654Y-78379916D02*
X247529463Y-78418011D01*
X247529463Y-78418011D02*
X247491368Y-78456107D01*
X247491368Y-78456107D02*
X247453273Y-78532297D01*
X247453273Y-78532297D02*
X247453273Y-78722773D01*
X247453273Y-78722773D02*
X247491368Y-78798964D01*
X247491368Y-78798964D02*
X247529463Y-78837059D01*
X247529463Y-78837059D02*
X247605654Y-78875154D01*
X247605654Y-78875154D02*
X247796130Y-78875154D01*
X247796130Y-78875154D02*
X247872320Y-78837059D01*
X247872320Y-78837059D02*
X247910416Y-78798964D01*
X60096428Y-97925154D02*
X60553571Y-97925154D01*
X60324999Y-97925154D02*
X60324999Y-97125154D01*
X60324999Y-97125154D02*
X60401190Y-97239440D01*
X60401190Y-97239440D02*
X60477380Y-97315630D01*
X60477380Y-97315630D02*
X60553571Y-97353726D01*
X145897617Y-94529982D02*
X146049998Y-94529982D01*
X146049998Y-94529982D02*
X146126189Y-94568078D01*
X146126189Y-94568078D02*
X146164284Y-94606173D01*
X146164284Y-94606173D02*
X146240474Y-94720458D01*
X146240474Y-94720458D02*
X146278570Y-94872839D01*
X146278570Y-94872839D02*
X146278570Y-95177601D01*
X146278570Y-95177601D02*
X146240474Y-95253792D01*
X146240474Y-95253792D02*
X146202379Y-95291887D01*
X146202379Y-95291887D02*
X146126189Y-95329982D01*
X146126189Y-95329982D02*
X145973808Y-95329982D01*
X145973808Y-95329982D02*
X145897617Y-95291887D01*
X145897617Y-95291887D02*
X145859522Y-95253792D01*
X145859522Y-95253792D02*
X145821427Y-95177601D01*
X145821427Y-95177601D02*
X145821427Y-94987125D01*
X145821427Y-94987125D02*
X145859522Y-94910935D01*
X145859522Y-94910935D02*
X145897617Y-94872839D01*
X145897617Y-94872839D02*
X145973808Y-94834744D01*
X145973808Y-94834744D02*
X146126189Y-94834744D01*
X146126189Y-94834744D02*
X146202379Y-94872839D01*
X146202379Y-94872839D02*
X146240474Y-94910935D01*
X146240474Y-94910935D02*
X146278570Y-94987125D01*
X146316665Y-95825982D02*
X145783331Y-95825982D01*
X145783331Y-95825982D02*
X146126189Y-96625982D01*
X146202380Y-97921982D02*
X146659523Y-97921982D01*
X146430951Y-97921982D02*
X146430951Y-97121982D01*
X146430951Y-97121982D02*
X146507142Y-97236268D01*
X146507142Y-97236268D02*
X146583332Y-97312458D01*
X146583332Y-97312458D02*
X146659523Y-97350554D01*
X145707141Y-97121982D02*
X145630951Y-97121982D01*
X145630951Y-97121982D02*
X145554760Y-97160078D01*
X145554760Y-97160078D02*
X145516665Y-97198173D01*
X145516665Y-97198173D02*
X145478570Y-97274363D01*
X145478570Y-97274363D02*
X145440475Y-97426744D01*
X145440475Y-97426744D02*
X145440475Y-97617220D01*
X145440475Y-97617220D02*
X145478570Y-97769601D01*
X145478570Y-97769601D02*
X145516665Y-97845792D01*
X145516665Y-97845792D02*
X145554760Y-97883887D01*
X145554760Y-97883887D02*
X145630951Y-97921982D01*
X145630951Y-97921982D02*
X145707141Y-97921982D01*
X145707141Y-97921982D02*
X145783332Y-97883887D01*
X145783332Y-97883887D02*
X145821427Y-97845792D01*
X145821427Y-97845792D02*
X145859522Y-97769601D01*
X145859522Y-97769601D02*
X145897618Y-97617220D01*
X145897618Y-97617220D02*
X145897618Y-97426744D01*
X145897618Y-97426744D02*
X145859522Y-97274363D01*
X145859522Y-97274363D02*
X145821427Y-97198173D01*
X145821427Y-97198173D02*
X145783332Y-97160078D01*
X145783332Y-97160078D02*
X145707141Y-97121982D01*
X65620833Y-97925154D02*
X66077976Y-97925154D01*
X65849404Y-97925154D02*
X65849404Y-97125154D01*
X65849404Y-97125154D02*
X65925595Y-97239440D01*
X65925595Y-97239440D02*
X66001785Y-97315630D01*
X66001785Y-97315630D02*
X66077976Y-97353726D01*
X64897023Y-97125154D02*
X65277975Y-97125154D01*
X65277975Y-97125154D02*
X65316071Y-97506107D01*
X65316071Y-97506107D02*
X65277975Y-97468011D01*
X65277975Y-97468011D02*
X65201785Y-97429916D01*
X65201785Y-97429916D02*
X65011309Y-97429916D01*
X65011309Y-97429916D02*
X64935118Y-97468011D01*
X64935118Y-97468011D02*
X64897023Y-97506107D01*
X64897023Y-97506107D02*
X64858928Y-97582297D01*
X64858928Y-97582297D02*
X64858928Y-97772773D01*
X64858928Y-97772773D02*
X64897023Y-97848964D01*
X64897023Y-97848964D02*
X64935118Y-97887059D01*
X64935118Y-97887059D02*
X65011309Y-97925154D01*
X65011309Y-97925154D02*
X65201785Y-97925154D01*
X65201785Y-97925154D02*
X65277975Y-97887059D01*
X65277975Y-97887059D02*
X65316071Y-97848964D01*
X64363689Y-97125154D02*
X64287499Y-97125154D01*
X64287499Y-97125154D02*
X64211308Y-97163250D01*
X64211308Y-97163250D02*
X64173213Y-97201345D01*
X64173213Y-97201345D02*
X64135118Y-97277535D01*
X64135118Y-97277535D02*
X64097023Y-97429916D01*
X64097023Y-97429916D02*
X64097023Y-97620392D01*
X64097023Y-97620392D02*
X64135118Y-97772773D01*
X64135118Y-97772773D02*
X64173213Y-97848964D01*
X64173213Y-97848964D02*
X64211308Y-97887059D01*
X64211308Y-97887059D02*
X64287499Y-97925154D01*
X64287499Y-97925154D02*
X64363689Y-97925154D01*
X64363689Y-97925154D02*
X64439880Y-97887059D01*
X64439880Y-97887059D02*
X64477975Y-97848964D01*
X64477975Y-97848964D02*
X64516070Y-97772773D01*
X64516070Y-97772773D02*
X64554166Y-97620392D01*
X64554166Y-97620392D02*
X64554166Y-97429916D01*
X64554166Y-97429916D02*
X64516070Y-97277535D01*
X64516070Y-97277535D02*
X64477975Y-97201345D01*
X64477975Y-97201345D02*
X64439880Y-97163250D01*
X64439880Y-97163250D02*
X64363689Y-97125154D01*
X79146428Y-97925154D02*
X79603571Y-97925154D01*
X79374999Y-97925154D02*
X79374999Y-97125154D01*
X79374999Y-97125154D02*
X79451190Y-97239440D01*
X79451190Y-97239440D02*
X79527380Y-97315630D01*
X79527380Y-97315630D02*
X79603571Y-97353726D01*
X34664583Y-78875154D02*
X35121726Y-78875154D01*
X34893154Y-78875154D02*
X34893154Y-78075154D01*
X34893154Y-78075154D02*
X34969345Y-78189440D01*
X34969345Y-78189440D02*
X35045535Y-78265630D01*
X35045535Y-78265630D02*
X35121726Y-78303726D01*
X34397916Y-78075154D02*
X33864582Y-78075154D01*
X33864582Y-78075154D02*
X34207440Y-78875154D01*
X33178868Y-78075154D02*
X33559820Y-78075154D01*
X33559820Y-78075154D02*
X33597916Y-78456107D01*
X33597916Y-78456107D02*
X33559820Y-78418011D01*
X33559820Y-78418011D02*
X33483630Y-78379916D01*
X33483630Y-78379916D02*
X33293154Y-78379916D01*
X33293154Y-78379916D02*
X33216963Y-78418011D01*
X33216963Y-78418011D02*
X33178868Y-78456107D01*
X33178868Y-78456107D02*
X33140773Y-78532297D01*
X33140773Y-78532297D02*
X33140773Y-78722773D01*
X33140773Y-78722773D02*
X33178868Y-78798964D01*
X33178868Y-78798964D02*
X33216963Y-78837059D01*
X33216963Y-78837059D02*
X33293154Y-78875154D01*
X33293154Y-78875154D02*
X33483630Y-78875154D01*
X33483630Y-78875154D02*
X33559820Y-78837059D01*
X33559820Y-78837059D02*
X33597916Y-78798964D01*
X174891666Y-97125154D02*
X174396428Y-97125154D01*
X174396428Y-97125154D02*
X174663094Y-97429916D01*
X174663094Y-97429916D02*
X174548809Y-97429916D01*
X174548809Y-97429916D02*
X174472618Y-97468011D01*
X174472618Y-97468011D02*
X174434523Y-97506107D01*
X174434523Y-97506107D02*
X174396428Y-97582297D01*
X174396428Y-97582297D02*
X174396428Y-97772773D01*
X174396428Y-97772773D02*
X174434523Y-97848964D01*
X174434523Y-97848964D02*
X174472618Y-97887059D01*
X174472618Y-97887059D02*
X174548809Y-97925154D01*
X174548809Y-97925154D02*
X174777380Y-97925154D01*
X174777380Y-97925154D02*
X174853571Y-97887059D01*
X174853571Y-97887059D02*
X174891666Y-97848964D01*
%TO.C,G\u002A\u002A\u002A*%
G36*
X130716780Y-97624370D02*
G01*
X130716780Y-98140351D01*
X130668622Y-98140351D01*
X130620463Y-98140351D01*
X130620463Y-97624370D01*
X130620463Y-97108390D01*
X130668622Y-97108390D01*
X130716780Y-97108390D01*
X130716780Y-97624370D01*
G37*
G36*
X131666184Y-97624370D02*
G01*
X131666184Y-98140351D01*
X131507078Y-98140351D01*
X131347972Y-98140351D01*
X131352284Y-98095633D01*
X131356596Y-98050914D01*
X131463232Y-98046896D01*
X131569868Y-98042877D01*
X131569868Y-97575633D01*
X131569868Y-97108390D01*
X131618026Y-97108390D01*
X131666184Y-97108390D01*
X131666184Y-97624370D01*
G37*
G36*
X133854665Y-97108536D02*
G01*
X133869569Y-97111340D01*
X133874826Y-97120256D01*
X133869458Y-97138734D01*
X133852493Y-97170229D01*
X133822953Y-97218192D01*
X133779864Y-97286077D01*
X133688827Y-97429365D01*
X133688827Y-97784858D01*
X133688827Y-98140351D01*
X133640669Y-98140351D01*
X133592511Y-98140351D01*
X133592511Y-97789010D01*
X133592511Y-97437670D01*
X133490136Y-97273030D01*
X133387761Y-97108390D01*
X133445418Y-97108747D01*
X133453657Y-97108817D01*
X133478618Y-97110579D01*
X133497713Y-97118074D01*
X133515957Y-97135764D01*
X133538362Y-97168111D01*
X133569940Y-97219577D01*
X133636806Y-97330051D01*
X133706259Y-97219220D01*
X133713661Y-97207422D01*
X133744167Y-97160040D01*
X133766147Y-97130844D01*
X133784513Y-97115437D01*
X133804178Y-97109419D01*
X133830058Y-97108390D01*
X133831088Y-97108389D01*
X133854665Y-97108536D01*
G37*
G36*
X130207679Y-97178414D02*
G01*
X130207679Y-97248438D01*
X130338733Y-97178414D01*
X130382189Y-97155588D01*
X130430677Y-97131176D01*
X130466216Y-97114539D01*
X130483207Y-97108390D01*
X130484876Y-97110968D01*
X130488336Y-97136098D01*
X130491238Y-97187012D01*
X130493549Y-97262502D01*
X130495239Y-97361363D01*
X130496276Y-97482388D01*
X130496628Y-97624370D01*
X130496628Y-98140351D01*
X130448470Y-98140351D01*
X130400312Y-98140351D01*
X130400312Y-97700048D01*
X130400222Y-97637850D01*
X130399659Y-97535886D01*
X130398640Y-97445159D01*
X130397229Y-97368924D01*
X130395493Y-97310440D01*
X130393500Y-97272961D01*
X130391314Y-97259744D01*
X130390677Y-97259820D01*
X130372951Y-97267328D01*
X130338808Y-97284722D01*
X130294998Y-97308576D01*
X130207679Y-97357407D01*
X130207679Y-97748879D01*
X130207679Y-98140351D01*
X130159521Y-98140351D01*
X130111363Y-98140351D01*
X130111363Y-97624370D01*
X130111363Y-97108390D01*
X130159521Y-97108390D01*
X130207679Y-97108390D01*
X130207679Y-97178414D01*
G37*
G36*
X135683952Y-97105186D02*
G01*
X135716810Y-97108785D01*
X135796809Y-97130223D01*
X135877881Y-97166320D01*
X135950497Y-97212374D01*
X136005128Y-97263682D01*
X136027187Y-97292499D01*
X136089132Y-97400120D01*
X136125108Y-97513806D01*
X136134817Y-97630946D01*
X136117957Y-97748929D01*
X136074229Y-97865144D01*
X136028066Y-97942831D01*
X135957242Y-98021364D01*
X135870078Y-98079214D01*
X135763342Y-98119018D01*
X135736862Y-98125508D01*
X135685555Y-98135225D01*
X135645242Y-98139445D01*
X135645211Y-98139446D01*
X135614387Y-98137905D01*
X135603228Y-98126081D01*
X135603963Y-98095748D01*
X135607093Y-98073776D01*
X135616439Y-98057189D01*
X135638599Y-98047921D01*
X135680839Y-98040776D01*
X135709903Y-98035656D01*
X135808063Y-98002291D01*
X135891333Y-97948456D01*
X135957775Y-97877359D01*
X136005452Y-97792210D01*
X136032429Y-97696217D01*
X136036768Y-97592589D01*
X136016533Y-97484536D01*
X135994417Y-97426027D01*
X135939677Y-97337631D01*
X135866321Y-97268579D01*
X135776428Y-97220616D01*
X135672076Y-97195485D01*
X135633148Y-97190237D01*
X135610612Y-97182897D01*
X135603090Y-97169186D01*
X135604113Y-97144226D01*
X135604278Y-97142532D01*
X135607943Y-97118925D01*
X135617687Y-97107157D01*
X135640645Y-97103740D01*
X135683952Y-97105186D01*
G37*
G36*
X132436715Y-97105186D02*
G01*
X132469573Y-97108785D01*
X132549572Y-97130223D01*
X132630644Y-97166320D01*
X132703260Y-97212374D01*
X132757890Y-97263682D01*
X132779949Y-97292499D01*
X132841894Y-97400120D01*
X132877871Y-97513806D01*
X132887580Y-97630946D01*
X132870720Y-97748929D01*
X132826992Y-97865144D01*
X132780828Y-97942831D01*
X132710005Y-98021364D01*
X132622841Y-98079214D01*
X132516105Y-98119018D01*
X132489625Y-98125508D01*
X132438317Y-98135225D01*
X132398004Y-98139445D01*
X132397974Y-98139446D01*
X132367150Y-98137905D01*
X132355991Y-98126081D01*
X132356726Y-98095748D01*
X132359856Y-98073776D01*
X132369202Y-98057189D01*
X132391362Y-98047921D01*
X132433602Y-98040776D01*
X132462666Y-98035656D01*
X132560826Y-98002291D01*
X132644096Y-97948456D01*
X132710537Y-97877359D01*
X132758215Y-97792210D01*
X132785192Y-97696217D01*
X132789531Y-97592589D01*
X132769296Y-97484536D01*
X132747179Y-97426027D01*
X132692439Y-97337631D01*
X132619084Y-97268579D01*
X132529191Y-97220616D01*
X132424839Y-97195485D01*
X132385911Y-97190237D01*
X132363375Y-97182897D01*
X132355853Y-97169186D01*
X132356875Y-97144226D01*
X132357041Y-97142532D01*
X132360706Y-97118925D01*
X132370450Y-97107157D01*
X132393408Y-97103740D01*
X132436715Y-97105186D01*
G37*
G36*
X132106487Y-97356061D02*
G01*
X132147050Y-97356061D01*
X132173259Y-97357673D01*
X132181346Y-97368195D01*
X132173703Y-97395961D01*
X132156494Y-97425671D01*
X132133141Y-97442831D01*
X132130649Y-97443546D01*
X132122991Y-97447684D01*
X132117146Y-97456736D01*
X132112871Y-97473931D01*
X132109921Y-97502498D01*
X132108052Y-97545667D01*
X132107020Y-97606667D01*
X132106580Y-97688726D01*
X132106487Y-97795076D01*
X132106487Y-98140351D01*
X132058329Y-98140351D01*
X132010171Y-98140351D01*
X132010171Y-97789484D01*
X132010171Y-97438617D01*
X131934494Y-97438617D01*
X131858817Y-97438617D01*
X131858817Y-97789484D01*
X131858817Y-98140351D01*
X131810658Y-98140351D01*
X131762500Y-98140351D01*
X131762500Y-97657711D01*
X131762500Y-97356061D01*
X131857443Y-97356061D01*
X132011544Y-97356061D01*
X132007418Y-97277876D01*
X132005223Y-97245343D01*
X131999740Y-97214475D01*
X131988723Y-97198799D01*
X131968892Y-97190907D01*
X131941574Y-97187341D01*
X131900095Y-97190539D01*
X131885440Y-97195266D01*
X131872027Y-97207416D01*
X131865156Y-97232379D01*
X131861570Y-97277508D01*
X131857443Y-97356061D01*
X131762500Y-97356061D01*
X131762500Y-97175070D01*
X131801708Y-97135862D01*
X131802810Y-97134771D01*
X131858514Y-97098433D01*
X131925561Y-97084063D01*
X131997001Y-97093181D01*
X132040292Y-97111162D01*
X132078762Y-97145704D01*
X132099980Y-97196786D01*
X132106487Y-97268480D01*
X132106487Y-97356061D01*
G37*
G36*
X130834079Y-97108400D02*
G01*
X130870945Y-97114308D01*
X130887054Y-97132469D01*
X130887453Y-97133894D01*
X130893483Y-97157828D01*
X130904538Y-97203394D01*
X130919538Y-97266089D01*
X130937407Y-97341411D01*
X130957065Y-97424858D01*
X130959981Y-97437259D01*
X130979652Y-97519888D01*
X130997639Y-97593780D01*
X131012814Y-97654416D01*
X131024050Y-97697277D01*
X131030218Y-97717844D01*
X131030638Y-97718661D01*
X131037554Y-97711954D01*
X131049379Y-97679028D01*
X131065902Y-97620622D01*
X131086913Y-97537477D01*
X131112199Y-97430331D01*
X131124572Y-97376840D01*
X131144213Y-97293165D01*
X131161496Y-97221055D01*
X131175488Y-97164328D01*
X131185256Y-97126802D01*
X131189870Y-97112295D01*
X131205421Y-97109476D01*
X131236030Y-97110859D01*
X131276345Y-97115270D01*
X131158815Y-97622548D01*
X131140791Y-97699913D01*
X131109450Y-97831820D01*
X131083427Y-97937372D01*
X131062616Y-98016973D01*
X131046907Y-98071030D01*
X131036193Y-98099947D01*
X131030366Y-98104130D01*
X131026458Y-98091485D01*
X131016394Y-98053888D01*
X131001431Y-97995349D01*
X130982387Y-97919154D01*
X130960083Y-97828589D01*
X130935337Y-97726939D01*
X130908971Y-97617491D01*
X130888387Y-97531726D01*
X130863471Y-97428237D01*
X130840977Y-97335167D01*
X130821700Y-97255786D01*
X130806433Y-97193363D01*
X130795971Y-97151168D01*
X130791109Y-97132469D01*
X130789359Y-97120438D01*
X130799977Y-97110813D01*
X130831881Y-97108390D01*
X130834079Y-97108400D01*
G37*
G36*
X136715913Y-97626582D02*
G01*
X136715913Y-98140351D01*
X136667755Y-98140351D01*
X136619597Y-98140351D01*
X136619597Y-98038686D01*
X136619597Y-97937021D01*
X136568848Y-97927501D01*
X136553008Y-97923955D01*
X136490211Y-97901924D01*
X136424352Y-97869230D01*
X136365425Y-97831322D01*
X136323428Y-97793653D01*
X136318985Y-97788322D01*
X136268015Y-97710025D01*
X136238721Y-97623119D01*
X136232315Y-97556808D01*
X136322139Y-97556808D01*
X136337376Y-97630832D01*
X136372830Y-97704151D01*
X136429331Y-97762359D01*
X136509521Y-97809010D01*
X136511148Y-97809748D01*
X136545141Y-97825327D01*
X136571192Y-97835420D01*
X136590352Y-97837275D01*
X136603676Y-97828136D01*
X136612216Y-97805251D01*
X136617024Y-97765866D01*
X136619156Y-97707228D01*
X136619662Y-97626582D01*
X136619597Y-97521174D01*
X136619491Y-97450613D01*
X136618834Y-97363064D01*
X136617421Y-97298112D01*
X136615073Y-97252779D01*
X136611612Y-97224086D01*
X136606860Y-97209055D01*
X136600638Y-97204706D01*
X136574778Y-97208945D01*
X136525620Y-97229087D01*
X136471252Y-97261815D01*
X136419879Y-97302681D01*
X136401201Y-97320957D01*
X136349258Y-97391586D01*
X136323257Y-97469286D01*
X136322139Y-97556808D01*
X136232315Y-97556808D01*
X136228873Y-97521174D01*
X136228833Y-97512023D01*
X136231517Y-97448642D01*
X136241051Y-97399607D01*
X136259523Y-97353495D01*
X136295649Y-97295740D01*
X136363116Y-97226211D01*
X136446609Y-97169563D01*
X136539909Y-97129795D01*
X136636796Y-97110908D01*
X136715913Y-97105082D01*
X136715913Y-97622717D01*
X136715913Y-97626582D01*
G37*
G36*
X128816029Y-97246478D02*
G01*
X128816221Y-97248165D01*
X128825040Y-97325706D01*
X128830133Y-97380234D01*
X128830350Y-97416055D01*
X128824544Y-97437474D01*
X128811565Y-97448799D01*
X128790265Y-97454336D01*
X128759494Y-97458390D01*
X128736330Y-97461957D01*
X128638926Y-97490382D01*
X128560520Y-97537522D01*
X128502183Y-97602554D01*
X128464987Y-97684656D01*
X128451804Y-97759737D01*
X128457054Y-97844637D01*
X128482735Y-97921910D01*
X128527022Y-97986399D01*
X128588094Y-98032949D01*
X128601612Y-98039618D01*
X128641369Y-98053729D01*
X128687985Y-98060449D01*
X128751657Y-98061561D01*
X128793485Y-98061133D01*
X128830720Y-98062488D01*
X128851734Y-98067943D01*
X128863015Y-98079553D01*
X128871052Y-98099372D01*
X128876042Y-98115247D01*
X128876592Y-98135813D01*
X128861690Y-98144818D01*
X128858624Y-98145473D01*
X128829728Y-98148489D01*
X128783544Y-98150951D01*
X128728535Y-98152380D01*
X128651206Y-98148251D01*
X128556196Y-98124443D01*
X128479009Y-98079678D01*
X128419776Y-98014074D01*
X128378630Y-97927747D01*
X128355703Y-97820816D01*
X128353189Y-97744405D01*
X128371362Y-97644125D01*
X128413316Y-97554490D01*
X128477294Y-97478038D01*
X128561538Y-97417310D01*
X128664290Y-97374847D01*
X128737639Y-97353461D01*
X128728074Y-97282524D01*
X128724190Y-97256112D01*
X128717589Y-97219857D01*
X128712390Y-97201266D01*
X128709624Y-97199498D01*
X128685831Y-97195130D01*
X128643735Y-97192088D01*
X128590128Y-97190947D01*
X128473985Y-97190947D01*
X128473985Y-97149668D01*
X128473985Y-97108390D01*
X128637156Y-97108390D01*
X128800327Y-97108390D01*
X128816029Y-97246478D01*
G37*
G36*
X135436281Y-97279426D02*
G01*
X135436281Y-97624434D01*
X135436281Y-97723587D01*
X135436281Y-98143887D01*
X135329373Y-98137698D01*
X135272778Y-98132187D01*
X135170624Y-98107221D01*
X135087800Y-98063401D01*
X135023213Y-98000043D01*
X134975765Y-97916461D01*
X134965307Y-97882285D01*
X134956165Y-97814310D01*
X134955966Y-97775865D01*
X135051701Y-97775865D01*
X135056215Y-97843051D01*
X135069784Y-97897205D01*
X135080279Y-97917081D01*
X135116550Y-97962568D01*
X135162816Y-98003486D01*
X135208474Y-98029703D01*
X135211338Y-98030721D01*
X135246113Y-98040492D01*
X135288367Y-98049612D01*
X135339965Y-98059041D01*
X135339965Y-97776348D01*
X135340006Y-97723587D01*
X135339901Y-97638512D01*
X135338606Y-97576288D01*
X135334991Y-97533816D01*
X135327926Y-97508001D01*
X135316283Y-97495744D01*
X135298930Y-97493950D01*
X135274739Y-97499521D01*
X135242579Y-97509361D01*
X135210615Y-97521812D01*
X135152008Y-97557955D01*
X135102048Y-97604540D01*
X135069946Y-97653858D01*
X135069808Y-97654190D01*
X135056235Y-97708594D01*
X135051701Y-97775865D01*
X134955966Y-97775865D01*
X134955775Y-97738776D01*
X134963961Y-97666944D01*
X134980546Y-97610078D01*
X134980599Y-97609963D01*
X135016011Y-97555100D01*
X135068523Y-97500513D01*
X135128912Y-97454430D01*
X135187959Y-97425073D01*
X135244152Y-97406528D01*
X135216593Y-97377193D01*
X135189118Y-97334105D01*
X135181823Y-97290808D01*
X135272336Y-97290808D01*
X135285618Y-97322494D01*
X135300097Y-97336928D01*
X135321373Y-97342764D01*
X135335099Y-97323251D01*
X135339965Y-97279426D01*
X135339833Y-97262180D01*
X135337066Y-97232423D01*
X135327975Y-97220917D01*
X135309006Y-97220949D01*
X135291298Y-97229319D01*
X135275054Y-97256173D01*
X135272336Y-97290808D01*
X135181823Y-97290808D01*
X135179338Y-97276058D01*
X135194544Y-97216619D01*
X135195221Y-97215236D01*
X135234342Y-97160727D01*
X135289268Y-97126644D01*
X135363085Y-97111052D01*
X135436281Y-97104982D01*
X135436281Y-97279426D01*
G37*
G36*
X134459358Y-97279426D02*
G01*
X134459358Y-97624434D01*
X134459358Y-97723587D01*
X134459358Y-98143887D01*
X134352450Y-98137698D01*
X134295855Y-98132187D01*
X134193701Y-98107221D01*
X134110877Y-98063401D01*
X134046290Y-98000043D01*
X133998841Y-97916461D01*
X133988384Y-97882285D01*
X133979242Y-97814310D01*
X133979043Y-97775865D01*
X134074778Y-97775865D01*
X134079292Y-97843051D01*
X134092861Y-97897205D01*
X134103356Y-97917081D01*
X134139627Y-97962568D01*
X134185893Y-98003486D01*
X134231551Y-98029703D01*
X134234415Y-98030721D01*
X134269190Y-98040492D01*
X134311444Y-98049612D01*
X134363042Y-98059041D01*
X134363042Y-97776348D01*
X134363083Y-97723587D01*
X134362978Y-97638512D01*
X134361683Y-97576288D01*
X134358068Y-97533816D01*
X134351003Y-97508001D01*
X134339359Y-97495744D01*
X134322007Y-97493950D01*
X134297816Y-97499521D01*
X134265656Y-97509361D01*
X134233692Y-97521812D01*
X134175084Y-97557955D01*
X134125125Y-97604540D01*
X134093023Y-97653858D01*
X134092885Y-97654190D01*
X134079312Y-97708594D01*
X134074778Y-97775865D01*
X133979043Y-97775865D01*
X133978852Y-97738776D01*
X133987038Y-97666944D01*
X134003623Y-97610078D01*
X134003676Y-97609963D01*
X134039088Y-97555100D01*
X134091600Y-97500513D01*
X134151989Y-97454430D01*
X134211036Y-97425073D01*
X134267229Y-97406528D01*
X134239670Y-97377193D01*
X134212195Y-97334105D01*
X134204900Y-97290808D01*
X134295413Y-97290808D01*
X134308695Y-97322494D01*
X134323174Y-97336928D01*
X134344450Y-97342764D01*
X134358176Y-97323251D01*
X134363042Y-97279426D01*
X134362910Y-97262180D01*
X134360143Y-97232423D01*
X134351052Y-97220917D01*
X134332083Y-97220949D01*
X134314375Y-97229319D01*
X134298130Y-97256173D01*
X134295413Y-97290808D01*
X134204900Y-97290808D01*
X134202415Y-97276058D01*
X134217621Y-97216619D01*
X134218298Y-97215236D01*
X134257419Y-97160727D01*
X134312344Y-97126644D01*
X134386162Y-97111052D01*
X134459358Y-97104982D01*
X134459358Y-97279426D01*
G37*
G36*
X128224510Y-97734865D02*
G01*
X128226180Y-97760723D01*
X128216908Y-97838794D01*
X128183577Y-97928490D01*
X128129535Y-98008553D01*
X128058497Y-98073702D01*
X127974182Y-98118658D01*
X127972542Y-98119257D01*
X127884971Y-98137193D01*
X127791857Y-98132506D01*
X127699996Y-98107061D01*
X127616187Y-98062727D01*
X127547226Y-98001370D01*
X127525002Y-97972750D01*
X127481571Y-97889957D01*
X127461247Y-97802430D01*
X127461834Y-97754793D01*
X127552099Y-97754793D01*
X127552593Y-97772682D01*
X127570282Y-97859719D01*
X127611549Y-97935258D01*
X127673946Y-97995879D01*
X127755024Y-98038163D01*
X127777064Y-98045261D01*
X127843756Y-98055150D01*
X127910560Y-98044702D01*
X127985612Y-98013029D01*
X127999409Y-98005309D01*
X128060742Y-97954087D01*
X128103928Y-97888369D01*
X128128471Y-97813509D01*
X128133876Y-97734865D01*
X128119647Y-97657794D01*
X128085290Y-97587652D01*
X128030307Y-97529795D01*
X127981785Y-97497892D01*
X127912914Y-97471972D01*
X127832107Y-97464178D01*
X127802982Y-97465508D01*
X127720319Y-97485609D01*
X127651029Y-97527568D01*
X127597982Y-97588404D01*
X127564048Y-97665139D01*
X127552099Y-97754793D01*
X127461834Y-97754793D01*
X127462337Y-97713984D01*
X127483148Y-97628438D01*
X127521987Y-97549609D01*
X127577161Y-97481314D01*
X127646978Y-97427370D01*
X127729744Y-97391596D01*
X127823766Y-97377808D01*
X127851605Y-97376989D01*
X127883535Y-97374670D01*
X127896004Y-97371662D01*
X127895068Y-97369631D01*
X127882324Y-97351218D01*
X127857776Y-97318449D01*
X127825411Y-97276691D01*
X127815114Y-97263398D01*
X127784049Y-97220702D01*
X127761990Y-97186376D01*
X127753174Y-97166862D01*
X127759241Y-97149152D01*
X127781043Y-97127013D01*
X127784042Y-97125045D01*
X127794847Y-97120289D01*
X127806766Y-97121749D01*
X127822504Y-97131950D01*
X127844764Y-97153419D01*
X127876251Y-97188679D01*
X127919670Y-97240257D01*
X127977724Y-97310678D01*
X128050373Y-97400797D01*
X128112072Y-97482167D01*
X128158280Y-97550399D01*
X128190896Y-97608931D01*
X128211819Y-97661203D01*
X128222947Y-97710654D01*
X128224510Y-97734865D01*
G37*
G36*
X127304429Y-97149668D02*
G01*
X127304429Y-97190947D01*
X127208112Y-97190947D01*
X127204285Y-97190954D01*
X127157542Y-97192233D01*
X127124393Y-97195296D01*
X127111796Y-97199524D01*
X127112947Y-97203062D01*
X127124558Y-97225735D01*
X127146000Y-97263517D01*
X127173967Y-97310504D01*
X127185851Y-97330509D01*
X127210212Y-97374901D01*
X127225622Y-97408140D01*
X127229157Y-97424203D01*
X127227268Y-97426221D01*
X127205632Y-97436166D01*
X127170426Y-97445093D01*
X127123568Y-97458271D01*
X127055712Y-97489620D01*
X126993771Y-97530564D01*
X126948468Y-97574835D01*
X126943889Y-97580944D01*
X126927149Y-97607621D01*
X126917596Y-97636253D01*
X126913288Y-97675350D01*
X126912284Y-97733422D01*
X126912284Y-97734431D01*
X126913609Y-97794274D01*
X126918970Y-97836751D01*
X126930525Y-97871813D01*
X126950429Y-97909413D01*
X126964403Y-97930950D01*
X127001418Y-97977056D01*
X127038765Y-98012609D01*
X127057897Y-98026316D01*
X127088991Y-98041937D01*
X127125930Y-98049159D01*
X127179493Y-98050914D01*
X127224713Y-98050144D01*
X127272121Y-98047652D01*
X127303150Y-98044035D01*
X127314202Y-98042340D01*
X127335329Y-98048546D01*
X127349301Y-98075853D01*
X127354843Y-98093864D01*
X127355667Y-98116327D01*
X127339649Y-98129815D01*
X127301687Y-98141350D01*
X127285345Y-98144831D01*
X127219346Y-98150258D01*
X127145890Y-98146589D01*
X127076415Y-98134858D01*
X127022359Y-98116099D01*
X126979291Y-98089846D01*
X126907364Y-98023063D01*
X126852751Y-97938988D01*
X126817975Y-97842039D01*
X126805559Y-97736629D01*
X126806644Y-97697665D01*
X126813837Y-97634730D01*
X126826445Y-97588051D01*
X126831513Y-97576860D01*
X126878224Y-97505810D01*
X126943090Y-97443240D01*
X127018012Y-97397220D01*
X127050166Y-97382499D01*
X127082165Y-97367504D01*
X127096753Y-97360181D01*
X127094772Y-97353489D01*
X127080779Y-97328053D01*
X127056372Y-97288363D01*
X127024516Y-97239377D01*
X127001354Y-97204253D01*
X126973140Y-97160420D01*
X126953836Y-97129084D01*
X126946682Y-97115405D01*
X126947170Y-97114886D01*
X126964713Y-97112345D01*
X127003697Y-97110281D01*
X127059014Y-97108896D01*
X127125556Y-97108390D01*
X127304429Y-97108390D01*
X127304429Y-97149668D01*
G37*
G36*
X130006960Y-97618670D02*
G01*
X130004256Y-97686504D01*
X129994346Y-97752548D01*
X129975459Y-97812898D01*
X129970261Y-97825548D01*
X129916617Y-97918116D01*
X129841341Y-98001462D01*
X129749381Y-98070951D01*
X129645684Y-98121945D01*
X129619464Y-98129053D01*
X129553599Y-98136291D01*
X129464209Y-98136711D01*
X129452570Y-98136336D01*
X129387654Y-98132692D01*
X129339246Y-98125704D01*
X129297777Y-98113425D01*
X129253678Y-98093912D01*
X129222418Y-98077005D01*
X129134940Y-98012489D01*
X129058676Y-97931362D01*
X129001731Y-97841735D01*
X128988527Y-97813555D01*
X128974879Y-97776949D01*
X128967054Y-97739037D01*
X128963480Y-97691087D01*
X128962794Y-97639927D01*
X129052950Y-97639927D01*
X129067691Y-97736791D01*
X129100789Y-97822818D01*
X129118392Y-97852175D01*
X129177931Y-97925523D01*
X129248939Y-97984501D01*
X129324159Y-98022618D01*
X129433997Y-98047831D01*
X129541799Y-98047862D01*
X129642156Y-98022720D01*
X129732540Y-97973401D01*
X129810421Y-97900904D01*
X129873267Y-97806224D01*
X129880686Y-97790613D01*
X129904817Y-97709415D01*
X129913314Y-97618670D01*
X129905906Y-97528916D01*
X129882327Y-97450693D01*
X129835674Y-97372532D01*
X129761999Y-97294349D01*
X129673268Y-97236075D01*
X129629331Y-97216489D01*
X129588802Y-97204765D01*
X129542034Y-97199299D01*
X129478427Y-97198020D01*
X129415867Y-97199424D01*
X129370063Y-97204753D01*
X129331835Y-97215985D01*
X129291193Y-97235097D01*
X129225439Y-97278917D01*
X129159855Y-97341260D01*
X129106252Y-97411669D01*
X129071796Y-97482081D01*
X129057453Y-97542651D01*
X129052950Y-97639927D01*
X128962794Y-97639927D01*
X128962585Y-97624370D01*
X128962823Y-97581103D01*
X128965152Y-97526087D01*
X128971244Y-97484230D01*
X128982657Y-97446587D01*
X129000952Y-97404219D01*
X129027528Y-97355327D01*
X129093640Y-97268679D01*
X129174866Y-97194506D01*
X129263716Y-97140330D01*
X129290811Y-97128276D01*
X129329789Y-97114203D01*
X129369250Y-97106102D01*
X129418197Y-97102396D01*
X129485631Y-97101510D01*
X129546897Y-97102084D01*
X129595159Y-97105085D01*
X129633169Y-97112272D01*
X129669905Y-97125401D01*
X129714349Y-97146228D01*
X129726028Y-97152148D01*
X129822240Y-97216741D01*
X129901209Y-97301695D01*
X129964474Y-97408627D01*
X129969151Y-97418610D01*
X129989580Y-97466772D01*
X130001163Y-97508426D01*
X130006204Y-97554893D01*
X130007007Y-97617491D01*
X130006960Y-97618670D01*
G37*
D11*
%TO.C,C7*%
X91394749Y-86748884D02*
X91179077Y-86748884D01*
X91394749Y-86028884D02*
X91179077Y-86028884D01*
%TO.C,R10*%
X47548859Y-77407500D02*
X47856141Y-77407500D01*
X47548859Y-78167500D02*
X47856141Y-78167500D01*
%TO.C,R9*%
X47775109Y-66295000D02*
X48082391Y-66295000D01*
X47775109Y-67055000D02*
X48082391Y-67055000D01*
%TO.C,U4*%
X94138716Y-82577500D02*
X93338716Y-82577500D01*
X94138716Y-82577500D02*
X94938716Y-82577500D01*
X94138716Y-85697500D02*
X92338716Y-85697500D01*
X94138716Y-85697500D02*
X94938716Y-85697500D01*
%TO.C,R21*%
X51233859Y-76613750D02*
X51541141Y-76613750D01*
X51233859Y-77373750D02*
X51541141Y-77373750D01*
%TO.C,R8*%
X51007500Y-69719891D02*
X51007500Y-69412609D01*
X51767500Y-69719891D02*
X51767500Y-69412609D01*
%TO.C,C12*%
X97181959Y-85048493D02*
X97181959Y-85264165D01*
X96461959Y-85048493D02*
X96461959Y-85264165D01*
%TO.C,U2*%
X36333750Y-53181250D02*
X36333750Y-53831250D01*
X36333750Y-53181250D02*
X36333750Y-52531250D01*
X39453750Y-53181250D02*
X39453750Y-54856250D01*
X39453750Y-53181250D02*
X39453750Y-52531250D01*
%TO.C,R5*%
X97396435Y-98186776D02*
X97089153Y-98186776D01*
X97396435Y-97426776D02*
X97089153Y-97426776D01*
%TO.C,R3*%
X131408945Y-84055371D02*
X131716227Y-84055371D01*
X131408945Y-84815371D02*
X131716227Y-84815371D01*
D12*
%TO.C,U3*%
X50088750Y-76261610D02*
X50088750Y-74431250D01*
X50088750Y-74431250D02*
X44748750Y-74431250D01*
X50088750Y-70031970D02*
X50088750Y-74431250D01*
X49689970Y-76261610D02*
X50088750Y-76261610D01*
D13*
X44934630Y-70031610D02*
X44919390Y-70031610D01*
D12*
X44748750Y-74431250D02*
X44748750Y-70031970D01*
X44748750Y-70031970D02*
X50088750Y-70031970D01*
D11*
%TO.C,C5*%
X101677500Y-85312259D02*
X101677500Y-85031099D01*
X102697500Y-85312259D02*
X102697500Y-85031099D01*
%TO.C,C14*%
X198025336Y-83703750D02*
X197809664Y-83703750D01*
X198025336Y-82983750D02*
X197809664Y-82983750D01*
%TO.C,C1*%
X91413617Y-87771040D02*
X91197945Y-87771040D01*
X91413617Y-87051040D02*
X91197945Y-87051040D01*
%TO.C,C3*%
X95231075Y-97441219D02*
X95446747Y-97441219D01*
X95231075Y-98161219D02*
X95446747Y-98161219D01*
D12*
%TO.C,U5*%
X197726250Y-92136610D02*
X197726250Y-90306250D01*
X197726250Y-90306250D02*
X192386250Y-90306250D01*
X197726250Y-85906970D02*
X197726250Y-90306250D01*
X197327470Y-92136610D02*
X197726250Y-92136610D01*
D13*
X192572130Y-85906610D02*
X192556890Y-85906610D01*
D12*
X192386250Y-90306250D02*
X192386250Y-85906970D01*
X192386250Y-85906970D02*
X197726250Y-85906970D01*
%TO.C,G\u002A\u002A\u002A*%
G36*
X124285750Y-98397000D02*
G01*
X124171764Y-98511000D01*
X124016764Y-98511000D01*
X123861764Y-98511000D01*
X123975750Y-98397000D01*
X124089737Y-98283000D01*
X124244737Y-98283000D01*
X124399737Y-98283000D01*
X124285750Y-98397000D01*
G37*
G36*
X124677750Y-98511000D02*
G01*
X124449757Y-98739000D01*
X124296254Y-98739000D01*
X124291811Y-98738999D01*
X124267615Y-98738973D01*
X124244669Y-98738912D01*
X124223278Y-98738818D01*
X124203747Y-98738695D01*
X124186383Y-98738545D01*
X124171490Y-98738372D01*
X124159375Y-98738178D01*
X124150343Y-98737967D01*
X124144700Y-98737741D01*
X124142750Y-98737503D01*
X124143433Y-98736704D01*
X124146713Y-98733262D01*
X124152568Y-98727250D01*
X124160850Y-98718818D01*
X124171408Y-98708118D01*
X124184093Y-98695299D01*
X124198755Y-98680514D01*
X124215244Y-98663912D01*
X124233411Y-98645644D01*
X124253105Y-98625862D01*
X124274177Y-98604715D01*
X124296476Y-98582355D01*
X124319855Y-98558933D01*
X124344162Y-98534598D01*
X124369247Y-98509503D01*
X124595744Y-98283000D01*
X124750744Y-98283000D01*
X124905744Y-98283000D01*
X124677750Y-98511000D01*
G37*
G36*
X125601249Y-97726498D02*
G01*
X125992751Y-98117996D01*
X125992751Y-98510996D01*
X125992750Y-98903996D01*
X125601252Y-99295498D01*
X125209754Y-99687000D01*
X124718750Y-99687000D01*
X124227747Y-99687000D01*
X123835750Y-99295000D01*
X123443754Y-98903000D01*
X124227756Y-98903000D01*
X125011758Y-98903000D01*
X125207750Y-98707000D01*
X125403743Y-98511000D01*
X125207750Y-98315000D01*
X125011758Y-98118999D01*
X124428254Y-98119000D01*
X124387545Y-98118996D01*
X124340377Y-98118985D01*
X124294388Y-98118966D01*
X124249734Y-98118940D01*
X124206572Y-98118906D01*
X124165058Y-98118865D01*
X124125349Y-98118818D01*
X124087603Y-98118765D01*
X124051975Y-98118705D01*
X124018623Y-98118640D01*
X123987704Y-98118570D01*
X123959373Y-98118495D01*
X123933789Y-98118416D01*
X123911107Y-98118332D01*
X123891485Y-98118244D01*
X123875078Y-98118153D01*
X123862045Y-98118058D01*
X123852541Y-98117961D01*
X123846724Y-98117861D01*
X123844750Y-98117759D01*
X123846138Y-98114998D01*
X123850080Y-98109818D01*
X123856238Y-98102567D01*
X123864275Y-98093592D01*
X123873854Y-98083238D01*
X123884636Y-98071853D01*
X123896285Y-98059783D01*
X123908463Y-98047375D01*
X123920833Y-98034975D01*
X123933058Y-98022931D01*
X123944799Y-98011588D01*
X123955720Y-98001294D01*
X123965483Y-97992395D01*
X123973750Y-97985237D01*
X124005099Y-97960054D01*
X124055242Y-97923532D01*
X124106861Y-97890476D01*
X124160194Y-97860767D01*
X124215480Y-97834282D01*
X124272960Y-97810903D01*
X124332872Y-97790508D01*
X124395455Y-97772978D01*
X124401380Y-97771455D01*
X124410575Y-97768961D01*
X124417730Y-97766847D01*
X124422229Y-97765300D01*
X124423455Y-97764507D01*
X124421820Y-97763898D01*
X124417094Y-97762575D01*
X124410750Y-97761045D01*
X124404883Y-97759672D01*
X124389958Y-97755892D01*
X124372806Y-97751244D01*
X124354484Y-97746032D01*
X124336054Y-97740562D01*
X124318572Y-97735138D01*
X124303100Y-97730064D01*
X124295024Y-97727283D01*
X124236046Y-97704709D01*
X124178903Y-97678804D01*
X124123851Y-97649703D01*
X124071148Y-97617541D01*
X124021053Y-97582453D01*
X124019256Y-97581105D01*
X124011524Y-97575296D01*
X124005128Y-97570472D01*
X124000692Y-97567104D01*
X123998837Y-97565663D01*
X123999083Y-97565288D01*
X124001592Y-97562517D01*
X124006626Y-97557234D01*
X124013977Y-97549650D01*
X124023438Y-97539977D01*
X124034800Y-97528427D01*
X124047854Y-97515211D01*
X124062393Y-97500541D01*
X124078207Y-97484628D01*
X124095089Y-97467684D01*
X124112831Y-97449919D01*
X124227737Y-97335000D01*
X124718742Y-97335000D01*
X125209747Y-97335000D01*
X125601249Y-97726498D01*
G37*
G36*
X123531856Y-97132021D02*
G01*
X123541026Y-97167558D01*
X123558553Y-97223476D01*
X123579372Y-97277201D01*
X123603538Y-97328858D01*
X123631109Y-97378576D01*
X123662139Y-97426481D01*
X123680093Y-97451232D01*
X123715527Y-97494973D01*
X123753847Y-97536200D01*
X123794833Y-97574759D01*
X123838261Y-97610496D01*
X123883912Y-97643258D01*
X123931564Y-97672890D01*
X123980995Y-97699238D01*
X124031984Y-97722149D01*
X124084310Y-97741470D01*
X124137750Y-97757045D01*
X124140003Y-97757618D01*
X124149460Y-97760104D01*
X124157332Y-97762296D01*
X124162853Y-97763974D01*
X124165256Y-97764918D01*
X124164805Y-97765520D01*
X124161347Y-97766938D01*
X124155248Y-97768794D01*
X124147256Y-97770845D01*
X124129198Y-97775432D01*
X124093578Y-97786012D01*
X124056983Y-97798735D01*
X124020633Y-97813162D01*
X123985750Y-97828854D01*
X123948575Y-97847850D01*
X123899520Y-97876723D01*
X123852706Y-97908770D01*
X123808279Y-97943826D01*
X123766384Y-97981728D01*
X123727165Y-98022313D01*
X123690768Y-98065417D01*
X123657339Y-98110877D01*
X123627021Y-98158529D01*
X123599961Y-98208209D01*
X123576303Y-98259753D01*
X123556192Y-98313000D01*
X123553539Y-98320946D01*
X123550487Y-98330442D01*
X123547524Y-98340170D01*
X123544440Y-98350859D01*
X123541026Y-98363240D01*
X123537070Y-98378044D01*
X123532365Y-98396000D01*
X123531975Y-98397477D01*
X123531189Y-98399925D01*
X123530418Y-98400606D01*
X123529466Y-98399097D01*
X123528133Y-98394976D01*
X123526221Y-98387820D01*
X123523531Y-98377207D01*
X123522502Y-98373222D01*
X123518984Y-98360452D01*
X123514746Y-98345957D01*
X123510231Y-98331235D01*
X123505885Y-98317779D01*
X123491049Y-98276901D01*
X123468392Y-98224499D01*
X123442400Y-98174097D01*
X123413215Y-98125823D01*
X123380978Y-98079811D01*
X123345830Y-98036192D01*
X123307912Y-97995097D01*
X123267364Y-97956657D01*
X123224328Y-97921005D01*
X123178944Y-97888271D01*
X123131354Y-97858587D01*
X123081699Y-97832085D01*
X123030119Y-97808896D01*
X122976756Y-97789152D01*
X122921750Y-97772983D01*
X122915399Y-97771310D01*
X122906425Y-97768779D01*
X122899609Y-97766641D01*
X122895525Y-97765081D01*
X122894750Y-97764284D01*
X122894903Y-97764236D01*
X122898277Y-97763300D01*
X122904594Y-97761639D01*
X122913009Y-97759473D01*
X122922676Y-97757022D01*
X122944599Y-97751134D01*
X122994303Y-97735108D01*
X123043701Y-97715568D01*
X123092168Y-97692819D01*
X123139082Y-97667168D01*
X123183817Y-97638920D01*
X123225750Y-97608382D01*
X123245170Y-97592582D01*
X123269145Y-97571638D01*
X123293126Y-97549253D01*
X123316236Y-97526275D01*
X123337602Y-97503549D01*
X123356348Y-97481924D01*
X123371664Y-97462798D01*
X123405738Y-97415737D01*
X123436411Y-97366611D01*
X123463617Y-97315551D01*
X123487289Y-97262687D01*
X123507361Y-97208148D01*
X123523768Y-97152065D01*
X123524936Y-97147536D01*
X123527335Y-97138606D01*
X123529060Y-97133001D01*
X123530278Y-97130309D01*
X123531155Y-97130119D01*
X123531856Y-97132021D01*
G37*
D11*
%TO.C,R11*%
X93124944Y-86046391D02*
X93432226Y-86046391D01*
X93124944Y-86806391D02*
X93432226Y-86806391D01*
%TO.C,R1*%
X131396921Y-86132696D02*
X131704203Y-86132696D01*
X131396921Y-86892696D02*
X131704203Y-86892696D01*
%TO.C,R6*%
X43012609Y-71851250D02*
X43319891Y-71851250D01*
X43012609Y-72611250D02*
X43319891Y-72611250D01*
%TO.C,R19*%
X199382643Y-85606193D02*
X199382643Y-85298911D01*
X200142643Y-85606193D02*
X200142643Y-85298911D01*
%TO.C,C13*%
X91876766Y-83560388D02*
X91876766Y-83776060D01*
X91156766Y-83560388D02*
X91156766Y-83776060D01*
%TO.C,R2*%
X131397413Y-85068710D02*
X131704695Y-85068710D01*
X131397413Y-85828710D02*
X131704695Y-85828710D01*
%TO.C,C2*%
X102856783Y-96841110D02*
X102641111Y-96841110D01*
X102856783Y-96121110D02*
X102641111Y-96121110D01*
%TO.C,SW1*%
X162726250Y-85982500D02*
X162726250Y-88642500D01*
X160126250Y-85982500D02*
X162726250Y-85982500D01*
X160126250Y-85982500D02*
X160126250Y-88642500D01*
X158856250Y-85982500D02*
X157526250Y-85982500D01*
X157526250Y-85982500D02*
X157526250Y-87312500D01*
X160126250Y-88642500D02*
X162726250Y-88642500D01*
%TO.C,C10*%
X38008724Y-56066250D02*
X37793052Y-56066250D01*
X38008724Y-55346250D02*
X37793052Y-55346250D01*
%TO.C,R17*%
X191467500Y-87668859D02*
X191467500Y-87976141D01*
X190707500Y-87668859D02*
X190707500Y-87976141D01*
%TO.C,J1*%
X40990000Y-42927500D02*
X38490000Y-42927500D01*
X38490000Y-42927500D02*
X38490000Y-43977500D01*
X38490000Y-43977500D02*
X37500000Y-43977500D01*
X42960000Y-44097500D02*
X42960000Y-47977500D01*
X40990000Y-49147500D02*
X38490000Y-49147500D01*
X38490000Y-49147500D02*
X38490000Y-48097500D01*
%TO.C,C9*%
X38045163Y-51110000D02*
X37829491Y-51110000D01*
X38045163Y-50390000D02*
X37829491Y-50390000D01*
%TO.C,G\u002A\u002A\u002A*%
G36*
X131696935Y-96037194D02*
G01*
X131696935Y-96528933D01*
X131651039Y-96528933D01*
X131605144Y-96528933D01*
X131605144Y-96037194D01*
X131605144Y-95545454D01*
X131651039Y-95545454D01*
X131696935Y-95545454D01*
X131696935Y-96037194D01*
G37*
G36*
X124878143Y-96037194D02*
G01*
X124878143Y-96528933D01*
X124832247Y-96528933D01*
X124786352Y-96528933D01*
X124786352Y-96037194D01*
X124786352Y-95545454D01*
X124832247Y-95545454D01*
X124878143Y-95545454D01*
X124878143Y-96037194D01*
G37*
G36*
X135316140Y-95584793D02*
G01*
X135316057Y-95593240D01*
X135312272Y-95614160D01*
X135297321Y-95622579D01*
X135263688Y-95624132D01*
X135211236Y-95624132D01*
X135211236Y-96076533D01*
X135211236Y-96528933D01*
X135165512Y-96528933D01*
X135119788Y-96528933D01*
X135116338Y-96079811D01*
X135112888Y-95630689D01*
X135057157Y-95626656D01*
X135043239Y-95625547D01*
X135015156Y-95620440D01*
X135003645Y-95608460D01*
X135001427Y-95584039D01*
X135001427Y-95545454D01*
X135158783Y-95545454D01*
X135316140Y-95545454D01*
X135316140Y-95584793D01*
G37*
G36*
X131487126Y-95584793D02*
G01*
X131487043Y-95593240D01*
X131483258Y-95614160D01*
X131468307Y-95622579D01*
X131434674Y-95624132D01*
X131382222Y-95624132D01*
X131382222Y-96076533D01*
X131382222Y-96528933D01*
X131336498Y-96528933D01*
X131290774Y-96528933D01*
X131287324Y-96079811D01*
X131283874Y-95630689D01*
X131228143Y-95626656D01*
X131214226Y-95625547D01*
X131186142Y-95620440D01*
X131174631Y-95608460D01*
X131172413Y-95584039D01*
X131172413Y-95545454D01*
X131329769Y-95545454D01*
X131487126Y-95545454D01*
X131487126Y-95584793D01*
G37*
G36*
X125782944Y-95584793D02*
G01*
X125782862Y-95593240D01*
X125779076Y-95614160D01*
X125764125Y-95622579D01*
X125730492Y-95624132D01*
X125678040Y-95624132D01*
X125678040Y-96076533D01*
X125678040Y-96528933D01*
X125632316Y-96528933D01*
X125586593Y-96528933D01*
X125583142Y-96079811D01*
X125579692Y-95630689D01*
X125523961Y-95626656D01*
X125510044Y-95625547D01*
X125481960Y-95620440D01*
X125470450Y-95608460D01*
X125468231Y-95584039D01*
X125468231Y-95545454D01*
X125625588Y-95545454D01*
X125782944Y-95545454D01*
X125782944Y-95584793D01*
G37*
G36*
X133939958Y-95545593D02*
G01*
X133954162Y-95548266D01*
X133959172Y-95556762D01*
X133954057Y-95574373D01*
X133937888Y-95604388D01*
X133909736Y-95650098D01*
X133868671Y-95714793D01*
X133781912Y-95851349D01*
X133781912Y-96190141D01*
X133781912Y-96528933D01*
X133736016Y-96528933D01*
X133690120Y-96528933D01*
X133690120Y-96194099D01*
X133690120Y-95859264D01*
X133592555Y-95702359D01*
X133494990Y-95545454D01*
X133549938Y-95545794D01*
X133557790Y-95545861D01*
X133581578Y-95547540D01*
X133599776Y-95554683D01*
X133617163Y-95571542D01*
X133638515Y-95602370D01*
X133668610Y-95651417D01*
X133732334Y-95756701D01*
X133798524Y-95651077D01*
X133805579Y-95639833D01*
X133834652Y-95594677D01*
X133855599Y-95566853D01*
X133873102Y-95552170D01*
X133891844Y-95546434D01*
X133916508Y-95545454D01*
X133917489Y-95545453D01*
X133939958Y-95545593D01*
G37*
G36*
X137165082Y-95612188D02*
G01*
X137165082Y-95678922D01*
X137289979Y-95612188D01*
X137331394Y-95590434D01*
X137377604Y-95567169D01*
X137411473Y-95551314D01*
X137427666Y-95545454D01*
X137429256Y-95547911D01*
X137432554Y-95571860D01*
X137435319Y-95620382D01*
X137437521Y-95692326D01*
X137439132Y-95786543D01*
X137440120Y-95901882D01*
X137440456Y-96037194D01*
X137440456Y-96528933D01*
X137394560Y-96528933D01*
X137348665Y-96528933D01*
X137348665Y-96109315D01*
X137348579Y-96050040D01*
X137348043Y-95952866D01*
X137347071Y-95866401D01*
X137345726Y-95793748D01*
X137344072Y-95738011D01*
X137342172Y-95702293D01*
X137340090Y-95689697D01*
X137339483Y-95689770D01*
X137322590Y-95696925D01*
X137290050Y-95713501D01*
X137248298Y-95736235D01*
X137165082Y-95782772D01*
X137165082Y-96155853D01*
X137165082Y-96528933D01*
X137119186Y-96528933D01*
X137073290Y-96528933D01*
X137073290Y-96037194D01*
X137073290Y-95545454D01*
X137119186Y-95545454D01*
X137165082Y-95545454D01*
X137165082Y-95612188D01*
G37*
G36*
X125966527Y-95612188D02*
G01*
X125966527Y-95678922D01*
X126091424Y-95612188D01*
X126132839Y-95590434D01*
X126179049Y-95567169D01*
X126212918Y-95551314D01*
X126229111Y-95545454D01*
X126230702Y-95547911D01*
X126233999Y-95571860D01*
X126236764Y-95620382D01*
X126238967Y-95692326D01*
X126240577Y-95786543D01*
X126241565Y-95901882D01*
X126241901Y-96037194D01*
X126241901Y-96528933D01*
X126196006Y-96528933D01*
X126150110Y-96528933D01*
X126150110Y-96109315D01*
X126150024Y-96050040D01*
X126149488Y-95952866D01*
X126148517Y-95866401D01*
X126147172Y-95793748D01*
X126145518Y-95738011D01*
X126143618Y-95702293D01*
X126141535Y-95689697D01*
X126140928Y-95689770D01*
X126124035Y-95696925D01*
X126091495Y-95713501D01*
X126049744Y-95736235D01*
X125966527Y-95782772D01*
X125966527Y-96155853D01*
X125966527Y-96528933D01*
X125920631Y-96528933D01*
X125874736Y-96528933D01*
X125874736Y-96037194D01*
X125874736Y-95545454D01*
X125920631Y-95545454D01*
X125966527Y-95545454D01*
X125966527Y-95612188D01*
G37*
G36*
X124392960Y-95612188D02*
G01*
X124392960Y-95678922D01*
X124517857Y-95612188D01*
X124559272Y-95590434D01*
X124605482Y-95567169D01*
X124639351Y-95551314D01*
X124655544Y-95545454D01*
X124657134Y-95547911D01*
X124660432Y-95571860D01*
X124663197Y-95620382D01*
X124665400Y-95692326D01*
X124667010Y-95786543D01*
X124667998Y-95901882D01*
X124668334Y-96037194D01*
X124668334Y-96528933D01*
X124622438Y-96528933D01*
X124576543Y-96528933D01*
X124576543Y-96109315D01*
X124576457Y-96050040D01*
X124575921Y-95952866D01*
X124574949Y-95866401D01*
X124573604Y-95793748D01*
X124571950Y-95738011D01*
X124570051Y-95702293D01*
X124567968Y-95689697D01*
X124567361Y-95689770D01*
X124550468Y-95696925D01*
X124517928Y-95713501D01*
X124476177Y-95736235D01*
X124392960Y-95782772D01*
X124392960Y-96155853D01*
X124392960Y-96528933D01*
X124347064Y-96528933D01*
X124301168Y-96528933D01*
X124301168Y-96037194D01*
X124301168Y-95545454D01*
X124347064Y-95545454D01*
X124392960Y-95545454D01*
X124392960Y-95612188D01*
G37*
G36*
X131880518Y-95663471D02*
G01*
X131880518Y-95781489D01*
X131965753Y-95781489D01*
X132050988Y-95781489D01*
X132050988Y-95663471D01*
X132050988Y-95545454D01*
X132096883Y-95545454D01*
X132142779Y-95545454D01*
X132142779Y-95663471D01*
X132142779Y-95781489D01*
X132181436Y-95781489D01*
X132207315Y-95783236D01*
X132214070Y-95793731D01*
X132206380Y-95820828D01*
X132191755Y-95847735D01*
X132167722Y-95860167D01*
X132164770Y-95860271D01*
X132157795Y-95862566D01*
X132152474Y-95870168D01*
X132148583Y-95886063D01*
X132145899Y-95913240D01*
X132144200Y-95954689D01*
X132143262Y-96013398D01*
X132142863Y-96092356D01*
X132142779Y-96194550D01*
X132142779Y-96528933D01*
X132096883Y-96528933D01*
X132050988Y-96528933D01*
X132050988Y-96194550D01*
X132050988Y-95860167D01*
X131965753Y-95860167D01*
X131880518Y-95860167D01*
X131880518Y-96194550D01*
X131880518Y-96528933D01*
X131834622Y-96528933D01*
X131788726Y-96528933D01*
X131788726Y-96037194D01*
X131788726Y-95545454D01*
X131834622Y-95545454D01*
X131880518Y-95545454D01*
X131880518Y-95663471D01*
G37*
G36*
X130556099Y-95663471D02*
G01*
X130556099Y-95781489D01*
X130594756Y-95781489D01*
X130620635Y-95783236D01*
X130627390Y-95793731D01*
X130619699Y-95820828D01*
X130605075Y-95847735D01*
X130581042Y-95860167D01*
X130578090Y-95860271D01*
X130571115Y-95862566D01*
X130565793Y-95870168D01*
X130561902Y-95886063D01*
X130559218Y-95913240D01*
X130557519Y-95954689D01*
X130556581Y-96013398D01*
X130556182Y-96092356D01*
X130556099Y-96194550D01*
X130556099Y-96528933D01*
X130510203Y-96528933D01*
X130464307Y-96528933D01*
X130464307Y-96194550D01*
X130464307Y-95860167D01*
X130365959Y-95860167D01*
X130356775Y-95860142D01*
X130311513Y-95859207D01*
X130279655Y-95857191D01*
X130267611Y-95854464D01*
X130270983Y-95841748D01*
X130280400Y-95815125D01*
X130281191Y-95813069D01*
X130290303Y-95795729D01*
X130305020Y-95786251D01*
X130332212Y-95782288D01*
X130378748Y-95781489D01*
X130464307Y-95781489D01*
X130464307Y-95702811D01*
X130464307Y-95624132D01*
X130379072Y-95624132D01*
X130293837Y-95624132D01*
X130293837Y-95584793D01*
X130293837Y-95545454D01*
X130424968Y-95545454D01*
X130556099Y-95545454D01*
X130556099Y-95663471D01*
G37*
G36*
X138791101Y-95542400D02*
G01*
X138822416Y-95545830D01*
X138898657Y-95566261D01*
X138975920Y-95600662D01*
X139045124Y-95644552D01*
X139097188Y-95693450D01*
X139118211Y-95720913D01*
X139177246Y-95823478D01*
X139211532Y-95931824D01*
X139220785Y-96043461D01*
X139204717Y-96155901D01*
X139163043Y-96266656D01*
X139119048Y-96340693D01*
X139051553Y-96415537D01*
X138968483Y-96470669D01*
X138866762Y-96508603D01*
X138841526Y-96514788D01*
X138792629Y-96524048D01*
X138754210Y-96528070D01*
X138754180Y-96528071D01*
X138724804Y-96526602D01*
X138714170Y-96515334D01*
X138714870Y-96486426D01*
X138717853Y-96465486D01*
X138726760Y-96449678D01*
X138747879Y-96440846D01*
X138788135Y-96434036D01*
X138815833Y-96429157D01*
X138909382Y-96397360D01*
X138988739Y-96346053D01*
X139052060Y-96278297D01*
X139097497Y-96197148D01*
X139123207Y-96105665D01*
X139127342Y-96006906D01*
X139108058Y-95903929D01*
X139086980Y-95848169D01*
X139034812Y-95763925D01*
X138964903Y-95698117D01*
X138879233Y-95652407D01*
X138779783Y-95628457D01*
X138742684Y-95623456D01*
X138721207Y-95616460D01*
X138714038Y-95603394D01*
X138715013Y-95579607D01*
X138715170Y-95577992D01*
X138718663Y-95555494D01*
X138727949Y-95544279D01*
X138749829Y-95541023D01*
X138791101Y-95542400D01*
G37*
G36*
X136548768Y-95542400D02*
G01*
X136580082Y-95545830D01*
X136656323Y-95566261D01*
X136733586Y-95600662D01*
X136802790Y-95644552D01*
X136854855Y-95693450D01*
X136875877Y-95720913D01*
X136934912Y-95823478D01*
X136969199Y-95931824D01*
X136978451Y-96043461D01*
X136962383Y-96155901D01*
X136920710Y-96266656D01*
X136876715Y-96340693D01*
X136809219Y-96415537D01*
X136726149Y-96470669D01*
X136624428Y-96508603D01*
X136599192Y-96514788D01*
X136550295Y-96524048D01*
X136511876Y-96528070D01*
X136511847Y-96528071D01*
X136482471Y-96526602D01*
X136471836Y-96515334D01*
X136472537Y-96486426D01*
X136475519Y-96465486D01*
X136484427Y-96449678D01*
X136505546Y-96440846D01*
X136545801Y-96434036D01*
X136573499Y-96429157D01*
X136667048Y-96397360D01*
X136746406Y-96346053D01*
X136809726Y-96278297D01*
X136855164Y-96197148D01*
X136880873Y-96105665D01*
X136885009Y-96006906D01*
X136865724Y-95903929D01*
X136844647Y-95848169D01*
X136792478Y-95763925D01*
X136722569Y-95698117D01*
X136636899Y-95652407D01*
X136537450Y-95628457D01*
X136500351Y-95623456D01*
X136478873Y-95616460D01*
X136471704Y-95603394D01*
X136472679Y-95579607D01*
X136472837Y-95577992D01*
X136476330Y-95555494D01*
X136485616Y-95544279D01*
X136507495Y-95541023D01*
X136548768Y-95542400D01*
G37*
G36*
X129257906Y-95542400D02*
G01*
X129289220Y-95545830D01*
X129365461Y-95566261D01*
X129442724Y-95600662D01*
X129511928Y-95644552D01*
X129563992Y-95693450D01*
X129585015Y-95720913D01*
X129644050Y-95823478D01*
X129678336Y-95931824D01*
X129687589Y-96043461D01*
X129671521Y-96155901D01*
X129629848Y-96266656D01*
X129585853Y-96340693D01*
X129518357Y-96415537D01*
X129435287Y-96470669D01*
X129333566Y-96508603D01*
X129308330Y-96514788D01*
X129259433Y-96524048D01*
X129221014Y-96528070D01*
X129220985Y-96528071D01*
X129191609Y-96526602D01*
X129180974Y-96515334D01*
X129181675Y-96486426D01*
X129184657Y-96465486D01*
X129193565Y-96449678D01*
X129214684Y-96440846D01*
X129254939Y-96434036D01*
X129282637Y-96429157D01*
X129376186Y-96397360D01*
X129455544Y-96346053D01*
X129518864Y-96278297D01*
X129564302Y-96197148D01*
X129590011Y-96105665D01*
X129594146Y-96006906D01*
X129574862Y-95903929D01*
X129553784Y-95848169D01*
X129501616Y-95763925D01*
X129431707Y-95698117D01*
X129346037Y-95652407D01*
X129246588Y-95628457D01*
X129209489Y-95623456D01*
X129188011Y-95616460D01*
X129180842Y-95603394D01*
X129181817Y-95579607D01*
X129181975Y-95577992D01*
X129185468Y-95555494D01*
X129194754Y-95544279D01*
X129216633Y-95541023D01*
X129257906Y-95542400D01*
G37*
G36*
X136234054Y-95663471D02*
G01*
X136234054Y-95781489D01*
X136272711Y-95781489D01*
X136297689Y-95783026D01*
X136305396Y-95793054D01*
X136298113Y-95819514D01*
X136281712Y-95847829D01*
X136259456Y-95864182D01*
X136257081Y-95864864D01*
X136249782Y-95868808D01*
X136244212Y-95877434D01*
X136240138Y-95893822D01*
X136237327Y-95921047D01*
X136235546Y-95962188D01*
X136234562Y-96020321D01*
X136234142Y-96098526D01*
X136234054Y-96199879D01*
X136234054Y-96528933D01*
X136109480Y-96528933D01*
X135984906Y-96528933D01*
X135984906Y-96483038D01*
X135984906Y-96437142D01*
X136070397Y-96437142D01*
X136155887Y-96437142D01*
X136152353Y-96151933D01*
X136148819Y-95866724D01*
X136053750Y-95862871D01*
X136047313Y-95862589D01*
X136002444Y-95859315D01*
X135970792Y-95854738D01*
X135958859Y-95849758D01*
X135960545Y-95838290D01*
X135966797Y-95811561D01*
X135972912Y-95797116D01*
X135986825Y-95787220D01*
X136014307Y-95781836D01*
X136061687Y-95778778D01*
X136148819Y-95774932D01*
X136148819Y-95702811D01*
X136148819Y-95630689D01*
X136066863Y-95626785D01*
X136051530Y-95626038D01*
X136013311Y-95623110D01*
X135993499Y-95617252D01*
X135986046Y-95605320D01*
X135984906Y-95584167D01*
X135984906Y-95545454D01*
X136109480Y-95545454D01*
X136234054Y-95545454D01*
X136234054Y-95663471D01*
G37*
G36*
X131001943Y-95663471D02*
G01*
X131001943Y-95781489D01*
X131040600Y-95781489D01*
X131065577Y-95783026D01*
X131073285Y-95793054D01*
X131066001Y-95819514D01*
X131049600Y-95847829D01*
X131027344Y-95864182D01*
X131024970Y-95864864D01*
X131017671Y-95868808D01*
X131012101Y-95877434D01*
X131008027Y-95893822D01*
X131005216Y-95921047D01*
X131003434Y-95962188D01*
X131002450Y-96020321D01*
X131002031Y-96098526D01*
X131001943Y-96199879D01*
X131001943Y-96528933D01*
X130877369Y-96528933D01*
X130752795Y-96528933D01*
X130752795Y-96483038D01*
X130752795Y-96437142D01*
X130838285Y-96437142D01*
X130923776Y-96437142D01*
X130920242Y-96151933D01*
X130916708Y-95866724D01*
X130821638Y-95862871D01*
X130815202Y-95862589D01*
X130770332Y-95859315D01*
X130738680Y-95854738D01*
X130726748Y-95849758D01*
X130728434Y-95838290D01*
X130734685Y-95811561D01*
X130740801Y-95797116D01*
X130754713Y-95787220D01*
X130782196Y-95781836D01*
X130829576Y-95778778D01*
X130916708Y-95774932D01*
X130916708Y-95702811D01*
X130916708Y-95630689D01*
X130834751Y-95626785D01*
X130819418Y-95626038D01*
X130781199Y-95623110D01*
X130761387Y-95617252D01*
X130753935Y-95605320D01*
X130752795Y-95584167D01*
X130752795Y-95545454D01*
X130877369Y-95545454D01*
X131001943Y-95545454D01*
X131001943Y-95663471D01*
G37*
G36*
X128943192Y-95663471D02*
G01*
X128943192Y-95781489D01*
X128981849Y-95781489D01*
X129006827Y-95783026D01*
X129014534Y-95793054D01*
X129007250Y-95819514D01*
X128990850Y-95847829D01*
X128968593Y-95864182D01*
X128966219Y-95864864D01*
X128958920Y-95868808D01*
X128953350Y-95877434D01*
X128949276Y-95893822D01*
X128946465Y-95921047D01*
X128944684Y-95962188D01*
X128943700Y-96020321D01*
X128943280Y-96098526D01*
X128943192Y-96199879D01*
X128943192Y-96528933D01*
X128818618Y-96528933D01*
X128694044Y-96528933D01*
X128694044Y-96483038D01*
X128694044Y-96437142D01*
X128779535Y-96437142D01*
X128865025Y-96437142D01*
X128861491Y-96151933D01*
X128857957Y-95866724D01*
X128762888Y-95862871D01*
X128756451Y-95862589D01*
X128711582Y-95859315D01*
X128679930Y-95854738D01*
X128667997Y-95849758D01*
X128669683Y-95838290D01*
X128675934Y-95811561D01*
X128682050Y-95797116D01*
X128695963Y-95787220D01*
X128723445Y-95781836D01*
X128770825Y-95778778D01*
X128857957Y-95774932D01*
X128857957Y-95702811D01*
X128857957Y-95630689D01*
X128776001Y-95626785D01*
X128760668Y-95626038D01*
X128722449Y-95623110D01*
X128702637Y-95617252D01*
X128695184Y-95605320D01*
X128694044Y-95584167D01*
X128694044Y-95545454D01*
X128818618Y-95545454D01*
X128943192Y-95545454D01*
X128943192Y-95663471D01*
G37*
G36*
X130110255Y-95781489D02*
G01*
X130148912Y-95781489D01*
X130173889Y-95783026D01*
X130181596Y-95793054D01*
X130174313Y-95819514D01*
X130157912Y-95847829D01*
X130135656Y-95864182D01*
X130133281Y-95864864D01*
X130125983Y-95868808D01*
X130120413Y-95877434D01*
X130116339Y-95893822D01*
X130113527Y-95921047D01*
X130111746Y-95962188D01*
X130110762Y-96020321D01*
X130110343Y-96098526D01*
X130110255Y-96199879D01*
X130110255Y-96528933D01*
X130064359Y-96528933D01*
X130018463Y-96528933D01*
X130018463Y-96194550D01*
X130018463Y-95860167D01*
X129946341Y-95860167D01*
X129874220Y-95860167D01*
X129874220Y-96194550D01*
X129874220Y-96528933D01*
X129828324Y-96528933D01*
X129782428Y-96528933D01*
X129782428Y-96068968D01*
X129782428Y-95781489D01*
X129872911Y-95781489D01*
X130019772Y-95781489D01*
X130015839Y-95706978D01*
X130013748Y-95675973D01*
X130008522Y-95646555D01*
X129998023Y-95631616D01*
X129979124Y-95624094D01*
X129953089Y-95620695D01*
X129913559Y-95623743D01*
X129899592Y-95628249D01*
X129886809Y-95639827D01*
X129880261Y-95663618D01*
X129876843Y-95706627D01*
X129872911Y-95781489D01*
X129782428Y-95781489D01*
X129782428Y-95609002D01*
X129819794Y-95571636D01*
X129820844Y-95570596D01*
X129873931Y-95535965D01*
X129937828Y-95522270D01*
X130005912Y-95530960D01*
X130047169Y-95548096D01*
X130083832Y-95581015D01*
X130104053Y-95629697D01*
X130110255Y-95698022D01*
X130110255Y-95781489D01*
G37*
G36*
X125297761Y-95781489D02*
G01*
X125336418Y-95781489D01*
X125361396Y-95783026D01*
X125369103Y-95793054D01*
X125361819Y-95819514D01*
X125345419Y-95847829D01*
X125323162Y-95864182D01*
X125320788Y-95864864D01*
X125313489Y-95868808D01*
X125307919Y-95877434D01*
X125303845Y-95893822D01*
X125301034Y-95921047D01*
X125299253Y-95962188D01*
X125298269Y-96020321D01*
X125297849Y-96098526D01*
X125297761Y-96199879D01*
X125297761Y-96528933D01*
X125251865Y-96528933D01*
X125205970Y-96528933D01*
X125205970Y-96194550D01*
X125205970Y-95860167D01*
X125133848Y-95860167D01*
X125061726Y-95860167D01*
X125061726Y-96194550D01*
X125061726Y-96528933D01*
X125015830Y-96528933D01*
X124969935Y-96528933D01*
X124969935Y-96068968D01*
X124969935Y-95781489D01*
X125060417Y-95781489D01*
X125207278Y-95781489D01*
X125203346Y-95706978D01*
X125201254Y-95675973D01*
X125196029Y-95646555D01*
X125185530Y-95631616D01*
X125166630Y-95624094D01*
X125140595Y-95620695D01*
X125101065Y-95623743D01*
X125087099Y-95628249D01*
X125074316Y-95639827D01*
X125067767Y-95663618D01*
X125064350Y-95706627D01*
X125060417Y-95781489D01*
X124969935Y-95781489D01*
X124969935Y-95609002D01*
X125007301Y-95571636D01*
X125008351Y-95570596D01*
X125061438Y-95535965D01*
X125125335Y-95522270D01*
X125193418Y-95530960D01*
X125234676Y-95548096D01*
X125271339Y-95581015D01*
X125291559Y-95629697D01*
X125297761Y-95698022D01*
X125297761Y-95781489D01*
G37*
G36*
X135866889Y-96039301D02*
G01*
X135866889Y-96528933D01*
X135820993Y-96528933D01*
X135775097Y-96528933D01*
X135775097Y-96432045D01*
X135775097Y-96335156D01*
X135726733Y-96326083D01*
X135711637Y-96322703D01*
X135651790Y-96301708D01*
X135589025Y-96270550D01*
X135532867Y-96234423D01*
X135492843Y-96198523D01*
X135488609Y-96193443D01*
X135440032Y-96118824D01*
X135412115Y-96036001D01*
X135406010Y-95972806D01*
X135491614Y-95972806D01*
X135506135Y-96043352D01*
X135539924Y-96113226D01*
X135593771Y-96168699D01*
X135670193Y-96213159D01*
X135671743Y-96213862D01*
X135704140Y-96228709D01*
X135728966Y-96238328D01*
X135747227Y-96240096D01*
X135759924Y-96231387D01*
X135768063Y-96209577D01*
X135772646Y-96172042D01*
X135774677Y-96116158D01*
X135775159Y-96039301D01*
X135775097Y-95938846D01*
X135774996Y-95871599D01*
X135774370Y-95788163D01*
X135773023Y-95726263D01*
X135770786Y-95683060D01*
X135767488Y-95655715D01*
X135762959Y-95641390D01*
X135757029Y-95637245D01*
X135732384Y-95641285D01*
X135685536Y-95660481D01*
X135633722Y-95691671D01*
X135584762Y-95730617D01*
X135566962Y-95748035D01*
X135517459Y-95815345D01*
X135492679Y-95889395D01*
X135491614Y-95972806D01*
X135406010Y-95972806D01*
X135402729Y-95938846D01*
X135402692Y-95930124D01*
X135405249Y-95869721D01*
X135414335Y-95822990D01*
X135431939Y-95779044D01*
X135466369Y-95724002D01*
X135530666Y-95657740D01*
X135610237Y-95603753D01*
X135699154Y-95565854D01*
X135791488Y-95547854D01*
X135866889Y-95542302D01*
X135866889Y-96035618D01*
X135866889Y-96039301D01*
G37*
G36*
X126386145Y-95984280D02*
G01*
X126386162Y-96056732D01*
X126386332Y-96161612D01*
X126386812Y-96244535D01*
X126387751Y-96308199D01*
X126389301Y-96355297D01*
X126391613Y-96388528D01*
X126394839Y-96410585D01*
X126399130Y-96424166D01*
X126404636Y-96431966D01*
X126411509Y-96436681D01*
X126439854Y-96445927D01*
X126477937Y-96450255D01*
X126512744Y-96446597D01*
X126544364Y-96436681D01*
X126548551Y-96434148D01*
X126554608Y-96427960D01*
X126559386Y-96417113D01*
X126563037Y-96398911D01*
X126565711Y-96370658D01*
X126567560Y-96329659D01*
X126568735Y-96273218D01*
X126569388Y-96198638D01*
X126569668Y-96103224D01*
X126569728Y-95984280D01*
X126569728Y-95545454D01*
X126616114Y-95545454D01*
X126662500Y-95545454D01*
X126658731Y-95996495D01*
X126658030Y-96077664D01*
X126656953Y-96183087D01*
X126655734Y-96266822D01*
X126654198Y-96331620D01*
X126652176Y-96380234D01*
X126649494Y-96415419D01*
X126645981Y-96439926D01*
X126641465Y-96456508D01*
X126635774Y-96467920D01*
X126628737Y-96476913D01*
X126600325Y-96501759D01*
X126563171Y-96524381D01*
X126522499Y-96535559D01*
X126464369Y-96537241D01*
X126407003Y-96527223D01*
X126362220Y-96506553D01*
X126357800Y-96503253D01*
X126340986Y-96489645D01*
X126327462Y-96474900D01*
X126316866Y-96456229D01*
X126308841Y-96430845D01*
X126303027Y-96395960D01*
X126299065Y-96348787D01*
X126296595Y-96286539D01*
X126295258Y-96206427D01*
X126294695Y-96105664D01*
X126294547Y-95981463D01*
X126294354Y-95545454D01*
X126340249Y-95545454D01*
X126386145Y-95545454D01*
X126386145Y-95984280D01*
G37*
G36*
X134516243Y-95708455D02*
G01*
X134516243Y-96037255D01*
X134516243Y-96131749D01*
X134516243Y-96532303D01*
X134414357Y-96526405D01*
X134360421Y-96521153D01*
X134263066Y-96497360D01*
X134184134Y-96455599D01*
X134122580Y-96395217D01*
X134077361Y-96315562D01*
X134067395Y-96282991D01*
X134058683Y-96218210D01*
X134058494Y-96181571D01*
X134149731Y-96181571D01*
X134154032Y-96245601D01*
X134166964Y-96297210D01*
X134176966Y-96316152D01*
X134211533Y-96359503D01*
X134255625Y-96398498D01*
X134299139Y-96423484D01*
X134301868Y-96424454D01*
X134335009Y-96433766D01*
X134375278Y-96442457D01*
X134424452Y-96451443D01*
X134424452Y-96182031D01*
X134424491Y-96131749D01*
X134424391Y-96050671D01*
X134423157Y-95991370D01*
X134419712Y-95950894D01*
X134412979Y-95926291D01*
X134401882Y-95914610D01*
X134385344Y-95912900D01*
X134362290Y-95918210D01*
X134331641Y-95927587D01*
X134301179Y-95939453D01*
X134245325Y-95973898D01*
X134197712Y-96018294D01*
X134167118Y-96065296D01*
X134166986Y-96065612D01*
X134154052Y-96117461D01*
X134149731Y-96181571D01*
X134058494Y-96181571D01*
X134058311Y-96146224D01*
X134066112Y-96077767D01*
X134081919Y-96023573D01*
X134081968Y-96023463D01*
X134115717Y-95971177D01*
X134165762Y-95919155D01*
X134223314Y-95875237D01*
X134279587Y-95847259D01*
X134333140Y-95829585D01*
X134306876Y-95801628D01*
X134280691Y-95760565D01*
X134273739Y-95719302D01*
X134360000Y-95719302D01*
X134372658Y-95749499D01*
X134386457Y-95763255D01*
X134406733Y-95768817D01*
X134419814Y-95750221D01*
X134424452Y-95708455D01*
X134424326Y-95692019D01*
X134421689Y-95663660D01*
X134413025Y-95652694D01*
X134394947Y-95652725D01*
X134378071Y-95660701D01*
X134362590Y-95686294D01*
X134360000Y-95719302D01*
X134273739Y-95719302D01*
X134271371Y-95705245D01*
X134285863Y-95648598D01*
X134286508Y-95647280D01*
X134323791Y-95595332D01*
X134376136Y-95562850D01*
X134446486Y-95547991D01*
X134516243Y-95542206D01*
X134516243Y-95708455D01*
G37*
G36*
X138547360Y-96031761D02*
G01*
X138544783Y-96096408D01*
X138535339Y-96159349D01*
X138517339Y-96216864D01*
X138512385Y-96228920D01*
X138461261Y-96317139D01*
X138389522Y-96396570D01*
X138301882Y-96462794D01*
X138203057Y-96511393D01*
X138178068Y-96518166D01*
X138115297Y-96525064D01*
X138030107Y-96525465D01*
X138019014Y-96525107D01*
X137957149Y-96521635D01*
X137911015Y-96514974D01*
X137871494Y-96503273D01*
X137829467Y-96484676D01*
X137799675Y-96468563D01*
X137716307Y-96407079D01*
X137643626Y-96329763D01*
X137589357Y-96244347D01*
X137576773Y-96217490D01*
X137563765Y-96182604D01*
X137556308Y-96146473D01*
X137552902Y-96100776D01*
X137552248Y-96052019D01*
X137638169Y-96052019D01*
X137652217Y-96144332D01*
X137683761Y-96226318D01*
X137700536Y-96254296D01*
X137757278Y-96324198D01*
X137824950Y-96380405D01*
X137896637Y-96416732D01*
X138001315Y-96440760D01*
X138104052Y-96440790D01*
X138199695Y-96416829D01*
X138285832Y-96369827D01*
X138360054Y-96300735D01*
X138419948Y-96210503D01*
X138427018Y-96195626D01*
X138450016Y-96118243D01*
X138458113Y-96031761D01*
X138451053Y-95946224D01*
X138428582Y-95871675D01*
X138384120Y-95797187D01*
X138313907Y-95722677D01*
X138229345Y-95667140D01*
X138187471Y-95648475D01*
X138148847Y-95637301D01*
X138104276Y-95632092D01*
X138043657Y-95630873D01*
X137984036Y-95632211D01*
X137940384Y-95637290D01*
X137903952Y-95647994D01*
X137865220Y-95666208D01*
X137802555Y-95707970D01*
X137740051Y-95767383D01*
X137688967Y-95834485D01*
X137656130Y-95901589D01*
X137642461Y-95959313D01*
X137638169Y-96052019D01*
X137552248Y-96052019D01*
X137552049Y-96037194D01*
X137552276Y-95995958D01*
X137554495Y-95943528D01*
X137560301Y-95903637D01*
X137571179Y-95867763D01*
X137588613Y-95827385D01*
X137613941Y-95780790D01*
X137676947Y-95698213D01*
X137754357Y-95627524D01*
X137839033Y-95575893D01*
X137864855Y-95564405D01*
X137902002Y-95550994D01*
X137939610Y-95543273D01*
X137986257Y-95539741D01*
X138050523Y-95538897D01*
X138108910Y-95539444D01*
X138154906Y-95542304D01*
X138191129Y-95549153D01*
X138226140Y-95561666D01*
X138268496Y-95581514D01*
X138279626Y-95587156D01*
X138371318Y-95648714D01*
X138446577Y-95729677D01*
X138506870Y-95831586D01*
X138511327Y-95841100D01*
X138530797Y-95886999D01*
X138541835Y-95926696D01*
X138546639Y-95970980D01*
X138547405Y-96030637D01*
X138547360Y-96031761D01*
G37*
G36*
X127768423Y-96031761D02*
G01*
X127765847Y-96096408D01*
X127756402Y-96159349D01*
X127738402Y-96216864D01*
X127733449Y-96228920D01*
X127682324Y-96317139D01*
X127610585Y-96396570D01*
X127522946Y-96462794D01*
X127424120Y-96511393D01*
X127399131Y-96518166D01*
X127336361Y-96525064D01*
X127251170Y-96525465D01*
X127240078Y-96525107D01*
X127178213Y-96521635D01*
X127132078Y-96514974D01*
X127092557Y-96503273D01*
X127050530Y-96484676D01*
X127020739Y-96468563D01*
X126937370Y-96407079D01*
X126864690Y-96329763D01*
X126810420Y-96244347D01*
X126797836Y-96217490D01*
X126784829Y-96182604D01*
X126777372Y-96146473D01*
X126773966Y-96100776D01*
X126773312Y-96052019D01*
X126859232Y-96052019D01*
X126873281Y-96144332D01*
X126904824Y-96226318D01*
X126921600Y-96254296D01*
X126978342Y-96324198D01*
X127046014Y-96380405D01*
X127117700Y-96416732D01*
X127222378Y-96440760D01*
X127325115Y-96440790D01*
X127420758Y-96416829D01*
X127506896Y-96369827D01*
X127581117Y-96300735D01*
X127641011Y-96210503D01*
X127648082Y-96195626D01*
X127671079Y-96118243D01*
X127679176Y-96031761D01*
X127672117Y-95946224D01*
X127649645Y-95871675D01*
X127605184Y-95797187D01*
X127534970Y-95722677D01*
X127450408Y-95667140D01*
X127408535Y-95648475D01*
X127369911Y-95637301D01*
X127325339Y-95632092D01*
X127264720Y-95630873D01*
X127205100Y-95632211D01*
X127161448Y-95637290D01*
X127125016Y-95647994D01*
X127086283Y-95666208D01*
X127023618Y-95707970D01*
X126961115Y-95767383D01*
X126910030Y-95834485D01*
X126877193Y-95901589D01*
X126863524Y-95959313D01*
X126859232Y-96052019D01*
X126773312Y-96052019D01*
X126773113Y-96037194D01*
X126773340Y-95995958D01*
X126775559Y-95943528D01*
X126781365Y-95903637D01*
X126792242Y-95867763D01*
X126809677Y-95827385D01*
X126835005Y-95780790D01*
X126898011Y-95698213D01*
X126975421Y-95627524D01*
X127060097Y-95575893D01*
X127085919Y-95564405D01*
X127123066Y-95550994D01*
X127160673Y-95543273D01*
X127207320Y-95539741D01*
X127271586Y-95538897D01*
X127329974Y-95539444D01*
X127375969Y-95542304D01*
X127412193Y-95549153D01*
X127447203Y-95561666D01*
X127489559Y-95581514D01*
X127500690Y-95587156D01*
X127592382Y-95648714D01*
X127667640Y-95729677D01*
X127727933Y-95831586D01*
X127732390Y-95841100D01*
X127751860Y-95886999D01*
X127762899Y-95926696D01*
X127767702Y-95970980D01*
X127768468Y-96030637D01*
X127768423Y-96031761D01*
G37*
G36*
X128485389Y-95997854D02*
G01*
X128500839Y-96091011D01*
X128517830Y-96193154D01*
X128533247Y-96285525D01*
X128546552Y-96364903D01*
X128557204Y-96428067D01*
X128564663Y-96471797D01*
X128568389Y-96492872D01*
X128570782Y-96517141D01*
X128560462Y-96527057D01*
X128530687Y-96528933D01*
X128495180Y-96523547D01*
X128479318Y-96505986D01*
X128477604Y-96498266D01*
X128471763Y-96466423D01*
X128462932Y-96414849D01*
X128451774Y-96347514D01*
X128438952Y-96268387D01*
X128425129Y-96181437D01*
X128417245Y-96131673D01*
X128403943Y-96049061D01*
X128392030Y-95976723D01*
X128382161Y-95918571D01*
X128374995Y-95878515D01*
X128371188Y-95860465D01*
X128370171Y-95858639D01*
X128358905Y-95863606D01*
X128338243Y-95889922D01*
X128309755Y-95935666D01*
X128300560Y-95951286D01*
X128275627Y-95991638D01*
X128256436Y-96019800D01*
X128246546Y-96030438D01*
X128244768Y-96029413D01*
X128232379Y-96012702D01*
X128212546Y-95979756D01*
X128188641Y-95936068D01*
X128185386Y-95929890D01*
X128161421Y-95886375D01*
X128145699Y-95863380D01*
X128135669Y-95857973D01*
X128128784Y-95867224D01*
X128126693Y-95874246D01*
X128119451Y-95905607D01*
X128108798Y-95956710D01*
X128095545Y-96023506D01*
X128080503Y-96101949D01*
X128064483Y-96187994D01*
X128056323Y-96232322D01*
X128041017Y-96314685D01*
X128027351Y-96387229D01*
X128016087Y-96445958D01*
X128007987Y-96486876D01*
X128003814Y-96505986D01*
X128003380Y-96507388D01*
X127987270Y-96523877D01*
X127951230Y-96528933D01*
X127948425Y-96528930D01*
X127919570Y-96526910D01*
X127909882Y-96516948D01*
X127912779Y-96492872D01*
X127915646Y-96478592D01*
X127923256Y-96439758D01*
X127934686Y-96380942D01*
X127949307Y-96305401D01*
X127966490Y-96216388D01*
X127985606Y-96117159D01*
X128006023Y-96010967D01*
X128022579Y-95924902D01*
X128041598Y-95826368D01*
X128058647Y-95738402D01*
X128073134Y-95664043D01*
X128084467Y-95606329D01*
X128092053Y-95568297D01*
X128095299Y-95552986D01*
X128096032Y-95552576D01*
X128104700Y-95564990D01*
X128121188Y-95596445D01*
X128143486Y-95642947D01*
X128169583Y-95700508D01*
X128175927Y-95714777D01*
X128201884Y-95771748D01*
X128223919Y-95817920D01*
X128239872Y-95848868D01*
X128247580Y-95860167D01*
X128248775Y-95859284D01*
X128259489Y-95842366D01*
X128278472Y-95807224D01*
X128303450Y-95758173D01*
X128332150Y-95699532D01*
X128409371Y-95538897D01*
X128485389Y-95997854D01*
G37*
G36*
X132351967Y-95545507D02*
G01*
X132380378Y-95547464D01*
X132391927Y-95551365D01*
X132393254Y-95559725D01*
X132399200Y-95590200D01*
X132409009Y-95638259D01*
X132421679Y-95699184D01*
X132436209Y-95768257D01*
X132451595Y-95840762D01*
X132466835Y-95911981D01*
X132480928Y-95977196D01*
X132492870Y-96031691D01*
X132501660Y-96070746D01*
X132506295Y-96089646D01*
X132506440Y-96090072D01*
X132512391Y-96086091D01*
X132523453Y-96057969D01*
X132539184Y-96007127D01*
X132559142Y-95934986D01*
X132582887Y-95842966D01*
X132590519Y-95812708D01*
X132610487Y-95734729D01*
X132628260Y-95666998D01*
X132642814Y-95613318D01*
X132653126Y-95577493D01*
X132658172Y-95563325D01*
X132658973Y-95562558D01*
X132662158Y-95561337D01*
X132665830Y-95565774D01*
X132670994Y-95579162D01*
X132678650Y-95604792D01*
X132689802Y-95645955D01*
X132705450Y-95705942D01*
X132726599Y-95788045D01*
X132730671Y-95803852D01*
X132749691Y-95876924D01*
X132767966Y-95946032D01*
X132783594Y-96004025D01*
X132794668Y-96043750D01*
X132815542Y-96115872D01*
X132872372Y-95835215D01*
X132879507Y-95800146D01*
X132895837Y-95721183D01*
X132910343Y-95652813D01*
X132922201Y-95598818D01*
X132930587Y-95562980D01*
X132934678Y-95549081D01*
X132949478Y-95546459D01*
X132978641Y-95547807D01*
X133017128Y-95552010D01*
X132924496Y-96033585D01*
X132921968Y-96046713D01*
X132901039Y-96153868D01*
X132881425Y-96251741D01*
X132863713Y-96337582D01*
X132848492Y-96408643D01*
X132836347Y-96462175D01*
X132827866Y-96495429D01*
X132823638Y-96505655D01*
X132822214Y-96502698D01*
X132814562Y-96478944D01*
X132802044Y-96435042D01*
X132785706Y-96374824D01*
X132766597Y-96302124D01*
X132745765Y-96220776D01*
X132737972Y-96190074D01*
X132717527Y-96110583D01*
X132699148Y-96040601D01*
X132683903Y-95984111D01*
X132672862Y-95945100D01*
X132667095Y-95927551D01*
X132663785Y-95930072D01*
X132654536Y-95953179D01*
X132640805Y-95996281D01*
X132623552Y-96056146D01*
X132603734Y-96129545D01*
X132582309Y-96213248D01*
X132567550Y-96271866D01*
X132547368Y-96350248D01*
X132529699Y-96416794D01*
X132515474Y-96468094D01*
X132505621Y-96500737D01*
X132501069Y-96511316D01*
X132498049Y-96500774D01*
X132490301Y-96467134D01*
X132478580Y-96413301D01*
X132463510Y-96342231D01*
X132445717Y-96256879D01*
X132425829Y-96160200D01*
X132404469Y-96055149D01*
X132386533Y-95966519D01*
X132366147Y-95866005D01*
X132347719Y-95775372D01*
X132331894Y-95697785D01*
X132319317Y-95636410D01*
X132310634Y-95594413D01*
X132306493Y-95574958D01*
X132304612Y-95556446D01*
X132315359Y-95547394D01*
X132345782Y-95545454D01*
X132351967Y-95545507D01*
G37*
%TO.C,R13*%
X93116323Y-87109000D02*
X93423605Y-87109000D01*
X93116323Y-87869000D02*
X93423605Y-87869000D01*
%TO.C,G\u002A\u002A\u002A*%
G36*
X190721518Y-95516780D02*
G01*
X190729477Y-95730472D01*
X191126780Y-95518833D01*
X191220468Y-95469175D01*
X191344083Y-95404488D01*
X191444996Y-95352682D01*
X191514687Y-95318114D01*
X191544633Y-95305141D01*
X191547438Y-95319330D01*
X191551068Y-95382696D01*
X191554424Y-95492410D01*
X191557442Y-95643601D01*
X191560056Y-95831397D01*
X191562202Y-96050927D01*
X191563815Y-96297318D01*
X191564830Y-96565700D01*
X191565183Y-96851200D01*
X191565183Y-98399312D01*
X191414482Y-98399312D01*
X191263781Y-98399312D01*
X191263781Y-97083852D01*
X191263781Y-95768392D01*
X190989779Y-95905893D01*
X190715776Y-96043393D01*
X190715776Y-97221353D01*
X190715776Y-98399312D01*
X190578775Y-98399312D01*
X190441774Y-98399312D01*
X190441774Y-96851200D01*
X190441774Y-95303088D01*
X190577667Y-95303088D01*
X190713560Y-95303088D01*
X190721518Y-95516780D01*
G37*
G36*
X197511030Y-95672991D02*
G01*
X197511030Y-96042894D01*
X197624056Y-96042894D01*
X197657575Y-96043111D01*
X197710817Y-96048950D01*
X197727828Y-96070572D01*
X197721950Y-96118244D01*
X197708788Y-96177377D01*
X197675713Y-96274936D01*
X197634366Y-96328163D01*
X197580209Y-96344296D01*
X197511030Y-96344296D01*
X197511030Y-97371804D01*
X197511030Y-98399312D01*
X197113727Y-98399312D01*
X196716424Y-98399312D01*
X196716424Y-98262311D01*
X196716424Y-98125310D01*
X196990426Y-98125310D01*
X197264428Y-98125310D01*
X197264428Y-97234803D01*
X197264428Y-96344296D01*
X196949326Y-96344296D01*
X196832125Y-96342672D01*
X196729390Y-96337865D01*
X196659817Y-96330643D01*
X196634223Y-96321777D01*
X196636724Y-96306945D01*
X196652470Y-96249945D01*
X196677899Y-96171076D01*
X196721575Y-96042894D01*
X196993002Y-96042894D01*
X197264428Y-96042894D01*
X197264428Y-95809992D01*
X197264428Y-95577090D01*
X196990426Y-95577090D01*
X196716424Y-95577090D01*
X196716424Y-95440089D01*
X196716424Y-95303088D01*
X197113727Y-95303088D01*
X197511030Y-95303088D01*
X197511030Y-95672991D01*
G37*
G36*
X186550944Y-95672991D02*
G01*
X186550944Y-96042894D01*
X186663970Y-96042894D01*
X186697489Y-96043111D01*
X186750730Y-96048950D01*
X186767742Y-96070572D01*
X186761864Y-96118244D01*
X186748702Y-96177377D01*
X186715626Y-96274936D01*
X186674280Y-96328163D01*
X186620122Y-96344296D01*
X186550944Y-96344296D01*
X186550944Y-97371804D01*
X186550944Y-98399312D01*
X186153641Y-98399312D01*
X185756337Y-98399312D01*
X185756337Y-98262311D01*
X185756337Y-98125310D01*
X186030340Y-98125310D01*
X186304342Y-98125310D01*
X186304342Y-97234803D01*
X186304342Y-96344296D01*
X185989239Y-96344296D01*
X185872038Y-96342672D01*
X185769303Y-96337865D01*
X185699731Y-96330643D01*
X185674137Y-96321777D01*
X185676637Y-96306945D01*
X185692384Y-96249945D01*
X185717813Y-96171076D01*
X185761489Y-96042894D01*
X186032915Y-96042894D01*
X186304342Y-96042894D01*
X186304342Y-95809992D01*
X186304342Y-95577090D01*
X186030340Y-95577090D01*
X185756337Y-95577090D01*
X185756337Y-95440089D01*
X185756337Y-95303088D01*
X186153641Y-95303088D01*
X186550944Y-95303088D01*
X186550944Y-95672991D01*
G37*
G36*
X183975323Y-95297667D02*
G01*
X184126833Y-95313298D01*
X184398894Y-95380851D01*
X184647367Y-95494987D01*
X184867586Y-95652053D01*
X185054886Y-95848396D01*
X185204599Y-96080361D01*
X185312061Y-96344296D01*
X185353837Y-96509299D01*
X185387462Y-96795182D01*
X185373395Y-97073325D01*
X185314509Y-97338582D01*
X185213676Y-97585806D01*
X185073768Y-97809850D01*
X184897657Y-98005569D01*
X184688214Y-98167816D01*
X184448313Y-98291445D01*
X184180825Y-98371309D01*
X184156351Y-98375756D01*
X184048969Y-98389352D01*
X183941073Y-98396310D01*
X183810922Y-98399312D01*
X183810922Y-98267890D01*
X183810922Y-98136468D01*
X184025484Y-98105196D01*
X184081425Y-98096160D01*
X184318165Y-98033450D01*
X184522384Y-97933452D01*
X184704150Y-97791511D01*
X184728893Y-97767606D01*
X184894049Y-97571830D01*
X185009270Y-97357934D01*
X185076681Y-97120875D01*
X185098407Y-96855609D01*
X185098326Y-96839261D01*
X185082245Y-96612712D01*
X185034860Y-96411252D01*
X184951195Y-96213161D01*
X184854153Y-96053772D01*
X184690647Y-95873017D01*
X184492032Y-95733112D01*
X184260897Y-95635772D01*
X183999831Y-95582713D01*
X183824622Y-95563390D01*
X183824622Y-95426389D01*
X183824622Y-95289388D01*
X183975323Y-95297667D01*
G37*
G36*
X199471435Y-95597640D02*
G01*
X199477224Y-96858050D01*
X199484302Y-98399312D01*
X199333372Y-98399312D01*
X199182443Y-98399312D01*
X199182443Y-98101241D01*
X199182443Y-97803170D01*
X199001579Y-97757738D01*
X198875256Y-97720615D01*
X198633129Y-97613974D01*
X198426872Y-97471649D01*
X198260044Y-97297014D01*
X198136203Y-97093442D01*
X198058910Y-96864308D01*
X198040690Y-96751149D01*
X198031509Y-96567821D01*
X198036754Y-96474214D01*
X198306896Y-96474214D01*
X198311011Y-96600260D01*
X198313156Y-96638508D01*
X198342767Y-96850456D01*
X198404473Y-97023995D01*
X198503909Y-97167662D01*
X198646710Y-97289997D01*
X198838511Y-97399538D01*
X198851244Y-97405683D01*
X198954520Y-97452869D01*
X199045969Y-97490508D01*
X199107093Y-97510927D01*
X199182443Y-97528446D01*
X199182443Y-96563043D01*
X199182443Y-95597640D01*
X199099692Y-95614191D01*
X198944536Y-95664030D01*
X198768774Y-95760277D01*
X198605062Y-95888371D01*
X198467382Y-96037177D01*
X198369712Y-96195561D01*
X198350659Y-96238490D01*
X198324035Y-96311838D01*
X198310343Y-96384243D01*
X198306896Y-96474214D01*
X198036754Y-96474214D01*
X198041992Y-96380723D01*
X198070779Y-96208624D01*
X198116506Y-96070294D01*
X198119632Y-96063662D01*
X198240160Y-95870707D01*
X198404020Y-95697783D01*
X198601859Y-95550761D01*
X198824327Y-95435510D01*
X199062072Y-95357900D01*
X199305744Y-95323801D01*
X199470145Y-95316788D01*
X199471435Y-95597640D01*
G37*
G36*
X203325166Y-96042894D02*
G01*
X203432121Y-96042894D01*
X203466372Y-96043104D01*
X203515077Y-96049117D01*
X203533330Y-96072238D01*
X203525362Y-96124044D01*
X203495401Y-96216114D01*
X203494623Y-96218394D01*
X203462638Y-96296848D01*
X203430002Y-96334561D01*
X203385801Y-96344296D01*
X203319876Y-96344296D01*
X203319876Y-97371804D01*
X203319876Y-98399312D01*
X203182875Y-98399312D01*
X203045874Y-98399312D01*
X203045874Y-97371804D01*
X203045874Y-96344296D01*
X202799272Y-96344296D01*
X202552670Y-96344296D01*
X202552670Y-97371804D01*
X202552670Y-98399312D01*
X202414961Y-98399312D01*
X202277252Y-98399312D01*
X202284810Y-96962788D01*
X202285195Y-96889888D01*
X202286897Y-96583744D01*
X202288603Y-96326796D01*
X202290509Y-96114434D01*
X202291464Y-96042894D01*
X202552670Y-96042894D01*
X203045874Y-96042894D01*
X203045874Y-95851092D01*
X203043144Y-95762357D01*
X203024289Y-95657134D01*
X202981788Y-95592029D01*
X202908997Y-95558921D01*
X202799272Y-95549690D01*
X202726670Y-95553026D01*
X202640578Y-95576071D01*
X202587311Y-95628017D01*
X202560223Y-95716984D01*
X202552670Y-95851092D01*
X202552670Y-96042894D01*
X202291464Y-96042894D01*
X202292809Y-95942049D01*
X202295698Y-95805030D01*
X202299370Y-95698767D01*
X202304021Y-95618651D01*
X202309846Y-95560072D01*
X202317038Y-95518420D01*
X202325794Y-95489085D01*
X202336307Y-95467457D01*
X202348772Y-95448926D01*
X202360193Y-95434084D01*
X202468881Y-95339846D01*
X202608340Y-95277651D01*
X202764707Y-95250161D01*
X202924119Y-95260036D01*
X203072714Y-95309938D01*
X203170692Y-95367995D01*
X203238396Y-95432727D01*
X203281012Y-95515689D01*
X203304713Y-95628939D01*
X203315671Y-95784535D01*
X203325166Y-96042894D01*
G37*
G36*
X193949002Y-95318814D02*
G01*
X193984254Y-95319246D01*
X194125971Y-95325978D01*
X194226947Y-95341547D01*
X194298472Y-95367528D01*
X194376026Y-95423316D01*
X194466424Y-95536507D01*
X194532149Y-95679431D01*
X194567547Y-95838743D01*
X194566961Y-96001098D01*
X194561083Y-96031342D01*
X194533305Y-96120237D01*
X194483429Y-96248444D01*
X194410510Y-96418211D01*
X194313599Y-96631784D01*
X194191750Y-96891411D01*
X194153507Y-96972095D01*
X194043654Y-97207094D01*
X193956816Y-97400003D01*
X193891496Y-97555956D01*
X193846199Y-97680084D01*
X193819429Y-97777518D01*
X193809689Y-97853390D01*
X193815483Y-97912833D01*
X193835315Y-97960977D01*
X193867690Y-98002955D01*
X193891622Y-98025899D01*
X193965897Y-98072605D01*
X194065851Y-98103218D01*
X194200924Y-98119986D01*
X194380555Y-98125157D01*
X194634007Y-98125310D01*
X194634007Y-98262311D01*
X194634007Y-98399312D01*
X194351278Y-98399312D01*
X194333329Y-98399265D01*
X194114580Y-98388698D01*
X193939201Y-98358256D01*
X193799283Y-98305919D01*
X193686914Y-98229668D01*
X193605231Y-98148598D01*
X193543670Y-98051670D01*
X193516606Y-97939476D01*
X193517119Y-97794268D01*
X193519417Y-97766374D01*
X193526754Y-97710666D01*
X193539769Y-97652294D01*
X193561125Y-97584625D01*
X193593485Y-97501021D01*
X193639511Y-97394849D01*
X193701867Y-97259474D01*
X193783214Y-97088259D01*
X193886217Y-96874570D01*
X193909708Y-96825937D01*
X194000244Y-96637128D01*
X194083484Y-96461433D01*
X194156073Y-96306074D01*
X194214657Y-96178276D01*
X194255882Y-96085263D01*
X194276394Y-96034258D01*
X194294179Y-95963839D01*
X194294061Y-95833510D01*
X194246837Y-95726333D01*
X194155593Y-95645645D01*
X194023418Y-95594785D01*
X193853401Y-95577090D01*
X193671997Y-95577090D01*
X193680349Y-95446939D01*
X193688700Y-95316788D01*
X193949002Y-95318814D01*
G37*
G36*
X192880393Y-96042894D02*
G01*
X192993419Y-96042894D01*
X193026939Y-96043111D01*
X193080180Y-96048950D01*
X193097192Y-96070572D01*
X193091314Y-96118244D01*
X193078152Y-96177377D01*
X193045076Y-96274936D01*
X193003730Y-96328163D01*
X192949572Y-96344296D01*
X192880393Y-96344296D01*
X192880393Y-97371804D01*
X192880393Y-98399312D01*
X192743392Y-98399312D01*
X192606391Y-98399312D01*
X192606391Y-97371804D01*
X192606391Y-96344296D01*
X192373490Y-96344296D01*
X192140588Y-96344296D01*
X192140588Y-97371804D01*
X192140588Y-98399312D01*
X192003587Y-98399312D01*
X191866586Y-98399312D01*
X191866688Y-96967651D01*
X191866778Y-96660191D01*
X191867118Y-96391501D01*
X191867871Y-96168467D01*
X191868788Y-96042894D01*
X192140588Y-96042894D01*
X192606391Y-96042894D01*
X192606391Y-95824656D01*
X192606378Y-95811386D01*
X192604202Y-95703983D01*
X192596433Y-95637611D01*
X192580390Y-95599793D01*
X192553392Y-95578054D01*
X192480673Y-95556456D01*
X192378118Y-95550936D01*
X192276455Y-95563248D01*
X192201485Y-95592344D01*
X192199143Y-95594001D01*
X192168257Y-95622911D01*
X192150544Y-95663890D01*
X192142491Y-95731161D01*
X192140588Y-95838946D01*
X192140588Y-96042894D01*
X191868788Y-96042894D01*
X191869200Y-95986436D01*
X191871270Y-95840759D01*
X191874245Y-95726784D01*
X191878288Y-95639863D01*
X191883564Y-95575343D01*
X191890237Y-95528574D01*
X191898471Y-95494906D01*
X191908429Y-95469688D01*
X191920277Y-95448269D01*
X191990170Y-95361809D01*
X192082758Y-95304055D01*
X192207201Y-95272275D01*
X192373490Y-95262370D01*
X192426331Y-95262740D01*
X192538225Y-95269328D01*
X192618459Y-95286373D01*
X192683634Y-95316788D01*
X192737474Y-95352992D01*
X192807148Y-95422882D01*
X192851017Y-95511776D01*
X192873843Y-95631199D01*
X192880393Y-95792676D01*
X192880393Y-96042894D01*
G37*
G36*
X190112972Y-95604490D02*
G01*
X190112972Y-96851200D01*
X190112972Y-98399312D01*
X189818419Y-98398987D01*
X189754907Y-98398152D01*
X189606555Y-98390820D01*
X189474022Y-98377359D01*
X189376767Y-98359510D01*
X189331308Y-98346600D01*
X189080470Y-98243200D01*
X188858045Y-98094684D01*
X188667600Y-97904499D01*
X188512701Y-97676091D01*
X188396915Y-97412905D01*
X188380082Y-97357015D01*
X188363335Y-97274011D01*
X188352765Y-97172337D01*
X188347247Y-97039973D01*
X188345658Y-96864900D01*
X188345746Y-96842548D01*
X188633360Y-96842548D01*
X188633781Y-96886630D01*
X188657051Y-97145805D01*
X188718027Y-97371631D01*
X188819657Y-97572232D01*
X188964892Y-97755731D01*
X189125158Y-97898030D01*
X189325590Y-98012569D01*
X189557285Y-98084991D01*
X189655749Y-98104573D01*
X189740787Y-98119107D01*
X189791019Y-98124834D01*
X189802232Y-98122264D01*
X189811590Y-98111188D01*
X189819216Y-98086978D01*
X189825285Y-98045003D01*
X189829972Y-97980634D01*
X189833456Y-97889242D01*
X189835911Y-97766197D01*
X189837513Y-97606870D01*
X189838440Y-97406631D01*
X189838866Y-97160851D01*
X189838970Y-96864900D01*
X189838970Y-95604490D01*
X189677454Y-95604490D01*
X189592436Y-95609699D01*
X189459943Y-95629831D01*
X189336468Y-95659924D01*
X189278290Y-95680221D01*
X189092519Y-95780901D01*
X188934448Y-95924875D01*
X188806786Y-96107584D01*
X188712245Y-96324472D01*
X188653533Y-96570979D01*
X188633360Y-96842548D01*
X188345746Y-96842548D01*
X188346172Y-96734172D01*
X188349257Y-96604233D01*
X188356685Y-96503625D01*
X188370200Y-96418038D01*
X188391545Y-96333165D01*
X188422465Y-96234695D01*
X188429159Y-96214731D01*
X188535869Y-95964223D01*
X188671902Y-95756302D01*
X188839581Y-95589476D01*
X189041229Y-95462254D01*
X189279169Y-95373144D01*
X189555725Y-95320655D01*
X189873220Y-95303295D01*
X190112972Y-95303088D01*
X190112972Y-95604490D01*
G37*
G36*
X196347681Y-95569423D02*
G01*
X196353599Y-96858050D01*
X196360677Y-98399312D01*
X196223448Y-98399312D01*
X196086219Y-98399312D01*
X196086219Y-98084210D01*
X196086195Y-98053556D01*
X196085007Y-97926948D01*
X196081030Y-97844276D01*
X196072897Y-97796464D01*
X196059237Y-97774434D01*
X196038680Y-97769107D01*
X196019612Y-97777373D01*
X195963936Y-97818339D01*
X195882691Y-97887752D01*
X195783447Y-97979044D01*
X195673775Y-98085647D01*
X195356408Y-98402187D01*
X195182777Y-98393900D01*
X195009147Y-98385612D01*
X195344040Y-98037274D01*
X195678934Y-97688936D01*
X195551522Y-97629045D01*
X195466268Y-97583235D01*
X195290688Y-97448798D01*
X195140931Y-97278582D01*
X195022414Y-97082600D01*
X194940552Y-96870866D01*
X194900762Y-96653394D01*
X194905946Y-96509850D01*
X195164314Y-96509850D01*
X195170791Y-96712100D01*
X195217235Y-96904375D01*
X195302345Y-97079990D01*
X195424819Y-97232260D01*
X195583355Y-97354499D01*
X195776651Y-97440022D01*
X195869560Y-97467138D01*
X195945695Y-97486390D01*
X195986354Y-97492942D01*
X195993950Y-97492394D01*
X196018874Y-97488737D01*
X196038850Y-97478483D01*
X196054425Y-97456278D01*
X196066146Y-97416765D01*
X196074561Y-97354588D01*
X196080218Y-97264391D01*
X196083665Y-97140818D01*
X196085449Y-96978512D01*
X196086118Y-96772119D01*
X196086219Y-96516281D01*
X196086219Y-95569423D01*
X195939014Y-95584616D01*
X195771583Y-95620402D01*
X195611290Y-95701689D01*
X195463579Y-95832359D01*
X195397709Y-95910101D01*
X195276472Y-96102165D01*
X195199107Y-96304310D01*
X195164314Y-96509850D01*
X194905946Y-96509850D01*
X194908461Y-96440197D01*
X194924529Y-96352035D01*
X195002233Y-96081188D01*
X195115572Y-95847594D01*
X195262601Y-95653459D01*
X195441377Y-95500989D01*
X195649958Y-95392391D01*
X195886400Y-95329870D01*
X195991159Y-95316944D01*
X196114574Y-95308350D01*
X196213262Y-95308310D01*
X196346521Y-95316788D01*
X196347681Y-95569423D01*
G37*
G36*
X200561734Y-95467489D02*
G01*
X200569446Y-95484127D01*
X200611340Y-95575831D01*
X200667372Y-95699840D01*
X200731155Y-95841985D01*
X200796307Y-95988093D01*
X200960676Y-96357996D01*
X201209797Y-95840804D01*
X201234513Y-95789647D01*
X201306823Y-95641846D01*
X201370060Y-95515317D01*
X201420614Y-95417114D01*
X201454872Y-95354296D01*
X201469224Y-95333918D01*
X201469760Y-95335570D01*
X201477298Y-95374310D01*
X201492502Y-95459910D01*
X201514390Y-95586471D01*
X201541980Y-95748091D01*
X201574291Y-95938870D01*
X201610342Y-96152908D01*
X201649150Y-96384303D01*
X201689734Y-96627154D01*
X201731112Y-96875561D01*
X201772302Y-97123623D01*
X201812323Y-97365440D01*
X201850193Y-97595110D01*
X201884930Y-97806733D01*
X201915553Y-97994408D01*
X201941079Y-98152235D01*
X201960528Y-98274312D01*
X201972917Y-98354738D01*
X201977265Y-98387614D01*
X201966188Y-98392578D01*
X201914303Y-98396018D01*
X201834297Y-98393894D01*
X201691329Y-98385612D01*
X201522994Y-97342101D01*
X201515670Y-97296734D01*
X201478274Y-97066138D01*
X201443460Y-96853157D01*
X201412242Y-96663876D01*
X201385632Y-96504376D01*
X201364645Y-96380739D01*
X201350293Y-96299049D01*
X201343591Y-96265388D01*
X201342357Y-96263788D01*
X201321338Y-96281286D01*
X201280072Y-96337561D01*
X201223886Y-96424865D01*
X201158100Y-96535445D01*
X201149304Y-96550713D01*
X201082951Y-96664171D01*
X201026314Y-96758157D01*
X200985157Y-96823266D01*
X200965244Y-96850096D01*
X200962862Y-96849822D01*
X200938490Y-96821329D01*
X200895051Y-96754920D01*
X200837879Y-96659101D01*
X200772310Y-96542382D01*
X200597809Y-96223276D01*
X200391685Y-97311294D01*
X200185560Y-98399312D01*
X200040205Y-98399312D01*
X199983193Y-98398760D01*
X199919770Y-98396273D01*
X199895281Y-98392462D01*
X199898382Y-98375831D01*
X199910962Y-98310225D01*
X199932349Y-98199320D01*
X199961614Y-98047912D01*
X199997830Y-97860798D01*
X200040066Y-97642774D01*
X200087396Y-97398636D01*
X200138891Y-97133179D01*
X200193623Y-96851200D01*
X200491531Y-95316788D01*
X200561734Y-95467489D01*
G37*
%TO.C,R20*%
X198060702Y-93229731D02*
X198060702Y-93537013D01*
X197300702Y-93229731D02*
X197300702Y-93537013D01*
%TO.C,R16*%
X196263750Y-80606141D02*
X196263750Y-80298859D01*
X197023750Y-80606141D02*
X197023750Y-80298859D01*
%TO.C,R15*%
X198057500Y-85594891D02*
X198057500Y-85287609D01*
X198817500Y-85594891D02*
X198817500Y-85287609D01*
%TO.C,C8*%
X93189846Y-96415914D02*
X93189846Y-96631586D01*
X92469846Y-96415914D02*
X92469846Y-96631586D01*
%TO.C,R14*%
X190707500Y-85594891D02*
X190707500Y-85287609D01*
X191467500Y-85594891D02*
X191467500Y-85287609D01*
%TO.C,R4*%
X131402609Y-83018811D02*
X131709891Y-83018811D01*
X131402609Y-83778811D02*
X131709891Y-83778811D01*
%TO.C,C4*%
X94277736Y-96248997D02*
X94277736Y-96464669D01*
X93557736Y-96248997D02*
X93557736Y-96464669D01*
%TO.C,R12*%
X97198624Y-83036083D02*
X97198624Y-83343365D01*
X96438624Y-83036083D02*
X96438624Y-83343365D01*
%TO.C,U1*%
X95005668Y-88465000D02*
X95005668Y-88915000D01*
X95005668Y-95235000D02*
X93715668Y-95235000D01*
X95005668Y-95685000D02*
X95005668Y-95235000D01*
X95455668Y-88465000D02*
X95005668Y-88465000D01*
X95455668Y-95685000D02*
X95005668Y-95685000D01*
X101775668Y-88465000D02*
X102225668Y-88465000D01*
X101775668Y-95685000D02*
X102225668Y-95685000D01*
X102225668Y-88465000D02*
X102225668Y-88915000D01*
X102225668Y-95685000D02*
X102225668Y-95235000D01*
%TO.C,R7*%
X50213750Y-71874891D02*
X50213750Y-71567609D01*
X50973750Y-71874891D02*
X50973750Y-71567609D01*
%TO.C,R18*%
X195436250Y-93792609D02*
X195436250Y-94099891D01*
X194676250Y-93792609D02*
X194676250Y-94099891D01*
%TO.C,C6*%
X102716333Y-87384612D02*
X102932005Y-87384612D01*
X102716333Y-88104612D02*
X102932005Y-88104612D01*
%TO.C,C11*%
X50387836Y-67828750D02*
X50172164Y-67828750D01*
X50387836Y-67108750D02*
X50172164Y-67108750D01*
%TD*%
M02*
