%TF.GenerationSoftware,KiCad,Pcbnew,(7.0.0)*%
%TF.CreationDate,2024-01-19T21:38:11+01:00*%
%TF.ProjectId,ampersand,616d7065-7273-4616-9e64-2e6b69636164,rev?*%
%TF.SameCoordinates,Original*%
%TF.FileFunction,Profile,NP*%
%FSLAX46Y46*%
G04 Gerber Fmt 4.6, Leading zero omitted, Abs format (unit mm)*
G04 Created by KiCad (PCBNEW (7.0.0)) date 2024-01-19 21:38:11*
%MOMM*%
%LPD*%
G01*
G04 APERTURE LIST*
%TA.AperFunction,Profile*%
%ADD10C,0.070555*%
%TD*%
G04 APERTURE END LIST*
D10*
X257969752Y-100806603D02*
X262733976Y-100806604D01*
X274637350Y-26986242D02*
G75*
G03*
X272257330Y-24606250I-2379050J942D01*
G01*
X138906724Y-24606250D02*
G75*
G03*
X143667556Y-24606249I2380416J-350D01*
G01*
X17461840Y-98426610D02*
X17461151Y-26986242D01*
X50799497Y-98425354D02*
G75*
G03*
X53181338Y-100806603I2382203J954D01*
G01*
X50799496Y-98425354D02*
X50800659Y-84136501D01*
X19841144Y-24604400D02*
X34131250Y-24606250D01*
X267494824Y-100806603D02*
G75*
G03*
X262733976Y-100806604I-2380424J303D01*
G01*
X272257330Y-100805923D02*
G75*
G03*
X274637323Y-98424070I-930J2380923D01*
G01*
X253207325Y-24606250D02*
G75*
G03*
X257968075Y-24606249I2380375J-350D01*
G01*
X255587897Y-98426610D02*
G75*
G03*
X257969752Y-100806603I2380903J910D01*
G01*
X38891236Y-81754653D02*
G75*
G03*
X36511243Y-84136502I924J-2380917D01*
G01*
X24607899Y-100806604D02*
X19843682Y-100806910D01*
X19841144Y-24604401D02*
G75*
G03*
X17461151Y-26986242I916J-2380909D01*
G01*
X255589089Y-84136502D02*
X255587910Y-98426610D01*
X34131242Y-24606250D02*
G75*
G03*
X38892078Y-24606249I2380418J-350D01*
G01*
X38892078Y-24606249D02*
X138906728Y-24606250D01*
X241299662Y-84136502D02*
X241299662Y-98424761D01*
X34131251Y-100805910D02*
G75*
G03*
X36512500Y-98424070I-921J2382170D01*
G01*
X274637323Y-98424070D02*
X274637324Y-26986242D01*
X224632112Y-100806603D02*
X238919669Y-100806603D01*
X72231421Y-100806603D02*
G75*
G03*
X67470599Y-100806604I-2380411J353D01*
G01*
X36511243Y-84136502D02*
X36512500Y-98424070D01*
X67470599Y-100806604D02*
X53181338Y-100806603D01*
X243679655Y-81754662D02*
G75*
G03*
X241299662Y-84136502I945J-2380938D01*
G01*
X143667556Y-24606249D02*
X253207247Y-24606250D01*
X257968075Y-24606249D02*
X272257330Y-24606250D01*
X255589091Y-84136502D02*
G75*
G03*
X253207247Y-81756509I-2380891J-898D01*
G01*
X243679655Y-81754660D02*
X253207247Y-81756509D01*
X238919669Y-100806662D02*
G75*
G03*
X241299662Y-98424761I-969J2380962D01*
G01*
X224632116Y-100806603D02*
G75*
G03*
X219871284Y-100806604I-2380416J303D01*
G01*
X267494804Y-100806603D02*
X272257330Y-100805912D01*
X50800592Y-84136501D02*
G75*
G03*
X48418817Y-81756508I-2380892J-899D01*
G01*
X219871284Y-100806604D02*
X72231427Y-100806603D01*
X48418817Y-81756508D02*
X38891236Y-81754660D01*
X29368721Y-100806603D02*
G75*
G03*
X24607899Y-100806604I-2380411J353D01*
G01*
X17461841Y-98426610D02*
G75*
G03*
X19843682Y-100806910I2381909J1610D01*
G01*
X29368727Y-100806603D02*
X34131251Y-100805912D01*
M02*
