M48
; DRILL file {KiCad (7.0.0)} date Fri Jan 19 21:38:11 2024
; FORMAT={-:-/ absolute / inch / decimal}
; #@! TF.CreationDate,2024-01-19T21:38:11+01:00
; #@! TF.GenerationSoftware,Kicad,Pcbnew,(7.0.0)
; #@! TF.FileFunction,NonPlated,1,2,NPTH
FMAT,2
INCH
; #@! TA.AperFunction,NonPlated,NPTH,ComponentDrill
T1C0.0866
%
G90
G05
T1
X0.7812Y-2.0938
X0.9688Y-2.8438
X1.4375Y-1.3442
X2.375Y-2.0942
X2.75Y-2.8438
X2.9375Y-1.3438
X3.5625Y-3.5938
X3.875Y-2.0938
X4.4375Y-1.3442
X5.0Y-2.8438
X5.1875Y-3.5938
X5.375Y-2.0937
X6.3125Y-3.5938
X6.5Y-2.8438
X6.6875Y-1.3438
X6.875Y-2.0938
X7.9375Y-3.5945
X8.1875Y-1.3438
X8.375Y-2.0938
X8.75Y-2.8438
X9.8125Y-1.3438
X10.5312Y-2.8438
X10.75Y-1.3438
T0
M30
